/* XPM */
static char *p_back_41670187211[] = {
/* columns rows colors chars-per-pixel */
"59 128 142 2 ",
"   c None",
".  c black",
"X  c #0C0C0C",
"o  c #140E03",
"O  c #151003",
"+  c #1D1604",
"@  c #1E1803",
"#  c #151515",
"$  c #1C1A12",
"%  c #1D1D1D",
"&  c #241B05",
"*  c #382B08",
"=  c #26221A",
"-  c #242424",
";  c #2B2B2B",
":  c #363636",
">  c #3B3B3B",
",  c #45340A",
"<  c #5D460D",
"1  c #5F490C",
"2  c #654C0E",
"3  c #6A500E",
"4  c #614D19",
"5  c #6E5410",
"6  c #705510",
"7  c #7C5E12",
"8  c #6E603D",
"9  c #434343",
"0  c #4A4A4A",
"q  c #5E594E",
"w  c #565656",
"e  c #5C5B5B",
"r  c #666666",
"t  c #6C6C6C",
"y  c #716E6E",
"u  c #7F7A6F",
"i  c #767676",
"p  c #787777",
"a  c #7B7A7A",
"s  c #8D6B16",
"d  c #957115",
"f  c #A07917",
"g  c #A47C18",
"h  c #A87F19",
"j  c #9E7E2E",
"k  c #877E67",
"l  c #AC8219",
"z  c #B1861B",
"x  c #B5891B",
"c  c #BB8D1C",
"v  c #BF911D",
"b  c #B48B26",
"n  c #A28332",
"m  c #AF8B31",
"M  c #AF8D3C",
"N  c #C5951E",
"B  c #CD9B1F",
"V  c #D5A01F",
"C  c #CE9B20",
"Z  c #C49728",
"A  c #C49C37",
"S  c #D6A221",
"D  c #D9A421",
"F  c #DEA822",
"G  c #D8A72F",
"H  c #D2A22B",
"J  c #D6A837",
"K  c #DBAD3C",
"L  c #E5AD24",
"P  c #EAB125",
"I  c #A78B45",
"U  c #A0894F",
"Y  c #AE985E",
"T  c #B0995F",
"R  c #85837C",
"E  c #B09960",
"W  c #B7A576",
"Q  c #B9A574",
"!  c #B8A678",
"~  c #DBB351",
"^  c #D4B05A",
"/  c #E0B958",
"(  c #D7B767",
")  c #D8B767",
"_  c #C7B27C",
"`  c #C9B37C",
"'  c #D1B97D",
"]  c #DABD74",
"[  c #818181",
"{  c #8A8989",
"}  c #949494",
"|  c #9A9A9A",
" . c #A29F9F",
".. c #A4A3A3",
"X. c #A9A5A5",
"o. c #AAAAAA",
"O. c #B2AFAF",
"+. c #BDB8AD",
"@. c #B3B1B1",
"#. c #BEBEBE",
"$. c #C1B189",
"%. c #CFBD8D",
"&. c #C1B491",
"*. c #C0B9A8",
"=. c #E9CC82",
"-. c #ECD18F",
";. c #EAD090",
":. c #EDD69D",
">. c #C9C0A6",
",. c #CAC1A9",
"<. c #D7C9A7",
"1. c #D8CAA7",
"2. c #D9CEB1",
"3. c #D0C9BA",
"4. c #EAD9B2",
"5. c #F1DFB3",
"6. c #C1C1C1",
"7. c #CACACA",
"8. c #D2CEC2",
"9. c #D6D6D6",
"0. c #D8D6D1",
"q. c #DBDBDB",
"w. c #E0D7C0",
"e. c #E5DBC5",
"r. c #E0DDD2",
"t. c #F4E5C1",
"y. c #F6E9C7",
"u. c #F1EADA",
"i. c #F8F0DB",
"p. c #E3E3E3",
"a. c #E9E6E1",
"s. c #EFECE4",
"d. c #EAEAEA",
"f. c #F2EDE2",
"g. c #F0EFEF",
"h. c #FAF4E3",
"j. c #F6F3ED",
"k. c #FCF8EF",
"l. c #F4F4F4",
"z. c #F8F7F2",
"x. c #FDFBF5",
"c. c #FFFFFF",
/* pixels */
"                                                                                                                      ",
"                          q.q.q.q.q.q.q.q.q.q.q.q.q.q.q.q.q.q.q.q.q.q.q.q.q.q.q.                                      ",
"                        . q.q.q.q.q.q.q.q.q.q.q.q.q.q.q.q.q.q.q.q.q.q.9.q.q.q.q. .                                    ",
"                      9 : p.p.p.p.p.p.p.p.p.p.p.p.p.p.p.p.p.p.p.p.p.p.p.p.d.p.p...9                                   ",
"                    q.q.9.c.c.c.c.c.c.c.c.c.c.c.c.c.c.c.c.c.c.c.c.c.c.c.c.c.c.c.g.q.q.                                ",
"                  . q.q.q.c.c.c.c.c.c.c.c.c.c.c.c.c.c.c.c.c.c.c.c.c.c.c.c.c.c.c.g.q.q.|                               ",
"              ; % % p.q.p.c.c.c.c.c.c.c.c.c.c.c.c.c.c.c.c.c.c.c.c.c.c.c.c.c.c.c.l.p.q.| % -                           ",
"            - q.q.9.c.c.c.c.l.c.c.c.c.c.c.c.c.c.c.c.c.c.c.c.c.c.c.c.c.c.c.c.l.c.c.c.c.l.q.q.@.                        ",
"          . % q.q.q.c.c.c.x.x.c.c.c.c.c.c.c.c.c.c.c.c.c.c.c.c.c.c.c.c.c.c.c.c.c.c.c.c.l.q.q.o..                       ",
"        - % : p.p.q.c.c.c.z.x.c.c.c.c.c.c.c.c.c.c.c.c.c.c.c.c.c.c.c.c.c.c.c.z.c.c.c.c.d.q.p.@.- -                     ",
"        q.q.q.c.c.c.c.c.c.c.c.c.c.c.c.c.c.c.c.c.c.c.c.c.c.c.c.c.c.c.c.c.c.c.c.c.c.z.c.c.c.c.l.q.q.                    ",
"      ; q.q.p.c.c.c.l.c.c.c.c.c.c.c.c.c.c.c.c.c.c.c.c.c.c.c.c.c.c.c.c.c.c.c.c.c.c.x.c.c.c.c.l.q.q.#.                  ",
"      - q.q.p.c.c.c.c.c.c.c.c.c.c.c.c.c.c.c.c.c.c.c.c.c.c.c.c.c.c.c.c.c.c.c.c.c.c.x.c.x.c.c.l.9.q.@.                  ",
"      - q.q.q.c.c.c.c.c.c.c.c.c.c.c.c.c.c.c.c.c.c.c.c.c.c.c.c.c.c.c.c.c.c.c.c.c.c.c.c.c.c.l.l.q.q.O..                 ",
"    . % q.q.p.c.c.c.c.c.c.c.c.c.c.c.c.c.c.c.c.c.c.c.c.c.c.c.c.c.c.c.c.c.c.c.c.c.c.c.c.c.c.c.l.q.q.o..                 ",
"  - % : p.q.p.c.c.c.c.c.c.c.c.c.c.c.c.c.c.c.c.c.c.c.c.c.c.c.c.c.c.c.c.c.c.c.c.c.c.c.c.c.c.c.l.p.p.@.% %               ",
"  q.q.p.c.c.c.c.c.c.c.c.c.c.c.c.c.c.c.c.c.c.c.c.c.c.c.c.c.c.c.c.c.c.c.c.c.c.c.c.c.c.c.c.c.c.c.c.c.l.q.q.9.            ",
"  q.q.q.c.c.c.c.c.c.c.c.c.c.c.c.c.c.c.c.c.c.c.c.c.c.c.c.c.c.c.c.c.c.c.c.c.c.c.c.c.c.c.c.c.c.c.c.c.l.q.q.9.            ",
"  q.q.p.c.c.c.c.c.c.c.c.c.c.c.c.c.c.c.c.c.c.c.c.c.c.c.c.c.c.c.c.c.c.c.c.c.c.c.c.c.c.c.c.c.c.c.c.c.l.q.q.9.            ",
"  q.q.q.c.c.c.c.c.c.c.c.c.c.c.c.c.c.c.c.c.c.c.c.c.c.c.c.c.c.c.c.c.c.c.c.c.c.c.c.c.c.c.c.c.c.c.c.c.l.q.q.9.            ",
"  q.q.q.c.c.c.c.c.c.c.c.c.c.c.c.c.c.c.c.c.c.c.c.c.c.c.c.c.c.c.c.c.c.c.c.c.c.c.c.c.c.c.c.c.c.c.c.c.c.q.q.q.            ",
"  q.q.p.c.c.c.c.c.c.c.c.c.c.c.c.c.c.c.c.c.c.c.c.c.c.c.c.c.c.c.c.c.c.c.c.c.c.c.c.c.c.c.c.c.c.c.c.c.l.q.q.9.            ",
"  q.q.q.c.c.c.c.c.c.c.c.c.c.c.c.c.c.c.c.c.c.c.c.c.c.c.c.c.c.c.c.c.c.c.c.c.c.c.c.c.c.c.c.c.c.c.c.c.l.9.q.9.            ",
"  q.q.p.c.c.c.c.c.c.c.c.c.c.c.c.c.c.c.c.c.c.c.c.c.c.c.c.c.c.c.c.c.c.c.c.c.c.c.c.c.c.c.c.c.c.c.c.c.l.q.q.9.            ",
"  q.q.p.c.c.c.c.c.c.c.c.c.c.c.c.c.c.c.c.c.c.c.c.c.c.c.c.c.c.c.c.c.c.c.c.c.c.c.c.c.c.c.c.c.c.c.c.c.l.q.q.9.            ",
"  q.q.q.c.c.c.c.c.c.c.c.c.c.c.c.c.c.c.c.c.c.c.c.c.c.c.c.c.c.c.c.c.c.c.c.c.c.c.c.c.c.c.c.c.c.c.c.c.l.q.9.9.            ",
"  q.q.p.c.c.c.c.c.c.c.c.c.c.c.c.c.c.c.c.c.c.c.c.c.c.c.c.c.c.c.c.c.c.c.c.c.c.c.c.c.c.c.c.c.c.c.c.c.c.q.q.9.            ",
"  q.q.q.c.c.c.c.c.c.c.c.c.c.c.c.c.c.c.c.c.c.c.c.c.c.c.c.c.c.c.c.c.c.c.c.c.c.c.c.c.c.c.c.c.c.c.c.c.l.q.q.q.            ",
"  q.q.p.c.c.c.c.c.c.c.c.c.c.c.c.c.c.c.c.c.c.c.c.c.c.c.c.c.c.c.c.c.c.c.c.c.c.c.c.c.c.c.c.c.c.c.c.c.l.q.q.9.            ",
"t q.q.q.c.c.c.c.c.c.c.c.c.c.c.c.c.c.c.c.c.c.c.c.c.c.c.c.c.c.c.c.c.c.c.c.c.c.c.c.c.c.c.c.c.c.c.c.c.l.q.q.9.            ",
"t q.q.p.c.c.c.c.c.c.c.c.c.c.c.c.c.c.c.c.c.c.c.c.c.c.c.c.c.c.c.c.c.c.c.c.c.c.c.c.c.c.c.c.c.c.c.c.c.l.q.q.9.            ",
"r q.q.q.c.c.c.c.c.c.c.c.c.c.c.c.c.c.c.c.c.c.c.c.c.c.c.c.c.c.c.c.c.c.c.c.c.c.c.c.c.c.c.c.c.c.c.c.c.l.q.q.q.            ",
"r q.q.q.c.c.c.c.c.c.c.c.c.c.c.c.c.c.c.c.c.c.c.c.c.c.c.c.c.c.c.c.c.c.c.c.c.c.c.c.c.c.c.c.c.c.c.c.c.l.q.q.9.            ",
"r q.q.q.c.c.c.c.c.c.c.c.c.c.c.c.c.c.c.c.c.c.c.c.c.c.c.c.c.c.c.c.c.c.c.c.c.c.c.c.c.c.c.c.c.c.c.c.c.c.q.q.9.            ",
"e q.q.p.c.c.c.c.c.c.c.c.c.c.c.c.c.c.c.c.c.c.c.c.c.c.c.c.c.c.c.c.c.c.c.c.c.c.c.c.c.c.c.c.c.c.c.c.c.l.q.q.9.            ",
"e q.q.q.c.c.c.c.c.c.c.c.c.c.c.c.c.c.c.c.c.c.c.c.c.c.c.c.c.c.c.c.c.c.c.c.c.c.c.c.c.c.c.c.c.c.c.c.c.l.q.q.9.            ",
"e q.q.q.c.c.c.c.c.c.c.c.c.c.c.c.c.c.c.c.c.c.c.c.c.c.c.c.c.c.c.c.c.c.c.c.c.c.c.c.c.c.c.c.c.c.c.c.c.l.q.q.9.            ",
"r q.q.p.c.c.c.c.c.c.c.c.c.c.c.c.c.c.c.c.c.c.c.c.c.c.c.c.c.c.c.c.c.c.c.c.c.c.c.c.c.c.c.c.c.c.c.c.c.z.q.q.9.            ",
"e q.q.q.c.c.c.c.c.c.c.c.c.c.c.c.c.c.c.c.c.c.c.c.c.c.c.c.c.c.c.c.c.c.c.c.c.c.c.c.c.c.c.c.c.c.c.c.c.l.q.q.9.            ",
"e q.q.q.c.c.c.c.c.c.c.c.c.c.c.c.c.c.c.c.c.c.c.c.c.c.c.c.c.c.c.c.c.c.c.c.c.c.c.c.c.c.c.c.c.c.c.c.c.l.q.q.9.            ",
"e q.q.p.c.c.c.c.c.c.c.c.c.c.c.c.c.c.c.c.c.c.c.c.c.c.c.c.c.c.c.c.c.c.c.c.c.c.c.c.c.c.c.c.c.c.c.c.c.l.q.q.9.            ",
"  q.q.q.c.c.c.c.c.c.c.c.c.c.c.c.c.c.c.c.c.c.c.c.c.c.c.c.c.c.c.c.c.c.c.c.c.c.c.c.c.c.c.c.c.c.c.c.c.l.q.q.9.            ",
"  q.q.p.c.c.c.c.c.c.c.c.c.c.c.c.c.c.c.c.c.c.c.c.c.c.c.c.c.c.c.c.c.c.c.c.c.c.c.c.c.c.c.c.c.c.c.c.c.l.q.q.9.            ",
"  ; % : p.q.p.c.c.c.c.c.c.c.c.c.c.c.c.c.c.c.c.c.c.c.c.c.c.c.c.c.c.c.c.c.c.c.c.c.c.c.c.c.c.c.l.p.p...% % -             ",
"      - q.q.q.c.c.c.c.c.c.c.c.c.c.c.c.c.c.c.c.c.c.c.c.c.c.c.c.c.c.c.c.c.c.c.c.c.c.c.c.c.c.c.l.q.q.... . .             ",
"      ; q.q.p.c.c.c.c.c.c.c.c.c.c.c.c.c.c.c.c.c.c.c.c.c.c.c.c.c.c.c.c.c.c.c.c.c.c.c.c.c.c.c.l.q.q.... . .             ",
"          9 0 p.p.p.c.c.c.c.c.c.c.c.c.c.c.c.c.c.c.c.c.c.c.c.c.c.c.c.c.c.c.c.c.c.c.c.c.l.p.p.#.: : ; . .               ",
"            - q.q.q.c.c.c.c.c.c.c.c.c.c.c.c.c.c.c.c.c.c.c.c.c.c.c.c.c.c.c.c.c.c.c.c.c.l.q.q.... . . . .               ",
"            : q.q.q.c.c.c.c.c.c.c.c.c.c.c.c.c.c.c.c.c.c.c.c.c.c.c.c.c.c.c.c.c.c.c.c.c.g.q.q.... . . . . .             ",
"              : : : p.p.p.c.c.c.c.c.c.c.c.c.c.c.c.c.c.c.c.c.c.c.c.c.c.c.c.c.c.c.l.p.p.p.q.q.*.6 6 7 h d l             ",
"              . . . q.q.q.c.c.c.c.c.c.c.c.c.c.c.c.c.c.c.c.c.c.c.c.c.c.c.c.c.c.c.g.q.q.q.q.q.*.d d g S S N             ",
"              . . . q.q.q.c.c.c.c.c.c.c.c.c.c.c.c.c.c.c.c.c.c.c.c.c.c.c.c.c.c.c.g.q.q.q.q.q.,.d d l S S v .           ",
"              f f f I I I p.p.p.p.p.p.p.p.p.p.p.p.p.p.p.p.p.p.p.p.p.p.p.p.p.p.p.#.p p k I I M N Z C L L D h z         ",
"            & S S S d d d q.q.q.q.q.q.q.q.q.q.q.q.q.q.q.q.q.q.q.q.q.q.q.q.q.q.q.o.w w 8 d d h S V F P P L S V B       ",
"          . + S S S d d d q.q.q.q.q.q.q.q.q.q.q.q.q.q.q.q.q.q.q.q.q.q.q.q.q.q.q...w w 8 d d g S V F P P L S S v .     ",
"        z h z L L L N N Z I I I u p p p p p p p p p p p p p p p p p p p p p p p } 9.9.&.d d h L L L D D F L L S l x   ",
"      & S S S P P P S S S d d d q w w w w w w w w w w w w w w w w w w w w w w w } c.c.<.d d l P P L V S D P P P S S S ",
"    . + S S D P P P S S S d d d q w w w w w w w w w w w w w w w w w w w w w w w } c.c.<.d d l P P L S S D P P L S S S ",
"  d s d L L L F F F L F L d d d +.6.6.6.#.6.6.6.6.6.6.6.#.6.6.6.6.6.6.6.#.6.6.6.9.c.c.f.<.<.` x x c S S D P P L l l l ",
"  S S D P P L S S S P P P d d d s.c.c.c.c.c.c.c.c.c.c.c.c.c.c.c.c.c.c.c.c.c.c.c.c.c.c.c.c.c.e.d d h S S D P P F d d d ",
"< S S D P P L S S S P P P d d d f.c.c.c.c.c.c.c.c.c.c.c.c.c.c.c.c.c.c.c.c.c.c.c.c.c.c.c.c.c.e.d d h S S D P P F d d d ",
", l l x P P L S S S x x x <.<.<.j.c.c.c.c.c.c.c.c.c.c.c.c.c.c.c.c.c.c.c.c.c.c.c.c.c.c.l.d.p.a.<.<._ l l l x x b &.&.&.",
"  d d h P P L S S S d d d c.c.c.c.c.c.c.c.c.c.c.c.c.c.c.c.c.c.c.c.c.c.c.c.c.c.c.c.c.c.l.q.q.p.c.c.e.d d d d d j q.q.9.",
"  d d d P P P S S S d d d c.c.c.c.c.c.c.c.c.c.c.c.c.c.c.c.c.c.c.c.c.c.c.c.c.c.c.c.c.c.l.q.q.p.c.c.e.d d d d d j q.q.q.",
"    * , x x x l l l <.<.<.c.c.c.c.c.c.c.c.c.c.c.c.c.c.c.c.c.c.c.c.c.c.c.c.c.c.c.l.d.d.o.w w a d.d.a.<.<.<.<.<.2.q.q.q.",
"    . o d d d d d d c.c.c.c.c.c.c.c.c.c.c.c.c.c.c.c.c.c.c.c.c.c.c.c.c.c.c.c.c.c.l.q.q.{ . . : q.q.p.c.c.c.c.c.z.q.q.q.",
"    . O d d d d d d c.c.c.c.c.c.c.c.c.c.c.c.c.c.c.c.c.c.c.c.c.c.c.c.c.c.c.c.c.c.g.q.q.{ . . : q.q.p.c.c.c.c.c.c.q.q.q.",
"      $ &.$.&.<.<.<.c.c.c.d.d.p.c.c.c.c.c.c.c.c.c.c.c.c.c.c.c.c.c.c.c.c.c.c.c.c.g.q.q.{ . . : q.q.p.c.c.c.c.c.j.Y Y Y ",
"      - q.q.q.c.c.c.c.c.c.q.q.q.c.c.c.c.c.c.c.c.c.c.c.c.c.c.c.c.c.c.c.c.c.c.c.c.l.q.q.{ . . : q.q.p.c.c.c.c.c.f.d d d ",
"      ; q.q.p.c.c.c.c.c.c.q.q.q.c.c.c.c.c.c.c.c.c.c.c.c.c.c.c.c.c.c.c.c.c.c.c.c.g.q.q.{ . . > q.q.p.c.c.c.c.c.f.d d d ",
"      = T T Q c.c.c.c.c.c.q.q.q.l.c.c.c.c.c.c.c.c.c.c.c.c.c.c.c.c.c.c.c.c.c.c.c.w.E Y 8 . . : q.q.p.c.c.c.c.c.f.d d d ",
"      + d d n c.c.c.c.c.c.q.q.q.c.c.c.c.c.c.c.c.c.c.c.c.c.c.c.c.c.c.c.c.c.c.c.c.<.d d < . . : q.q.p.c.c.c.c.c.f.d d d ",
"      @ d d n c.c.c.c.c.c.q.q.q.c.c.c.c.c.c.c.c.c.c.c.c.c.c.c.c.c.c.c.c.c.c.c.c.1.d d < . . : q.q.p.c.c.c.c.c.f.s d d ",
"      @ d d n c.c.c.c.c.c.q.q.q.l.c.c.c.c.c.c.c.c.c.c.c.c.c.c.c.c.c.c.c.c.c.c.c.1.d d < . . : q.q.p.d.d.d.c.c.j.! ! ! ",
"      @ d d n c.c.c.c.c.c.q.q.q.c.c.c.c.c.c.c.c.c.c.c.c.c.c.c.c.c.c.c.c.c.c.c.c.1.d d < . . : q.q.q.q.q.q.c.c.c.q.q.q.",
"      @ d d n c.c.c.c.c.c.q.q.q.c.c.c.c.c.c.c.c.c.c.c.c.c.c.c.c.c.c.c.c.c.c.c.c.1.d d < . . : q.q.q.q.q.q.c.c.c.q.q.q.",
"      & d d n c.c.c.c.c.c.q.q.q.c.c.c.c.c.c.c.c.c.c.c.c.c.c.c.c.c.c.c.c.c.c.c.c.1.d d < . . % t t p | | | o.o.@.q.q.q.",
"      @ d d n c.c.c.c.c.c.q.q.q.z.c.c.c.c.c.c.c.c.c.c.c.c.c.c.c.c.c.c.c.c.c.c.c.1.d d < . . . . . # w w w w w r q.q.q.",
"      @ d d n c.c.c.c.c.c.9.q.q.x.c.c.c.x.c.c.c.c.c.c.c.c.c.c.c.c.c.c.c.c.c.c.c.1.d d < . . . . . # w w w w w r q.q.q.",
"      = W W $.c.c.c.d.d.g.! ! ! j.c.c.c.c.c.c.c.c.c.c.c.c.c.c.c.c.c.c.c.c.c.c.c.1.d d < . . # e e t o.o. .w w e t i k ",
"      : q.q.q.c.c.c.q.q.q.d d d f.c.c.c.c.c.c.c.c.c.c.c.c.c.c.c.c.c.c.c.c.c.c.c.1.d d < . . ; @.O.7.c.c.d.w w 0 . .   ",
"      ; q.q.q.c.c.c.q.q.q.d d d f.c.c.c.c.c.c.c.c.c.c.c.c.c.c.c.c.c.c.c.c.c.c.c.<.d d < . . ; @.@.6.c.c.d.w w 0 . .   ",
"      : q.q.9.o.o.o.| | } d d d f.c.c.c.c.c.c.c.c.c.c.c.c.c.c.c.c.c.c.c.c.c.c.c.1.d d < . . ; @.@.7.c.c.g.[ [ i .     ",
"        q.q.7.w w w w w w d d d f.c.c.c.c.c.c.c.c.c.c.c.c.c.c.c.c.c.c.c.c.c.c.c.1.d d 1 . . : @.@.6.c.c.l.O.O...      ",
"        q.q.7.w w w w w w d d d f.c.c.c.c.c.c.c.c.c.c.c.c.c.c.c.c.c.c.c.c.c.c.c.<.d d 2 .   : @.O.6.c.c.l.@.@.o.      ",
"        | { { w w w } } } U U U j.c.c.c.c.c.c.c.c.c.c.c.c.c.c.c.c.c.c.c.c.c.c.c.1.d d 3       i y } p.r.0.y a         ",
"          . X w w w c.c.c.@.@.@.l.c.c.c.c.c.c.c.c.c.c.c.c.c.c.c.c.c.c.c.c.c.c.c.1.d d 3       . . ; @.@.| . .         ",
"          . X w w w c.c.c.O.@.@.l.c.c.c.c.c.c.c.c.c.c.c.c.c.c.c.c.c.c.c.c.c.c.c.<.d d         . . ; @.@. ..           ",
"            # p p p c.c.c.@.O.@.l.c.c.c.c.c.c.c.c.c.c.c.c.c.c.c.c.c.c.c.c.c.c.c.4.E E             = { { {             ",
"            - @.@.@.c.c.c.O.@.@.l.c.c.c.c.c.c.c.c.c.c.c.c.c.c.c.c.c.c.c.c.c.c.c.l.q.q.                                ",
"              @.@.O.c.c.c.O.@.O.l.c.c.c.c.c.c.c.c.c.c.c.c.c.c.c.c.c.c.c.c.c.c.c.l.q.q.                                ",
"              a i y r.p.r.} { } d.c.c.c.c.c.c.c.c.c.c.c.c.c.c.c.c.c.c.c.c.c.c.c.q.o.o.                                ",
"                . . @.O.@.w w w d.c.c.c.c.c.c.c.c.c.c.c.c.c.c.c.c.c.c.c.c.c.c.c.#.w w                                 ",
"                  . @.@.@.w w w d.c.c.c.c.c.c.c.c.c.c.c.c.c.c.c.c.c.c.c.c.c.c.c.#.w w                                 ",
"                      a y { { { #.#.#.#.#.6.6.#.#.#.#.6.6.#.#.6.#.#.#.6.6.#.#.#...{ {                                 ",
"                        . q.q.q.t w w w w w w w w w w w w w w w w w w w w w w w { q.q.                                ",
"                        . r.q.q.r w w w e w w w w w e w w w w w e w w w w w e w { q.q.                                ",
"                        . p.q.q.{ k [ [ a [ [ a [ [ a [ [ a [ [ a [ [ a [ [ a [ ..q.q.                                ",
"                        . q.q.q.z.c.c.c.c.c.c.c.c.c.c.c.c.c.c.c.c.c.c.c.c.c.c.c.l.q.q.                                ",
"                          q.q.q.x.c.c.c.c.c.c.c.c.c.c.c.c.c.c.c.c.c.c.c.c.c.c.c.d.q.q.                                ",
"                          ,.,.,.l.c.c.c.c.c.c.c.c.l.c.l.c.c.c.c.c.c.c.c.c.c.c.c.l.q.q.                                ",
"                          d d d u.c.x.c.c.c.c.c.c.p.q.q.l.c.c.c.c.c.c.c.c.c.c.c.l.q.q.                                ",
"                          d d f u.z.x.c.c.c.c.c.c.p.q.q.l.c.c.c.c.c.c.c.c.c.c.c.g.q.q.                                ",
"                          d d d 4.t.t.k.c.x.z.z.l.p.q.q.d.c.c.c.c.c.c.c.c.c.c.c.s.,.*.                                ",
"                          d d d B S D i.x.x.p.q.q.q.q.q.l.c.c.c.c.c.c.c.c.c.c.c.1.d d                                 ",
"                          d d d B D D i.x.x.p.q.q.q.q.q.l.c.c.c.c.c.c.c.c.c.c.c.1.d d                                 ",
"                          I I I H S D 5.t.t.r.9.q.O.....9.l.l.x.c.c.c.c.c.h.y.y.' d d                                 ",
"                          0.0.0.J S V V V V <.0.0.: . . { q.q.l.c.c.c.c.c.-.V V N d d                                 ",
"                          0.0.0.J S S S S S <.0.0.: . . [ q.q.l.c.c.c.c.c.-.D V N d d                                 ",
"                          0.0.0.~ K K S S S %.3.3.: . . { q.q.g.c.c.x.h.h.=.V D Z j j                                 ",
"                          q.q.q.j.x.x.K S S l d d & . . { q.q.l.c.c.;.S S S S S ( q.q.                                ",
"                          q.q.q.z.x.x.K S D h d d & . . { q.q.g.c.c.;.S S S S S ( q.q.                                ",
"                          q.q.q.z.x.x.~ K K m j j & . . { q.q.s.h.h.=.S S G K K ] q.q.                                ",
"                          q.q.q.x.c.c.c.c.c.p.q.q.: . . { q.q.( S S S S S ;.c.c.l.q.q.                                ",
"                          q.q.q.c.c.c.c.c.c.p.q.q.: . . { q.q.( S S S S S ;.c.c.l.q.q.                                ",
"                          7.7.7.c.c.c.c.c.c.9.7.7.: . . R 8.8.^ S S G K K :.c.c.d.q.q.                                ",
"                          w w w p.c.c.c.c.c.[ w w # . . < d d c S S ;.c.c.c.c.c.l.q.q.                                ",
"                          w w w d.c.c.c.c.c.[ w w # . . < d d c S S ;.c.c.c.c.c.l.q.q.                                ",
"                          r r r 9.d.d.d.p.d.} r r # . . 4 j j A K K :.c.c.c.c.c.d.q.q.                                ",
"                          q.q.q.r w w w w w #.9.q.: . . { q.q.l.c.c.c.c.c.c.c.c.l.q.q.                                ",
"                          q.q.q.r w w w w w #.q.q.: . . { q.q.l.c.c.c.c.c.c.c.c.l.q.q.                                ",
"                          q.q.q.r w w w w w @.q.q.: . . { q.q.d.c.c.c.c.c.c.c.c.g.q.q.                                ",
"                              . . .         . . . . . . : w w 6.c.c.c.c.c.c.c.c.6.w w                                 ",
"                                                  . . . : w w 6.c.c.c.c.c.c.c.c.6.w w                                 ",
"                                                    . . : w w #.c.c.c.c.c.c.c.c.#.w w 0                               ",
"                                                      . { q.q.{ w w w w w w w w { 9.q.@.                              ",
"                                                      . { q.q.{ w w w w w w w w { q.q.#.                              ",
"                                                        } q.q.[ 0 w w w w w w w { q.q.                                "
};
