/* XPM */
static char *p_back_31670187211[] = {
/* columns rows colors chars-per-pixel */
"65 132 132 2 ",
"   c None",
".  c black",
"X  c #0C0C0C",
"o  c #161616",
"O  c #1B1B1B",
"+  c #251C05",
"@  c #372A07",
"#  c #292211",
"$  c #222222",
"%  c #2C2C2C",
"&  c #32302A",
"*  c #363636",
"=  c #3B3B3B",
"-  c #403720",
";  c #5E470C",
":  c #644C0E",
">  c #6C520E",
",  c #70560F",
"<  c #6D5311",
"1  c #705410",
"2  c #745812",
"3  c #785C17",
"4  c #7F6013",
"5  c #4A453A",
"6  c #705E2F",
"7  c #424242",
"8  c #4B4B4B",
"9  c #565656",
"0  c #5C5B5B",
"q  c #776945",
"w  c #7B6F50",
"e  c #7C7151",
"r  c #656565",
"t  c #6C6C6C",
"y  c #767676",
"u  c #7D7D7D",
"i  c #826312",
"p  c #886715",
"a  c #8C6A15",
"s  c #916F14",
"d  c #957115",
"f  c #9C7616",
"g  c #9F7917",
"h  c #9C7618",
"j  c #A47C18",
"k  c #AA7F1A",
"l  c #9E7E2E",
"z  c #8F7536",
"x  c #AD8319",
"c  c #B5891B",
"v  c #BD8F1C",
"b  c #BF911D",
"n  c #A98425",
"m  c #B69132",
"M  c #C4951E",
"N  c #CB9A1F",
"B  c #D19D1E",
"V  c #D6A21F",
"C  c #CA9C2B",
"Z  c #D09D20",
"A  c #D6A221",
"S  c #DAA421",
"D  c #DEA822",
"F  c #D8A82F",
"G  c #D7A938",
"H  c #DBAD3D",
"J  c #E1AA24",
"K  c #E8AF24",
"L  c #EAB125",
"P  c #A78B46",
"I  c #BD9B47",
"U  c #AF9553",
"Y  c #AF995F",
"T  c #B0995F",
"R  c #84827C",
"E  c #BDA66D",
"W  c #B7A577",
"Q  c #B8A677",
"!  c #B8A678",
"~  c #C49F45",
"^  c #D7B04F",
"/  c #DAB65D",
"(  c #E1B958",
")  c #C9B37D",
"_  c #E5C574",
"`  c #818181",
"'  c #888888",
"]  c #959595",
"[  c #9A9A9A",
"{  c #AA9F82",
"}  c #A09D97",
"|  c #A19E9E",
" . c #B9AB89",
".. c #A4A4A4",
"X. c #A9A6A6",
"o. c #ACACAC",
"O. c #B2AFAF",
"+. c #B3B0B0",
"@. c #BDBCBC",
"#. c #C6B385",
"$. c #CAB88A",
"%. c #C1B491",
"&. c #C1BFB9",
"*. c #D9C595",
"=. c #EDD79D",
"-. c #DACDAC",
";. c #D3C5A2",
":. c #D2C9B2",
">. c #D8CFB8",
",. c #DED2B6",
"<. c #DCD3BB",
"1. c #EFDCAC",
"2. c #F2E2BA",
"3. c #C1C1C1",
"4. c #CACACA",
"5. c #D2CEC2",
"6. c #DDD7CA",
"7. c #D4D4D4",
"8. c #DBDBDB",
"9. c #F5E8C7",
"0. c #E6E3DA",
"q. c #EFE9DC",
"w. c #F5EFDF",
"e. c #E3E3E3",
"r. c #EAEAEA",
"t. c #F2EDE2",
"y. c #FAF4E3",
"u. c #F6F4EF",
"i. c #F4F4F4",
"p. c #F8F6F0",
"a. c #FDF9F1",
"s. c #FFFFFF",
/* pixels */
"                                                                                                                                  ",
"                                      8.8.8.8.8.8.8.8.8.8.8.8.8.8.8.8.8.8.8.8.8.8.8.8.8.8.                                        ",
"                                    4.8.8.8.8.8.8.8.8.8.8.8.8.8.8.8.8.8.8.8.8.8.8.8.8.8.8.r                                       ",
"                                7 = 7.e.e.e.e.e.e.e.e.e.e.r.e.e.e.e.e.e.e.e.r.e.e.e.e.e.e.y 7                                     ",
"                              4.8.8.s.s.s.s.s.s.s.s.s.s.s.s.s.s.s.s.s.s.s.s.s.s.s.s.s.s.s.e.8.8.                                  ",
"                            . @.8.8.i.s.s.s.s.s.s.s.s.s.s.s.s.s.s.s.s.s.s.s.s.s.s.s.s.s.s.r.8.8.r                                 ",
"                          O O 4.e.8.s.s.s.s.s.s.s.s.s.s.s.s.s.s.s.s.s.s.s.s.s.s.s.s.s.s.s.r.8.e.r $                               ",
"                      . 4.8.7.s.s.s.s.s.s.s.s.s.s.s.s.s.s.s.s.s.s.s.s.s.s.s.s.s.s.s.s.s.s.s.s.s.r.8.8.t                           ",
"                    . . 3.8.8.s.s.s.s.i.s.s.s.s.s.s.s.s.s.s.s.s.s.s.s.s.s.s.s.s.s.s.s.s.s.s.s.s.r.8.8.0 .                         ",
"                    $ O 3.8.8.s.s.s.s.s.s.s.s.s.s.s.s.s.s.s.s.s.s.s.s.s.s.s.s.s.s.s.s.s.i.s.s.s.r.8.e.r O %                       ",
"                  4.8.8.i.s.i.s.s.i.s.s.s.s.s.s.s.s.s.s.s.s.s.s.s.s.s.s.s.s.s.s.s.s.s.s.s.s.i.s.i.s.s.e.8.8.                      ",
"                  4.8.8.i.s.i.s.s.s.s.s.s.s.s.s.s.s.s.s.s.s.s.s.s.s.s.s.s.s.s.s.s.s.s.s.s.s.s.s.s.i.s.e.8.8.                      ",
"                . 3.8.8.i.s.i.s.s.s.s.s.s.s.s.s.s.s.s.s.s.s.s.s.s.s.s.s.s.s.s.s.s.s.s.s.s.s.s.s.s.i.s.e.8.8.`                     ",
"                . 3.8.8.i.s.s.s.s.s.s.s.s.s.s.s.s.s.s.s.s.s.s.s.s.s.s.s.s.s.s.s.s.s.s.s.s.s.s.s.s.s.s.r.8.8.y                     ",
"              . . 3.8.8.i.s.i.s.s.s.s.s.s.s.s.s.s.s.s.s.s.s.s.s.s.s.s.s.s.s.s.s.s.s.s.s.s.s.s.s.s.s.s.r.8.8.r                     ",
"              O O 4.8.e.s.s.s.s.s.s.s.s.s.s.s.s.s.s.s.s.s.s.s.s.s.s.s.s.s.s.s.s.s.s.s.s.s.s.s.s.s.s.s.r.e.8.r O                   ",
"            8.8.7.s.s.s.s.s.s.s.s.s.s.s.s.s.s.s.s.s.s.s.s.s.s.s.s.s.s.s.s.s.s.s.s.s.s.s.s.s.s.s.s.s.s.s.s.s.e.8.8.                ",
"            8.8.8.s.s.s.s.s.s.s.s.s.s.s.s.s.s.s.s.s.s.s.s.s.s.s.s.s.s.s.s.s.s.s.s.s.s.s.s.s.s.s.s.s.s.s.s.s.r.8.8.[               ",
"            8.8.8.s.s.s.s.s.s.s.s.s.s.s.s.s.s.s.s.s.s.s.s.s.s.s.s.s.s.s.s.s.s.s.s.s.s.s.s.s.s.s.s.s.s.s.s.s.r.8.8.[               ",
"            8.8.7.s.s.s.s.s.s.s.s.s.s.s.s.s.s.s.s.s.s.s.s.s.s.s.s.s.s.s.s.s.s.s.s.s.s.s.s.s.s.s.s.s.s.s.s.s.r.8.8.[               ",
"            8.8.8.s.s.s.s.s.s.s.s.s.s.s.s.s.s.s.s.s.s.s.s.s.s.s.s.s.s.s.s.s.s.s.s.s.s.s.s.s.s.s.s.s.s.s.s.s.r.8.8.]               ",
"            8.8.8.s.s.s.s.s.s.s.s.s.s.s.s.s.s.s.s.s.s.s.s.s.s.s.s.s.s.s.s.s.s.s.s.s.s.s.s.s.s.s.s.s.s.s.s.s.r.8.8.]               ",
"            8.8.8.s.s.s.s.s.s.s.s.s.s.s.s.s.s.s.s.s.s.s.s.s.s.s.s.s.s.s.s.s.s.s.s.s.s.s.s.s.s.s.s.s.s.s.s.s.r.8.8.]               ",
"            8.8.8.i.s.s.s.s.s.s.s.s.s.s.s.s.s.s.s.s.s.s.s.s.s.s.s.s.s.s.s.s.s.s.s.s.s.s.s.s.s.s.s.s.s.s.s.s.r.8.8.]               ",
"            8.8.8.s.s.s.s.s.s.s.s.s.s.s.s.s.s.s.s.s.s.s.s.s.s.s.s.s.s.s.s.s.s.s.s.s.s.s.s.s.s.s.s.s.s.s.s.s.r.8.8.]               ",
"            8.8.7.s.s.s.s.s.s.s.s.s.s.s.s.s.s.s.s.s.s.s.s.s.s.s.s.s.s.s.s.s.s.s.s.s.s.s.s.s.s.s.s.s.s.s.s.s.r.8.8.]               ",
"            8.8.8.s.s.s.s.s.s.s.s.s.s.s.s.s.s.s.s.s.s.s.s.s.s.s.s.s.s.s.s.s.s.s.s.s.s.s.s.s.s.s.s.s.s.s.s.s.r.8.8.]               ",
"            8.8.7.s.s.s.s.s.s.s.s.s.s.s.s.s.s.s.s.s.s.s.s.s.s.s.s.s.s.s.s.s.s.s.s.s.s.s.s.s.s.s.s.s.s.s.s.s.r.8.8.]               ",
"            8.8.8.s.s.s.s.s.s.s.s.s.s.s.s.s.s.s.s.s.s.s.s.s.s.s.s.s.s.s.s.s.s.s.s.s.s.s.s.s.s.s.s.s.s.s.s.s.r.8.8.]               ",
"            8.8.8.i.s.s.s.s.s.s.s.s.s.s.s.s.s.s.s.s.s.s.s.s.s.s.s.s.s.s.s.s.s.s.s.s.s.s.s.s.s.s.s.s.s.s.s.s.r.8.8.]               ",
"            8.8.8.s.s.s.s.s.s.s.s.s.s.s.s.s.s.s.s.s.s.s.s.s.s.s.s.s.s.s.s.s.s.s.s.s.s.s.s.s.s.s.s.s.s.s.s.s.r.8.8.]               ",
"            8.8.8.s.s.s.s.s.s.s.s.s.s.s.s.s.s.s.s.s.s.s.s.s.s.s.s.s.s.s.s.s.s.s.s.s.s.s.s.s.s.s.s.s.s.s.s.s.e.8.8.]               ",
"            8.8.8.s.s.s.s.s.s.s.s.s.s.s.s.s.s.s.s.s.s.s.s.s.s.s.s.s.s.s.s.s.s.s.s.s.s.s.s.s.s.s.s.s.s.s.s.s.r.8.8.]               ",
"            8.8.7.s.s.s.s.s.s.s.s.s.s.s.s.s.s.s.s.s.s.s.s.s.s.s.s.s.s.s.s.s.s.s.s.s.s.s.s.s.s.s.s.s.s.s.s.s.r.8.8.]               ",
"            8.8.8.s.s.s.s.s.s.s.s.s.s.s.s.s.s.s.s.s.s.s.s.s.s.s.s.s.s.s.s.s.s.s.s.s.s.s.s.s.s.s.s.s.s.s.s.s.r.8.8.]               ",
"            8.8.8.s.s.s.s.s.s.s.s.s.s.s.s.s.s.s.s.s.s.s.s.s.s.s.s.s.s.s.s.s.s.s.s.s.s.s.s.s.s.s.s.s.s.s.s.s.r.8.8.]               ",
"            8.8.7.s.s.s.s.s.s.s.s.s.s.s.s.s.s.s.s.s.s.s.s.s.s.s.s.s.s.s.s.s.s.s.s.s.s.s.s.s.s.s.s.s.s.s.s.s.r.8.8.]               ",
"            8.8.8.s.s.s.s.s.s.s.s.s.s.s.s.s.s.s.s.s.s.s.s.s.s.s.s.s.s.s.s.s.s.s.s.s.s.s.s.s.s.s.s.s.s.s.s.s.r.8.8.[               ",
"            8.8.8.s.s.s.s.s.s.s.s.s.s.s.s.s.s.s.s.s.s.s.s.s.s.s.s.s.s.s.s.s.s.s.s.s.s.s.s.s.s.s.s.s.s.s.s.s.r.8.8.[               ",
"            8.8.7.s.s.s.s.s.s.s.s.s.s.s.s.s.s.s.s.s.s.s.s.s.s.s.s.s.s.s.s.s.s.s.s.s.s.s.s.s.s.s.s.s.s.s.s.s.r.8.8.[               ",
"            8.8.8.s.s.s.s.s.s.s.s.s.s.s.s.s.s.s.s.s.s.s.s.s.s.s.s.s.s.s.s.s.s.s.s.s.s.s.s.s.s.s.s.s.s.s.s.s.r.8.8...              ",
"            8.8.7.s.s.s.s.s.s.s.s.s.s.s.s.s.s.s.s.s.s.s.s.s.s.s.s.s.s.s.s.s.s.s.s.s.s.s.s.s.s.s.s.s.s.s.s.s.r.8.8.                ",
"            8.8.8.s.s.s.s.s.s.s.s.s.s.s.s.s.s.s.s.s.s.s.s.s.s.s.s.s.s.s.s.s.s.s.s.s.s.s.s.s.s.s.s.s.s.s.s.s.r.8.8.                ",
"            7 = * 4.e.e.s.s.s.s.s.s.s.s.s.s.s.s.s.s.s.s.s.s.s.s.s.s.s.s.s.s.s.s.s.s.s.s.s.s.s.s.s.s.s.r.e.e.u * *                 ",
"              . . @.8.8.s.s.s.s.s.s.s.s.s.s.s.s.s.s.s.s.s.s.s.s.s.s.s.s.s.s.s.s.s.s.s.s.s.s.s.s.s.s.s.r.8.8.9 .                   ",
"              . . 3.8.8.i.s.s.s.s.s.s.s.s.s.s.s.s.s.s.s.s.s.s.s.s.s.s.s.s.s.s.s.s.s.s.s.s.s.s.s.s.s.s.r.8.8.r                     ",
"              . . * * = 4.e.e.s.s.s.s.s.s.s.s.s.s.s.s.s.s.s.s.s.s.s.s.s.s.s.s.s.s.s.s.s.s.s.s.s.i.e.e.' =                         ",
"                . . . . @.8.7.s.s.s.s.s.s.s.s.s.s.s.s.s.s.s.s.s.s.s.s.s.s.s.s.s.s.s.s.s.s.s.s.s.r.8.8.                            ",
"                . . . . 3.8.8.s.s.s.s.s.s.s.s.s.s.s.s.s.s.s.s.s.s.s.s.s.s.s.s.s.s.s.s.s.s.s.s.s.r.8.8.                            ",
"                . . . . * * * 4.e.e.i.s.s.s.s.s.s.s.s.s.s.s.s.s.s.s.s.s.s.s.s.s.s.s.s.s.s.r.e.e.u * *                             ",
"                . . . . . . . @.8.8.s.s.s.s.s.s.s.s.s.s.s.s.s.s.s.s.s.s.s.s.s.s.s.s.s.s.s.r.8.8.9 . .                             ",
"              . . . . . . . . 3.8.8.s.s.s.s.s.s.s.s.s.s.s.s.s.s.s.s.s.s.s.s.s.s.s.s.s.s.s.r.8.8.9 . . .                           ",
"            k a p ; ; ; R ' ' ` ' ' 8.r.r.e.r.r.r.r.e.r.e.r.r.r.r.r.r.r.r.e.r.r.r.r.e.r.r.o.` ' ` ' ' q > > a j                   ",
"            A A A g d d 5.8.8.r 9 9 4.8.8.8.8.8.8.8.8.8.8.8.8.8.8.8.8.8.8.8.8.8.8.8.8.8.8.' 9 9 o.8.8.Y d d b A V 3               ",
"          . A A A h d d 5.8.8.r 9 9 4.8.8.8.8.8.8.8.8.8.8.8.8.8.8.8.8.8.8.8.8.8.8.8.8.8.8.' 9 9 o.8.8.Y d d v A A < .             ",
"      x h p J J J M b M U T T &.3.3.' ' ' ' ' ' ' ' ' ' ' ' ' ' ` ' ` ' ' ' ' ' ' ' ' ' ' X.3.3. .Y T m v b A J J c p h           ",
"      A A A L L L A A A f d d t.s.s.r 9 9 9 9 9 9 9 9 9 9 9 9 9 9 9 9 9 9 9 9 9 9 9 9 9 9 3.s.s.E d d v A A J L L J A V p         ",
"    . A A A L L L A A A f d d t.s.s.t 9 9 9 9 9 9 9 9 9 9 9 9 9 9 9 9 9 9 9 9 9 9 9 9 9 9 @.s.s.E d d v A A J L L J A A 2 .       ",
"  s p J J J D J J J J J g d d t.s.s.4.3.@.3.3.3.3.3.3.3.@.3.3.3.3.3.4.@.@.3.3.3.3.3.3.3.3.r.s.s.E d d M J J J D D J J J c a       ",
"A A A L L L A A A L L L g d d t.s.s.s.s.s.s.s.s.s.s.s.s.s.s.s.s.s.s.s.s.s.s.s.s.s.s.s.s.s.s.s.s.E d d N L L D A A J L L J A A     ",
"A A A L L L A A A K L L g d d t.s.s.s.s.s.s.s.s.s.s.s.s.s.s.s.s.s.s.s.s.s.s.s.s.s.s.s.s.s.s.s.s.E d d N L L D A A J L L J A A     ",
"c c c L L L A A A M v M ) $.$.p.s.s.s.s.s.s.s.s.s.s.s.s.s.s.s.s.s.s.s.s.s.s.s.s.s.s.s.s.s.s.s.s.,.$.$.~ b b N A Z J L L B c c i   ",
"d d d L L L A A A f d d t.s.s.s.s.s.s.s.s.s.s.s.s.s.s.s.s.s.s.s.s.s.s.s.s.s.s.s.s.s.s.s.s.s.s.s.s.s.s.E d d v A A J L L v s d :   ",
"d d d L L L A A A f d d t.s.s.s.s.s.s.s.s.s.s.s.s.s.s.s.s.s.s.s.s.s.s.s.s.s.s.s.s.s.s.s.s.s.s.s.s.s.s.E d d v A A J L L M s d :   ",
"! ! ! b b b c c c ) $.$.p.s.s.s.s.s.s.s.s.s.s.s.s.s.s.s.s.s.s.s.s.s.s.s.s.s.s.s.s.s.s.s.s.s.s.s.s.s.s.,.$.$.I c c b b b I ! Q e   ",
"8.8.8.d d d d d d t.s.s.s.s.s.s.s.s.s.s.s.s.s.s.s.s.s.s.s.s.s.s.s.s.s.s.s.s.s.s.s.s.s.s.s.s.s.s.s.s.s.s.s.s.E d d d d d ! 8.8.]   ",
"8.8.8.d d d d d d t.s.s.s.s.s.s.s.s.s.s.s.s.s.s.s.s.s.s.s.s.s.s.s.s.s.s.s.s.s.s.s.s.s.s.s.s.s.s.s.s.s.s.s.s.E d d d d d ! 8.8.]   ",
"8.8.8.$.$.$.$.$.$.u.s.s.i.r.r.s.s.s.s.s.s.s.s.s.s.s.s.s.s.s.s.s.s.s.s.s.s.s.s.s.s.s.s.s.s.s.s.s.i.r.r.i.s.s.,.$.$.$.$.$.:.8.8.]   ",
"8.8.8.s.s.s.s.s.s.s.s.s.e.8.8.i.s.s.s.s.s.s.s.s.s.s.s.s.s.s.s.s.s.s.s.s.s.s.s.s.s.s.s.s.s.s.s.s.r.8.8.i.s.s.s.s.s.s.s.s.r.8.8.]   ",
"8.8.8.s.s.s.s.s.s.s.s.s.e.8.8.s.s.s.s.s.s.s.s.s.s.s.s.s.s.s.s.s.s.s.s.s.s.s.s.s.s.s.s.s.s.s.s.s.r.8.8.i.s.s.s.s.s.s.s.s.r.8.8.]   ",
"! ! W s.s.s.s.s.s.i.r.r.u t t 8.r.r.s.s.s.s.s.s.s.s.s.s.s.s.s.s.s.s.s.s.s.s.s.s.s.s.s.s.s.i.i.r...t r @.r.r.i.s.s.s.s.s.<.W W w   ",
"d d d s.s.s.s.s.s.e.8.8.O . . 3.8.8.s.s.s.s.s.s.s.s.s.s.s.s.s.s.s.s.s.s.s.s.s.s.s.s.s.s.s.r.8.8.9 . . ' 8.8.i.s.s.s.s.s.$.d d :   ",
"d d d s.s.s.s.s.s.e.8.8.O . . 3.8.8.s.s.s.s.s.s.s.s.s.s.s.s.s.s.s.s.s.s.s.s.s.s.s.s.s.s.s.r.8.8.9 . . ' 8.8.i.s.s.s.s.s.$.d d :   ",
"d d d s.s.s.s.s.s.8.8.8.O . . { %.%.u.s.s.s.s.s.s.s.s.s.s.s.s.s.s.s.s.s.s.s.s.s.s.s.s.s.s.>.%.%.5 . . ' 8.8.i.s.s.s.s.s.$.d d :   ",
"d d d s.s.s.s.s.s.e.8.8.O . . i h d t.s.s.s.s.s.s.s.s.s.s.s.s.s.s.s.s.s.s.s.s.s.s.s.s.s.s.E d d @ . . ' 8.8.r.s.s.s.s.s.$.d d :   ",
"d d d s.s.s.s.s.s.8.8.8.O . . i d d t.s.s.s.s.s.s.s.s.s.s.s.s.s.s.s.s.s.s.s.s.s.s.s.s.s.s.E d d @ . . ' 8.8.i.s.s.s.s.s.$.d d :   ",
"d d d s.s.s.s.s.s.e.8.8.O . . i d d t.s.s.s.s.s.s.s.s.s.s.s.s.s.s.s.s.s.s.s.s.s.s.s.s.s.s.E d d @ . . ' 8.8.i.s.s.s.s.s.$.d d :   ",
"d d d s.s.s.s.s.s.e.8.8.O . . i d d t.s.s.s.s.s.s.s.s.s.s.s.s.s.s.s.s.s.s.s.s.s.s.s.s.s.s.E d d @ . . ' 8.8.i.s.s.s.s.s.$.d d :   ",
"s d d s.s.s.s.s.s.8.8.8.O . . i d d t.s.s.s.s.s.s.s.s.s.s.s.s.s.s.s.s.s.s.s.s.s.s.s.s.s.s.E d d @ . . ' 8.8.r.s.s.s.s.s.$.d d :   ",
"d d d s.s.s.s.s.s.e.8.8.O . . i d d t.s.s.s.s.s.s.s.s.s.s.s.s.s.s.s.s.s.s.s.s.s.s.s.s.s.s.E d d @ . . ` 8.8.i.s.s.s.s.s.$.d d :   ",
"d d d s.s.s.s.s.s.e.8.8.O . . p d d t.s.s.s.s.s.s.s.s.s.s.s.s.s.s.s.s.s.s.s.s.s.s.s.s.s.s.E d d @ . . ' 8.8.i.s.s.s.s.s.$.d d :   ",
"d d d s.s.s.s.s.s.8.8.8.O . . i d d t.s.s.s.s.s.s.s.s.s.s.s.s.s.s.s.s.s.s.s.s.s.s.s.s.s.s.E d d @ . . ' 8.8.i.s.s.s.s.s.$.h d :   ",
"P P P s.s.s.i.i.i.8.8.8.O . . i d d t.s.s.s.s.s.s.s.s.s.s.s.s.s.s.s.s.s.s.s.s.s.s.s.s.s.s.E d d @ . . ' 8.8.r.i.i.s.s.s.;.P P 6   ",
"8.8.8.s.s.s.8.8.8.8.8.8.O . . i d d t.s.s.s.s.s.s.s.s.s.s.s.s.s.s.s.s.s.s.s.s.s.s.s.s.s.s.E d d @ . . ' 8.8.8.8.8.r.s.s.r.8.8.]   ",
"8.8.8.s.s.s.8.8.8.8.8.8.O . . i d d t.s.s.s.s.s.s.s.s.s.s.s.s.s.s.s.s.s.s.s.s.s.s.s.s.s.s.E d d @ . . ' 8.8.8.8.8.r.s.s.r.8.8.]   ",
"8.8.8.7.7.7.@.@.@.o.....X . . i d d t.s.s.s.s.s.s.s.s.s.s.s.s.s.s.s.s.s.s.s.s.s.s.s.s.s.s.E d d @ . . t ....O.@.@.4.7.7.8.8.8.]   ",
"8.8.8.9 9 9 9 9 9 X . . . . . i d d t.s.s.s.s.s.s.s.s.s.s.s.s.s.s.s.s.s.s.s.s.s.s.s.s.s.s.E d d @ . . . . . * 9 9 9 9 9 [ 8.8.[   ",
"8.8.8.9 9 9 9 9 9 X . . . . . i d d t.s.s.s.s.s.s.s.s.s.s.s.s.s.s.s.s.s.s.s.s.s.s.s.s.s.s.E d d @ . . . . . * 9 9 9 9 9 ] 8.8.[   ",
"@.o...9 9 9 ` ` u * % % X . . i d d t.s.s.s.s.s.s.s.s.s.s.s.s.s.s.s.s.s.s.s.s.s.s.s.s.s.s.E d d @ . . o % % 0 ` ` r 9 9 u ..+.    ",
"  . . 9 9 9 s.s.s.@.O.O.o . . i s d t.s.s.s.s.s.s.s.s.s.s.s.s.s.s.s.s.s.s.s.s.s.s.s.s.s.s.E d d @ . . t +.+.e.s.s.o.9 9 % . .     ",
"  . . 9 9 9 s.s.s.@.O.O.o . . i s d q.s.s.s.s.s.s.s.s.s.s.s.s.s.s.s.s.s.s.s.s.s.s.s.s.s.s.E d d @ . . t +.+.e.s.s.o.9 9 % .       ",
"    . t t t s.s.s.@.O.O.o . . z P P u.s.s.s.s.s.s.s.s.s.s.s.s.s.s.s.s.s.s.s.s.s.s.s.s.s.s.#.P P - . . y +.+.e.s.s.+.t t = .       ",
"    . +.+.+.s.s.s.@.+.+.o . . @.8.8.s.s.s.s.s.s.s.s.s.s.s.s.s.s.s.s.s.s.s.s.s.s.s.s.s.s.s.r.8.8.9 . . t +.O.e.s.s.8.O.O.r         ",
"      +.+.O.s.s.s.@.+.+.o . . 3.8.8.s.s.s.s.s.s.s.s.s.s.s.s.s.s.s.s.s.s.s.s.s.s.s.s.s.s.s.r.8.8.9 . . t O.O.e.s.s.8.O.O.t         ",
"      ..| [ i.i.i.@.+.+.o . . 3.8.8.s.s.s.s.s.s.s.s.s.s.s.s.s.s.s.s.s.s.s.s.s.s.s.s.s.s.s.r.8.8.9 . . t +.+.8.i.i.4.[ ..          ",
"        . . +.O.O.O.+.+.o . . @.8.7.s.s.s.s.s.s.s.s.s.s.s.s.s.s.s.s.s.s.s.s.s.s.s.s.s.s.s.r.8.8.9 . . t +.+.+.O.O.0 .             ",
"          . O.O.O.O.+.O.o . . 3.8.8.s.s.s.s.s.s.s.s.s.s.s.s.s.s.s.s.s.s.s.s.s.s.s.s.s.s.s.r.8.8.9 . . t +.O.+.O.O.r               ",
"            o.X.X...X...o . . +.4.4.s.s.s.s.s.s.s.s.s.s.s.s.s.s.s.s.s.s.s.s.s.s.s.s.s.s.s.e.4.4.8 . . t ..X.X.X.O.t               ",
"                        . . . 8 9 9 e.s.s.s.s.s.s.s.s.s.s.s.s.s.s.s.s.s.s.s.s.s.s.s.s.s.s.] 9 9 $ .                               ",
"                            . 8 9 9 r.s.s.s.s.s.s.s.s.s.s.s.s.s.s.s.s.s.s.s.s.s.s.s.s.s.s.] 9 9 $                                 ",
"                            . r t r 8.r.r.r.r.r.r.r.r.r.r.r.r.r.r.r.r.r.r.r.r.r.r.r.r.r.r.] t r *                                 ",
"                              4.8.8.r 9 9 9 9 9 9 9 9 9 9 9 9 9 9 9 9 9 9 9 9 9 9 9 9 9 9 o.8.8.y                                 ",
"                              4.8.8.r 9 9 9 9 9 9 9 9 9 9 9 9 9 9 9 9 9 9 9 9 9 9 9 9 9 9 o.8.8.`                                 ",
"                              4.8.8.u r r t t t t r t t t t t r t t t t t t t r r t t t r +.8.8.]                                 ",
"                              7.8.8.s.s.s.s.s.s.s.s.s.s.s.s.s.s.s.s.s.s.s.s.s.s.s.s.s.s.s.r.8.8.[                                 ",
"                              7.8.8.i.s.s.s.s.s.s.s.s.s.s.s.s.s.s.s.s.s.s.s.s.s.s.s.s.s.s.r.8.8.                                  ",
"                              7.8.8.s.s.s.s.s.s.s.s.s.s.s.s.s.s.s.s.s.s.s.s.s.s.s.s.s.s.s.r.8.8.                                  ",
"                              s h d t.s.s.s.s.s.s.s.s.s.s.s.e.8.8.i.s.s.s.s.s.s.s.s.s.s.s.E d d                                   ",
"                              d d d t.s.s.s.s.s.s.s.s.s.s.s.e.8.8.s.s.s.s.s.s.s.s.s.s.s.s.E d d                                   ",
"                              d d d t.s.s.s.s.s.s.s.s.s.s.s.e.8.8.i.s.s.s.s.s.s.s.s.s.s.s.E d d                                   ",
"                              a d d B V S y.s.s.s.s.s.e.8.8.= . . ..8.8.i.s.s.s.s.s._ A A x d d                                   ",
"                              s d h B V S y.s.s.s.s.s.e.8.8.* . . ..8.8.i.s.s.s.s.s._ A A x d d                                   ",
"                              d d d B V V y.s.s.s.s.s.e.8.8.= . . ..8.8.i.s.s.s.s.s._ V A x d d                                   ",
"                              7.8.8.G A A A A A y.s.s.e.8.8.* . . ..8.8.i.s.s.( V V A A A *.8.8.                                  ",
"                              7.8.8.G A A A A A y.s.s.e.8.8.* . . ..8.8.i.s.s.( A A A A A *.8.8.                                  ",
"                              7.8.8.G A A A A A y.s.s.e.8.8.= . . ..8.8.s.s.s./ A A A A A *.8.8.                                  ",
"                              7.8.8.w.y.y.H A A H H H <.8.8.* . . ..8.8./ H H F A A =.y.y.0.8.8.                                  ",
"                              7.8.8.i.s.s.H A A A A A -.8.8.* . . ..8.8.^ A A A A A 1.s.s.r.8.8.                                  ",
"                              7.8.8.s.s.s.H A A A A A -.8.8.* . . ..8.8.^ A A A A A 1.s.s.r.8.8.                                  ",
"                              7.8.8.s.s.s.y.y.y.H A A n l l # . . 3 l l C A A 2.y.y.a.s.s.r.8.8.                                  ",
"                              7.8.8.i.s.s.s.s.s.H A A j d d + . . 2 s d M A A 9.s.s.s.s.s.r.8.8.                                  ",
"                              7.8.8.s.s.s.s.s.s.H A A j d d + . . 2 d d M A A 9.s.s.s.s.s.r.8.8.                                  ",
"                              7.8.8.s.s.s.s.s.s.y.y.y.6.5.5.& . . } 5.5.w.y.y.a.s.s.s.s.s.r.8.8.                                  ",
"                              7.8.8.s.s.s.s.s.s.s.s.s.e.8.8.= . . ..8.8.i.s.s.s.s.s.s.s.s.r.8.8.                                  ",
"                              7.8.8.s.s.s.s.s.s.s.s.s.e.8.8.= . . ..8.8.i.s.s.s.s.s.s.s.s.r.8.8.                                  ",
"                              r r r r.s.s.s.s.s.s.s.s.' r r O . . 8 r r 8.s.s.s.s.s.s.s.s.[ r r                                   ",
"                              9 9 9 r.s.s.s.s.s.s.s.s.` 9 9 o . . 7 9 9 7.s.s.s.s.s.s.s.s.] 9 9                                   ",
"                              9 9 9 r.s.s.s.s.s.s.s.s.` 9 9 o . . 7 9 9 7.s.s.s.s.s.s.s.s.] 9 9                                   ",
"                              ] [ [ ' ` u ` ` ` ` ` ` ] [ [ $ . . ' @.@.' ` u ` u ` ` u ` [ @.@.                                  ",
"                              ..o.O.r 9 9 9 9 9 9 9 9 ] +.o.% . . X.8.8.u 9 9 9 9 9 9 9 9 o.8.8.                                  ",
"                              o.o.O.r 9 9 9 9 9 9 9 9 [ O.o.% . . X.8.8.y 9 9 9 9 9 9 9 9 o.8.8.                                  ",
"                              = % * o O o O o o o O o % = * X . . % = = $ o o o o O o O O * = =                                   "
};
