/* XPM */
static char *p_left_21670187212[] = {
/* columns rows colors chars-per-pixel */
"53 125 122 2 ",
"   c None",
".  c #000000",
"X  c #090703",
"o  c #0A0803",
"O  c gray4",
"+  c #131005",
"@  c #1A1301",
"#  c #13120D",
"$  c #161616",
"%  c #1C1C1C",
"&  c #241E0C",
"*  c #27210D",
"=  c #2A240E",
"-  c #2E280F",
";  c #372A07",
":  c #3A2C07",
">  c #2F2810",
",  c #362E12",
"<  c #232323",
"1  c #343434",
"2  c #3C3C3C",
"3  c #433209",
"4  c #4B3A0A",
"5  c #473D18",
"6  c #483E18",
"7  c #4D421A",
"8  c #564A1D",
"9  c #5A4D1E",
"0  c #745810",
"q  c #7A5C11",
"w  c #5B4F20",
"e  c #655723",
"r  c #665824",
"t  c #414141",
"y  c #4C4C4C",
"u  c #51504D",
"i  c #565656",
"p  c #595653",
"a  c #5E5D5D",
"s  c #646155",
"d  c #656565",
"f  c #6B6B6B",
"g  c #79766A",
"h  c #757575",
"j  c #787777",
"k  c #7B7B7B",
"l  c #956F15",
"z  c #957115",
"x  c #826926",
"c  c #856D2C",
"v  c #8A782E",
"b  c #9D7E2E",
"n  c #AE8419",
"m  c #B4891B",
"M  c #BD8F1C",
"N  c #BE901C",
"B  c #988433",
"V  c #9C873A",
"C  c #A18233",
"Z  c #BD9734",
"A  c #B39A3B",
"S  c #C6961E",
"D  c #CA991F",
"F  c #C4982B",
"G  c #D6A221",
"H  c #DEA722",
"J  c #D8A82F",
"K  c #D7A938",
"L  c #DBAD3D",
"P  c #E3AB23",
"I  c #EAB125",
"U  c #A18D44",
"Y  c #A0884F",
"T  c #AF9843",
"R  c #AF944F",
"E  c #B1954E",
"W  c #B59E4C",
"Q  c #AF995F",
"!  c #B19652",
"~  c #B49A59",
"^  c #A89876",
"/  c #C2A94A",
"(  c #DCB554",
")  c #E1B958",
"_  c #C8B27C",
"`  c #E3BF66",
"'  c #E5C574",
"]  c #828282",
"[  c #8B8B8B",
"{  c #939393",
"}  c #9D9B97",
"|  c #9D9C9C",
" . c #A79E8B",
".. c #A5A4A4",
"X. c #A8A5A5",
"o. c #ABABAB",
"O. c #B3B1B1",
"+. c #BCBBBB",
"@. c #CAB88A",
"#. c #C1BEBE",
"$. c #D5C49A",
"%. c #E7CB82",
"&. c #EDD79D",
"*. c #CAC1AA",
"=. c #DACDAB",
"-. c #DED5BD",
";. c #EFDCAC",
":. c #F0E0B7",
">. c #C5C4C4",
",. c #CBCBCB",
"<. c #D0CDCD",
"1. c #D5D5D5",
"2. c #DBDBDB",
"3. c #EDE2C6",
"4. c #E4E0D4",
"5. c #E3E3E3",
"6. c #EBEBEB",
"7. c #F2EDE2",
"8. c #FAF4E3",
"9. c #F5F5F5",
"0. c #FDF9F1",
"q. c #FFFFFF",
/* pixels */
"                                                                                                          ",
"                      . >.2.2.2.2.2.2.2.2.2.2.2.2.2.2.2.2.2.2.2.2.2.2.2.2.2.2.                            ",
"                    . . >.2.2.2.2.2.2.2.2.2.2.2.2.2.2.2.2.2.2.2.2.2.2.2.2.2.2.d                           ",
"              y y t 2 1 1.5.5.5.5.5.5.5.5.5.5.5.5.5.5.6.5.5.5.5.5.5.5.5.5.5.5.j t                         ",
"            2.2.2.2.2.2.q.q.q.q.q.q.q.q.q.q.q.q.q.q.q.q.q.q.q.q.q.q.q.q.q.q.q.6.2.2.                      ",
"          . 2.2.2.2.2.2.q.q.q.q.q.q.q.q.q.q.q.q.q.q.q.q.q.q.q.q.q.q.q.q.q.q.q.6.2.2.f                     ",
"        $ $ +.+.+.O.+.+.6.q.q.q.q.q.q.q.q.q.q.q.q.q.q.q.q.q.q.q.q.q.q.q.q.q.q.6.5.5.h 2                   ",
"        i i i i i i i i 6.q.q.q.q.q.q.q.q.q.q.q.q.q.q.q.q.q.q.q.q.q.q.q.q.q.q.q.q.q.6.2.2.                ",
"      i i i i i i i i i 6.q.q.q.q.q.q.q.q.q.q.q.q.q.q.q.q.q.q.q.q.q.q.q.q.q.q.q.q.q.6.2.2.d               ",
"      y y t t t t t t t >.1.1.9.q.q.q.q.q.q.q.q.q.q.q.q.q.q.q.q.q.q.q.q.q.q.q.q.q.q.6.5.5.h t             ",
"      $ % % . . . . . . y i i 6.q.q.q.q.q.q.q.q.q.q.q.q.q.q.q.q.q.q.q.q.q.q.q.q.q.q.q.q.q.6.2.2.          ",
"      % % % . . . . . . y i i 6.q.q.q.q.q.q.q.q.q.q.q.q.q.q.q.q.q.q.q.q.q.q.q.q.q.q.q.q.q.5.2.2.          ",
"      % % % . . . . . . 2 t 2 >.1.1.9.q.q.q.q.q.q.q.q.q.q.q.q.q.q.q.q.q.q.q.q.q.q.q.q.q.q.6.2.2.{         ",
"    . % % % . . . . . . . . . y i i 6.q.q.q.q.q.q.q.q.q.q.q.q.q.q.q.q.q.q.q.q.q.q.q.q.q.q.6.2.2.]         ",
"    . % % % . . . . . . . . . y i i 6.q.q.q.q.q.q.q.q.q.q.q.q.q.q.q.q.q.q.q.q.q.q.q.q.q.q.6.2.2.k .       ",
"    X $ $ $ . . . . . . . . . 2 2 t >.1.1.9.q.q.q.q.q.q.q.q.q.q.q.q.q.q.q.q.q.q.q.q.q.q.q.6.5.5.{ t       ",
"  % % . . . . . . . . . . . . . . . y i i 1.q.q.q.q.q.q.q.q.q.q.q.q.q.q.q.q.q.q.q.q.q.q.q.q.q.q.6.2.2.    ",
"  % % . . . . . . . . . . . . . . . y i i 1.q.q.q.q.q.q.q.q.q.q.q.q.q.q.q.q.q.q.q.q.q.q.q.q.q.q.6.2.2.O.  ",
"  % % . . . . . . . . . . . . . . . t y y >.6.6.q.q.q.q.q.q.q.q.q.q.q.q.q.q.q.q.q.q.q.q.q.q.q.q.6.2.2.O.  ",
"% % % . . . . . . . . . . . . . . . . . . 2 i i 1.q.q.q.q.q.q.q.q.q.q.q.q.q.q.q.q.q.q.q.q.q.q.q.6.2.2.O.  ",
"% % % . . . . . . . . . . . . . . . . . . 2 i i 1.q.q.q.q.q.q.q.q.q.q.q.q.q.q.q.q.q.q.q.q.q.q.q.6.5.2.O.  ",
"% % % . . . . . . . . . . . . . . . . . . t i i 1.q.q.q.q.q.q.q.q.q.q.q.q.q.q.q.q.q.q.q.q.q.q.q.6.2.2.O.  ",
"% % % . . . . . . . . . . . . . . . . . . t i i 1.q.q.q.q.q.q.q.q.q.q.q.q.q.q.q.q.q.q.q.q.q.q.q.6.2.2.O.  ",
"% % % . . . . . . . . . . . . . . . . . . t i i 1.q.q.q.q.q.q.q.q.q.q.q.q.q.q.q.q.q.q.q.q.q.q.q.6.5.2.O.  ",
"% % < . . . . . . . . . . . . . . . . . . t i i 1.q.q.q.q.q.q.q.q.q.q.q.q.q.q.q.q.q.q.q.q.q.q.q.9.2.2.O.  ",
"% % % . . . . . . . . . . . . . . . . . . t i i 1.q.q.q.q.q.q.q.q.q.q.q.q.q.q.q.q.q.q.q.q.q.q.q.6.2.2.O.  ",
"% % % . . . . . . . . . . . . . . . . . . t i i 1.q.q.q.q.q.q.q.q.q.q.q.q.q.q.q.q.q.q.q.q.q.q.q.6.2.2.O.  ",
"% % % . . . . . . . . . . . . . . . . . . t i i 1.q.q.q.q.q.q.q.q.q.q.q.q.q.q.q.q.q.q.q.q.q.q.q.6.2.2.+.  ",
"% % % . . . . . . . . . . . . . . . . . . t i i 1.q.q.q.q.q.q.q.q.q.q.q.q.q.q.q.q.q.q.q.q.q.q.q.9.2.2.O.  ",
"% % % . . . . . . . . . . . . . . . . . . t i i 1.q.q.q.q.q.q.q.q.q.q.q.q.q.q.q.q.q.q.q.q.q.q.q.6.2.2.O.  ",
"% % % . . . o o o . . . . . . . . . . . . 2 i i 1.q.q.q.q.q.q.q.q.q.q.q.q.q.q.q.q.q.q.q.q.q.q.q.6.2.2.+.  ",
"% < % . . . 7 7 7 o . . . . . . . . . . . t i i 1.q.q.q.q.q.q.q.q.q.q.q.q.q.q.q.q.q.q.q.q.q.q.q.6.2.2.O.  ",
"% % % . . . 7 7 7 o . . . . . . . . . . . t i i 1.q.q.q.q.q.q.q.q.q.q.q.q.q.q.q.q.q.q.q.q.q.q.q.6.2.2.+.  ",
"% % % . . . w w w + X X . . . . . . . . . t i i 1.q.q.q.q.q.q.q.q.q.q.q.q.q.q.q.q.q.q.q.q.q.q.q.6.2.2.O.  ",
"% % % @ @ @ A A A 8 5 5 X . . . . . . . . t i i 1.q.q.q.q.q.q.q.q.q.q.q.q.q.q.q.q.q.q.q.q.q.q.q.6.2.2.O.  ",
"% % % @ @ @ A A A 8 5 5 X . . . . . . . . t i i 1.q.q.q.q.q.q.q.q.q.q.q.q.q.q.q.q.q.q.q.q.q.q.q.6.2.2.O.  ",
"% % % & @ @ A A A 8 5 5 X . . . . . . . . t i i 1.q.q.q.q.q.q.q.q.q.q.q.q.q.q.q.q.q.q.q.q.q.q.q.6.5.2.O.  ",
"% % % , , , B B B 8 7 7 o . . . . . . . . t i i 1.q.q.q.q.q.q.q.q.q.q.q.q.q.q.q.q.q.q.q.q.q.q.q.6.2.2.O.  ",
"% % % , , , B B B 8 7 7 o . . . . . . . . t i i 1.q.q.q.q.q.q.q.q.q.q.q.q.q.q.q.q.q.q.q.q.q.q.q.6.2.2.O.  ",
"% % % = > > v v v e w 9 + X X . . . O O O i f f 1.q.q.q.q.q.q.q.q.q.q.q.q.q.q.q.q.q.q.q.q.q.q.q.6.2.2.O.  ",
"% % % . . . = - = T / / 9 5 5 X . . y i i 1.q.q.q.q.q.q.q.q.q.q.q.q.q.q.q.q.q.q.q.q.q.q.q.q.q.q.6.2.2.O.  ",
"  % % . . . = = = T / / 8 5 5 X . . y i i 1.q.q.q.q.q.q.q.q.q.q.q.q.q.q.q.q.q.q.q.q.q.q.q.q.q.q.9.2.2.    ",
"  % $ X . X * * & V T T r 8 9 # O O d f f 1.q.q.q.q.q.q.q.q.q.q.q.q.q.q.q.q.q.q.q.q.q.q.q.q.q.q.2.,.1.    ",
"  . . $ % $ . . . & * * T / / s i i 6.q.q.q.q.q.q.q.q.q.q.q.q.q.q.q.q.q.q.q.q.q.q.q.q.q.q.6.1.2.k .       ",
"    . % $ $ . . . & * = T / / s i i 6.q.q.q.q.q.q.q.q.q.q.q.q.q.q.q.q.q.q.q.q.q.q.q.q.q.q.5.2.2.          ",
"    . % % % . . . & = & U W W g f f 6.q.q.q.q.q.q.q.q.q.q.q.q.q.q.q.q.q.q.q.q.q.q.q.q.q.q.2.,.            ",
"    . % % % X . . * = = u i i 6.q.q.q.q.q.q.q.q.q.q.q.q.q.q.q.q.q.q.q.q.q.q.q.q.q.q.6.2.2.d               ",
"    . % % % X . . & = = u i i 6.q.q.q.q.q.q.q.q.q.q.q.q.q.q.q.q.q.q.q.q.q.q.q.q.q.q.5.2.2.                ",
"    . % % % . X . * = = i i i 6.q.q.q.q.q.q.q.q.q.q.q.q.q.q.q.q.q.q.q.q.q.q.q.q.q.q.6.2.                  ",
"      i i i i i i i i i 6.q.q.q.q.q.q.q.q.q.q.q.q.q.q.q.q.q.q.q.q.q.q.q.q.q.q.6.2.1.d                     ",
"      i i i i i i i i i 6.q.q.q.q.q.q.q.q.q.q.q.q.q.q.q.q.q.q.q.q.q.q.q.q.q.q.6.2.2.                      ",
"      i i i i i i i i i 6.q.q.q.q.q.q.q.q.q.q.q.q.q.q.q.q.q.q.q.q.q.q.q.q.q.q.5.2.2.                      ",
"        . . 2.2.2.2.2.2.9.q.q.q.q.q.q.q.q.q.q.q.q.q.q.q.q.q.q.q.q.q.q.q.6.2.2.i . .                       ",
"          . 2.2.2.2.2.2.q.q.q.q.q.q.q.q.q.q.q.q.q.q.q.q.q.q.q.q.q.q.q.q.5.2.2.i .                         ",
"            2.2.2.1.2.2.q.q.q.q.q.q.q.q.q.q.q.q.q.q.q.q.q.q.q.q.q.q.q.q.6.2.2.i . .                       ",
"                      . #.2.2.2.2.2.2.2.2.2.2.2.2.2.2.2.2.2.2.2.2.Q z z z z l z z z                       ",
"                        ,.2.2.2.2.2.2.2.2.2.2.2.2.2.2.2.2.2.2.2.2.Q z z z z z z z z 4                     ",
"                        1.2.2.2.2.2.2.2.2.2.2.2.2.2.2.2.2.2.2.2.2.Q z z z z z z z z : .                   ",
"                        . . . +.2.2.q.q.q.q.q.q.q.q.q.q.q.q.R z z M G G P I I P G G n z z                 ",
"                        . . . #.2.2.9.q.q.q.q.q.q.q.q.q.q.q.E z z M G G P I I H G G n z z                 ",
"                        . . . #.2.2.q.q.q.q.q.q.q.q.q.q.q.q.R z z M G G P I I H G G n z z 4               ",
"                          i i i i i 6.q.q.q.q.q.q.q.q.R z z S G G G G G P I I H G G G G G n z             ",
"                        i i i i i i 6.q.q.q.q.q.q.q.q.R z z F G G G G G P I I H G G G G G n z z           ",
"                        u i i i i i 6.q.q.q.q.q.q.q.q.R z z S G G G G G P I I H G G G G G n z z           ",
"                        1.2.2.d i i 6.q.q.q.q.q.q.q.q.R z z G I I I I I P G G P I I I I I m z z           ",
"                        1.2.2.d i i 6.q.q.q.q.q.q.q.q.R z z G I I I I I H G G P I I I I I m z z           ",
"                        1.2.2.d i i 6.q.q.q.q.q.q.q.q.R z z G I I I I I H G G P I I I I I m z z           ",
"                        ,.2.2.d i i 6.q.q.q.q.q.q.q.q.q.q.q.R l z D I I H G G P I I m z z ; .             ",
"                        ,.2.2.f i i 6.q.q.q.q.q.q.q.q.q.q.q.R z z D I I H G G P I I m z z : .             ",
"                        ,.2.2.d i i 6.q.q.q.q.q.q.q.q.q.q.q.R z z F I I H G G P I I m z l 3               ",
"                        >.2.2.d i i 6.q.q.q.q.q.q.q.q.q.q.q.>.O.O.Y z z z z z z z z ^ O.O.u               ",
"                      . >.2.2.d i i 6.q.q.q.q.q.q.q.q.q.q.q.>.O.O.Y z z z z z z z z ^ O.O.p               ",
"                    . . >.2.2.d i i 6.q.q.q.q.q.q.q.q.q.q.q.>.O.O.Y l l z z z z l l ^ O.O.a               ",
"                  <.2.2.d i i i i i 6.q.q.q.q.q.q.q.q.q.q.q.>.O.O.2.q.q.q.q.q.q.q.q.<.O.O.a               ",
"                  ,.2.2.d i i i i i 6.q.q.q.q.q.q.q.q.q.q.q.>.O.O.5.q.q.q.q.q.q.q.q.<.O.O.p               ",
"                  ,.2.2.d i i i i i 6.q.q.q.q.q.q.q.q.q.q.q.>.O.O.5.q.q.q.q.q.q.q.q.<.O.O.a               ",
"                  ,.2.2.q.q.q.q.q.q.q.q.q.q.q.q.q.q.q.>.O.O.6.q.q.q.q.q.q.q.q.<.O.O.,.2.2.h               ",
"                  ,.2.2.q.q.q.q.q.q.q.q.q.q.q.q.q.q.q.>.O.O.6.q.q.q.q.q.q.q.q.<.O.O.,.2.2.h               ",
"                  ,.2.2.9.q.q.q.q.q.q.q.q.q.q.q.q.q.q.>.O.O.6.q.q.q.q.q.q.q.q.<.O.O.,.2.2.h               ",
"                  ,.2.2.k f f f f f 6.q.q.q.q.q.q.q.q.>.O.O.6.q.q.<.+.+.+.+.+.5.9.9.4.2.2.k               ",
"                  ,.2.2.d i i i i i 6.q.q.q.q.q.q.q.q.>.O.O.6.q.q.<.O.O.O.O.O.5.q.q.6.2.2.]               ",
"                  ,.2.2.d i i i i i 6.q.q.q.q.q.q.q.q.>.O.O.6.q.q.<.O.O.O.O.O.5.q.q.6.2.2.k               ",
"                  ,.2.2.5.6.6.6.6.6.q.q.q.q.q.q.[ h f f f f X.+.+.O.O.O.2.9.9.9.q.q.5.2.2.h               ",
"                  >.2.2.q.q.q.q.q.q.q.q.q.q.q.q.[ a a a a a } O.O.O.O.O.4.q.q.q.q.q.6.2.2.a               ",
"                  ,.2.2.q.q.q.q.q.q.q.q.q.q.q.q.] d a a a a } O.o.O.O.O.5.q.q.q.q.q.5.2.2.i .             ",
"                . a d d f f f f f f 6.q.q.>.+.+.6.6.6.k a a 1.9.9.9.9.9.q.q.q.q.q.q.q.q.q.2.>.>.          ",
"                . y i i i i i i i i 6.q.q.>.O.O.6.q.q.] a a 1.q.q.q.q.q.q.q.q.q.q.q.q.q.q.6.2.2.          ",
"              . . y i i i i i i i i 6.q.q.>.O.O.6.q.q.[ a a 1.q.q.q.q.q.q.q.q.q.q.q.q.q.q.5.2.2.          ",
"            ,.>.+.5.6.6.6.6.6.f i i f f f ..O.O.6.q.q.#.X.X.5.q.q.q.q.q.q.q.q.q.q.q.q.q.q.6.2.2.          ",
"            2.2.2.9.q.q.q.q.q.f i i i i i } O.O.6.q.q.>.O.O.6.q.q.q.q.q.q.q.q.q.q.q.q.q.q.6.2.2.          ",
"            2.2.2.q.q.q.q.q.q.f i i i i i } O.O.6.q.q.>.O.O.6.q.q.q.q.q.q.q.q.q.q.q.q.q.q.5.2.2.          ",
"            2.2.2.q.q.q.q.q.q.6.6.6.6.6.6.6.9.9.>.+.+.j a d d f f f f f f f f f f f f f f f f d           ",
"            2.2.2.9.q.q.q.q.q.q.q.q.q.q.q.q.q.q.>.O.O.f i i i i i i i i i i i i i i i i i i i i           ",
"            2.2.2.q.q.q.q.q.q.q.q.q.q.q.q.q.q.q.>.O.O.f i i i i i i i i i i i i i i i i i i i i           ",
"            2.2.2.( L L L L L 8.q.q.q.q.q.q.q.q.5.1.1.6.6.6.6.6.6.6.6.6.6.6.6.6.6.6.6.6.6.1.,.,.          ",
"            2.2.2.K G G G G G 8.q.q.q.q.q.q.q.q.5.2.2.9.q.q.q.q.q.q.q.q.q.q.q.q.q.q.q.q.q.6.2.2.          ",
"            2.2.2.K G G G G G 8.q.q.q.q.q.q.q.q.5.2.2.9.q.q.q.q.q.q.q.q.q.q.q.q.q.q.q.q.q.6.2.2.          ",
"            b b b 3.8.8.8.8.8.) L L L L L -.5.2.y % % +.5.5.9.q.q.q.q.q.q.q.q.q.q.q.q.q.q.6.2.2.|         ",
"            z z z 7.q.q.q.q.q.L G G G G G =.2.2.t . . o.2.2.9.q.q.q.q.q.q.q.q.q.q.q.q.q.q.6.2.2.[         ",
"            z z z 7.q.q.q.q.q.L G G G G G =.2.2.    . o.2.2.9.q.q.q.q.q.q.q.q.q.q.q.q.q.q.5.2.2.j .       ",
"            l z z 7.q.q.q.q.q.8.8.8.8.8.8.! C         +.2.2.9.q.q.%.L L L L L L L L L L L :.q.q.2.>.,.    ",
"          . z z z 7.q.q.q.q.q.q.q.q.q.q.q.!           #.2.2.9.q.q.' G G G G G G G G G G G ;.q.q.6.2.2.O.  ",
"          . l z z 7.q.q.q.q.q.q.q.q.q.q.q.~             2.2.9.q.q.' G G G G G G G G G G G ;.q.q.6.2.2.O.  ",
"      1.,.>.7.7.7.q.q.q.q.q.q.q.q.q.5.5.4.p             < % c C C F G G &.8.8.8.8.8.` G G J L K Z b C x   ",
"      2.2.2.q.q.q.q.q.q.q.q.q.q.q.q.5.2.2.i               . 0 z l M G G ;.q.q.q.q.q.' G G G G G m z z q   ",
"    . 2.2.2.q.q.q.q.q.q.q.q.q.q.q.q.2.2.2.d                 q l l M G G ;.q.q.q.q.q.' G G G G G m z z q   ",
"  y y d d f f f f 6.q.q.q.q.q.q.q.q.2.2.2.d                   z z $.8.8.0.q.q.q.q.q.0.8.8.8.8.8._ l z q   ",
"  i i i i i i i i 6.q.q.q.q.q.q.q.q.5.2.2.d                   z z =.q.q.q.q.q.q.q.q.q.q.q.q.q.q.@.z l q   ",
"i i i i i i i i i 6.q.q.q.q.q.q.q.q.5.2.2.                      z =.q.q.q.q.q.q.q.q.q.q.q.q.q.q.@.z l q   ",
",.,.,.6.6.6.i i i f f f f f f f f f ,.2.2.                      + } 4.2.9.q.q.q.q.q.q.q.q.q.q.q.@.l z q   ",
"2.2.2.q.q.q.i i i i i i i i i i i i ,.2.2.                      . | 2.2.9.q.q.q.q.q.q.q.q.q.q.q.@.z z q   ",
"2.2.2.q.q.q.i i i i i i i i i i i i ,.2.2.                        | 2.2.9.q.q.q.q.q.q.q.q.q.q.q.@.z z q   ",
"9.9.9.q.q.q.1.1.1.1.1.1.1.1.1.f i i h j j                         a h h ] ] ] k ] ] ,.q.q.q.q.q.4.*.*. .  ",
"q.q.q.q.q.q.q.q.q.q.q.q.q.q.q.f i i i i i                         t i i i i i i i i +.q.q.q.q.q.6.2.2.O.  ",
"q.q.q.q.q.q.q.q.q.q.q.q.q.q.q.f i i i i i                         t i i i i i i i i +.q.q.q.q.q.6.2.2.O.  ",
"5.5.5.5.5.5.5.5.5.5.5.5.5.5.5.+.+.+.1 $                         . j +.+.,.1.1.[ i i j ] ] k ] k k j j a   ",
"2.2.2.2.2.2.2.2.2.2.2.2.2.2.2.2.2.2.% .                         . [ 2.2.9.q.q.{ i i i i i i i i i i i t   ",
"2.2.2.2.2.2.2.2.2.2.2.2.2.2.2.2.2.2.<                         . . [ 2.2.6.q.q.{ i i i i i i i i i i i t   ",
"                              i y                           | o...2.9.9.q.q.q.5.1.1.1.1.1.1.1.1.>.+.+.]   ",
"                                                            #.2.2.9.q.q.q.q.q.q.q.q.q.q.q.q.q.q.6.2.2.o.  ",
"                                                            >.2.2.9.q.q.q.q.q.q.q.q.q.q.q.q.q.q.6.2.2...  ",
"                                                              2 1 | 5.5.5.5.5.5.5.5.5.5.5.5.5.5.{ 2 2     ",
"                                                              . . [ 2.2.2.2.2.2.2.2.2.2.2.2.2.2.h . .     ",
"                                                                . { 2.2.2.2.2.2.2.2.2.2.2.2.2.2.j         ",
"                                                                    d d f       f f a y i i i i           "
};
