/* XPM */
static char *p_left_41670187212[] = {
/* columns rows colors chars-per-pixel */
"68 126 140 2 ",
"   c None",
".  c #000000",
"X  c #0A0803",
"o  c #0E0E0E",
"O  c #100F0F",
"+  c #151207",
"@  c #191200",
"#  c #1A160A",
"$  c #1C190A",
"%  c #131313",
"&  c #1B1B1B",
"*  c #271D05",
"=  c #291F06",
"-  c #2C2106",
";  c #27210D",
":  c #2B250E",
">  c #352707",
",  c #372A07",
"<  c #292517",
"1  c #362E12",
"2  c #232323",
"3  c #2D2C2C",
"4  c #302F2F",
"5  c #393425",
"6  c #363636",
"7  c #383737",
"8  c #3D3C3C",
"9  c #473D18",
"0  c #5D460D",
"q  c #4D421A",
"w  c #644C0D",
"e  c #73580F",
"r  c #66561E",
"t  c #46433B",
"y  c #4A453A",
"u  c #675922",
"i  c #695B23",
"p  c #706025",
"a  c #75652B",
"s  c #7C662D",
"d  c #434343",
"f  c #4B4B4B",
"g  c #565656",
"h  c #5D5D5D",
"j  c #615F5F",
"k  c #786F58",
"l  c #7F7652",
"z  c #7C725C",
"x  c #656464",
"c  c #6C6C6C",
"v  c #757474",
"b  c #797777",
"n  c #7C7B7B",
"m  c #846413",
"M  c #8A6912",
"N  c #957115",
"B  c #9B7516",
"V  c #9F7917",
"C  c #A57D18",
"Z  c #9E7E2E",
"A  c #877633",
"S  c #897734",
"D  c #AB8219",
"F  c #BD8F1C",
"G  c #988433",
"H  c #BF942A",
"J  c #A28232",
"K  c #B49B3C",
"L  c #CC9B1F",
"P  c #D19E20",
"I  c #C69D35",
"U  c #D6A221",
"Y  c #DDA622",
"T  c #E3AB23",
"R  c #E8AF24",
"E  c #EAB125",
"W  c #AF944F",
"Q  c #AF995F",
"!  c #B79A51",
"~  c #B0995F",
"^  c #BBA15F",
"/  c #938563",
"(  c #BDA66D",
")  c #BCA365",
"_  c #B8A470",
"`  c #BFAB76",
"'  c #C2A94A",
"]  c #C8A754",
"[  c #E0B958",
"{  c #D8B767",
"}  c #CDB270",
"|  c #E6C574",
" . c #838383",
".. c #888787",
"X. c #8A8A8A",
"o. c #959595",
"O. c #9C9B9B",
"+. c #A09E9E",
"@. c #AFA081",
"#. c #ABA089",
"$. c #A6A19C",
"%. c #AFA89C",
"&. c #BDB49C",
"*. c #A5A4A4",
"=. c #A8A5A5",
"-. c #ADADAD",
";. c #B2AFAF",
":. c #B3B0B0",
">. c #B8B5B5",
",. c #BEBEBE",
"<. c #C0B391",
"1. c #CABE9D",
"2. c #DAC48D",
"3. c #E2CF9E",
"4. c #D7CAA7",
"5. c #DACDAC",
"6. c #C7C1B5",
"7. c #D5CCB5",
"8. c #EFDCAC",
"9. c #E3D7B7",
"0. c #C3C2C2",
"q. c #C9C7C7",
"w. c #CBCBCB",
"e. c #D0CDCD",
"r. c #DFD8C8",
"t. c #DAD4C9",
"y. c #D5D5D5",
"u. c #D9D7D7",
"i. c #DBDBDB",
"p. c #E4DBC5",
"a. c #F5E7C7",
"s. c #F5E8C7",
"d. c #E9E5D9",
"f. c #E3E3E3",
"g. c #EBEBEB",
"h. c #F2EDE2",
"j. c #F7F2E8",
"k. c #F3F3F3",
"l. c #F8F6F1",
"z. c #FFFFFF",
/* pixels */
"                                                c x x c                                                                                 ",
"                                          . o.i.i.i.i.i.i.i.i.i.i.i.i.i.i.i.i.i.i.i.i.i.i.i.i.i.i.                                      ",
"                                        . . X.i.i.i.i.i.i.i.i.i.i.i.i.i.i.i.i.i.i.i.i.i.i.i.i.i.u.x                                     ",
"                                  f f 8 7 7 -.f.f.f.f.f.f.f.f.f.f.f.f.g.f.f.f.f.f.f.f.f.f.f.f.g.f.v d                                   ",
"                                 .i.i.i.i.i.k.z.z.z.z.z.z.z.z.z.z.z.z.z.z.z.z.z.z.z.z.z.z.z.z.z.z.g.u.i.                                ",
"                              . n i.i.i.i.u.k.z.z.z.z.z.z.z.z.z.z.z.z.z.z.z.z.z.z.z.z.z.z.z.z.z.z.g.i.i.f                               ",
"                              % c >.>.,.>.>.f.z.z.z.z.z.z.z.z.z.z.z.z.z.z.z.z.z.z.z.z.z.z.z.z.z.z.g.f.f.x d                             ",
"                            g g g g g g g g ,.z.z.z.z.z.z.z.z.z.z.z.z.z.z.z.z.z.z.z.z.z.z.z.z.z.z.z.z.z.f.i.i.                          ",
"                            g g g g g g g g ,.z.z.z.z.z.z.z.z.z.z.z.z.z.z.z.z.z.z.z.z.z.z.z.z.z.z.z.z.z.f.i.i.d                         ",
"                          3 f d d d 8 8 d d *.y.y.g.z.z.z.z.z.z.z.z.z.z.z.z.z.z.z.z.z.z.z.z.z.z.z.z.z.z.g.f.f.x d                       ",
"                          % & & o . . . . . 6 g g ,.z.z.z.z.z.z.z.z.z.z.z.z.z.z.z.z.z.z.z.z.z.z.z.z.z.z.z.z.z.f.i.i.                    ",
"                          % & & o . . . . . 6 g g ,.z.z.z.z.z.z.z.z.z.z.z.z.z.z.z.z.z.z.z.z.z.z.z.z.z.z.z.z.z.f.i.i.g                   ",
"                          % & & o . . . . . 6 f f ;.g.g.k.z.z.z.z.z.z.z.z.z.z.z.z.z.z.z.z.z.z.z.z.z.z.z.z.z.z.f.i.i.d                   ",
"                        . o & & o . . . . . . . . 6 g g ,.z.z.z.z.z.z.z.z.z.z.z.z.z.z.z.z.z.z.z.z.z.z.z.z.z.z.f.i.i.8                   ",
"                        . o & & o . . . . . . . . 6 g g ,.z.z.z.z.z.z.z.z.z.z.z.z.z.z.z.z.z.z.z.z.z.z.z.z.z.z.f.i.i.7 .                 ",
"                        . o & & o . . . . . . . . 4 f f -.g.g.k.z.z.z.z.z.z.z.z.z.z.z.z.z.z.z.z.z.z.z.z.z.z.z.g.f.i.g &                 ",
"                      & & % . . . . . . . . . . . . . . 6 g g ,.z.z.z.z.z.z.z.z.z.z.z.z.z.z.z.z.z.z.z.z.z.z.z.z.z.z.f.i.i.              ",
"                      & & o . . . . . . . . . . . . . . 6 g g 0.z.z.z.z.z.z.z.z.z.z.z.z.z.z.z.z.z.z.z.z.z.z.z.z.z.z.f.i.i.              ",
"                      & & % . . . . . . . . . . . . . . 6 f f -.g.g.k.z.z.z.z.z.z.z.z.z.z.z.z.z.z.z.z.z.z.z.z.z.z.z.f.i.i.              ",
"                      & & o . . . . . . . . . . . . . . . . . 6 g g ,.z.z.z.z.z.z.z.z.z.z.z.z.z.z.z.z.z.z.z.z.z.z.z.f.i.i.              ",
"                      & & o . . . . . . . . . . . . . . . . . 6 g g ,.z.z.z.z.z.z.z.z.z.z.z.z.z.z.z.z.z.z.z.z.z.z.z.g.i.i.              ",
"                      & & o . . . . . . . . . . . . . . . . . 7 g g ,.z.z.z.z.z.z.z.z.z.z.z.z.z.z.z.z.z.z.z.z.z.z.z.f.i.i.              ",
"                      & & % . . . . . . . . . . . . . . . . . 6 g g ,.z.z.z.z.z.z.z.z.z.z.z.z.z.z.z.z.z.z.z.z.z.z.z.f.i.i.              ",
"                    & & & o . . . . . . . . . . . . . . . . . 6 g g ,.z.z.z.z.z.z.z.z.z.z.z.z.z.z.z.z.z.z.z.z.z.z.z.f.i.i.              ",
"                    & & & % . . . . . . . . . . . . . . . . . 6 g g ,.z.z.z.z.z.z.z.z.z.z.z.z.z.z.z.z.z.z.z.z.z.z.z.f.i.i.              ",
"                    & & & o . . . . . . . . . . . . . . . . . 6 g g ,.z.z.z.z.z.z.z.z.z.z.z.z.z.z.z.z.z.z.z.z.z.z.z.f.i.i.              ",
"                    & & & o . . . . . . . . . . . . . . . . . 7 g g 0.z.z.z.z.z.z.z.z.z.z.z.z.z.z.z.z.z.z.z.z.z.z.z.f.i.i.              ",
"                    % & & o . . . . . . . . . . . . . . . . . 6 g g ,.z.z.z.z.z.z.z.z.z.z.z.z.z.z.z.z.z.z.z.z.z.z.z.f.i.i.              ",
"                    % & & o . . . . . . . . . . . . . . . . . 6 g g ,.z.z.z.z.z.z.z.z.z.z.z.z.z.z.z.z.z.z.z.z.z.z.z.f.i.i.              ",
"                    & & & % . . . . . . . . . . . . . . . . . 6 g g 0.z.z.z.z.z.z.z.z.z.z.z.z.z.z.z.z.z.z.z.z.z.z.z.g.i.i.              ",
"                    & & & o . . . X X . . . . . . . . . . . . 7 g g ,.z.z.z.z.z.z.z.z.z.z.z.z.z.z.z.z.z.z.z.z.z.z.z.f.i.i.              ",
"                    & & & o . . ; q q $ . . . . . . . . . . . 7 g g ,.z.z.z.z.z.z.z.z.z.z.z.z.z.z.z.z.z.z.z.z.z.z.z.f.i.i.              ",
"                    & & & O . . ; q q $ . . . . . . . . . . . 7 g g ,.z.z.z.z.z.z.z.z.z.z.z.z.z.z.z.z.z.z.z.z.z.z.z.f.i.i.              ",
"                    % & & O . . ; q q $ . . . . . . . . . . . 6 g g ,.z.z.z.z.z.z.z.z.z.z.z.z.z.z.z.z.z.z.z.z.z.z.z.f.i.i.              ",
"                    & & & & @ @ r K K p 9 9 # . . . . . . . . 6 g g ,.z.z.z.z.z.z.z.z.z.z.z.z.z.z.z.z.z.z.z.z.z.z.z.f.i.i.              ",
"                    & & & # @ @ r K K p 9 9 # . . . . . . . . 7 g g 0.z.z.z.z.z.z.z.z.z.z.z.z.z.z.z.z.z.z.z.z.z.z.z.f.i.i.              ",
"                    & & & $ @ @ r K K p 9 9 # . . . . . . . . 6 g g ,.z.z.z.z.z.z.z.z.z.z.z.z.z.z.z.z.z.z.z.z.z.z.z.f.i.i.              ",
"                    & & & < 1 1 u G G i q q $ . . . . . . . . 6 g g 0.z.z.z.z.z.z.z.z.z.z.z.z.z.z.z.z.z.z.z.z.z.z.z.g.i.i.              ",
"                    & & & < 1 1 u G G i q q $ . . . . . . . . 6 g g ,.z.z.z.z.z.z.z.z.z.z.z.z.z.z.z.z.z.z.z.z.z.z.z.f.i.i.              ",
"                    % & & < 1 1 u G G i q q $ . . . . . . . . 7 g g ,.z.z.z.z.z.z.z.z.z.z.z.z.z.z.z.z.z.z.z.z.z.z.z.f.i.i.              ",
"                      & & o . . + : : S ' ' a 9 9 # . . 6 g g ,.z.z.z.z.z.z.z.z.z.z.z.z.z.z.z.z.z.z.z.z.z.z.z.z.z.z.f.i.i.              ",
"                      & & o . . + : : A ' ' a 9 9 # . . 6 g g ,.z.z.z.z.z.z.z.z.z.z.z.z.z.z.z.z.z.z.z.z.z.z.z.z.z.z.f.i.i.              ",
"                      & & % . . + : : A ' ' a 9 9 # . . 6 g g ,.z.z.z.z.z.z.z.z.z.z.z.z.z.z.z.z.z.z.z.z.z.z.z.z.z.z.f.i.i.              ",
"                        . o & % o . . # ; ; A ' ' l g g 0.z.z.z.z.z.z.z.z.z.z.z.z.z.z.z.z.z.z.z.z.z.z.z.z.z.z.f.i.i.7 .                 ",
"                        . o & & o . . # ; ; A ' ' l g g ,.z.z.z.z.z.z.z.z.z.z.z.z.z.z.z.z.z.z.z.z.z.z.z.z.z.z.f.i.i.d                   ",
"                        . o & & o . . # ; ; A ' ' l g g ,.z.z.z.z.z.z.z.z.z.z.z.z.z.z.z.z.z.z.z.z.z.z.z.z.z.z.f.i.                      ",
"                          % & & O . . $ : : y g g 0.z.z.z.z.z.z.z.z.z.z.z.z.z.z.z.z.z.z.z.z.z.z.z.z.z.z.f.i.i.d                         ",
"                          o & & O . . $ ; : t g g ,.z.z.z.z.z.z.z.z.z.z.z.z.z.z.z.z.z.z.z.z.z.z.z.z.z.z.f.i.i.                          ",
"                          % & & O . . $ : : t g g ,.z.z.z.z.z.z.z.z.z.z.z.z.z.z.z.z.z.z.z.z.z.z.z.z.z.z.f.i.i.                          ",
"                          7 g g g g g g g g ,.z.z.z.z.z.z.z.z.z.z.z.z.z.z.z.z.z.z.z.z.z.z.z.z.z.z.g.i.i.8 .                             ",
"                            g g g g g g g g 0.z.z.z.z.z.z.z.z.z.z.z.z.z.z.z.z.z.z.z.z.z.z.z.z.z.z.f.i.i.8                               ",
"                            g g g g g g g g ,.z.z.z.z.z.z.z.z.z.z.z.z.z.z.z.z.z.z.z.z.z.z.z.z.z.z.g.i.i.d                               ",
"                            . . c i.i.i.i.i.k.z.z.z.z.z.z.z.z.z.z.z.z.z.z.z.z.z.z.z.z.( N N N N N N N N -                               ",
"                              . c i.i.i.i.i.g.z.z.z.z.z.z.z.z.z.z.z.z.z.z.z.z.z.z.z.z.( N N N N N N N N = .                             ",
"                              . v i.i.u.i.i.k.z.z.z.z.z.z.z.z.z.z.z.z.z.z.z.z.z.z.z.z.( N N N N N N N N * .                             ",
"                                x >.:.f.z.z.g.f.f.i.f.i.f.i.f.i.i.f.f.i.f.f.i.f._ J J H L P U T T U L L B m M -                         ",
"                                x ;.:.f.z.z.f.i.i.i.i.i.i.i.i.i.i.i.i.i.i.i.i.i.~ N N F U U T E E Y U U C N N -                         ",
"                                x ;.:.f.z.z.g.i.i.i.i.i.i.i.i.i.i.i.i.u.i.i.i.i.~ N N F U U T E E T U U C N N * .                       ",
"                              . j ;.;.f.z.z.g.i.i.g.l.z.z.l.l.z.z.z.l.z.z.` Z Z H L L P U U T E E Y U U P L L B m                       ",
"                              . g ;.;.f.z.z.g.u.i.k.z.z.z.z.z.z.z.z.z.z.z.( N N F U U U U U T E E Y U U U U U C N N                     ",
"                              . g :.:.f.z.z.g.i.i.k.z.z.z.z.z.z.z.z.z.z.z.( N N F P U U U U T E E T U U U U U C N N                     ",
"                            =.O.q.k.k.z.z.z.O.x x c c c w.z.z.z.z.z.z.z.z.( N N L R R R R R T U U T R R R R R C N N >                   ",
"                          x :.:.i.z.z.z.z.z.o.g g g g g ,.z.z.z.z.z.z.z.z.( N N L R E E E E Y U U T E E E E E D N N -                   ",
"                      . . h ;.:.y.z.z.z.z.z.o.g g g g g ,.z.z.z.z.z.z.z.z.( N N L E E E E E Y U U T E E E E E D N N * .                 ",
"                    n *.O.q.k.k.z.z.z.z.z.z.f.w.w. .g g ,.z.z.z.z.z.z.z.z.l.h.h.^ V V P E E Y U U T E E D C V @.=.%.$.+.=.              ",
"                    b :.;.u.z.z.z.z.z.z.z.z.f.i.i...g g ,.z.z.z.z.z.z.z.z.z.z.z.( N N L E E Y U U T E E D N N #.:.:.:.:.:.6             ",
"                    c :.;.u.z.z.z.z.z.z.z.z.g.i.i...g g ,.z.z.z.z.z.z.z.z.z.z.z.( N N L R E Y U U T E E C N N #.:.:.:.:.:.4 .           ",
"                    x :.;.u.z.z.z.z.z.g.i.f.i.i.i...g g ,.z.z.z.z.z.z.z.z.z.z.z.k.h.h.^ C B C B V V V V 9.h.h.j.l.k.k.k.k.:.+.*.        ",
"                  . h :.;.i.z.z.z.z.z.g.i.i.i.i.i...g g 0.z.z.z.z.z.z.z.z.z.z.z.z.z.z.( N N N N N N N N p.z.z.z.z.z.z.z.z.q.;.:.8       ",
"              . . . g :.:.y.z.z.z.z.z.f.i.i.i.i.i.X.g g ,.z.z.z.z.z.z.z.z.z.z.z.z.z.z.( N N N N N N N N p.z.z.z.z.z.z.z.z.q.:.:.4 .     ",
"          =.*.+.O.O. .c c :.z.z.z.z.z.g.i.i.i.i.i...g g ,.z.z.z.z.z.z.z.z.z.z.z.z.z.z.l.h.h.6.%.%.t.h.h.k.z.z.z.z.z.z.z.z.l.k.k.:.+.=.  ",
"      . j :.;.;.;.;...h h -.z.z.z.z.z.g.i.i.i.i.i...g g ,.z.z.z.z.z.z.z.z.z.z.z.z.z.z.z.z.z.e.:.;.f.z.z.z.z.z.z.z.z.z.z.z.z.z.z.q.;.;.  ",
"    . . h ;.;.:.:.:.X.h j -.z.z.z.z.z.g.i.i.i.i.i...g g ,.z.z.z.z.z.z.z.z.z.z.z.z.z.z.z.z.z.e.:.:.f.z.z.z.z.z.z.z.z.z.z.z.z.z.z.0.;.;.  ",
"    *.+.q.k.k.k.k.l.-.j h ;.z.z.i.,.,.e.i.u.o.x c h g g ,.z.z.z.z.z.z.z.z.z.z.z.z.z.z.z.z.z.z.k.k.e.>.,.,.,.>.k.z.z.z.z.z.z.z.z.q.;.;.  ",
"  b ;.;.u.z.z.z.z.z.-.h j -.z.z.y.;.:.w.i.i...g g g g g ,.z.z.z.z.z.z.z.z.z.z.z.z.z.z.z.z.z.z.z.z.e.:.:.:.:.:.g.z.z.z.z.z.z.z.z.q.:.:.  ",
"  b ;.;.u.z.z.z.z.z.-.h h -.z.z.u.;.:.w.i.i...g g g g g ,.z.z.z.z.z.z.z.z.z.z.z.z.z.z.z.z.z.z.z.z.e.:.:.:.:.:.g.z.z.z.z.z.z.z.z.0.:.:.  ",
"  2 4 4 b q.q.*.....v h h o.0.0.b 4 3 o.i.i.y.y.y.y.y.y.k.z.z.z.z.z.z.z.z.z.z.z.z.z.z.z.z.z.z.z.z.j.g.g.g.g.g.e.0.q.k.z.z.z.z.z.q.;.:.  ",
"    . . g ;.;...h h h h h ..:.;.g . . ..i.i.k.z.z.z.z.z.z.z.z.z.z.z.z.z.z.z.z.z.z.z.z.z.z.z.z.z.z.z.z.z.z.z.z.q.;.;.g.z.z.z.z.z.q.;.:.  ",
"      . x ;.;...h h h h h  .;.:.g . . X.i.i.k.z.z.z.z.z.z.z.z.z.z.z.z.z.z.z.z.z.z.z.z.z.z.z.z.z.z.z.z.z.z.z.z.0.;.:.g.z.z.z.z.z.0.;.;.  ",
"          g f 8 3 3 3 3 3 d g 7 & . . ..i.i.*. .n  .n  .w.z.z.z.z.z.z.z.z.z.z.z.z.z.z.z.z.z.z.z.z.z.z.z.z.z.z.0.;.;.g.z.z.z.z.z.q.;.;.  ",
"                                . . . X.i.i...g g g g g ,.z.z.z.z.z.z.z.z.z.z.z.z.z.z.z.z.z.z.z.z.z.z.z.z.z.z.0.:.:.g.z.z.z.z.z.0.:.;.  ",
"                                . . . ..i.i...g g g g g ,.z.z.z.z.z.z.z.z.z.z.z.z.z.z.z.z.z.z.z.z.z.z.z.z.z.z.0.:.:.g.z.z.z.z.z.q.:.;.  ",
"                                v *.*.i.k.l.i.y.y.y.y.y.k.z.z.z.z.z.z.z.z.z.z.z.z.z.z.z.z.z.z.z.z.z.z.z.z.z.z.k.g.g.+..... ... .d 3 6   ",
"                                *.i.i.k.z.z.z.z.z.z.z.z.z.z.z.z.z.z.z.z.z.z.z.z.z.z.z.z.z.z.z.z.z.z.z.z.z.z.z.z.z.z...h j h j h & .     ",
"                                -.i.i.k.z.z.z.z.z.z.z.z.z.z.z.z.z.z.z.z.z.z.z.z.z.z.z.z.z.z.z.z.z.z.z.z.z.z.z.z.z.z...h h h j h % .     ",
"                                h b b  .n  . . . .w.z.z.z.z.z.z.z.z.z.z.z.z.z.z.z.z.z.z.z.z.z.z.z.z.z.z.z.z.z.y.0.0.y.u.y.n h h &       ",
"                                d g g g g g g g g ,.z.z.z.z.z.z.z.z.z.z.z.z.z.z.z.z.z.z.z.z.z.z.z.z.z.z.z.z.z.0.:.:.g.z.z...h h &       ",
"                                d g g g g g g g g ,.z.z.z.z.z.z.z.z.z.z.z.z.z.z.z.z.z.z.z.z.z.z.z.z.z.z.z.z.z.0.:.:.g.z.z...j h &       ",
"                                o.,.,.w.y.y.X.g g v  . .w.z.z.z.z.z.z.z.z.z.z.z.z.z.z.z.z.z.z.z.z.z.z.z.z.z.z.0.:.:.g.z.z.>.O.O.        ",
"                                ;.u.u.k.z.z.o.g g g g g ,.z.z.z.z.z.z.z.z.z.z.z.z.z.z.z.z.z.z.z.z.z.z.z.z.z.z.0.:.:.g.z.z.0.;.;.        ",
"                                  i.i.k.z.z.o.g g g g g ,.z.z.z.z.z.z.z.z.z.z.z.z.z.z.z.z.z.z.z.z.z.z.z.z.z.z.0.:.:.g.z.z.0.:.          ",
"                                  d 7 O.f.f.y.y.y.X.g g v  .n  .n  .w.z.z.z.z.z.z.z.z.z.z.z.z.z.z.>. .n  .n  .v c c ;.0.0.g 7           ",
"                                    . X.i.i.k.z.z.o.g g g g g g g g ,.z.z.z.z.z.z.z.z.z.z.z.z.z.z.o.g g g g g g g g o.;.:.7             ",
"                                    . o.i.i.k.z.z.o.g g g g g g g g ,.z.z.z.z.z.z.z.z.z.z.z.z.z.z.o.g g g g g g g g O.;.:.              ",
"                                      O.i.i.k.z.z.i.y.y.y.y.y.X.g g v  . .n n  . . . .n  . .n  . .j g g >.y.y.0.,.,.g 8                 ",
"                                      O.i.i.k.z.z.z.z.z.z.z.z.o.g g g g g g g g g g g g g g g g g g g g y.z.z.f.i.i.8                   ",
"                                      *.i.i.k.z.z.z.z.z.z.z.z.o.g g g g g g g g g g g g g g g g g g g g y.z.z.f.i.i.d                   ",
"                                      *.i.i.3.| | | | | | | | 1.6.,.,.,.,.0.0.,.,.0.0.,.,.0.0.,.,.0.0.,.g.z.z.f.i.i.f                   ",
"                                      -.i.i.{ U U U U U U U U 8.z.z.z.z.z.z.z.z.z.z.z.z.z.z.z.z.z.z.z.z.z.z.z.f.i.i.f                   ",
"                                      >.u.i.{ U U U U U U U U 8.z.z.z.z.z.z.z.z.z.z.z.z.z.z.z.z.z.z.z.z.z.z.z.f.i.i.f                   ",
"                                        Q ~ I U U | 8.8.[ U U [ | | s.z.z.k.g.f.f.g.g.k.z.z.8.| | | | | | | | r.i.i.f                   ",
"                                        N N F U U 8.z.z.| U U U U U 8.z.z.g.i.i.i.i.u.k.z.z.| U U U U U U U U 5.i.i.f                   ",
"                                        N N F U U 8.z.z.| U U U U U 8.z.z.g.i.i.i.i.u.k.z.z.| U U U U U U U U 5.i.i.f                   ",
"                                        N N } 8.8.j.z.z.a.8.8.[ U U ] ( ( k g f g g g / ( ( 2.8.8.8.8.8.8.8.8.) ~ ~ 5                   ",
"                                      e N N 4.z.z.z.z.z.z.z.z.| U U D N N , . . . . . 0 N N 4.z.z.z.z.z.z.z.z.W N N =                   ",
"                                    . w N N 4.z.z.z.z.z.z.z.z.| U U D N N , . . . . . 0 N N 4.z.z.z.z.z.z.z.z.W N N * .                 ",
"                                  O.X.&.4.4.h.z.z.z.z.z.z.z.z.a.8.8.! N N , . . . . . k <.&.d.z.z.z.z.z.z.z.z.p.4.4.s w                 ",
"                                  i.i.k.z.z.z.z.z.z.z.z.z.z.z.z.z.z.( N N , . . . . . X.u.i.k.z.z.z.z.z.z.z.z.z.z.z.W N N               ",
"                                *.i.i.k.z.z.z.z.z.z.z.z.z.z.z.z.z.z.( N N > . . . . . X.i.i.k.z.z.z.z.z.z.z.z.z.z.z.W N N               ",
"                                O.i.i.k.z.z.z.z.z.z.z.z.z.z.z.z.z.z.7.<.&.t . . . . . g ....o.o.o.o.o.o.o.o.o.g.z.z.7.<.<.              ",
"                                o.i.i.k.z.z.z.z.z.z.z.z.z.z.z.z.z.z.g.i.i.g . . . . . 6 g g g g g g g g g g g y.z.z.f.i.i.              ",
"                                X.i.i.k.z.z.z.z.z.z.z.z.z.z.z.z.z.z.g.i.i.g . . . . . 6 g g g g g g g g g g g y.z.z.f.i.i.              ",
"                                g ..X.o.o.o.o.o.o.o.o.o.y.z.z.z.z.z.g.i.i.f . . g ....-.,.,.,.0.,.,.0.,.c g g n o.o.X.X.X.              ",
"                              . 3 g g g g g g g g g g g ,.z.z.z.z.z.g.i.i.g . . ..i.i.k.z.z.z.z.z.z.z.z. .g g g g g g g g               ",
"                              . 3 g g g g g g g g g g g ,.z.z.z.z.z.g.i.i.g . . ..i.i.k.z.z.z.z.z.z.z.z. .g g g g g g g g               ",
"                            O.X.*.,.,.,.0.,.,.0.,. .g g  .o.o.o.o.o.c h c 2 . . X.i.i.k.z.z.z.z.z.z.z.z.y.0.,.0.0.,.-.-.-.              ",
"                          o.i.i.g.z.z.z.z.z.z.z.z.o.g g g g g g g g 2 .       . X.i.i.k.z.z.z.z.z.z.z.z.z.z.z.z.z.z.f.i.i.              ",
"                          ..i.i.g.z.z.z.z.z.z.z.z.o.g g g g g g g g             =.i.i.k.z.z.z.z.z.z.z.z.z.z.z.z.z.z.f.i.i.              ",
"                           .i.i.g.z.z.z.z.z.z.z.z.w.=.-.*.o.o.g 3                 n v ,.g.g.g.g.g.g.g.g.k.g.g.g.g.g.o.c b               ",
"                           .i.i.g.z.z.z.z.z.z.z.z.z.z.z.g.i.i.g .                   . X.i.i.i.i.i.i.i.i.i.i.i.i.i.i.6 .                 ",
"                          X.i.i.g.z.z.z.z.z.z.z.z.z.z.z.g.i.i.g                     . o.i.i.i.i.i.i.i.i.i.i.i.i.i.i.7 .                 ",
"                          g v c :.g.g.g.k.g.g.g.g.g.g.g.f.i.i.v                         X.X.....X... ... ..... . . .                    ",
"                            . . c i.i.i.i.i.i.i.i.i.i.i.i.i.i. .                                                                        ",
"                              . v i.i.i.i.i.i.i.i.i.i.i.i.i.i.                                                                          ",
"                                g O.*.*.=.*.=.*.*.+.X...X.o.o.                                                                          ",
"                                                                                                                                        "
};
