/* XPM */
static char *p_right_11670187212[] = {
/* columns rows colors chars-per-pixel */
"52 130 124 2 ",
"   c None",
".  c #000000",
"X  c #0A0803",
"o  c #0A0909",
"O  c #191201",
"+  c #1A1709",
"@  c #1C190A",
"#  c #151515",
"$  c #1C1C1C",
"%  c #221D0B",
"&  c #27210D",
"*  c #2A240E",
"=  c #382B08",
"-  c #3F3009",
";  c #352D12",
":  c #3A3113",
">  c #222222",
",  c #2B2B2B",
"<  c #353535",
"1  c #3B3B3B",
"2  c #4B390A",
"3  c #473D18",
"4  c #5D460C",
"5  c #5F480E",
"6  c #4D421A",
"7  c #694F0E",
"8  c #6E530F",
"9  c #73560F",
"0  c #75580F",
"q  c #735710",
"w  c #7B5C11",
"e  c #45433B",
"r  c #4C483A",
"t  c #695B23",
"y  c #685C3E",
"u  c #706026",
"i  c #75662B",
"p  c #7F6E2A",
"a  c #424242",
"s  c #4C4C4C",
"d  c #514F4D",
"f  c #565656",
"g  c #5E5E5E",
"h  c #7F7448",
"j  c #646155",
"k  c #656565",
"l  c #6B6B6B",
"z  c #747373",
"x  c #797777",
"c  c #7D7C7C",
"v  c #856514",
"b  c #957115",
"n  c #9B7617",
"m  c #8B702B",
"M  c #8D792D",
"N  c #9C7C2B",
"B  c #887633",
"V  c #897833",
"C  c #817E7E",
"Z  c #AD8319",
"A  c #B5891B",
"S  c #BC8E1C",
"D  c #BF911D",
"F  c #988433",
"G  c #BC9126",
"H  c #B49B3C",
"J  c #C6961E",
"K  c #CC9A1F",
"L  c #C6992A",
"P  c #D19E20",
"I  c #D6A221",
"U  c #DBA522",
"Y  c #DEA822",
"T  c #DBAD3D",
"R  c #E3AB24",
"E  c #EAB125",
"W  c #8C8050",
"Q  c #A78B46",
"!  c #A98D49",
"~  c #B29140",
"^  c #B29B43",
"/  c #AF9450",
"(  c #B39B5C",
")  c #A49062",
"_  c #BDA66D",
"`  c #C2A94A",
"'  c #E1B958",
"]  c #D8BE7E",
"[  c #E5C574",
"{  c #828282",
"}  c #8B8B8B",
"|  c #949494",
" . c #9B9B9B",
".. c #A6A59F",
"X. c #A8A79F",
"o. c #BEB49D",
"O. c #A3A3A3",
"+. c #AAAAAA",
"@. c #B2AFAF",
"#. c #B3B0B0",
"$. c #BDBCBC",
"%. c #C7B78F",
"&. c #CAB88A",
"*. c #D7BD80",
"=. c #C1BFBF",
"-. c #D9C695",
";. c #D7C9A7",
":. c #CFC9B9",
">. c #C3C2C2",
",. c #CDCCCC",
"<. c #D2CEC3",
"1. c #D5D5D5",
"2. c #D9D7D7",
"3. c #DBDBDB",
"4. c #E5DFCD",
"5. c #F5E8C7",
"6. c #EBE7DF",
"7. c #E3E3E3",
"8. c #EBEBEB",
"9. c #F2EDE2",
"0. c #FAF4E3",
"q. c #FBF7EF",
"w. c #F3F3F3",
"e. c #FFFFFF",
/* pixels */
"                                                                                                        ",
"                              } }                               } } { } { }                             ",
"                        3.3.3.3.3.2.3.3.3.3.3.3.3.3.3.3.2.3.3.3.3.3.3.3.2.3.3. .                        ",
"                    . f 3.3.3.3.3.3.3.3.3.3.3.3.3.3.3.3.3.3.3.3.3.3.3.3.3.3.3.| . .                     ",
"                  } z  .8.8.8.8.8.w.8.8.8.w.8.8.8.8.8.8.8.8.8.w.8.8.8.8.8.8.8.$.l x { { }               ",
"                c 2.2.8.e.e.e.e.e.e.e.e.e.e.e.e.e.e.e.e.e.e.e.e.e.e.e.e.e.e.e.w.3.2.3.3.2.+.            ",
"              . z 2.3.7.e.e.e.e.e.e.e.e.e.e.e.e.e.e.e.e.e.e.e.e.e.e.e.e.e.e.e.w.3.3.3.2.3.O.. .         ",
"          f k f  .8.8.w.e.e.e.e.e.e.e.e.e.e.e.e.e.e.e.e.e.e.e.e.e.e.e.e.e.e.e.7.+.+.+.+.+.} > >         ",
"        . | 2.3.8.e.e.e.e.e.e.e.e.e.e.e.e.e.e.e.e.e.e.e.e.e.e.e.e.e.e.e.e.e.e.$.f f f f d f f f f       ",
"        . } 3.3.w.e.e.e.e.e.e.e.e.e.e.e.e.e.e.e.e.e.e.e.e.e.e.e.e.e.e.e.e.e.e.$.f f f f f f f f d       ",
"      k f +.7.8.w.e.e.e.e.e.e.e.e.e.e.e.e.e.e.e.e.e.e.e.e.e.e.e.e.e.e.e.3.>.=.} < < < < < < a a 1       ",
"      2.2.w.e.e.e.e.e.e.e.e.e.e.e.e.e.e.e.e.e.e.e.e.e.e.e.e.e.e.e.e.e.e.+.f f < . . . . . o $ $ $       ",
"    +.2.3.w.e.e.e.e.e.e.e.e.e.e.e.e.e.e.e.e.e.e.e.e.e.e.e.e.e.e.e.e.e.e.+.f f < . . . . . o $ $ $ .     ",
"  .  .3.2.w.e.e.e.e.e.e.e.e.e.e.e.e.e.e.e.e.e.e.e.e.e.e.e.e.e.e.e.1.$.>.x < < > . . . . . o $ $ $ .     ",
"  . } 3.3.w.e.e.e.e.e.e.e.e.e.e.e.e.e.e.e.e.e.e.e.e.e.e.e.e.e.e.e.| f f , . . . . . . . . X $ $ $ .     ",
"  . } 3.3.w.e.e.e.e.e.e.e.e.e.e.e.e.e.e.e.e.e.e.e.e.e.e.e.e.e.e.e.| f f , . . . . . . . . o $ $ # .     ",
"a < +.7.7.w.e.e.e.e.e.e.e.e.e.e.e.e.e.e.e.e.e.e.e.e.e.e.e.e.3.1.1.x a a $ . . . . . . . . X # # # o     ",
"2.2.w.e.e.e.e.e.e.e.e.e.e.e.e.e.e.e.e.e.e.e.e.e.e.e.e.e.e.e.{ f f $ . . . . . . . . . . . . . . . $     ",
"3.3.w.e.e.e.e.e.e.e.e.e.e.e.e.e.e.e.e.e.e.e.e.e.e.e.e.e.e.e.{ f f > . . . . . . . . . . . . . . . $ $   ",
"3.3.w.e.e.e.e.e.e.e.e.e.e.e.e.e.e.e.e.e.e.e.e.e.e.e.e.3.1.1.k a a # . . . . . . . . . . . . . . . $ $   ",
"3.3.w.e.e.e.e.e.e.e.e.e.e.e.e.e.e.e.e.e.e.e.e.e.e.e.e.l f f # . . . . . . . . . . . . . . . . . o $ $   ",
"3.3.w.e.e.e.e.e.e.e.e.e.e.e.e.e.e.e.e.e.e.e.e.e.e.e.e.l f f # . . . . . . . . . . . . . . . . . . $ $   ",
"3.2.w.e.e.e.e.e.e.e.e.e.e.e.e.e.e.e.e.e.e.e.e.e.e.e.e.l f f # . . . . . . . . . . . . . . . . . . $ $   ",
"3.2.w.e.e.e.e.e.e.e.e.e.e.e.e.e.e.e.e.e.e.e.e.e.e.e.e.l f f # . . . . . . . . . . . . . . . . . o $ $   ",
"3.3.w.e.e.e.e.e.e.e.e.e.e.e.e.e.e.e.e.e.e.e.e.e.e.e.e.l f f # . . . . . . . . . . . . . . . . . . $ $   ",
"3.3.w.e.e.e.e.e.e.e.e.e.e.e.e.e.e.e.e.e.e.e.e.e.e.e.e.l f f # . . . . . . . . . . . . . . . . . o $ $ $ ",
"3.3.w.e.e.e.e.e.e.e.e.e.e.e.e.e.e.e.e.e.e.e.e.e.e.e.e.l f f # . . . . . . . . . . . . . . . . . . $ $ $ ",
"3.3.w.e.e.e.e.e.e.e.e.e.e.e.e.e.e.e.e.e.e.e.e.e.e.e.e.l f f # . . . . . . . . . . . . . . . . . . $ $ $ ",
"3.2.w.e.e.e.e.e.e.e.e.e.e.e.e.e.e.e.e.e.e.e.e.e.e.e.e.l f f # . . . . . . . . . . . . . . . . . . > $ $ ",
"3.3.8.e.e.e.e.e.e.e.e.e.e.e.e.e.e.e.e.e.e.e.e.e.e.e.e.l f f # . . . . . . . . . . . . . . . . . . $ $ $ ",
"3.3.w.e.e.e.e.e.e.e.e.e.e.e.e.e.e.e.e.e.e.e.e.e.e.e.e.l f f # . . . . . . . . . . . . . . . . . o $ $ $ ",
"3.3.w.e.e.e.e.e.e.e.e.e.e.e.e.e.e.e.e.e.e.e.e.e.e.e.e.l f f # . . . . . . . . . . . X X o X . . . $ $ $ ",
"3.3.w.e.e.e.e.e.e.e.e.e.e.e.e.e.e.e.e.e.e.e.e.e.e.e.e.l f f # . . . . . . . . . . . @ 6 6 : . . o $ $ $ ",
"3.3.w.e.e.e.e.e.e.e.e.e.e.e.e.e.e.e.e.e.e.e.e.e.e.e.e.l f f # . . . . . . . . . . . @ 6 6 : . . . $ $ $ ",
"3.2.w.e.e.e.e.e.e.e.e.e.e.e.e.e.e.e.e.e.e.e.e.e.e.e.e.l f f # . . . . . . . . . . . @ 6 6 : . . . $ $ $ ",
"3.2.w.e.e.e.e.e.e.e.e.e.e.e.e.e.e.e.e.e.e.e.e.e.e.e.e.l f f # . . . . . . . . + 3 3 u H H M O O + $ $ $ ",
"3.3.w.e.e.e.e.e.e.e.e.e.e.e.e.e.e.e.e.e.e.e.e.e.e.e.e.l f f # . . . . . . . . + 3 3 t H H M O O + $ $ $ ",
"3.3.w.e.e.e.e.e.e.e.e.e.e.e.e.e.e.e.e.e.e.e.e.e.e.e.e.l f f # . . . . . . . . + 3 3 u H H M O O O $ $ $ ",
"3.3.w.e.e.e.e.e.e.e.e.e.e.e.e.e.e.e.e.e.e.e.e.e.e.e.e.l f f # . . . . . . . . @ 6 6 t F F p ; ; ; $ $ $ ",
"3.3.w.e.e.e.e.e.e.e.e.e.e.e.e.e.e.e.e.e.e.e.e.e.e.e.e.l f f # . . . . . . . . @ 6 6 t F F m ; ; ; $ $ $ ",
"3.3.8.e.e.e.e.e.e.e.e.e.e.e.e.e.e.e.e.e.e.e.e.e.e.e.e.l f f # . . . . . . . . @ 6 6 t F F p ; ; ; $ $ $ ",
"3.3.w.e.e.e.e.e.e.e.e.e.e.e.e.e.e.e.e.e.e.e.e.e.e.e.e.e.e.e.{ f f > . . & 3 3 i ` ` V * * % . . . $ $   ",
"3.3.w.e.e.e.e.e.e.e.e.e.e.e.e.e.e.e.e.e.e.e.e.e.e.e.e.e.e.e.c f f > . . % 3 3 i ` ` V * * @ . . X $ $   ",
"3.3.w.e.e.e.e.e.e.e.e.e.e.e.e.e.e.e.e.e.e.e.e.e.e.e.e.e.e.e.{ f f > . . % 3 6 i ` ` V * * % . . . $ $   ",
"$ $  .7.7.w.e.e.e.e.e.e.e.e.e.e.e.e.e.e.e.e.e.e.e.e.e.e.e.e.w.8.8.{ s s h / ^ V : : % X X o # # # . X   ",
". . } 2.3.w.e.e.e.e.e.e.e.e.e.e.e.e.e.e.e.e.e.e.e.e.e.e.e.e.e.e.e.| f f W ` ` V & & + . . X $ $ # . .   ",
"  . | 3.3.w.e.e.e.e.e.e.e.e.e.e.e.e.e.e.e.e.e.e.e.e.e.e.e.e.e.e.e.| f f V ` ` B & & + . . . # $ # . .   ",
"    $ > $  .3.7.8.e.e.e.e.e.e.e.e.e.e.e.e.e.e.e.e.e.e.e.e.e.e.e.e.w.8.8.+.j j r & & @ . . X $ $ $ .     ",
"        . } 2.3.8.e.e.e.e.e.e.e.e.e.e.e.e.e.e.e.e.e.e.e.e.e.e.e.e.e.e.e.+.f f e * * + . X X $ $ $ .     ",
"          | 3.3.8.e.e.e.e.e.e.e.e.e.e.e.e.e.e.e.e.e.e.e.e.e.e.e.e.e.e.e.+.f f e * * + . . o $ $ $ .     ",
"            , $ { 3.7.8.e.e.e.e.e.e.e.e.e.e.e.e.e.e.e.e.e.e.e.e.e.e.e.e.w.8.8.#.s d s s s s s s a       ",
"                { 3.2.7.e.e.e.e.e.e.e.e.e.e.e.e.e.e.e.e.e.e.e.e.e.e.e.e.e.e.e.=.f f f f f f f f f       ",
"                 .2.2.8.e.e.e.e.e.e.e.e.e.e.e.e.e.e.e.e.e.e.e.e.e.e.e.e.e.e.e.$.f f f f f f f f f       ",
"                  1 1 z 7.7.8.e.e.e.e.e.e.e.e.e.e.e.e.e.e.e.e.e.e.e.e.e.e.e.e.7.$.$.$.$.$.} # $         ",
"                  . . f 3.3.7.e.e.e.e.e.e.e.e.e.e.e.e.e.e.e.e.e.e.e.e.e.e.e.e.w.3.3.3.3.2.+..           ",
"                    . f 3.3.7.e.e.e.e.e.e.e.e.e.e.e.e.e.e.e.e.e.e.e.e.e.e.e.e.w.3.3.3.2.2.$.            ",
"                  0 8 m Q Q ! / / ( 7.7.7.7.8.7.7.7.8.7.7.7.7.7.7.7.7.7.7.7.7.+.< a s s s               ",
"                4 b b b b b b b b N 3.3.3.3.2.3.3.3.3.3.3.3.3.3.2.3.3.3.3.3.3.| .                       ",
"              . 2 b b b b b b b b N 3.3.3.3.3.3.3.3.3.3.7.3.3.3.3.2.3.3.2.3.3. .                        ",
"            w 9 n J J K I I P J J L ! ! ! w.w.w.e.w.w.w.w.w.w.w.w.8.3.3.} < 1 ,                         ",
"          7 b b A I I Y E E R I I P b b b e.e.e.e.e.e.e.e.e.e.e.e.8.3.3.l . .                           ",
"        . 5 b b A I I Y E E E I I P b b b e.e.e.e.e.e.e.e.e.e.e.e.8.3.2.z . .                           ",
"      8 5 n D S K I I Y E E R I I P D D D _ _ _ e.e.e.e.e.e.e.e.e.#.} } g < <                           ",
"    0 b b S I I I I I Y E E R I I I I I I b b b e.e.e.e.e.e.e.e.e.| f f f f f                           ",
"    q b b S I I I I I U E E R I I I I I I b b b e.e.e.e.e.e.e.e.e.| f f f f f a                         ",
"    9 b b J R R R R R R Y Y R R R R R R R b b b e.e.e.e.e.e.e.e.e.| f f { #.$.}                         ",
"    0 b b P E E E E E R I I U E E E E E E b b b e.e.e.e.e.e.e.e.e.| f f O.8.8.$.                        ",
"    0 b b J E E E E E R I I U E E E E E E b b b e.e.e.e.e.e.e.e.e.| f f  .8.7.$.                        ",
"      - = v A A P E E R I I U E E R A A A ;.;.;.e.e.e.e.e.e.e.e.e.| f f  .8.8.$.                        ",
"      . . 4 b b D E E R I I U E E Y b b b e.e.e.e.e.e.e.e.e.e.e.e.| f f O.8.8.$.                        ",
"        . 5 b b D E E R I I I E E R b b b e.e.e.e.e.e.e.e.e.e.e.e.| f f  .8.7.$.                        ",
"        . y ) ) ~ D D S A A S D D G ) ) ) e.e.e.e.e.e.e.e.e.e.e.e. .f f O.8.8.@.                        ",
"          z @.@.) b b b b b b b b N #.#.#.e.e.e.e.e.e.e.e.e.e.e.e.| f f O.8.8.O.                        ",
"          z #.@.) b b b b b b b b N @.#.@.e.e.e.e.e.e.e.e.e.e.e.e.| f f O.8.8.| .                       ",
"          z @.#.o.&.&.&.&.&.&.&.&.%.@.#.#.e.e.e.e.e.e.e.e.e.e.e.e.| f f x O. .| c }                     ",
"          x @.#.2.e.e.e.e.e.e.e.e.w.@.@.#.e.e.e.e.e.e.e.e.e.e.e.e.| f f f f f } 8.8.3.                  ",
"          x @.#.2.e.e.e.e.e.e.e.e.w.#.#.@.e.e.e.e.e.e.e.e.e.e.e.e.| f f f f f | 8.8.3.                  ",
"          c @.#.2.e.e.e.e.e.e.e.e.w.@.#.#.e.e.e.e.e.e.e.e.e.e.e.e.,.+.+.+.+.+.=.7.8.7.                  ",
"          { #.#.2.e.e.e.e.e.e.e.e.w.#.@.#.e.e.e.e.e.e.e.e.e.e.e.e.e.e.e.e.e.e.w.8.8.3.                  ",
"          C #.@.2.e.e.e.e.e.e.e.e.w.#.#.@.e.e.e.e.e.e.e.e.e.e.e.e.e.e.e.e.e.e.w.8.8.7.                  ",
"          x @.#.,.7.7.8.e.e.e.e.e.w.#.#.#.e.e.e.e.e.e.e.e.e.e.e.e.1.$.>.>.=.=.,.8.8.3.                  ",
"        . z #.#.@.@.#.,.e.e.e.e.e.w.#.#.#.e.e.e.e.e.e.e.e.e.e.e.e.| f f f f f } 8.8.7.                  ",
"        . l #.#.@.@.#.,.e.e.e.e.e.w.#.#.#.e.e.e.e.e.e.e.e.e.e.e.e.| f f f f f } 8.7.3.                  ",
"      k f  .,.,.=.@.@.,.e.e.e.e.e.w.@.@.#.e.e.e.e.e.e.e.e.e.e.e.e.>.| | | | | $.8.8.3.                  ",
"    $.2.2.w.e.e.2.#.#.,.e.e.e.e.e.w.#.#.#.e.e.e.e.e.e.e.e.e.e.e.e.e.e.e.e.e.e.w.8.8.3.                  ",
"    #.2.3.w.e.e.2.#.#.,.e.e.e.e.e.w.@.#.#.e.e.e.e.e.e.e.e.e.e.e.e.e.e.e.e.e.e.w.8.8.7.                  ",
"    $.2.3.w.e.e.2.#.#.,.e.e.w.7.7.7.,.,.,.e.e.e.e.e.e.e.e.e.e.e.e.e.e.e.3.>.=.$.#.#.+.                  ",
"    $.2.2.w.e.e.2.#.#.,.e.e.8.#.@.$.e.e.e.e.e.e.e.e.e.e.e.e.e.e.e.e.e.e.+.f f f f f f                   ",
"    $.3.2.w.e.e.2.@.@.,.e.e.8.@.@.$.e.e.e.e.e.e.e.e.e.e.e.e.e.e.e.e.e.e.+.f f f f f f                   ",
"    $.3.3.w.e.e.7.>.>.2.8.8.2. . .+.1.1.1.e.e.e.e.e.e.e.e.e.3.1.1.1.1.1.+.c { c x x x                   ",
"    $.2.3.w.e.e.e.e.e.7.#.#. .g g g k g g e.e.e.e.e.e.e.e.e.{ f f f f f +.e.e.w.3.3.,.                  ",
"    $.3.2.w.e.e.e.e.e.7.#.#. .g g g g g g e.e.e.e.e.e.e.e.e.c f f f f f +.e.e.8.3.3.,.                  ",
"    $.2.3.w.e.e.e.e.e.7.>.>.+.g g g { { { 8.8.8.e.e.e.3.1.1.| { { c { { =.e.e.w.3.3.,.                  ",
"    $.3.2.w.e.e.e.e.e.e.e.e.2.g g z e.e.e.#.#.@.e.e.e.l f f 1.e.e.e.e.e.e.e.e.w.3.2.,.                  ",
"    $.3.2.w.e.e.e.e.e.e.e.e.2.g g z e.e.e.#.@.@.e.e.e.l f f 1.e.e.e.e.e.e.e.e.w.3.3.                    ",
"    O.+.O.>.1.1.8.e.e.e.e.e.3.z x { e.e.e.#.@.@.1.1.1.k f f 1.e.e.e.e.e.e.w.w.3.O.+.                    ",
"      . . < f f +.e.e.e.e.e.8.#.#.$.e.e.e.@.@.#.f f f f f f 3.e.e.e.e.e.8.3.3.} . .                     ",
"      . . < f f +.e.e.e.e.e.8.#.#.$.e.e.e.@.@.@.f f f f f f 1.e.e.e.e.e.8.3.2.| .                       ",
"        . 1 l k +.8.8.8.7.8.2.+.O.@.w.w.w.+.O.+.f f f l l l :.0.0.0.0.0.9.3.3. .                        ",
"        . } 3.2.| f f f f f f f f k @.@.#.f f f f f f 8.e.e.' I I I I I ] 2.3.O.                        ",
"        . } 3.3.| f f f f f f f f k @.@.@.f f f f f f 8.e.e.' I I I I I ] 3.3.+.                        ",
"        . } 3.3.+.l l l l l l l l x $.$.=.k k k l l l 4.0.0.[ T T T T T *.<.<.X.                        ",
"          } 3.3.8.e.e.e.e.e.e.e.e.e.e.e.e.3.3.3.e.e.e.T I I 5.e.e.e.e.e.&.b b 0                         ",
"          } 3.3.8.e.e.e.e.e.e.e.e.e.e.e.e.2.3.3.e.e.e.T I I 5.e.e.e.e.e.&.b b                           ",
"          { >.$.3.e.e.q.0.0.0.0.0.0.0.0.0.<.<.<.0.0.0.' T T 5.e.e.e.e.e.&.b b                           ",
"          . . . l 3.2.-.I I I I I I I I I b b b I I I 0.e.e.e.e.e.e.e.e.&.b b                           ",
"          . . . l 3.3.-.I I I I I I I I I b b b I I I 0.e.e.e.e.e.e.e.e.&.b b                           ",
"          . . . l 3.3.-.I I I I I I I I I b b b I I I 0.e.e.e.e.e.e.e.e.&.b b w                         ",
"          . . . 2 b b Z I I ' e.e.e.e.e.e.b b b b b b 9.e.e.e.e.e.e.e.e.8.3.2.+.                        ",
"          . . . 2 b b Z I I ' e.e.e.e.e.e.b b b b b b 9.e.e.e.e.e.e.e.e.8.3.3. .                        ",
"          . . . 2 b b Z I I ' e.e.e.e.e.e.b b b b b b 9.e.e.e.e.e.e.e.e.w.2.3.| .                       ",
"          . . . 2 b b _ e.e.e.e.e.e.e.e.e.e.e.e.b b b 9.e.e.C f f f f f f f f f f f                     ",
"          . . . 2 b b _ e.e.e.e.e.e.e.e.e.e.e.e.b b b 9.e.e.{ f f f f f f f f f f f a                   ",
"          . . . 2 b b _ e.e.e.e.e.e.e.e.e.e.e.e.b b b 9.e.e.c f f f f f f f f f f f 1 .                 ",
"           .3.3.8.e.e.e.e.e.e.e.e.e.e.e.e.e.e.e.2.3.3.k f f 1.e.e.e.e.e.e.e.e.e.e.e.w.2.2.=.            ",
"           .3.3.8.e.e.e.e.e.e.e.e.e.e.e.e.e.e.e.3.3.3.l f f 1.e.e.e.e.e.e.e.e.e.e.e.w.3.3.$.            ",
"          | 3.3.8.e.e.e.e.e.e.e.e.e.e.e.e.e.e.e.3.2.3.k f f 1.e.e.e.e.e.e.e.e.e.e.e.w.2.3.$.            ",
"          | 3.3.8.e.e.e.e.e.1.l l l l l l l l l k l k $.,.,.8.e.e.e.e.e.e.e.e.e.e.e.w.3.2.$.            ",
"           .3.3.8.e.e.e.e.e.1.f f f f f f f f f f f f ,.3.3.w.e.e.e.e.e.e.e.e.e.e.e.w.2.3.=.            ",
"           .3.3.8.e.e.e.e.e.1.f f f f f f f f f f f f ,.3.3.w.e.e.e.e.e.e.e.e.e.e.e.w.2.3.>.            ",
"          O.2.3.O.l l l l l l f f l 8.8.8.8.8.8.8.8.8.e.e.w.7.7.3.7.7.3.7.3.7.3.3.7. .$ >               ",
"          +.3.3. .f f f f f f f f l e.e.e.e.e.e.e.e.e.e.e.e.7.2.3.3.3.3.3.3.3.3.3.3.| X                 ",
"          #.3.3. .f f f f f f f f l e.e.e.e.e.e.e.e.e.e.e.e.7.3.3.3.3.3.3.3.3.3.3.3.+.                  ",
"            , > $ o o s ,.,.,.8.8.7.e.e.e.e.e.e.e.e.e.e.e.e.7.3.3.k $ > > $ > > > ,                     ",
"                  . . f 3.3.7.e.e.e.e.e.e.e.e.e.e.e.e.e.e.e.7.3.3.g .                                   ",
"                      g 3.3.7.e.e.e.e.e.e.e.e.e.e.e.e.e.e.e.7.3.3.                                      ",
"                        1 < k 7.7.7.7.7.7.7.7.7.7.7.7.8.7.7.k 1                                         ",
"                        . . 1 3.3.3.3.3.3.3.3.3.3.3.3.3.3.2.a                                           ",
"                            a 3.3.3.3.3.3.3.3.3.3.3.3.3.3.3.                                            ",
"                              f d f d d f d d s f s s f f                                               "
};
