/* XPM */
static char *p_right_21670187212[] = {
/* columns rows colors chars-per-pixel */
"52 126 119 2 ",
"   c None",
".  c #000000",
"X  c #0C0A04",
"o  c #0A0A0A",
"O  c #150F01",
"+  c #151004",
"@  c #191201",
"#  c #11100E",
"$  c #1B170A",
"%  c #1C1809",
"&  c #151515",
"*  c #1A1915",
"=  c #1C1C1C",
"-  c #241A04",
";  c #281E05",
":  c #201F18",
">  c #27210D",
",  c #2B250E",
"<  c #342707",
"1  c #382E0D",
"2  c #2F2A17",
"3  c #23201A",
"4  c #362E12",
"5  c #3C3414",
"6  c #232323",
"7  c #2B2B2B",
"8  c #353434",
"9  c #3B3B3B",
"0  c #41350D",
"q  c #4E3B0B",
"w  c #523E0C",
"e  c #443B17",
"r  c #4A3F17",
"t  c #473D18",
"y  c #55410C",
"u  c #5D470D",
"i  c #4D421A",
"p  c #50461D",
"a  c #624A0E",
"s  c #5E5121",
"d  c #45433B",
"f  c #615424",
"g  c #424242",
"h  c #4C4C4C",
"j  c #53504A",
"k  c #565656",
"l  c #5E5E5E",
"z  c #716B53",
"x  c #656565",
"c  c #6B6B6B",
"v  c #737373",
"b  c #7C7C7C",
"n  c #956F15",
"m  c #957115",
"M  c #9D7716",
"N  c #9F7917",
"B  c #85742D",
"V  c #8C792F",
"C  c #B5891B",
"Z  c #BC8E1C",
"A  c #BF911D",
"S  c #988433",
"D  c #9F8A35",
"F  c #95833B",
"G  c #A28332",
"H  c #A48F3E",
"J  c #A79038",
"K  c #B49B3C",
"L  c #C4951E",
"P  c #CA991F",
"I  c #D6A221",
"U  c #D8A322",
"Y  c #D7A938",
"T  c #DBAD3D",
"R  c #E0A923",
"E  c #E8AF24",
"W  c #EAB125",
"Q  c #A38946",
"!  c #A0894F",
"~  c #AF944F",
"^  c #B29B44",
"/  c #B59E4C",
"(  c #B0995F",
")  c #868068",
"_  c #BCA66D",
"`  c #B8A678",
"'  c #C2A94A",
"]  c #E1B958",
"[  c #C9B37D",
"{  c #818181",
"}  c #8B8B8B",
"|  c #949494",
" . c #9A9999",
".. c #AFA89C",
"X. c #A5A4A4",
"o. c #A8A5A5",
"O. c #AAAAAA",
"+. c #B2AFAF",
"@. c #B6B1AB",
"#. c #B3B0B0",
"$. c #B8B5B5",
"%. c #BCBABA",
"&. c #CAB88A",
"*. c #D1BF94",
"=. c #DACDAC",
"-. c #C4C2C2",
";. c #CBCBCB",
":. c #D2CEC2",
">. c #D4D4D4",
",. c #DBDBDB",
"<. c #E5E3DD",
"1. c #E3E2E2",
"2. c #EAEAEA",
"3. c #F2EDE2",
"4. c #FAF4E3",
"5. c #F4F2EC",
"6. c #F5F5F5",
"7. c #F8F6F0",
"8. c #FFFFFF",
/* pixels */
"                                                                                                        ",
"                        ,.,.,.,.,.,.,.,.,.,.,.,.,.,.,.,.1.,.,.,.,.,.,.,.,.,.,.                          ",
"                    . . ,.,.,.,.,.,.,.,.,.,.,.,.,.,.,.,.,.,.,.,.,.,.,.,.,.,.,.6 .                       ",
"                  k 9 9 1.1.1.1.1.1.1.1.1.2.1.1.1.1.1.1.1.1.1.1.1.1.1.1.2.1.1.g 9 g g g h               ",
"                  ,.,.,.8.8.8.8.8.8.8.8.8.8.8.8.8.8.8.8.8.8.8.8.8.8.8.8.8.8.8.1.,.,.,.,.,.g             ",
"                . ,.,.,.8.8.8.8.8.8.8.8.8.8.8.8.8.8.8.8.8.8.8.8.8.8.8.8.8.8.8.,.,.,.,.,.,.9 .           ",
"              6 = 1.1.,.8.8.8.8.8.8.8.8.8.8.8.8.8.8.8.8.8.8.8.8.8.8.8.8.8.8.8.;.;.;.;.;.;.g o           ",
"            ,.,.,.8.8.8.8.8.8.8.8.8.8.8.8.8.8.8.8.8.8.8.8.8.8.8.8.8.8.8.8.8.8.c k k k k k k k k         ",
"          . ,.,.,.8.8.8.8.8.8.8.8.8.8.8.8.8.8.8.8.8.8.8.8.8.8.8.8.8.8.8.8.8.8.c k k k k k k k k         ",
"        6 6 ,.1.1.8.8.8.8.8.8.8.8.8.8.8.8.8.8.8.8.8.8.8.8.8.8.8.8.8.8.8.2.2.2.x h g h h h h h h 6       ",
"      ,.,.,.8.8.8.8.8.8.8.8.8.8.8.8.8.8.8.8.8.8.8.8.8.8.8.8.8.8.8.8.8.8.c k k o . . . . . & = = o       ",
"      ,.,.,.8.8.8.8.8.8.8.8.8.8.8.8.8.8.8.8.8.8.8.8.8.8.8.8.8.8.8.8.8.8.c k k o . . . . . & = = o       ",
"    . ,.,.,.8.8.8.8.8.8.8.8.8.8.8.8.8.8.8.8.8.8.8.8.8.8.8.8.8.8.8.2.2.2.x h h o . . . . . & = = o       ",
"    . ,.,.,.8.8.8.8.8.8.8.8.8.8.8.8.8.8.8.8.8.8.8.8.8.8.8.8.8.8.8.c k k o . . . . . . . . & = = o       ",
"  . . ,.,.,.8.8.8.8.8.8.8.8.8.8.8.8.8.8.8.8.8.8.8.8.8.8.8.8.8.8.8.c k k o . . . . . . . . & = = o .     ",
"  . . ,.,.,.8.8.8.8.8.8.8.8.8.8.8.8.8.8.8.8.8.8.8.8.8.8.8.8.8.8.8.c k k o . . . . . . . . & = = o .     ",
",.,.,.8.8.8.8.8.8.8.8.8.8.8.8.8.8.8.8.8.8.8.8.8.8.8.8.8.8.8.c k k o . . . . . . . . . . . . . . & =     ",
",.,.,.8.8.8.8.8.8.8.8.8.8.8.8.8.8.8.8.8.8.8.8.8.8.8.8.8.8.8.c k k o . . . . . . . . . . . . . . & *     ",
",.,.,.8.8.8.8.8.8.8.8.8.8.8.8.8.8.8.8.8.8.8.8.8.8.8.8.8.8.8.c k k o . . . . . . . . . . . . . . & =     ",
",.,.,.8.8.8.8.8.8.8.8.8.8.8.8.8.8.8.8.8.8.8.8.8.8.8.8.c k k o . . . . . . . . . . . . . . . . . & * =   ",
",.,.,.8.8.8.8.8.8.8.8.8.8.8.8.8.8.8.8.8.8.8.8.8.8.8.8.c k k o . . . . . . . . . . . . . . . . . & = =   ",
",.,.,.8.8.8.8.8.8.8.8.8.8.8.8.8.8.8.8.8.8.8.8.8.8.8.8.c k k o . . . . . . . . . . . . . . . . . & = =   ",
",.,.,.8.8.8.8.8.8.8.8.8.8.8.8.8.8.8.8.8.8.8.8.8.8.8.8.c k k o . . . . . . . . . . . . . . . . . & = =   ",
",.,.,.8.8.8.8.8.8.8.8.8.8.8.8.8.8.8.8.8.8.8.8.8.8.8.8.c k k o . . . . . . . . . . . . . . . . . & = =   ",
",.,.,.8.8.8.8.8.8.8.8.8.8.8.8.8.8.8.8.8.8.8.8.8.8.8.8.c k k o . . . . . . . . . . . . . . . . . * = =   ",
",.,.,.8.8.8.8.8.8.8.8.8.8.8.8.8.8.8.8.8.8.8.8.8.8.8.8.c k k o . . . . . . . . . . . . . . . . . & = =   ",
",.,.,.8.8.8.8.8.8.8.8.8.8.8.8.8.8.8.8.8.8.8.8.8.8.8.8.c k k o . . . . . . . . . . . . . . . . . & = =   ",
",.,.,.8.8.8.8.8.8.8.8.8.8.8.8.8.8.8.8.8.8.8.8.8.8.8.8.c k k o . . . . . . . . . . . . . . . . . & = =   ",
",.,.,.8.8.8.8.8.8.8.8.8.8.8.8.8.8.8.8.8.8.8.8.8.8.8.8.c k k o . . . . . . . . . . . . . . . . . & = =   ",
",.,.,.8.8.8.8.8.8.8.8.8.8.8.8.8.8.8.8.8.8.8.8.8.8.8.8.c k k o . . . . . . . . . . . . . . . . . & = =   ",
",.,.,.8.8.8.8.8.8.8.8.8.8.8.8.8.8.8.8.8.8.8.8.8.8.8.8.c k k o . . . . . . . . . . . . . . . . . & = =   ",
",.,.,.8.8.8.8.8.8.8.8.8.8.8.8.8.8.8.8.8.8.8.8.8.8.8.8.c k k o . . . . . . . . . . . 4 e e o . . * = =   ",
",.,.,.8.8.8.8.8.8.8.8.8.8.8.8.8.8.8.8.8.8.8.8.8.8.8.8.c k k o . . . . . . . . . . . 5 i i + . . & = =   ",
",.,.,.8.8.8.8.8.8.8.8.8.8.8.8.8.8.8.8.8.8.8.8.8.8.8.8.c k k o . . . . . . . . . . . 5 i i + . . & = =   ",
",.,.,.8.8.8.8.8.8.8.8.8.8.8.8.8.8.8.8.8.8.8.8.8.8.8.8.c k k o . . . . . . . . 4 5 5 S J J 1 + + * = =   ",
",.,.,.8.8.8.8.8.8.8.8.8.8.8.8.8.8.8.8.8.8.8.8.8.8.8.8.c k k o . . . . . . . . 5 e e S K K 5 @ @ * = =   ",
",.,.,.8.8.8.8.8.8.8.8.8.8.8.8.8.8.8.8.8.8.8.8.8.8.8.8.c k k o . . . . . . . . 5 e e S K K 0 @ @ * = =   ",
",.,.,.8.8.8.8.8.8.8.8.8.8.8.8.8.8.8.8.8.8.8.8.8.8.8.8.c k k o . . . . . . . . e i i V G D i , , 3 = =   ",
",.,.,.8.8.8.8.8.8.8.8.8.8.8.8.8.8.8.8.8.8.8.8.8.8.8.8.c k k o . . . . . . . . e i i B S S i 5 4 3 = =   ",
",.,.,.8.8.8.8.8.8.8.8.8.8.8.8.8.8.8.8.8.8.8.8.8.8.8.8.c k k o . . . . . . . . e i i B S S i 4 4 3 = =   ",
",.,.,.8.8.8.8.8.8.8.8.8.8.8.8.8.8.8.8.8.8.8.8.8.8.8.8.>.>.>.k g g o . . , 4 4 F J Q s i t $ X X * = =   ",
",.,.,.8.8.8.8.8.8.8.8.8.8.8.8.8.8.8.8.8.8.8.8.8.8.8.8.8.8.8.c k k o . . 5 t t ^ ' ' i , , X . . & = *   ",
",.,.,.8.8.8.8.8.8.8.8.8.8.8.8.8.8.8.8.8.8.8.8.8.8.8.8.8.8.8.c k k o . . 5 t t ^ ' ' p , , X . . & =     ",
"h 9 9 1.1.1.8.8.8.8.8.8.8.8.8.8.8.8.8.8.8.8.8.8.8.8.8.8.8.8.>.>.>.k 9 g F H H f i i $ X X o & & o o     ",
"  . . ,.,.,.8.8.8.8.8.8.8.8.8.8.8.8.8.8.8.8.8.8.8.8.8.8.8.8.8.8.8.c k k / ' ' 5 , > X . . & = & o .     ",
"      ,.,.,.8.8.8.8.8.8.8.8.8.8.8.8.8.8.8.8.8.8.8.8.8.8.8.8.8.8.8.c k k / ' ' 5 > > X . . & * * .       ",
"        g 9 1.1.1.8.8.8.8.8.8.8.8.8.8.8.8.8.8.8.8.8.8.8.8.8.8.8.8.>.>.>.) z z 2 , > o . . & = = o       ",
"          . ,.,.,.8.8.8.8.8.8.8.8.8.8.8.8.8.8.8.8.8.8.8.8.8.8.8.8.8.8.8.c k k 2 , > o . . * = = o       ",
"              ,.,.8.8.8.8.8.8.8.8.8.8.8.8.8.8.8.8.8.8.8.8.8.8.8.8.8.8.8.c k k 2 , , O . . & = = o       ",
"              x k 1.2.2.8.8.8.8.8.8.8.8.8.8.8.8.8.8.8.8.8.8.8.8.8.8.8.8.;.%.=.h d d 9 8 9 9 g g &       ",
"                . ,.,.,.8.8.8.8.8.8.8.8.8.8.8.8.8.8.8.8.8.8.8.8.8.8.8.8.8.8.8.c k k k k k k k k         ",
"                . ,.,.,.8.8.8.8.8.8.8.8.8.8.8.8.8.8.8.8.8.8.8.8.8.8.8.8.8.8.8.c k k k k k k k k         ",
"                  k k k 2.1.2.8.8.8.8.8.8.8.8.8.8.8.8.8.8.8.8.8.8.8.8.8.8.8.8.$.O.O.o.O.o.9 6 6         ",
"                  . . . ,.,.,.8.8.8.8.8.8.8.8.8.8.8.8.8.8.8.8.8.8.8.8.8.8.8.8.1.,.,.,.,.,.9 .           ",
"                  . . . ,.>.,.8.8.8.8.8.8.8.8.8.8.8.8.8.8.8.8.8.8.8.8.8.8.8.8.,.,.,.,.,.,.g             ",
"                  a u u ( ( ( _ _ _ <.2.1.2.2.2.2.1.2.2.1.2.2.1.1.2.2.1.1.2.2.x l x c x c               ",
"                  m m m m m m m m m :.,.,.,.,.,.,.,.,.,.,.,.,.,.,.,.,.,.,.,.,.= .                       ",
"                . m m m m m m m n n :.,.,.,.,.,.,.,.,.,.,.,.,.,.,.,.,.,.,.,.,.7                         ",
"              a w C C C A A A C C C _ ` ` <.2.2.5.2.2.2.5.2.2.2.2.,.,.,.b c v                           ",
"            m m m I I I W W W U I I M m m 3.8.8.8.8.8.8.8.8.8.8.8.1.,.,.= . .                           ",
"          . m m m I I I W W W U I I M n m 3.8.8.8.8.8.8.8.8.8.8.8.1.,.,.= . .                           ",
"        y q C C C I I I W W W U I I Z C C [ &.&.7.8.8.8.8.8.8.8.8.X. . .9 7 7                           ",
"      m m m I I I I I I W W W U I I I I I M m m 3.8.8.8.8.8.8.8.8.c k k k k k                           ",
"      m m m I I I I I I W W W U I I I I I M m m 3.8.8.8.8.8.8.8.8.c k k k k k                           ",
"      m m m R R U R R R R R R R R R R R R N m m 3.8.8.8.8.8.8.8.8.c k k }  . .                          ",
"      n n m W W W W W W I U I E W W W W W N m m 3.8.8.8.8.8.8.8.8.c k k ;.,.,.                          ",
"        n m W W W W W W I I I E W W W W W N m m 3.8.8.8.8.8.8.8.8.c k k ;.,.,.                          ",
"        w q A A L W W W I I I W W W L A A [ &.&.7.8.8.8.8.8.8.8.8.c k k ;.,.,.                          ",
"          . m m m W W W I I I E W W N m m 3.8.8.8.8.8.8.8.8.8.8.8.c k k ;.,.,.8                         ",
"          . m m m W W W I I I W W W N m m 3.8.8.8.8.8.8.8.8.8.8.8.c k k ;.,.,.7                         ",
"          . ! ! ! P P P Z Z A P P P Q ! ! 5.8.8.8.8.8.8.8.8.8.8.8.c k k ;.,.,.6                         ",
"          . #.#.#.m m m m m m m m m ..#.#.6.8.8.8.8.8.8.8.8.8.8.8.c k k ;.,.,.6                         ",
"            #.#.#.m m m m m m m m m ..#.+.6.8.8.8.8.8.8.8.8.8.8.8.c k k ;.,.,.= .                       ",
"            #.#.#._ _ _ _ _ _ _ _ _ @.#.#.6.8.8.8.8.8.8.8.8.8.8.8.c k k X.O.o.k k x                     ",
"            +.+.#.8.8.8.8.8.8.8.8.8.%.#.#.6.8.8.8.8.8.8.8.8.8.8.8.c k k k k k ;.,.,.                    ",
"            +.+.#.8.8.8.8.8.8.8.8.8.%.#.#.6.8.8.8.8.8.8.8.8.8.8.8.c k k k k k ;.,.>.                    ",
"            -.-.-.1.1.1.8.8.8.8.8.8.>.;.;.1.1.1.8.8.8.8.8.8.8.8.8.X.| | | | | >.,.,.                    ",
"            ,.,.,.+.#.#.8.8.8.8.8.8.8.8.8.%.#.#.6.8.8.8.8.8.8.8.8.8.8.8.8.8.8.,.,.,.                    ",
"            ,.,.,.+.#.#.8.8.8.8.8.8.8.8.8.%.+.+.6.8.8.8.8.8.8.8.8.8.8.8.8.8.8.1.,.,.                    ",
"            ,.,.,.-.-.-.2.2.2.2.2.2.8.8.8.%.#.+.6.8.8.8.8.8.8.8.8.,.>.>.>.>.>.>.,.,.                    ",
"            ,.,.,.8.8.8.#.#.#.#.+.+.6.8.8.%.#.#.6.8.8.8.8.8.8.8.8.c k k k k k ;.,.,.                    ",
"            ,.,.,.8.8.8.#.+.#.+.#.#.6.8.8.%.#.#.6.8.8.8.8.8.8.8.8.c k k k k k ;.,.,.                    ",
"            ,.,.,.8.8.8.-.-.-.$.+.#.2.2.2.o. . .>.>.,.6.8.8.8.8.8.} b { { { { >.,.,.                    ",
"            ,.,.,.8.8.8.8.8.8.%.#.#.#.+.#.c l l l l l 2.8.8.8.8.8.8.8.8.8.8.8.,.,.,.                    ",
"          . ,.,.,.8.8.8.8.8.8.%.#.#.#.#.#.c l l l l l 2.8.8.8.8.8.8.8.8.8.8.8.1.,.,.                    ",
"        9 9 1.1.1.8.8.8.8.8.8.;.-.-.-.-.-.c l l b } { 2.2.2.8.8.8.,.>.>.>.>.>.%.%.%.                    ",
"      ,.,.,.8.8.8.8.8.8.8.8.8.8.8.8.8.8.8.v l l 2.8.8.%.+.+.6.8.8.c k k k k k k k k 6                   ",
"      ,.,.,.8.8.8.8.8.8.8.8.8.8.8.8.8.8.8.v l l 2.8.8.%.#.+.6.8.8.c k k k k k k k k &                   ",
"      ,.,.,.8.8.8.8.8.8.8.8.8.8.8.8.8.8.8.{ v v 6.8.8.%.#.#.>.>.>.x k k v { { { { { h g h               ",
"      ,.,.,.8.8.8.8.8.8.8.8.8.8.8.8.8.8.8.%.+.+.6.8.8.%.#.#.x k k k k k 2.8.8.8.8.8.1.,.,.              ",
"      ,.,.,.8.8.8.8.8.8.8.8.8.8.8.8.8.8.8.%.#.#.6.8.8.%.#.#.l k k k k k 2.8.8.8.8.8.1.,.,.              ",
"      ;.;.;.2.2.2.2.2.2.2.2.2.1.2.2.2.2.2.+.o.o.2.6.6.-.%.%.v c c c c c 2.8.8.8.8.8.1.,.,.              ",
"      k k k k k k k k k k k k k k k k k k k k k o.#.#.6.8.8.8.8.8.8.8.8.8.8.8.8.8.8.1.,.,.              ",
"      k k k k k k k k k k k k k k k k k k k k k o.#.#.6.8.8.8.8.8.8.8.8.8.8.8.8.8.8.1.,.,.              ",
"      x x x c c c c c c c c c c c c c c c c c c O.$.#.6.8.8.8.8.8.8.8.8.4.4.4.4.4.4.1.,.,.              ",
"      ,.,.,.8.8.8.8.8.8.8.8.8.8.8.8.8.8.8.8.8.8.1.,.,.8.8.8.8.8.8.8.8.8.T I I U U U =.,.,.              ",
"      ,.,.,.8.8.8.8.8.8.8.8.8.8.8.8.8.8.8.8.8.8.,.,.,.8.8.8.8.8.8.8.8.8.T I I I I I =.,.,.              ",
"    . ,.,.,.8.8.8.8.8.8.8.8.8.8.8.8.8.8.8.8.8.8.-.-.-.6.8.8.3.4.4.4.4.4.] T T T T T *.:.:.              ",
"    . ,.,.,.8.8.8.8.8.8.8.8.8.8.8.8.8.8.8.1.,.,.6 . . -.,.,.Y I I I I I 4.8.8.8.8.8.~ m m               ",
"  . . ,.,.,.8.8.8.8.8.8.8.8.8.8.8.8.8.8.8.,.,.,.6   . -.,.,.Y I I I I I 4.8.8.8.8.8.~ m m               ",
"  . . ,.,.,.8.8.8.8.8.8.8.8.8.8.8.8.8.8.8.1.,.,.7     ;.,.,.Y I I I I I 4.8.8.8.8.8.~ m m               ",
",.,.,.8.8.8.I I I I I I I I I I I I 4.8.8.1.,.,.        m m 3.8.8.8.8.8.8.8.8.8.8.8.~ m m 0             ",
",.,.,.8.8.8.I I I I I I I I I I I I 4.8.8.,.,.,.        m m 3.8.8.8.8.8.8.8.8.8.8.8.~ m m <             ",
",.,.,.8.8.8.I I I I I I I I I I I I 4.8.8.1.,.            m 3.8.8.8.8.8.8.8.8.8.8.8.~ m m ; .           ",
"m m m I I I I I I 8.8.8.8.8.8.T I I M m m O .             . -.,.>.8.8.8.8.8.8.8.8.8.8.8.8.1.,.,.h       ",
"m m m I I I I I I 8.8.8.8.8.8.T I I M m m @               . -.,.,.8.8.8.8.8.8.8.8.8.8.8.8.1.,.,.9       ",
"m m m I I I I I I 8.8.8.8.8.8.T I I M m n @                 ;.,.,.8.8.8.8.8.8.8.8.8.8.8.8.1.,.,.8 .     ",
"m m m 8.8.8.8.8.8.8.8.8.8.8.8.8.8.8.G m n -                 ;.,.>.8.8.8.8.8.8.8.8.8.{ k k k k k k k     ",
"m m m 8.8.8.8.8.8.8.8.8.8.8.8.8.8.8.G m m                   ;.,.,.8.8.8.8.8.8.8.8.8.{ k k k k k k k k   ",
"m m m 8.8.8.8.8.8.8.8.8.8.8.8.8.8.8.G m m                   >.,.,.8.8.8.8.8.8.8.8.8.{ k k k k k k k k   ",
"m m m 8.8.8.8.8.8.8.8.8.8.8.8.1.,.,.* . .                   >.,.,.x k k k k k k k k k k k >.8.8.1.,.,.h ",
"m m m 8.8.8.8.8.8.8.8.8.8.8.8.,.,.,.= . .                   >.,.,.x k k k k k k k k k k k >.8.8.1.,.,.9 ",
"m m m 8.8.8.8.8.8.8.8.8.8.8.8.,.,.,.= .                     >.,.,.x k k k k k k k k k k k >.8.8.1.,.,.8 ",
":.:.:.8.8.8.8.8.8.c c c c c c c c x o .                     x x x k k k >.2.2.2.2.2.2.2.2.6.8.8.8.8.8.>.",
",.,.,.8.8.8.8.8.8.k k k k k k k k k o .                     k k k k k k 2.8.8.8.8.8.8.8.8.8.8.8.8.8.8.1.",
",.,.,.8.8.8.8.8.8.k k k k k k k k k o .                       k k k k k 2.8.8.8.8.8.8.8.8.8.8.8.8.8.8.1.",
"c x c c c c c c c k k k 2.2.2.;.;.;.6 .                       o o O.;.;.1.,.1.1.1.,.1.1.1.,.1.1.1.,.1.,.",
"k k k k k k k k k k k k 8.8.8.1.,.,.= .                       . . %.,.,.,.,.,.,.,.,.,.,.,.,.,.,.,.,.,.,.",
"k k k k k k k k k k k k 8.8.8.,.,.,.= .                         . -.,.,.,.,.,.,.,.,.,.,.,.,.,.,.,.,.,.,.",
";.;.;.2.2.2.2.2.2.2.2.2.8.8.8.8.6.8.-.-.-.                          8 8                               8 ",
",.,.,.8.8.8.8.8.8.8.8.8.8.8.8.8.8.8.1.,.,.                                                              ",
",.,.,.8.8.8.8.8.8.8.8.8.8.8.8.8.8.8.,.,.,.                                                              ",
"9 8 8 1.1.1.2.1.1.1.1.1.1.1.2.1.1.1.k 8 9                                                               ",
"  . . ,.,.,.,.,.,.,.,.,.,.,.,.,.,.,.= .                                                                 ",
"    . ,.,.,.,.,.,.,.,.,.,.,.,.,.,.,.6                                                                   ",
"      k h h h h h k h h h h h h h h                                                                     "
};
