/* XPM */
static char *p_right_41670187213[] = {
/* columns rows colors chars-per-pixel */
"67 126 136 2 ",
"   c None",
".  c #000000",
"X  c #0B0A05",
"o  c #0C0C0C",
"O  c #110F06",
"+  c #110F0A",
"@  c #161104",
"#  c #191302",
"$  c #1A1609",
"%  c #1C190A",
"&  c #151515",
"*  c #1C1C1C",
"=  c #201B0A",
"-  c #27210D",
";  c #2B250E",
":  c #372A08",
">  c #2A2411",
",  c #2F2914",
"<  c #342D12",
"1  c #3B3214",
"2  c #222222",
"3  c #2D2D2D",
"4  c #353535",
"5  c #3B3B3B",
"6  c #4C3A0A",
"7  c #523E0B",
"8  c #453C17",
"9  c #473D18",
"0  c #413F39",
"q  c #5C450C",
"w  c #5F490D",
"e  c #4D421A",
"r  c #624A0D",
"t  c #69500F",
"y  c #715410",
"u  c #795B10",
"i  c #5D5122",
"p  c #45433B",
"a  c #534D39",
"s  c #655722",
"d  c #6A5C23",
"f  c #655836",
"g  c #706026",
"h  c #75662B",
"j  c #7F6E2A",
"k  c #424242",
"l  c #4C4C4C",
"z  c #565656",
"x  c #595757",
"c  c #5E5D5D",
"v  c #655D41",
"b  c #605F5F",
"n  c #716B53",
"m  c #7E7551",
"M  c #7E745D",
"N  c #646464",
"B  c #6B6B6B",
"V  c #706E6E",
"C  c #747373",
"Z  c #7C7C7C",
"A  c #816112",
"S  c #8F6C14",
"D  c #957115",
"F  c #806D29",
"G  c #83712B",
"H  c #8D792D",
"J  c #887633",
"K  c #8A7934",
"L  c #AD8319",
"P  c #B5891B",
"I  c #BC8E1C",
"U  c #BF911D",
"Y  c #988433",
"T  c #9F8A35",
"R  c #A48F3E",
"E  c #A79038",
"W  c #BA9537",
"Q  c #B6943E",
"!  c #B49B3C",
"~  c #C4951D",
"^  c #CA991F",
"/  c #D6A221",
"(  c #DAA522",
")  c #DEA822",
"_  c #E1AA23",
"`  c #EAB125",
"'  c #A0894F",
"]  c #B29140",
"[  c #A99359",
"{  c #AF995F",
"}  c #B0995F",
"|  c #A49062",
" . c #B39D64",
".. c #BDA66D",
"X. c #B8A678",
"o. c #C3A046",
"O. c #C2A94A",
"+. c #C5A453",
"@. c #D7B767",
"#. c #D8BE7E",
"$. c #E5C574",
"%. c #838383",
"&. c #898686",
"*. c #8A8A8A",
"=. c #908F8D",
"-. c #949494",
";. c #999797",
":. c #9D9A92",
">. c #9C9B9B",
",. c #A2A2A2",
"<. c #A8A7A7",
"1. c #ABABAB",
"2. c #B2AFAF",
"3. c #B8B4A9",
"4. c #B3B0B0",
"5. c #BEBEBE",
"6. c #CAB88A",
"7. c #CEC19F",
"8. c #CBC0A4",
"9. c #D7CAA7",
"0. c #D8CAA7",
"q. c #D1C8B1",
"w. c #DDD2B6",
"e. c #EFDCAC",
"r. c #C3C2C2",
"t. c #C8C7C7",
"y. c #CDCCCC",
"u. c #D5D5D5",
"i. c #D9D7D7",
"p. c #DBDBDB",
"a. c #E3E2E2",
"s. c #EFEBE3",
"d. c #EBEAEA",
"f. c #FAF4E3",
"g. c #F2F2F2",
"h. c #FFFFFF",
/* pixels */
"                                                                                                                                      ",
"                                      N p.a.p.p.p.p.p.p.p.p.p.p.p.p.p.p.p.p.p.p.p.p.p.p.p.p.,.                                        ",
"                                    . z p.p.p.p.p.p.p.p.i.p.p.p.p.i.p.p.p.p.p.p.p.p.p.p.p.p.=.. .                                     ",
"                                  k 5 Z a.a.d.a.a.a.d.a.d.a.a.a.a.d.a.a.a.a.a.d.a.a.a.a.a.d.>.5 5 k l l                               ",
"                                *.p.p.d.h.h.h.h.h.h.h.h.h.h.h.h.h.h.h.h.h.h.h.h.h.h.h.h.h.h.g.p.p.p.i.p.4.                            ",
"                              . C p.p.d.h.h.h.h.h.h.h.h.h.h.h.h.h.h.h.h.h.h.h.h.h.h.h.h.h.h.g.p.p.p.p.p.1..                           ",
"                            3 2 Z a.a.d.h.h.h.h.h.h.h.h.h.h.h.h.h.h.h.h.h.h.h.h.h.h.h.h.h.h.d.y.y.y.y.t.,.o o                         ",
"                            p.p.d.h.h.h.h.h.h.h.h.h.h.h.h.h.h.h.h.h.h.h.h.h.h.h.h.h.h.h.h.h.5.z z z z z z z z                         ",
"                          %.p.p.d.h.h.h.h.h.h.h.h.h.h.h.h.h.h.h.h.h.h.h.h.h.h.h.h.h.h.h.h.h.5.x z z z z z z z l                       ",
"                      3 * %.a.p.d.h.h.h.h.h.h.h.h.h.h.h.h.h.h.h.h.h.h.h.h.h.h.h.h.h.h.g.d.d.1.l l l l l l l l k                       ",
"                      p.p.d.h.h.h.h.h.h.h.h.h.h.h.h.h.h.h.h.h.h.h.h.h.h.h.h.h.h.h.h.h.5.z z 4 . . . . . . 2 * *                       ",
"                    &.p.p.d.h.h.h.h.h.h.h.h.h.h.h.h.h.h.h.h.h.h.h.h.h.h.h.h.h.h.h.h.h.5.z z 4 . . . . . o * * & .                     ",
"                    Z p.p.g.h.h.h.h.h.h.h.h.h.h.h.h.h.h.h.h.h.h.h.h.h.h.h.h.h.h.g.d.d.4.l l 4 . . . . . . * * & .                     ",
"                  . C p.p.d.h.h.h.h.h.h.h.h.h.h.h.h.h.h.h.h.h.h.h.h.h.h.h.h.h.h.r.z z 4 . . . . . . . . X * 2 & .                     ",
"                  . V p.p.d.h.h.h.h.h.h.h.h.h.h.h.h.h.h.h.h.h.h.h.h.h.h.h.h.h.h.5.z z 4 . . . . . . . . X * * & .                     ",
"                . . V p.p.d.h.h.h.h.h.h.h.h.h.h.h.h.h.h.h.h.h.h.h.h.h.h.h.h.h.h.5.z z 4 . . . . . . . . X * * & . .                   ",
"                p.p.g.h.h.h.h.h.h.h.h.h.h.h.h.h.h.h.h.h.h.h.h.h.h.h.h.h.h.5.z z 4 . . . . . . . . . . . . . . . * *                   ",
"              <.p.p.d.h.h.h.h.h.h.h.h.h.h.h.h.h.h.h.h.h.h.h.h.h.h.h.h.h.h.r.z z 4 . . . . . . . . . . . . . . X * *                   ",
"              ;.p.p.d.h.h.h.h.h.h.h.h.h.h.h.h.h.h.h.h.h.h.h.h.h.h.h.h.h.h.5.z z 4 . . . . . . . . . . . . . . o * * *                 ",
"              ;.p.p.d.h.h.h.h.h.h.h.h.h.h.h.h.h.h.h.h.h.h.h.h.h.h.h.5.z z 4 . . . . . . . . . . . . . . . . . . * * *                 ",
"              >.p.p.g.h.h.h.h.h.h.h.h.h.h.h.h.h.h.h.h.h.h.h.h.h.h.h.5.z z 4 . . . . . . . . . . . . . . . . . X * * *                 ",
"              ,.p.p.d.h.h.h.h.h.h.h.h.h.h.h.h.h.h.h.h.h.h.h.h.h.h.h.r.z z 4 . . . . . . . . . . . . . . . . . X * * *                 ",
"              ,.p.p.d.h.h.h.h.h.h.h.h.h.h.h.h.h.h.h.h.h.h.h.h.h.h.h.5.z z 4 . . . . . . . . . . . . . . . . . . * * *                 ",
"              >.p.p.d.h.h.h.h.h.h.h.h.h.h.h.h.h.h.h.h.h.h.h.h.h.h.h.5.z z 4 . . . . . . . . . . . . . . . . . X * * *                 ",
"              >.p.p.d.h.h.h.h.h.h.h.h.h.h.h.h.h.h.h.h.h.h.h.h.h.h.h.5.z z 4 . . . . . . . . . . . . . . . . . . * * *                 ",
"              ,.p.p.d.h.h.h.h.h.h.h.h.h.h.h.h.h.h.h.h.h.h.h.h.h.h.h.r.z z 4 . . . . . . . . . . . . . . . . . X * * *                 ",
"              >.p.p.d.h.h.h.h.h.h.h.h.h.h.h.h.h.h.h.h.h.h.h.h.h.h.h.5.z z 4 . . . . . . . . . . . . . . . . . o * * *                 ",
"              ,.p.p.d.h.h.h.h.h.h.h.h.h.h.h.h.h.h.h.h.h.h.h.h.h.h.h.5.z z 4 . . . . . . . . . . . . . . . . . . * 2 *                 ",
"              >.p.p.d.h.h.h.h.h.h.h.h.h.h.h.h.h.h.h.h.h.h.h.h.h.h.h.5.z z 4 . . . . . . . . . . . . . . . . . X * * *                 ",
"              >.p.p.d.h.h.h.h.h.h.h.h.h.h.h.h.h.h.h.h.h.h.h.h.h.h.h.5.z z 4 . . . . . . . . . . . . . . . . . X * * *                 ",
"              >.p.p.d.h.h.h.h.h.h.h.h.h.h.h.h.h.h.h.h.h.h.h.h.h.h.h.r.z z 4 . . . . . . . . . . . . . . . . . X * * *                 ",
"              ;.p.p.g.h.h.h.h.h.h.h.h.h.h.h.h.h.h.h.h.h.h.h.h.h.h.h.5.z z 4 . . . . . . . . . . . @ 8 8 , . . X * * *                 ",
"              -.p.p.d.h.h.h.h.h.h.h.h.h.h.h.h.h.h.h.h.h.h.h.h.h.h.h.5.z z 4 . . . . . . . . . . . % e e 1 . . X * * *                 ",
"              ;.p.p.d.h.h.h.h.h.h.h.h.h.h.h.h.h.h.h.h.h.h.h.h.h.h.h.r.z z 4 . . . . . . . . . . . % e e 1 . . X * * *                 ",
"              -.p.p.d.h.h.h.h.h.h.h.h.h.h.h.h.h.h.h.h.h.h.h.h.h.h.h.5.z z 4 . . . . . . . . @ 1 1 s E E F O O @ * * *                 ",
"              -.p.p.d.h.h.h.h.h.h.h.h.h.h.h.h.h.h.h.h.h.h.h.h.h.h.h.5.z z 4 . . . . . . . . $ 9 e g ! ! H # # $ * * *                 ",
"              *.p.p.g.h.h.h.h.h.h.h.h.h.h.h.h.h.h.h.h.h.h.h.h.h.h.h.5.z z 4 . . . . . . . . # e 9 g ! ! H @ # $ * * *                 ",
"              *.p.p.d.h.h.h.h.h.h.h.h.h.h.h.h.h.h.h.h.h.h.h.h.h.h.h.5.z z 4 . . . . . . . . % e e d T E G ; , > * * *                 ",
"              %.p.p.d.h.h.h.h.h.h.h.h.h.h.h.h.h.h.h.h.h.h.h.h.h.h.h.r.z z 4 . . . . . . . . % e e s Y Y j < < , * * *                 ",
"              Z p.p.d.h.h.h.h.h.h.h.h.h.h.h.h.h.h.h.h.h.h.h.h.h.h.h.5.z z 4 . . . . . . . . % e e d Y Y j : < < * * *                 ",
"              Z p.p.d.h.h.h.h.h.h.h.h.h.h.h.h.h.h.h.h.h.h.h.h.h.h.h.d.u.u.>.k k 3 . . O , < i ' E J 9 9 1 X o + * * *                 ",
"              &.p.p.d.h.h.h.h.h.h.h.h.h.h.h.h.h.h.h.h.h.h.h.h.h.h.h.h.h.h.5.z z 4 . . $ e e h O.O.J ; ; % . . . * * *                 ",
"              -.p.p.d.h.h.h.h.h.h.h.h.h.h.h.h.h.h.h.h.h.h.h.h.h.h.h.h.h.h.5.z z 4 . . $ e 1 h O.O.K ; ; = . . o * *                   ",
"                l 5 *.a.d.d.h.h.h.h.h.h.h.h.h.h.h.h.h.h.h.h.h.h.h.h.h.h.h.d.u.u.,.5 k v T ] K e e , X X X & & o X o                   ",
"                  . C p.p.d.h.h.h.h.h.h.h.h.h.h.h.h.h.h.h.h.h.h.h.h.h.h.h.h.h.h.5.z z m O.O.J - - $ . . . * * & .                     ",
"                    %.p.p.d.h.h.h.h.h.h.h.h.h.h.h.h.h.h.h.h.h.h.h.h.h.h.h.h.h.h.r.z z m O.O.J - - $ . . X & & & .                     ",
"                      z 5 *.d.a.d.h.h.h.h.h.h.h.h.h.h.h.h.h.h.h.h.h.h.h.h.h.h.h.d.u.u.3.n n a - - % . . X * * &                       ",
"                          Z p.p.d.h.h.h.h.h.h.h.h.h.h.h.h.h.h.h.h.h.h.h.h.h.h.h.h.h.h.5.z z p ; ; % . . X * * *                       ",
"                            p.p.d.h.h.h.h.h.h.h.h.h.h.h.h.h.h.h.h.h.h.h.h.h.h.h.h.h.h.5.z z p ; ; % . . X * * &                       ",
"                              z ,.d.d.g.h.h.h.h.h.h.h.h.h.h.h.h.h.h.h.h.h.h.h.h.h.h.h.d.r.r.*.p p 0 4 5 4 0 k                         ",
"                                C p.i.d.h.h.h.h.h.h.h.h.h.h.h.h.h.h.h.h.h.h.h.h.h.h.h.h.h.h.r.z z z x x z z z                         ",
"                                Z p.p.d.h.h.h.h.h.h.h.h.h.h.h.h.h.h.h.h.h.h.h.h.h.h.h.h.h.h.5.z x z z z z z z                         ",
"                                f { {  ...........9.h.h.h.h.h.h.h.h.h.h.h.h.h.h.h.h.h.h.h.h.a.1.<.1.<.<.%.2                           ",
"                                7 D D D D D D D D ..h.h.h.h.h.h.h.h.h.h.h.h.h.h.h.h.h.h.h.h.d.p.p.p.p.p.1..                           ",
"                              . 7 D D D D D D D D ..h.h.h.h.h.h.h.h.h.h.h.h.h.h.h.h.h.h.h.h.g.p.p.p.p.p.4.                            ",
"                              r S I I ~ ^ ^ ~ ~ I W ....7.d.d.d.d.d.a.d.d.a.d.d.a.d.d.d.d.d.d.d.g.p.r.r.1.                            ",
"                          q D D P / / ) ` ` _ / / I D D  .p.p.p.i.i.p.p.p.p.p.p.p.p.p.p.p.p.d.h.h.a.4.4.>.                            ",
"                        . 6 D D P / / ) ` ` _ / / I D D { p.p.p.p.p.p.p.p.p.p.p.p.p.p.p.p.p.d.h.h.a.4.2.>.                            ",
"                      w q u P P ~ / / ) ` ` _ / / ^ P P Q X.X.8.d.d.d.d.d.d.d.g.d.d.d.a.p.p.d.h.h.a.2.4.;.                            ",
"                      D D P / / / / / ) ` ` _ / / / / / I D D ..h.h.h.h.h.h.h.h.h.h.h.g.p.p.d.h.h.a.2.2.-.                            ",
"                    r D D P / / / / / ) ` ` _ / / / / / I D D ..h.h.h.h.h.h.h.h.h.h.h.g.p.p.d.h.h.a.2.2.&..                           ",
"                    q D D P _ ) _ _ _ _ ) _ _ _ _ _ ) _ ~ D D ..h.h.h.h.h.h.h.h.a.1.1.,.;.;.5.h.h.g.i.u.5.b B                         ",
"                    7 D D U ` ` ` ` ` _ / / ) ` ` ` ` ` ^ D D ..h.h.h.h.h.h.h.h.5.z z z z z -.h.h.h.h.h.d.4.4.                        ",
"                  . 6 D D U ` ` ` ` ` _ / / ) ` ` ` ` ` ^ D D ..h.h.h.h.h.h.h.h.5.z z z z z -.h.h.h.h.h.d.4.4.*..                     ",
"                V x M | | ] ~ I / ` ` _ / / ) ` ` ( ~ U o.6.6.w.h.h.h.h.h.h.h.h.5.z z V -.>.5.h.h.h.h.h.g.u.p.4.x B                   ",
"              C 2.2.2.4.4.| D D ~ ` ` _ / / ) ` ` ^ D D ..h.h.h.h.h.h.h.h.h.h.h.5.z x &.p.p.d.h.h.h.h.h.h.h.h.d.4.4.                  ",
"            . c 2.2.2.2.4.| D D I ` ` _ / / ) ` ` ^ D D ..h.h.h.h.h.h.h.h.h.h.h.r.z z &.p.p.d.h.h.h.h.h.h.h.h.d.4.2.;.                ",
"          V c ;.i.i.i.i.i.q.6.6.+.~ I I P P P ~ U o.6.6.w.h.h.h.h.h.h.h.h.h.h.h.5.z z &.p.u.a.d.d.g.h.h.h.h.h.d.4.2.;.                ",
"        C 2.2.i.h.h.h.h.h.h.h.h.6.D D D D D D D D ..h.h.h.h.h.h.h.h.h.h.h.h.h.h.5.z z *.p.p.p.p.p.d.h.h.h.h.h.d.4.4.*..               ",
"      . b 4.4.i.h.h.h.h.h.h.h.h.6.D D D D D D D D ..h.h.h.h.h.h.h.h.h.h.h.h.h.h.5.z z *.p.p.p.p.p.d.h.h.h.h.h.d.4.4.&.. .             ",
"      l *.y.y.d.h.h.h.h.h.h.h.h.w..... .' ' [ ....9.h.h.h.h.h.h.h.h.h.h.h.h.h.h.r.z z *.p.p.p.p.p.d.h.h.h.h.h.a.-.=.&.k l z N N       ",
"    4.2.i.h.h.h.h.h.h.h.h.h.h.h.h.h.h.a.4.4.y.h.h.h.h.h.h.h.h.h.h.h.h.h.h.h.h.h.5.z z *.p.p.p.p.u.d.h.h.h.h.h.u.c c C 2.2.2.4.4.=.    ",
"    2.2.i.h.h.h.h.h.h.h.h.h.h.h.h.h.h.a.4.4.y.h.h.h.h.h.h.h.h.h.h.h.h.h.h.h.h.h.r.z z *.p.a.p.p.p.d.h.h.h.h.h.p.c c C 4.4.4.4.4.&..   ",
"  ;.4.4.i.h.h.h.h.h.h.h.h.g.a.a.a.a.a.p.y.y.a.h.h.h.h.h.h.h.h.h.h.h.h.h.h.h.h.h.5.z z C <.1.4.p.p.p.a.a.d.h.h.u.c c Z y.y.y.y.y.1.k l ",
"  -.4.4.i.h.h.h.h.h.h.h.h.i.4.4.2.2.4.y.h.h.h.h.h.h.h.h.h.h.h.h.h.h.h.h.h.h.h.h.5.z z z z z *.p.p.y.2.2.r.h.h.i.c c &.h.h.h.h.h.d.2.4.",
"  ;.2.4.i.h.h.h.h.h.h.h.h.i.2.4.2.2.4.y.h.h.h.h.h.h.h.h.h.h.h.h.h.h.h.h.h.h.h.h.r.z z z z z &.p.p.y.2.2.r.h.h.i.c c &.h.h.h.h.h.d.2.2.",
"  ;.4.2.i.h.h.h.h.h.g.a.a.i.y.y.y.y.y.a.h.h.h.h.h.h.h.h.h.h.h.h.h.h.h.h.h.h.h.h.u.-.-.-.-.-.4.p.p.4.V V *.a.a.r.c b C r.r.y.a.a.r.V C ",
"  ;.4.4.i.h.h.h.h.h.i.4.2.i.h.h.h.h.h.h.h.h.h.h.h.h.h.h.h.h.h.h.h.h.h.h.h.h.h.h.h.h.h.h.h.h.g.p.p.*.. . 3 4.2.>.c c b b c C 4.4.&.. . ",
"  ;.4.2.i.h.h.h.h.h.i.4.2.i.h.h.h.h.h.h.h.h.h.h.h.h.h.h.h.h.h.h.h.h.h.h.h.h.h.h.h.h.h.h.h.h.g.p.p.*.. . 3 2.4.>.c c c b c C 4.4.*..   ",
"  ;.4.4.i.h.h.h.h.h.i.4.2.i.h.h.h.h.h.h.h.h.h.h.h.h.h.h.h.h.h.h.h.h.h.h.h.h.h.h.g.y.u.u.u.i.y.p.p.*.. . 2 &.=.%.l l l l l N ;.>.%.    ",
"  ;.2.4.u.h.h.h.h.h.i.4.4.i.h.h.h.h.h.h.h.h.h.h.h.h.h.h.h.h.h.h.h.h.h.h.h.h.h.h.5.z z z z z &.p.p.*.. . . . .     .                   ",
"  ;.2.4.p.h.h.h.h.h.i.4.4.i.h.h.h.h.h.h.h.h.h.h.h.h.h.h.h.h.h.h.h.h.h.h.h.h.h.h.5.z z z z z &.p.p.*.. . . .                           ",
"    *.&.1.i.u.i.u.p.y.t.r.a.h.h.h.h.h.h.h.h.h.h.h.h.h.h.h.h.h.h.h.h.h.h.h.h.h.h.t.%.%.Z Z %.1.a.a.>.4 5 3                             ",
"    . . 3 c c c c c 1.h.h.h.h.h.h.h.h.h.h.h.h.h.h.h.h.h.h.h.h.h.h.h.h.h.h.h.h.h.h.h.h.h.h.h.h.h.h.g.p.p.5.                            ",
"      . 4 c c c c c 1.h.h.h.h.h.h.h.h.h.h.h.h.h.h.h.h.h.h.h.h.h.h.h.h.h.h.h.h.h.h.h.h.h.h.h.h.h.h.g.p.p.5.                            ",
"      . 3 c c C &.&.5.d.d.g.h.h.h.h.h.h.h.h.h.h.h.h.h.h.h.h.h.h.h.h.h.h.h.h.h.h.h.h.h.g.u.u.u.u.u.t.5.4.,.                            ",
"      . 4 c N 1.h.h.u.2.2.i.h.h.h.h.h.h.h.h.h.h.h.h.h.h.h.h.h.h.h.h.h.h.h.h.h.h.h.h.h.5.z z z z x z z x l                             ",
"        4 c c 1.h.h.i.4.2.u.h.h.h.h.h.h.h.h.h.h.h.h.h.h.h.h.h.h.h.h.h.h.h.h.h.h.h.h.h.5.z z z z z z z z l                             ",
"        k C C 4.h.h.i.4.4.i.h.h.h.h.h.h.h.h.h.h.h.h.h.h.h.h.h.h.h.h.h.h.h.h.h.h.g.u.u.,.z z b Z %.Z C C B                             ",
"        B 2.4.p.h.h.i.4.4.i.h.h.h.h.h.h.h.h.h.h.h.h.h.h.h.h.h.h.h.h.h.h.h.h.h.h.5.z z z z z -.h.h.g.p.p.y.                            ",
"        V 2.4.p.h.h.i.2.2.i.h.h.h.h.h.h.h.h.h.h.h.h.h.h.h.h.h.h.h.h.h.h.h.h.h.h.5.z z z z z -.h.h.g.p.p.y.                            ",
"        V >.>.t.g.g.y.<.<.t.d.d.d.d.d.g.h.h.h.h.h.h.h.h.h.h.h.h.h.h.g.d.d.d.a.d.4.z z N B B >.h.g.a.r.y.t.                            ",
"          . . x 2.4.%.z z z z z z z z -.h.h.h.h.h.h.h.h.h.h.h.h.h.h.5.z z z z z c z z -.h.h.g.p.p.*.. .                               ",
"            . b 4.4.%.x z z z z z z z -.h.h.h.h.h.h.h.h.h.h.h.h.h.h.5.z z z z z z z z -.h.h.g.i.p.;..                                 ",
"              x ,.>.%.N B B B B b z z *.d.d.a.d.d.d.d.d.d.d.d.d.d.d.4.z z b B B B B B ,.h.h.g.p.p.,.                                  ",
"                  . V p.p.d.h.h.1.z z z z z z z z z z z z z z z z z c z z -.h.h.h.h.h.h.h.h.g.p.p.4.                                  ",
"                  . C p.p.d.h.h.1.x z z x z z z z z z z z z z z z z z z z -.h.h.h.h.h.h.h.h.g.p.p.                                    ",
"                    Z p.p.d.h.h.4.B B B B B B B B B B B B B B B B B B B B :.f.f.f.f.f.f.f.f.s.p.p.                                    ",
"                    %.p.p.d.h.h.h.h.h.h.h.h.h.h.h.h.h.h.h.h.h.h.h.h.h.h.h.e./ / / / / / / / @.p.p.                                    ",
"                    %.p.p.d.h.h.h.h.h.h.h.h.h.h.h.h.h.h.h.h.h.h.h.h.h.h.h.e./ / / / / / / / @.p.p.                                    ",
"                    %.p.p.s.h.h.h.h.h.h.h.h.h.h.h.h.h.h.h.h.h.h.h.h.h.h.h.e./ / / / / / / / @.p.p.                                    ",
"                    %.p.p.7./ / / / / / / / $.h.h.g.p.p.p.p.p.a.h.h.e./ / / / / $.h.h.e./ / I D D                                     ",
"                    | u.i.#./ / / / / / / / $.h.h.g.i.p.p.p.p.d.h.h.e./ / / / / $.h.h.e./ / I D D                                     ",
"                    Z p.p.#./ / / / / / / / $.h.h.g.p.p.p.p.p.d.h.h.e./ / / / / $.h.h.e./ / I D D                                     ",
"                  . 7 D D 6.h.h.h.h.h.h.h.h.0.D D q . . . . . : D D L / / $.h.h.h.h.h.h.h.h.9.D D u                                   ",
"                  . 6 D D 6.h.h.h.h.h.h.h.h.9.D D q . . . . . : D D L / / $.h.h.h.h.h.h.h.h.0.D D t                                   ",
"                . . 8 D D 6.h.h.h.h.h.h.h.h.0.D D q . . . . . : D D L / / $.h.h.h.h.h.h.h.h.0.D D w . .                               ",
"                D D 6.h.h.h.h.h.h.h.h.h.h.h.g.p.p.*.. . . . . : D D ..h.h.h.h.h.h.h.h.h.h.h.h.h.h.g.p.p.y.                            ",
"              y D D 6.h.h.h.h.h.h.h.h.h.h.h.g.p.p.*.. . . . . : D D ..h.h.h.h.h.h.h.h.h.h.h.h.h.h.g.p.p.r.                            ",
"              t D D 6.h.h.h.h.h.h.h.h.h.h.h.g.p.p.*.. . . . . : D D ..h.h.h.h.h.h.h.h.h.h.h.h.h.h.g.p.p.5.                            ",
"              *.p.p.d.h.h.1.z z z z z z z z z z z 4 . . . . . l p.p.d.h.h.h.h.h.h.h.h.h.h.h.h.h.h.g.p.p.5.                            ",
"              &.p.p.d.h.h.1.z z z z z z z z z z z 4 . . . . . z p.p.d.h.h.h.h.h.h.h.h.h.h.h.h.h.h.g.p.p.4.                            ",
"              Z p.p.d.h.h.1.z z z z z z z z z z z 4 . . . . . z p.p.d.h.h.h.h.h.h.h.h.h.h.h.h.h.h.g.i.p.4.                            ",
"              5 N B B B B b z x ,.d.d.d.d.d.d.d.d.p.5.5.Z . . l p.p.a.h.h.h.h.h.y.B B B B B B B B B B N z .                           ",
"              3 x z z z z x z z 1.h.h.h.h.h.h.h.h.d.p.p.*.. . z p.p.d.h.h.h.h.h.5.z z x z z z z z z z z k .                           ",
"              4 z z z z z z z z 1.h.h.h.h.h.h.h.h.g.p.p.*.. . z p.p.d.h.h.h.h.h.5.z z z z z z z z z z z 5 . .                         ",
"              Z y.y.p.d.d.d.d.d.g.h.h.h.h.h.h.h.h.g.p.p.*.. . & 2 * 5 B B B B B b x z *.d.d.d.d.d.d.d.d.a.r.t.                        ",
"              *.p.p.d.h.h.h.h.h.h.h.h.h.h.h.h.h.h.g.p.p.*..       . 2 z z z z z z z z -.h.h.h.h.h.h.h.h.g.p.p.5.                      ",
"              ,.p.p.d.h.h.h.h.h.h.h.h.h.h.h.h.h.h.g.p.p.,.            z z z z z z z z -.h.h.h.h.h.h.h.h.g.p.p.4.                      ",
"                * * Z a.a.p.a.a.p.a.a.p.a.a.a.p.a.>.* 2                 o l y.y.u.d.d.g.h.h.h.h.h.h.h.h.h.p.p.5.                      ",
"                . . C p.p.p.p.p.p.p.p.p.p.p.p.p.p.-..                     x p.p.d.h.h.h.h.h.h.h.h.h.h.h.h.p.i.r.                      ",
"                    C p.p.p.p.p.p.p.p.p.p.p.p.p.p.>.                      N p.p.d.h.h.h.h.h.h.h.h.h.h.h.g.p.p.                        ",
"                        l l l l z                                         B p.p.a.a.a.a.a.d.a.a.a.a.a.a.5.4 5                         ",
"                                                                          %.p.p.p.p.p.p.p.p.p.p.p.p.p.p.1..                           ",
"                                                                            p.p.p.p.p.p.p.p.p.p.p.p.i.p.4.                            ",
"                                                                            z z l l l z l z z l z l z                                 "
};
