/* XPM */
static char *result[] = {
/* columns rows colors chars-per-pixel */
"64 64 219 2 ",
"   c #030302",
".  c #090605",
"X  c #0B0905",
"o  c #0E0B09",
"O  c #120E04",
"+  c #120E0C",
"@  c #151306",
"#  c #1C1504",
"$  c #1D1B05",
"%  c #13120D",
"&  c #1D1D0E",
"*  c #0F0712",
"=  c #130A14",
"-  c #1B1613",
";  c #1F1D12",
":  c #1F151C",
">  c #1F1918",
",  c #251D05",
"<  c #201E0E",
"1  c #211717",
"2  c #211D13",
"3  c #21151D",
"4  c #221A1A",
"5  c #1F200F",
"6  c #1F2013",
"7  c #2B2506",
"8  c #272409",
"9  c #332606",
"0  c #3B2C07",
"q  c #322E09",
"w  c #3B370A",
"e  c #232115",
"r  c #282417",
"t  c #262319",
"y  c #29261B",
"u  c #2C2A1D",
"i  c #32301F",
"p  c #1F0E25",
"a  c #1E0E28",
"s  c #1F1223",
"d  c #210D26",
"f  c #220D29",
"g  c #211223",
"h  c #261A23",
"j  c #271B26",
"k  c #24122A",
"l  c #29172E",
"z  c #2A192D",
"x  c #2B1730",
"c  c #2D1B31",
"v  c #301C32",
"b  c #2B2422",
"n  c #292125",
"m  c #2E2B21",
"M  c #312D23",
"N  c #332C29",
"B  c #353226",
"V  c #383327",
"C  c #363328",
"Z  c #3A352B",
"A  c #3C3A2E",
"S  c #332335",
"D  c #352934",
"F  c #362539",
"G  c #382938",
"H  c #3B2C3C",
"J  c #373737",
"K  c #3E3B31",
"L  c #3E323B",
"P  c #443208",
"I  c #443909",
"U  c #553E09",
"Y  c #423C34",
"T  c #41343D",
"R  c #443C3B",
"E  c #4B450D",
"W  c #554B0E",
"Q  c #59520F",
"!  c #5E5610",
"~  c #664C0C",
"^  c #6F520D",
"/  c #75570E",
"(  c #6B6312",
")  c #736A14",
"_  c #444135",
"`  c #464239",
"'  c #4A463C",
"]  c #4C493E",
"[  c #3E2F41",
"{  c #402F43",
"}  c #433442",
"|  c #463944",
" . c #493B46",
".. c #463949",
"X. c #4C3D49",
"o. c #454140",
"O. c #4D4444",
"+. c #4D4941",
"@. c #524D44",
"#. c #53484D",
"$. c #565248",
"%. c #564853",
"&. c #574A53",
"*. c #5A4D55",
"=. c #5D5755",
"-. c #5E515A",
";. c #64595B",
":. c #65615A",
">. c #685B63",
",. c #6E6765",
"<. c #746A6A",
"1. c #79736D",
"2. c #776B72",
"3. c #7E7675",
"4. c #9B5503",
"5. c #9D5905",
"6. c #9F5D0A",
"7. c #A15E09",
"8. c #85620F",
"9. c #8A6710",
"0. c #936D11",
"q. c #827916",
"w. c #9C7412",
"e. c #A6670A",
"r. c #A4650C",
"t. c #AA6C0D",
"y. c #B3780E",
"u. c #A56611",
"i. c #BD6D1B",
"p. c #AA7B14",
"a. c #B37A15",
"s. c #CA7612",
"d. c #C4781B",
"f. c #C47A21",
"g. c #847B7A",
"h. c #94871A",
"j. c #978A1A",
"k. c #B88418",
"l. c #A6991C",
"z. c #B6A91F",
"x. c #B88E20",
"c. c #BBAB20",
"v. c #C68B1B",
"b. c #D68710",
"n. c #C5941D",
"m. c #D79917",
"M. c #E59C12",
"N. c #E7A616",
"B. c #ECAA19",
"V. c #EDB51B",
"C. c #F1B81D",
"Z. c #CC8927",
"A. c #CE8C24",
"S. c #CF9028",
"D. c #C89528",
"F. c #D19325",
"G. c #D59B25",
"H. c #D2952A",
"J. c #D49B2C",
"K. c #D29731",
"L. c #D49D33",
"P. c #D39D38",
"I. c #CAA727",
"U. c #DAA624",
"Y. c #D6A02C",
"T. c #D8A929",
"R. c #CABB22",
"E. c #DCB329",
"W. c #D6A236",
"Q. c #D8A637",
"!. c #DBAC36",
"~. c #D6A439",
"^. c #D9A639",
"/. c #DAAA3C",
"(. c #DEB132",
"). c #DAB435",
"_. c #E6AE28",
"`. c #E5BA26",
"'. c #F1BB22",
"]. c #E2B736",
"[. c #CFC023",
"{. c #D6C624",
"}. c #E9C42B",
"|. c #EDCC2B",
" X c #F2C726",
".X c #F2CD2A",
"XX c #E9D428",
"oX c #ECDB28",
"OX c #F3D32C",
"+X c #F3DC2B",
"@X c #E9C736",
"#X c #F3CD32",
"$X c #EDD23A",
"%X c #F4D534",
"&X c #F5DA33",
"*X c #F3D53D",
"=X c #F5DB3B",
"-X c #F4E229",
";X c #F9E52B",
":X c #FCEA2B",
">X c #F7E73E",
",X c #D8AA45",
"<X c #E1BD47",
"1X c #E7CC4F",
"2X c #F3D741",
"3X c #F5DA42",
"4X c #F6E445",
"5X c #F7E848",
"6X c #F6E957",
"7X c #93878E",
"8X c #948989",
"9X c #9B9193",
"0X c #A59A95",
"qX c #A69E9B",
"wX c #ACA19B",
"eX c #B2ABA7",
"rX c #BAB3AC",
"tX c #C1BBB5",
"yX c #D9D4CA",
/* pixels */
"d f f f f f f f f f f f f f f f f f f f f f f f f f f f f f d f f f f f d f f f f f f f f f f f f d f f f f k S } ..D f f f f f ",
"f d f f f f f f f f d f f f f f f f d f f d f f f f f f f f f f d f d f f f f d a s s : > : : g f d 3 3 3 3 z L *.;.X.k f f f f ",
"f f f f f f d f f f f f d d d d g d f d f f f g 3 3 3 3 3 3 d f d a d p g s d d s 6 6 6 2 4 3 g d f d 2 2 ; 2 r  .*.%.l f d f d ",
"f f f f f f f f f d d d g g 3 < 4 3 g f d 3 4 ; ; ; 2 2 ; - = o             X - n > 6 6 4 : 3 3 3 : g d 3 2 ; 2 < N D f f f d d ",
"d k x x l d f g 3 4 2 2 2 2 2 8 6 2 > : 4 1 5 2 r m M 4 o @ W q.R.oX:X:XXXR.( 7 6 =.o.h : 4 6 6 2 2 2 1 4 3 > > 2 < 2 g f f f d ",
"l D | X.T l d 4 2 2 2 r M m m Z K m e ; 4 : 1 2 u u % # ( [.oX:X:X:X:X:X:X:X:X[.q.6 =.3.n e u B M m e e < 2 2 1 3 1 < 3 f f f d ",
"S | %.*.%.{ d 1 r C Y ` ] ] +.+.+.' Y u 2 4 > ; % . ( R.:X:X:X:X:X:X:X:X:X:X:X:X:Xc.$ J g.C _ ] ] Y Y K C u < 2 1 3 3 3 f f d d ",
"F X.*.*.*. .h 2 r R R ' ] ] o.+.' +.+.` u ; 4 . 8 l.+X|.).)./.).E.].@X+X:X:X:X:X:X:X[.$ J ,.A K A C u r u V m ; e 4 3 f f f f d ",
"F | %.-.&.} h 1 e M N K ` ` ] ] ' ` _ Y C ; . w c._.Y.L.~././.).!.!./.).@XXX;X:X:X:X-Xl.  ` $.m u i e 2 & 2 2 ; 2 & 4 s f f f d ",
"c H  .O...S g 4 2 < 8 u C C m e t e r r e X 7 I.G.F.J.J.P.,X,X,XQ.Q./.,X/.!.@X:X:X:X:X-Xq   J t e e 2 ; 2 ; 2 & 2 2 2 j G F l d ",
"f l S S v f f f d g 3 3 4 > 2 2 ; 4 : : o q c.Z.S.A.D.,X1X6X6X6X6X6X1X,X~.~.W.].;X:X:X:Xj.X . : : s a s h m & e 2 & & y X...H k ",
"f d f f f f f g g d d d f f p 3 : s > % $ x.S.H.Z.W.$X>X4X5X5X5X4X5X6X6X<XW.J.J.].:X:X:X{.@   O 2 & 8 < 4 +.1.=.u 2 e 2 R ..[ k ",
"f f f f f d g 1 ; ; > > g f d r i e &   h.G.H.S.W.%X+X&X=X>X4X$X2X5X5X4X4X1XS.H.F.OX:X:X;X7 O . r r 6 > 2 ; r +.,.&.N S T | F k ",
"f a a f f d g > e u A C t > g 4 m R - Q T.H.H.~.%XOXOXOX&X=X).6.p.1X4X=X=X&X<XS.S.U.;X:X:XQ 9   u m u e 2 2 ; 2 *.>.[ l S S l f ",
"f d f f f k 3 ; M _ ] ] ` C e 3 > ; $ I.K.L.H.*X%XOXOXOXOX$Xk.r.6.).>X=X&X&X%XJ.A.A.|.:X:X( P # 4 i M r ; ; ; b >.-.x f f d f p ",
"f d f f l g 2 e A Y ] $.] K Z y s X ) }.W.K.!.&X%XOX|.|.|.T.u.D.5.D.=X+XOXOXOX].Z.F.U.;X:X( I 9 2 m M m e ; t ` *.[ f f f f f f ",
"f f f S } T 2 u _ +.@.@.+._ K B ; @ R.(.W.L.@X*X%X$Xk.k.v.t.r.I.u.a.}.|..X.X.X.XS.F.G.+X:XQ W 0 > B u e 2 4 b m h S S l p f d d ",
"f d l H ;.O.e Z +.+.+.@.] ] ] A % Q XX!.W.W.*X*X=X$Xk.t.6.4.4.7.4.5.t.a.v.}.OXOXW.J.J.|.:XI ^ 0 ; M e 2 4 > > ; & t L D l p f d ",
"f d k b R +.r _ +.+.] $.$.$.@._ X h.-X/.^.^.3X=X3X$X).!.t.t.I.I.k.5.t.a.k.}.%X%X(.H.J.|.oX8 0.9 ; e 2 4 3 2 ; ; 2 2 b L x f d p ",
"a d 3 2 r R r A +.@.@.$.$.$.] Z   [.-X/./.^.3X3X3X@Xr.r.5.r.k.D.v.r.a.E.@X*X*X=X).L.Y.|.z.7 p.# - e b 4 2 ; 6 6 r t 2 n l f f d ",
"f d g 4 4 n 4 b Z _ ' ` _ Y Z 1 $ XX;X/./.P.2X3X3X$XD.6.r.a.t.r.6.5.4.4.k.2X*X=X!.W.Q.OX) P k.  b ` N e ; 2 ; e Z Z r ; > d f d ",
"f p k a 3 g d 3 4 e r y u r t % w +X;X]./.P.2X2X*X*XI.4.n.}.`.V.E.k.4.k.).2X3X2XW././.+Xq 9.w.O A u 6 ; 8 ; ; e Y Y B e 2 3 f d ",
"a d f f f f f f a k k j g s g * E +X:X].^.P.(.*X*X@Xe.e.`.OX X XOXI.4.x.*X=X2X2XP./.].c., n.U % ; 2 e ; 2 6 ; r Y Z V M 2 1 d p ",
"f d f f k f f g g z #.2.>.F f * W oX:XOX^.P.K.#XOXD.5.v. X X X X XV.e.y.@X%X*X).~.~.).I / v.# % ; ; & r m r ; y Z V V V e 2 s d ",
"f d f f f d g 1 e u Y qX9X<.v = E oX:X;X(.W.K.T. X_.U.`.C.C.'.C. XV.k.e.V.oX|.H.Q.).j.. m./ o > 2 ; e u m e e r M M u r e 2 g f ",
"f p d f g 3 1 e e u <.yXrX8X| = 8 oX:X:X|.W.K.Z._.'.'.'.C.V.C.C.V. X{.V. X XG.W.Q.I.$   ^ , + > 4 2 2 ; e ; ; 2 e 2 ; ; 2 3 f p ",
"a d f d 3 2 e u r e rXyX=.Y D -   {.:X:X:X}.K.S.f.M.B.B.B.N.B.B.V.V.C.C.C.F.H.T.T.E 0 w.X   & : 4 3 4 1 1 1 2 > 1 4 3 : d f f p ",
"f d f d 4 2 M m 5 ] eX] e e h > X j.:X:X:X:X].H.K.f.d.M.M.M.M.M.N.N.N.M.v.F.Y.T.)   / w.X e e 8 < 4 g g j g s g g d d f f f d p ",
"f d f d 3 2 e 2 r 1.=.i A u : 3 % W -X:X:X:X;XE.S.Z.f.i.s.s.b.b.b.s.d.f.F.G._.q.O ^ X @ + r y ; 1 4 > 2 2 2 2 > 2 ; 4 3 d g f d ",
"f d f f 3 2 e ; > D r Z _ e g s > X l.:X:X:X:X:XOXY.v.Z.f.d.i.d.f.v.A.m.U.}.q.X 8.m.9 O ; 2 ; 2 4 1 2 2 e e r r e e e ; 1 g d d ",
"f d d f 3 1 2 g s t B _ Z 2 k f a * 8 [.:X:X:X:X:X;X|.U.F.F.v.A.A.m.U.|.{.! # 0 , 0 X ; ; ; & 2 > e ; 2 M N C V V M M r 2 4 z f ",
"a d f f g 3 g : t m K K m > s g k s o w XX:X:X:X:X:X:X:XOX.X X.XOX+X-Xz.I   w.p.X X - > ; ; 2 1 > 2 ; r M V A A C C C V r 2 L F ",
"f d f f g 4 2 1 u C C u 4 3 2 & > > & . q z.:X:X:X:X:X:X:X:X:X:X;Xc.Q X ~ 9 0 # o 3 1 3 : 3 g : s 2 2 < 2 2 r u m M M M e 2 R ..",
"f p d k 3 2 6 6 e 4 3 3 d g 2 > g ; e m o X Q z.{.-X:X:X;XXX[.l.E 7 $ P k.P   % > 2 < 2 2 1 ; ; 4 > g : 4 2 2 2 ; e 2 2 2 t } G ",
"f d f f g g s g g g d g g g ; 2 g 2 e B B -   . 8 q I w w q 7 , ^ k.8.X X . - > ; < e & e r r 6 ; 4 g f f d g 3 3 3 4 3 3 k x f ",
"f d f f f d g : 1 2 r r 4 3 > 2 g ; 5 B C C b %     . , P ~ / 9.~ 9   X # & : 2 u C V M B A Y A e ; 4 s g d f d d f f d k f f f ",
"a d d f f f 3 ; M A A A A u 2 3 g 4 2 u C B M M u % X o + O @ + + - u M t 2 f s u A ` V C Z A Y B 2 ; ; & e ; > 3 3 g d d f f f ",
"f d f f f f g 8 C ] ] ' _ A u 1 g g 2 2 M M m u t 2 & p : - ; r V Y Y Y y 2 g g r A ` A V M m i M m r u r e e 6 ; 2 2 3 g d d d ",
"f d f f f f g 2 M ` ] ' ] ' V 4 g d 4 2 y M m u ; ; 1 s 4 6 m Y Y R Y Y M & > g 4 V A u 2 2 ; ; 2 e & e u B B M u r 2 2 2 g f d ",
"f d f f f d 3 2 M Y ` ] ] ' Y 2 g d g 2 e u r e 2 t j 4 ; y Z Y Y Y Y R A 2 2 g 4 e e ; ; < e ; ; 2 2 ; ; u B V C Z M r 2 3 d d ",
"f p f f f f g 2 e A Y ` ' Y Z e 4 g f : 6 ; ; 2 ` Y S 4 < C K Y Y Y Y Y Y r ; g j j 2 4 1 2 < 2 e 2 2 2 ; ; t u M M V B e 2 g a ",
"f d f f f f d 3 2 2 2 y y m y < 1 g f : ; t n @.8X .S 2 2 Y Y Y Y Y Y Y M 6 t T *.%.} j 3 3 > ; ; ; e ; 2 e 2 r u M V B 2 1 d d ",
"f d f f f f d g : ; ; 2 < 2 2 2 3 d d k k v F G H F z 1 2 M y r r r r 1 8 1 L *.<.,.&.L 2 2 3 g d z n t e & 6 6 e u M e 2 3 d p ",
"f p f f f f f f k d d d d 3 d d k f d g 4 4 4 2 4 4 s 3 < ; e ; 2 2 < 2 1 3 T ;.2.,.#.m 2 2 < 1 3 s f f g : > 2 2 < & 2 M d f d ",
"f d k f f d > > > 4 3 > s s d f f f d 3 ; ; & u C u > 4 1 > g p k s : g f f T b Z #.R 2 e u e 2 ; 4 4 s k d X.3.,.;.>.g.7Xx f f ",
"f d f f k k 2 & ; e m B u e ; 3 g f d > e t e u A C 2 p d f f s 3 2 ; 1 k f 4 & & N L 2 e u M u e ; 2 2 1 3 | 9XrXtXrXeX7Xl f d ",
"a d f f f f h & y Y ` _ _ u e ; 4 g f 4 6 e e u C m t d f k s 4 e ; ; < 3 3 2 2 1 e N 4 2 r u m M M y e ; ; 6 6 +.qXeXqX>.f f d ",
"f d f f d k L t 2 A ] +.] Y C t 2 3 d 3 ; & ; e m C r g f d 4 ; ; 2 e 6 3 4 2 2 1 4 g : < 2 t m V V V B m u t ; ; R 9X2.F d f d ",
"f d f f f c X.:.m r N _ ` Y Y A e e s 3 ; 2 e ; m A e s d 3 e & y B u 6 4 1 3 > > 1 1 s 3 ; ; u m V V C Z Y m > 2 4 G l f f f f ",
"f p f f f c ..>.2.M < r M C Y R m e 3 g 2 2 ; ; r b ; s 4 r V B C C m ; 1 d > ; e 2 6 4 f 1 6 r u M M Z Y Y y ; 2 g f f f f f p ",
"f d f f f k } X.#.X.m 2 2 2 Z R Y M 1 g 2 ; 2 ; e 6 4 s e Z ` Y C C M e 1 g 2 e u B m e g g 4 ; e M C Y Y M e > g k f f f f f p ",
"f d d f f a j L X.| G g 1 < e V Y Z r g 4 2 8 ; 2 2 s 2 2 Z Y Y C M u ; 4 : ; u Y _ Y B 4 g 3 4 2 e m M u 2 ; 3 f f f f f f f f ",
"f d f g 3 4 5 6 s h k f k 4 2 2 m M r g 3 2 e & e 3 s < t Z C C C C y 2 3 > y _ ` ' ` A u 4 a g 3 & e & ; 2 s f f f f f f f f p ",
"f f g 1 e r B B t ; > k c z h 2 2 2 2 s d ; & ; 2 g > ; m C C C C C t & 3 > M ' ] K ` _ Z y g f d 3 3 4 3 g g g f f d f f f f p ",
"f : > 2 M A $.@._ e ; t H } G j 3 2 2 k d 3 ; & 3 g 2 e V M C C V Z 2 & k > V ` ' V r i B r 1 3 f d g 4 > ; g a f k f f f f f a ",
"d 3 1 e A K @.' K C t 2 L X...c d 3 d f f g 4 1 g 4 2 u V V V C C M ; ; f 4 m K C t ; 2 t 4 3 3 3 k 3 1 e & 1 g f k x l l f d d ",
"g > ; B A V _ A B K M 2 M X...v f f f f f f g s 3 2 e M i M B V Z m & 4 g 3 t r e ; n b t > < 2 4 4 3 1 1 2 2 3 l } *.;.*.T g d ",
"d & ; B A B _ _ C C Z e m { H f f f f k k f f f 1 2 2 e u M m M C r 5 g > > : s : 4 ; ; ; t e 2 2 2 2 1 3 4 1 1 H -.,.g.g.;.T d ",
"d ; 6 r i B Z A B B C ; 4 k f f k f f f f f f f g 2 & ; 2 u u M M e 2 s 2 ; ; 2 2 2 2 y C Z C u 2 e 2 2 1 4 1 3 | ;.8X0X9X<. .d ",
"d > 5 6 m i B M B C B ; 3 f f f f f f f f f k f d 4 ; 2 2 2 2 e 2 ; 3 s 4 ; e r u B K ` ` K u 2 ; ; < 2 < e g k X.,.9XwX0Xg.X.f ",
"d 3 < 2 t r r M A Z 2 2 g f f f f f f f l c k f d g 1 2 2 e & & 2 2 d f g 2 t r M M C V u e ; & ; ; 2 > g d d d T -.g.8Xg.;.T f ",
"d d 1 < 2 2 ; 2 r e 2 3 k d f f f f f k S G S k g d d 3 1 2 ; 2 4 g d f g 4 ; ; ; 2 ; ; 2 > 1 3 3 3 g g f f d f f T *.>.-. .x d ",
"d f 3 1 2 & ; ; ; & ; s a f f f f f f k | | S f d d f f d d : g g f f f f d s s 3 3 3 3 3 g p f f f f f f f f d f d x v v f d d ",
"d f d d > > ; 1 3 3 d d f f d d d d d d S H z d f f d d d d p f a f d d d d p d p d d d p f d f d f d f d d d f d d d f f f f d "
};
