/* XPM */
static char *p_back_21670187210[] = {
/* columns rows colors chars-per-pixel */
"58 124 232 2 ",
"   c None",
".  c black",
"X  c #0B0B0B",
"o  c #120E02",
"O  c #130E02",
"+  c #130E03",
"@  c #140F02",
"#  c #181203",
"$  c #1E1703",
"%  c #1A1404",
"&  c #1C1504",
"*  c #1C1505",
"=  c #1D1505",
"-  c #151515",
";  c #161616",
":  c #1B1B1A",
">  c #1B1B1B",
",  c #1C1B1B",
"<  c #1E1E1E",
"1  c #231B05",
"2  c #221A06",
"3  c #251C06",
"4  c #372A07",
"5  c #372A08",
"6  c #382A08",
"7  c #3D3319",
"8  c #3F331B",
"9  c #222222",
"0  c #2A2A2A",
"q  c gray17",
"w  c #2C2C2C",
"e  c #302F2F",
"r  c #343434",
"t  c #373737",
"y  c gray22",
"u  c #393939",
"i  c #3A3A3A",
"p  c gray23",
"a  c #3C3C3C",
"s  c gray24",
"d  c #43320A",
"f  c #46350B",
"g  c #47350B",
"h  c #46360A",
"j  c #503D0C",
"k  c #543F0D",
"l  c #403A2D",
"z  c #4C483F",
"x  c gray25",
"c  c #414141",
"v  c #454343",
"b  c #444444",
"n  c gray27",
"m  c #464646",
"M  c gray28",
"N  c #484848",
"B  c #494949",
"V  c #4B4B4B",
"C  c #5E594E",
"Z  c #515151",
"A  c gray32",
"S  c #535353",
"D  c gray33",
"F  c #555555",
"G  c #565656",
"H  c gray34",
"J  c #5B5B5B",
"K  c #606060",
"L  c gray38",
"P  c #626262",
"I  c gray40",
"U  c #676767",
"Y  c gray42",
"T  c #736E63",
"R  c #7C7C7C",
"E  c #826312",
"W  c #836412",
"Q  c #856412",
"!  c #8D6E1D",
"~  c #947013",
"^  c #947014",
"/  c #957014",
"(  c #947114",
")  c #957114",
"_  c #947115",
"`  c #957115",
"'  c #967114",
"]  c #977114",
"[  c #967314",
"{  c #977215",
"}  c #9D7716",
"|  c #9F7816",
" . c #997928",
".. c #9D7E2D",
"X. c #9E7E2C",
"o. c #9E7E2D",
"O. c #9D7D2E",
"+. c #9D7E2E",
"@. c #9E7E2E",
"#. c #AA8119",
"$. c #A98324",
"%. c #A28332",
"&. c #A48432",
"*. c #A6883A",
"=. c #C6951E",
"-. c #C7971F",
";. c #CB9A1F",
":. c #CE9B1F",
">. c #CE9C1D",
",. c #CE9C1F",
"<. c #D5A11F",
"1. c #CD9B20",
"2. c #C99B2B",
"3. c #D5A120",
"4. c #D4A121",
"5. c #D5A121",
"6. c #D6A120",
"7. c #D6A121",
"8. c #D5A221",
"9. c #D6A220",
"0. c #D6A221",
"q. c #D7A221",
"w. c #D8A322",
"e. c #D9A420",
"r. c #DBA521",
"t. c #D9A422",
"y. c #DBA522",
"u. c #DBA622",
"i. c #DFA923",
"p. c #D6A62E",
"a. c #D6A837",
"s. c #D7A938",
"d. c #DBAD3B",
"f. c #DBAE3D",
"g. c #DEAF3C",
"h. c #E5AD24",
"j. c #E8AF24",
"k. c #EAB125",
"l. c #A78B46",
"z. c #AB8F4B",
"x. c #AF9550",
"c. c #B39B5C",
"v. c #808080",
"b. c #868484",
"n. c #878484",
"m. c #868585",
"M. c #898787",
"N. c #8E8B8B",
"B. c #969494",
"V. c gray59",
"C. c #9C9A9A",
"Z. c #9D9B9B",
"A. c #9F9E9E",
"S. c #A09C9C",
"D. c #A09D9D",
"F. c #A29E9E",
"G. c #A3A0A0",
"H. c #A4A1A1",
"J. c #A4A4A4",
"K. c #A7A5A5",
"L. c #A9A6A6",
"P. c #A9A7A7",
"I. c #ACACAC",
"U. c #B2AFAF",
"Y. c #B3AFAF",
"T. c #B2B0B0",
"R. c #B3B0B0",
"E. c #B4B0B0",
"W. c #B6B4B4",
"Q. c #B9B9B9",
"!. c gray75",
"~. c #C9C0A9",
"^. c #D0C9B8",
"/. c #D8CFBB",
"(. c #C0C0C0",
"). c #C1C1C1",
"_. c gray76",
"`. c #C3C3C3",
"'. c gray77",
"]. c #C5C5C5",
"[. c #C6C4C4",
"{. c #C6C6C6",
"}. c #C8C8C8",
"|. c gray79",
" X c #CACACA",
".X c #CBCBCB",
"XX c gray80",
"oX c #CDCDCD",
"OX c #CECECE",
"+X c #D2CEC2",
"@X c #D7D2C7",
"#X c #DAD4C4",
"$X c #DBD5C4",
"%X c #D8D4CF",
"&X c gray83",
"*X c #D8D5D0",
"=X c #D9D5D1",
"-X c #D8D6D1",
";X c #DDDBD5",
":X c #DFDDD7",
">X c gray85",
",X c #DADADA",
"<X c gray86",
"1X c #DCDBDB",
"2X c gainsboro",
"3X c #DFDFDE",
"4X c #DFDFDF",
"5X c #F1EADA",
"6X c #F8F0DB",
"7X c gray89",
"8X c #E4E4E4",
"9X c #E6E6E6",
"0X c #E7E7E7",
"qX c gray91",
"wX c #E9E9E9",
"eX c #EAEAEA",
"rX c #ECEBEB",
"tX c #F2EDE2",
"yX c #FAF3E3",
"uX c #F4F4F4",
"iX c gray96",
"pX c #F6F6F6",
"aX c #F9F7F2",
"sX c #FDFBF5",
"dX c #FEFBF6",
"fX c gray98",
"gX c #FBFBFB",
"hX c gray99",
"jX c #FDFDFD",
"kX c #FEFEFE",
"lX c #FFFFFE",
"zX c white",
/* pixels */
"                                          m b b m b b b b m b m m B m m B B m B m B                                 ",
"                                      <X4X<X<X<X<X<X<X<X<X<X<X<X<X<X<X<X<X<X<X<X<X<X<X<X<X<X                        ",
"                                    9 <X<X<X<X<X<X<X<X<X<X<X<X4X<X<X<X<X<X<X<X<X<X<X<X4X<X<X.                       ",
"                                  s A 0X7X7X0X7X0X7X7X7X7X0X7X0X7X7X0X7X7X7X7X0X7X0X7X0X0X7Xp b                     ",
"                              0 <X<X4XhXhXhXhXhXhXhXhXhXhXhXhXhXhXhXhXhXhXhXhXhXhXhXhXhXhXhX<X<X<X                  ",
"                            . < 4X<X4XhXhXhXhXhXhXhXhXhXhXhXhXhXhXhXhXhXhXhXhXhXhXhXhXhXhXhX<X<X<X.                 ",
"                          B p A 0X0XeXhXhXhXhXhXhXhXhXhXhXhXhXhXhXhXhXhXhXhXhXhXhXhXhXhXhXhX0X0X0Xp m               ",
"                        m <X<X4XhXhXhXhXhXhXhXhXhXhXhXhXhXhXhXhXhXhXhXhXhXhXhXhXhXhXhXhXhXhXhXhXhX<X<X<X            ",
"                      . p <X<X4XhXhXhXhXhXhXhXhXhXhXhXhXhXhXhXhXhXhXhXhXhXhXhXhXhXhXhXhXhXhXhXhXhX<X<X<X            ",
"                    m p L 7X7X0XhXhXhXhXhXhXhXhXhXhXhXhXhXhXhXhXhXhXhXhXhXhXhXhXhXhXhXhXhXhXhXhXhX7X7X7Xs B         ",
"                    <X<X7XfXfXfXhXhXhXhXhXhXhXhXhXhXhXhXhXhXhXhXhXhXhXhXhXhXhXhXhXhXhXhXhXhXhXhXhXfXfXfX<X<X        ",
"                  J <X<X7XfXfXfXhXhXhXhXhXhXhXhXhXhXhXhXhXhXhXhXhXhXhXhXhXhXhXhXhXhXhXhXhXhXhXhXhXfXfXfX<X<X<X      ",
"                  s <X<X7XfXhXfXhXhXhXhXhXhXhXhXhXhXhXhXhXhXhXhXhXhXhXhXhXhXhXhXhXhXhXhXhXhXhXhXhXhXhXhX<X<X<X      ",
"                  p <X<X7XhXhXhXhXhXhXhXhXhXhXhXhXhXhXhXhXhXhXhXhXhXhXhXhXhXhXhXhXhXhXhXhXhXhXhXhXhXhXhX<X<X<X.     ",
"                . t <X<X0XhXhXhXhXhXhXhXhXhXhXhXhXhXhXhXhXhXhXhXhXhXhXhXhXhXhXhXhXhXhXhXhXhXhXhXhXhXhXhX<X<X<X.     ",
"                s L 7X0XeXhXhXhXhXhXhXhXhXhXhXhXhXhXhXhXhXhXhXhXhXhXhXhXhXhXhXhXhXhXhXhXhXhXhXhXhXhXhXhX7X7X0Xp m   ",
"              <X<X7XhXhXhXhXhXhXhXhXhXhXhXhXhXhXhXhXhXhXhXhXhXhXhXhXhXhXhXhXhXhXhXhXhXhXhXhXhXhXhXhXhXhXhXhXhX4X<X<X",
"              <X<X0XhXhXhXhXhXhXhXhXhXhXhXhXhXhXhXhXhXhXhXhXhXhXhXhXhXhXhXhXhXhXhXhXhXhXhXhXhXhXhXhXhXhXhXhXhX4X<X<X",
"              <X<X7XhXhXhXhXhXhXhXhXhXhXhXhXhXhXhXhXhXhXhXhXhXhXhXhXhXhXhXhXhXhXhXhXhXhXhXhXhXhXhXhXhXhXhXhXhX<X<X<X",
"            J <X4X0XhXhXhXhXhXhXhXhXhXhXhXhXhXhXhXhXhXhXhXhXhXhXhXhXhXhXhXhXhXhXhXhXhXhXhXhXhXhXhXhXhXhXhXhXhX<X<X<X",
"            H <X<X7XhXhXhXhXhXhXhXhXhXhXhXhXhXhXhXhXhXhXhXhXhXhXhXhXhXhXhXhXhXhXhXhXhXhXhXhXhXhXhXhXhXhXhXhXhX4X<X<X",
"            H <X<X0XhXhXhXhXhXhXhXhXhXhXhXhXhXhXhXhXhXhXhXhXhXhXhXhXhXhXhXhXhXhXhXhXhXhXhXhXhXhXhXhXhXhXhXhXhX<X<X<X",
"            A <X<X7XhXhXhXhXhXhXhXhXhXhXhXhXhXhXhXhXhXhXhXhXhXhXhXhXhXhXhXhXhXhXhXhXhXhXhXhXhXhXhXhXhXhXhXhXhX4X<X<X",
"            A <X4X0XhXhXhXhXhXhXhXhXhXhXhXhXhXhXhXhXhXhXhXhXhXhXhXhXhXhXhXhXhXhXhXhXhXhXhXhXhXhXhXhXhXhXhXhXhX4X<X<X",
"            A <X<X7XhXhXhXhXhXhXhXhXhXhXhXhXhXhXhXhXhXhXhXhXhXhXhXhXhXhXhXhXhXhXhXhXhXhXhXhXhXhXhXhXhXhXhXhXhX<X<X<X",
"            H <X<X7XhXhXhXhXhXhXhXhXhXhXhXhXhXhXhXhXhXhXhXhXhXhXhXhXhXhXhXhXhXhXhXhXhXhXhXhXhXhXhXhXhXhXhXhXhX<X<X<X",
"            A <X<X0XhXhXhXhXhXhXhXhXhXhXhXhXhXhXhXhXhXhXhXhXhXhXhXhXhXhXhXhXhXhXhXhXhXhXhXhXhXhXhXhXhXhXhXhXhX4X<X&X",
"            H <X<X0XhXhXhXhXhXhXhXhXhXhXhXhXhXhXhXhXhXhXhXhXhXhXhXhXhXhXhXhXhXhXhXhXhXhXhXhXhXhXhXhXhXhXhXhXhX<X<X<X",
"            A <X<X0XhXhXhXhXhXhXhXhXhXhXhXhXhXhXhXhXhXhXhXhXhXhXhXhXhXhXhXhXhXhXhXhXhXhXhXhXhXhXhXhXhXhXhXhXhX4X<X<X",
"            A <X<X7XhXhXhXhXhXhXhXhXhXhXhXhXhXhXhXhXhXhXhXhXhXhXhXhXhXhXhXhXhXhXhXhXhXhXhXhXhXhXhXhXhXhXhXhXhX4X<X<X",
"            A <X<X7XhXhXhXhXhXhXhXhXhXhXhXhXhXhXhXhXhXhXhXhXhXhXhXhXhXhXhXhXhXhXhXhXhXhXhXhXhXhXhXhXhXhXhXhXhX<X<X<X",
"            A <X<X7XhXhXhXhXhXhXhXhXhXhXhXhXhXhXhXhXhXhXhXhXhXhXhXhXhXhXhXhXhXhXhXhXhXhXhXhXhXhXhXhXhXhXhXhXhX<X<X4X",
"            A <X<X0XhXhXhXhXhXhXhXhXhXhXhXhXhXhXhXhXhXhXhXhXhXhXhXhXhXhXhXhXhXhXhXhXhXhXhXhXhXhXhXhXhXhXhXhXhX4X<X<X",
"            A <X<X0XhXhXhXhXhXhXhXhXhXhXhXhXhXhXhXhXhXhXhXhXhXhXhXhXhXhXhXhXhXhXhXhXhXhXhXhXhXhXhXhXhXhXhXhXhX4X<X<X",
"            A <X<X0XhXhXhXhXhXhXhXhXhXhXhXhXhXhXhXhXhXhXhXhXhXhXhXhXhXhXhXhXhXhXhXhXhXhXhXhXhXhXhXhXhXhXhXhXhX<X<X<X",
"            A <X<X7XhXhXhXhXhXhXhXhXhXhXhXhXhXhXhXhXhXhXhXhXhXhXhXhXhXhXhXhXhXhXhXhXhXhXhXhXhXhXhXhXhXhXhXhXhX<X<X<X",
"            A <X<X7XhXhXhXhXhXhXhXhXhXhXhXhXhXhXhXhXhXhXhXhXhXhXhXhXhXhXhXhXhXhXhXhXhXhXhXhXhXhXhXhXhXhXhXhXhX4X<X<X",
"            A <X<X7XhXhXhXhXhXhXhXhXhXhXhXhXhXhXhXhXhXhXhXhXhXhXhXhXhXhXhXhXhXhXhXhXhXhXhXhXhXhXhXhXhXhXhXhXhX<X<X<X",
"            A <X<X0XhXhXhXhXhXhXhXhXhXhXhXhXhXhXhXhXhXhXhXhXhXhXhXhXhXhXhXhXhXhXhXhXhXhXhXhXhXhXhXhXhXhXhXhXhX4X<X<X",
"            A <X<X0XhXhXhXhXhXhXhXhXhXhXhXhXhXhXhXhXhXhXhXhXhXhXhXhXhXhXhXhXhXhXhXhXhXhXhXhXhXhXhXhXhXhXhXhXhX4X<X<X",
"            H <X<X8XhXhXhXhXhXhXhXhXhXhXhXhXhXhXhXhXhXhXhXhXhXhXhXhXhXhXhXhXhXhXhXhXhXhXhXhXhXhXhXhXhXhXhXhXhX<X<X<X",
"            H <X<X8XhXhXhXhXhXhXhXhXhXhXhXhXhXhXhXhXhXhXhXhXhXhXhXhXhXhXhXhXhXhXhXhXhXhXhXhXhXhXhXhXhXhXhXhXhX<X<X<X",
"              (.!.&XgXfXhXhXhXhXhXhXhXhXhXhXhXhXhXhXhXhXhXhXhXhXhXhXhXhXhXhXhXhXhXhXhXhXhXhXhXhXhXhXhXhXhXhXfX(.(.XX",
"              . . t 1X<X0XhXhXhXhXhXhXhXhXhXhXhXhXhXhXhXhXhXhXhXhXhXhXhXhXhXhXhXhXhXhXhXhXhXhXhXhXhXhXhX<X4X4X. .   ",
"              . . t 1X<X0XhXhXhXhXhXhXhXhXhXhXhXhXhXhXhXhXhXhXhXhXhXhXhXhXhXhXhXhXhXhXhXhXhXhXhXhXhXhXhX<X<X<X.     ",
"              & $ t +X+X;XhXhXfXhXhXhXhXhXhXhXhXhXhXhXhXhXhXhXhXhXhXhXhXhXhXhXhXhXhXhXhXhXhXhXhXhXhXhXhX{.|.XX      ",
"            k q.4.=._ { l.<X<X4XhXhXhXhXhXhXhXhXhXhXhXhXhXhXhXhXhXhXhXhXhXhXhXhXhXhXhXhXhXhXhXhXhX<X4X<X.           ",
"            d q.q.=.{ { l.<X4X7XhXhXhXhXhXhXhXhXhXhXhXhXhXhXhXhXhXhXhXhXhXhXhXhXhXhXhXhXhXhXhXhXhX<X<X<X.           ",
"          1 g w.w.;.} } *.@X^.@X0XeX0XfXhXfXfXhXfXfXhXfXfXfXfXfXfXfXfXfXhXfXhXfXgXgXgXgXgXgXtXtXtX$X$X$X            ",
"        4.q.y.k.k.h.<.w.=._ _ ! H H U <X<X2X<X2X2X<X<X2X<X<X<X<X4X<X<X<X<X<X<X<X<X<X<X<X<X<X{ _ { q.q.q..           ",
"      g q.q.y.k.k.h.w.4.1.{ _ ! H H U 2X<X2X2X2X<X4X<X<X4X<X<X<X<X<X4X<X<X<X<X<X<X<X<X<X<X<X{ ^ { q.q.4..           ",
"    1 g w.w.y.h.j.h.w.w.1._ _ ! Y Y R |.|.|.|.|.|.|.|.|.|.|.|.|.|.|.XX|.|.|.|.|. X X X+X+X+X} } } w.q.q.& 3         ",
"  <.q.y.k.k.h.q.q.y.k.k.1._ _ %.hXhXrXH H H H H H H H H H H H H H H H A H H H A G G C _ { _ w.4.q.k.k.k.4.4.q.      ",
"  q.w.u.k.k.h.q.q.y.k.k.4._ _ %.hXhXrXH A H H J H H H J H A H J H H H H H J H H G G C _ _ ^ 4.q.4.k.k.k.q.q.q..     ",
"j >.1.y.k.k.h.q.q.4.i.i.a.&.%.x.hXhXrXY Y Y Y Y Y Y Y Y Y Y Y Y Y Y Y Y Y Y Y Y Y Y T _ _ { w.w.w.k.h.k.q.q.w.*     ",
"5 { { | k.k.h.q.q.=.{ [ x.hXhXhXhXhXhXhXhXhXhXhXhXhXhXhXhXhXhXhXhXhXhXhXhXhXhXhXhXhXtX_ _ { k.k.k.q.q.q.k.k.k.q.q.  ",
"5 { _ #.k.k.h.q.q.=.{ { x.hXhXhXhXhXhXhXhXhXhXhXhXhXhXhXhXhXhXhXhXhXhXhXhXhXhXhXhXhXtX{ { { k.k.k.q.q.4.k.k.k.q.q.4.",
"8 +.+.$.i.i.u.1.;.2.&.&.c.hXhXhXhXhXhXhXhXhXhXhXhXhXhXhXhXhXhXhXhXhXhXhXhXhXhXhXhXhXtX&.%.%.i.i.i.4.q.q.k.k.k.>.>.>.",
"Z <X<X~.{ _ { _ { x.hXhXiX<X4X4XhXhXhXhXhXhXhXhXhXhXhXhXhXhXhXhXhXhXhXhXhXhXhXhXhXhXhXhXhXhX} _ _ q.4.q.k.k.k.{ ^ ^ ",
"Z <X<X~.{ _ { { _ x.hXhXiX<X<X4XhXhXhXhXhXhXhXhXhXhXhXhXhXhXhXhXhXhXhXhXhXhXhXhXhXhXhXhXhXhX{ _ _ q.q.q.k.k.k._ ^ ^ ",
"Z <X<X^.&.&.%.&.%.c.gXgX0X!.!.{.fXfXfXhXhXhXhXhXhXhXhXhXhXhXhXhXhXhXhXhXhXhXhXhXhXhXhXhXhXhX&.&.%.1.1.1.i.i.i.W Q   ",
"Z 2X<X9XhXhXhXhXhXiX<X<XJ.. . : <X<X4XhXhXhXhXhXhXhXhXhXhXhXhXhXhXhXhXhXhXhXhXhXhXhXhXhXhXhXhXhXhX{ { { { _ _ . .   ",
"A <X<X8XhXhXhXhXhXfX<X<XJ.. . : <X<X7XhXhXhXhXhXhXhXhXhXhXhXhXhXhXhXhXhXhXhXhXhXhXhXhXhXhXhXhXhXhX{ _ _ { { { .     ",
"z +X+X1XhXhXhXhXhXiX<X<XJ.. . : <X<X7XhXhXhXhXhXhXhXhXhXhXhXhXhXhXhXhXhXhXhXhXhXhXhXhXhXhXhXhXhXhX%.%.%.O.O.O..     ",
"4 { { x.hXhXhXhXhXfX<X<XJ.. . > <X<X4XhXhXhXhXhXhXhXhXhXhXhXhXhXhXhXhXhXhXhXhXhXhXhXhX4X<X<XhXhXhXhXhXhX4X<X<X.     ",
"4 { _ x.hXhXhXhXhXiX<X<XJ.. . > <X<X7XhXhXhXhXhXhXhXhXhXhXhXhXhXhXhXhXhXhXhXhXhXhXhXfX<X<X<XhXhXhXhXhXhX4X<X<X.     ",
"4 _ { x.hXhXhXhXhXfX<X<XJ.. . : +X+X@XhXhXhXhXhXhXhXhXhXhXhXhXhXhXhXhXhXhXhXhXhXhXhXhX<X<X<XhXhXhXhXhXhX+X+X+X.     ",
"4 _ _ x.hXhXhXhXhXiX<X<XJ.. . + { { &.hXhXhXhXhXhXhXhXhXhXhXhXhXhXhXhXhXhXhXhXhXhXhXfX<X4X4XhXhXhXhXhXhX_ { {       ",
"4 { { x.hXhXhXhXhXfX<X<XJ.. . + { _ %.hXhXhXhXhXhXhXhXhXhXhXhXhXhXhXhXhXhXhXhXhXhXhXfX4X<X<XhXhXhXhXhXhX_ _ {       ",
"7 O.O.c.hXhXhXhXfXiX<X<XJ.. . + _ { &.hXhXhXhXhXhXhXhXhXhXhXhXhXhXhXhXhXhXhXhXhXhXhXfX<X<X<XhXhXhXhXhXhX{ ^ {       ",
"A <X<X7XhXhXfX4X<X<X<X<XJ.. . + _ _ %.hXhXhXhXhXhXhXhXhXhXhXhXhXhXhXhXhXhXhXhXhXhXhXhX<X<X<XhXhXhXhXhXhX_ _ _       ",
"A <X4X0XhXhXiX<X<X<X<X<XJ.. . + { _ %.hXhXhXhXhXhXhXhXhXhXhXhXhXhXhXhXhXhXhXhXhXhXhXhX4X<X<XhXhXhXhXhXhX{ { {       ",
"A <X<X>XeX0X7X|.|.{.!.!.V.. . + { { &.hXhXhXhXhXhXhXhXhXhXhXhXhXhXhXhXhXhXhXhXhXhXhXfX<X<X4XhXhXhXhXhXhX_ { ~       ",
"Z <X<XQ.D H H H H x . . . . . + _ { &.hXhXhXhXhXhXhXhXhXhXhXhXhXhXhXhXhXhXhXhXhXhXhXfX<X<X4XhXhXhXhXhXhX_ { ^       ",
"D <X<XQ.D H D H H s . . . . . + _ _ &.hXhXhXhXhXhXhXhXhXhXhXhXhXhXhXhXhXhXhXhXhXhXhXfX<X<X<XhXhXhXhXhXhX{ _ {       ",
"  {.!.I.H H L Y Y J - - X . . + ^ _ &.hXhXhXhXhXhXhXhXhXhXhXhXhXhXhXhXhXhXhXhXhXhXhXfX+X+X+XgXgXhXhXhXhXO.O...      ",
"  . . - H H b.hXhXrXR.R.m.. . + ^ ^ %.hXhXhXhXhXhXhXhXhXhXhXhXhXhXhXhXhXhXhXhXhXhXhXtX} { _ <X<X4XhXhXhX4X4X<X      ",
"    . - H H b.hXhXrXR.E.m.. . + ^ ^ &.hXhXhXhXhXhXhXhXhXhXhXhXhXhXhXhXhXhXhXhXhXhXhXtX{ _ _ <X<X4XhXhXhX<X<X<X      ",
"      : J L m.hXhXrXE.E.m.. . + { { %.hXhXhXhXhXhXhXhXhXhXhXhXhXhXhXhXhXhXhXhXhXhXhXtX_ _ { |.|.|.eXeX0X<X<X<X      ",
"      t E.R.{.hXhXrXE.E.m.. . + ^ { &.hXhXhXhXhXhXhXhXhXhXhXhXhXhXhXhXhXhXhXhXhXhXhXtX_ _ { H D H H H H <X<X<X      ",
"      v Y.E.{.hXhXrXR.R.M.. . + ^ ^ %.hXhXhXhXhXhXhXhXhXhXhXhXhXhXhXhXhXhXhXhXhXhXhXtX} { _ H H H A H H <X4X<X      ",
"        A.Z.W.iXiX1XZ.F.M.. . @ _ ^ %.hXhXhXhXhXhXhXhXhXhXhXhXhXhXhXhXhXhXhXhXhXhXhXtX . ...Y Y Y H H A !.(.XX      ",
"        . . w R.E.m.. .       # _ { %.hXhXhXhXhXhXhXhXhXhXhXhXhXhXhXhXhXhXhXhXhXhXhXiXR.E.E.hXhXhXH H H . .         ",
"          . e R.R.N..         $ _ { &.hXhXhXhXhXhXhXhXhXhXhXhXhXhXhXhXhXhXhXhXhXhXhXiXR.E.E.hXhXhXH H H . .         ",
"            q P.P.V.            O.O.z.hXhXhXhXhXhXhXhXhXhXhXhXhXhXhXhXhXhXhXhXhXhXhXiXE.R.R.hXhXhXP L L .           ",
"                                <X<X7XhXhXhXhXhXhXhXhXhXhXhXhXhXhXhXhXhXhXhXhXhXhXhXiXE.R.R.hXhXhXE.E.E.            ",
"                                <X2X4XhXhXhXhXhXhXhXhXhXhXhXhXhXhXhXhXhXhXhXhXhXhXhXfXE.R.E.hXhXhXY.R.R.            ",
"                                |.|.XXhXhXhXhXhXhXhXhXhXhXhXhXhXhXhXhXhXhXhXhXhXhXhXiXJ.J.P.iXiXiXF.G.              ",
"                                H H Y hXhXhXhXhXhXhXhXhXhXhXhXhXhXhXhXhXhXhXhXhXhXhXeXD D H R.Y.R..                 ",
"                                H H Y hXhXhXhXhXhXhXhXhXhXhXhXhXhXhXhXhXhXhXhXhXhXhXeXH H H R.Y.R.                  ",
"                                U U R eXrXeX0XeXrXeXeX0XeXeXrXeX0XeX0XeXrXeXeX0XrXeX&XU U U F.G.                    ",
"                                <X<X|.H H H H H H H H H H H H H H H H H H H H H H H U <X<X<X.                       ",
"                                <X<X}.H H H H A H H H H H H D H H H H A H H H H H H U <X<X<X.                       ",
"                                <X<X}.H H J H H A H H J D H D H H J H H A H H J H H U <X<X<X.                       ",
"                                <X<X4XhXhXhXhXhXhXhXhXhXhXhXhXhXhXhXhXhXhXhXhXhXhXhXfX<X<X<X                        ",
"                                <X<X7XhXhXhXhXhXhXhXhXhXhXhXhXhXhXhXhXhXhXhXhXhXhXhXfX<X<X<X                        ",
"                                <X<X4XhXhXhXhXhXhXhXhXhXhXhXhXhXhXhXhXhXhXhXhXhXhXhXgX<X<X2X                        ",
"                                <X<X4XhXhXhXhXhXhXhXhXhXhXhXhX4X4X4XhXhXhXhXhXhXdXdX5X{ { {                         ",
"                                <X<X7XhXhXhXhXhXhXhXhXhXhXhXfX<X<X7XhXhXhXhXhXhXdXdX5X{ { {                         ",
"                                <X<X7XhXhXhXhXhXhXhXhXhXhXhXfX<X<X7XhXhXhXhXhXhXdXdX5X} { {                         ",
"                                { { %.hXhXhXhXhXhXhXhXhXhXhXfX<X<X<X<X<X3XsXsX6Xq.q.,.{ / ]                         ",
"                                { { &.hXhXhXhXhXhXhXhXhXhXhXfX<X<X<X<X1X3XsXsX6Xq.q.,.{ ] [                         ",
"                                { { &.hXhXhXhXhXhXhXhXhXhXhXfX4X<X<X<X1X3XsXsX6Xq.4.,.{ ] ]                         ",
"                                { { | y.u.g.hXhXhXhXhXhX4X4X(.. . : &X%X/.w.<.w.q.q.a.%X=X=X                        ",
"                                { _ } y.<.g.hXhXhXhXhXhX<X<X(.. . : -X-X/.q.q.q.4.w.a.*X*X*X                        ",
"                                _ _ } q.<.g.hXhXhXhXhXhX<X<X(.. . : -X&X/.q.4.q.w.4.a.*X*X*X                        ",
"                                <X<X$Xq.y.q.q.q.g.hXhXhX<X<X(.. . @ { { | 4.q.f.sXsXaX<X<X<X                        ",
"                                <X<X$Xq.q.q.q.4.g.hXhXgX<X<X(.. . @ { { | q.q.f.sXsXaX<X<X<X                        ",
"                                <X<X#Xq.4.w.w.4.g.hXhXhX<X<X(.. . + { { | q.q.g.sXsXaX<X<X<X                        ",
"                                <X<X4XhXhXyX4.w.w.w.w.s.<X<X(.. . > <X2X7XhXhXhXhXhXgX<X<X<X                        ",
"                                <X<X7XhXhXyXw.4.w.4.q.s.<X<X(.. . > <X<X7XhXhXhXhXhXgX<X<X<X                        ",
"                                <X<X7XhXhXyX4.w.4.q.q.s.<X<X(.. . : <X<X7XhXhXhXhXhXfX<X<X<X                        ",
"                                <X<X7XhXhXhXhXhXyXq.q.1.{ _ E . . X H D Y hXhXhXhXhXrXH H H                         ",
"                                <X<X7XhXhXhXhXhXyXq.q.1.{ _ E . . X H H Y hXhXhXhXhXrXH H D                         ",
"                                <X<X4XhXhXhXhXhXyXu.y.1._ _ E . . X H H Y hXhXhXhXhXeXH D D                         ",
"                                <X<X4XhXhXhXhXhXhXhXhXhX2X<X(.. . > <X<X|.H H J A H U <X<X<X                        ",
"                                <X<X7XhXhXhXhXhXhXhXhXhX<X<X(.. . > <X<XXXH A H A H U <X<X<X                        ",
"                                <X<X7XhXhXhXhXhXhXhXhXhX<X4X(.. . : <X<XXXH A H H H U <X<X<X                        ",
"                                H H Y hXhXhXhXhXhXhXhXeXH H V . . . . . . . .         . .                           ",
"                                A H Y hXhXhXhXhXhXhXhX0XH H V . . . .                                               ",
"                                H H Y hXhXhXhXhXhXhXhXrXH A B . .                                                   ",
"                                <X<X|.H A H J H J H H Y <X<X(..                                                     ",
"                                <X<X|.H H H H A H H H U <X<X{..                                                     ",
"                                <X<X{.H H A H H A H A Y <X<X{.                                                      "
};
