/* XPM */
static char *p_front_31670187211[] = {
/* columns rows colors chars-per-pixel */
"65 132 128 2 ",
"   c None",
".  c #000000",
"X  c #0B0903",
"o  c #0D0D0D",
"O  c #130E03",
"+  c #141004",
"@  c #191200",
"#  c #13120E",
"$  c #1E1A0A",
"%  c #141414",
"&  c #1C1C1C",
"*  c #201C0A",
"=  c #2B2207",
"-  c #27210D",
";  c #2A240E",
":  c #342707",
">  c #362908",
",  c #3D2E08",
"<  c #352D12",
"1  c #3B3314",
"2  c #242424",
"3  c #2B2B2B",
"4  c #3F3929",
"5  c #363636",
"6  c #3C3C3B",
"7  c #402F0A",
"8  c #41310A",
"9  c #4D3A0C",
"0  c #503C0B",
"q  c #433A16",
"w  c #473D18",
"e  c #483E18",
"r  c #5D450D",
"t  c #4D421A",
"y  c #574B1D",
"u  c #624D1A",
"i  c #5B4F20",
"p  c #5D5122",
"a  c #4B4431",
"s  c #424242",
"d  c #4B4944",
"f  c #4B4B4B",
"g  c #51504D",
"h  c #565656",
"j  c #5A5A5A",
"k  c #666666",
"l  c #6B6B6B",
"z  c #777777",
"x  c #7B7B7B",
"c  c #846414",
"v  c #8D6B16",
"b  c #906D16",
"n  c #957115",
"m  c #9C7716",
"M  c #9F7816",
"N  c #977218",
"B  c #9D7618",
"V  c #A37C19",
"C  c #84722D",
"Z  c #9E7E2E",
"A  c #8E7C30",
"S  c #927F32",
"D  c #AA8119",
"F  c #B5891B",
"G  c #BD8F1D",
"H  c #BF911D",
"J  c #978433",
"K  c #9A8634",
"L  c #9F8935",
"P  c #B88F29",
"I  c #BE9428",
"U  c #A28332",
"Y  c #A28C37",
"T  c #A48E3C",
"R  c #A69038",
"E  c #B69E3D",
"W  c #C3931E",
"Q  c #CE9C1F",
"!  c #D6A21F",
"~  c #C1962B",
"^  c #D6A221",
"/  c #DAA521",
"(  c #DEA822",
")  c #DCAE3D",
"_  c #E3AC24",
"`  c #E8AF24",
"'  c #EAB125",
"]  c #A78B46",
"[  c #AF944F",
"{  c #B39B45",
"}  c #AF9550",
"|  c #AF9658",
" . c #B0995F",
".. c #BFA74A",
"X. c #AE9966",
"o. c #B49D64",
"O. c #BAA161",
"+. c #BDA874",
"@. c #B7A678",
"#. c #B8A678",
"$. c #C1A84B",
"%. c #808080",
"&. c #898989",
"*. c #949494",
"=. c gray60",
"-. c #A4A4A4",
";. c #AAAAAA",
":. c #B5B5B5",
">. c #BCBCBC",
",. c #CAB88A",
"<. c #C1B491",
"1. c #CABC9A",
"2. c #CABFA2",
"3. c #D1C199",
"4. c #C9C0A9",
"5. c #C1C1C1",
"6. c #CBCBCB",
"7. c #D2CEC2",
"8. c #D7D2C7",
"9. c #DAD4C4",
"0. c #D4D4D4",
"q. c #DBDBDB",
"w. c #F5E8C7",
"e. c #E4E4E4",
"r. c #EAEAEA",
"t. c #FAF4E3",
"y. c #F5F5F5",
"u. c #FFFFFF",
/* pixels */
"                                                                                                                                  ",
"                                    3 q.q.q.q.q.q.q.q.q.q.q.q.q.q.q.q.q.q.q.q.q.q.q.q.q.q.q.2                                     ",
"                                  . & q.q.q.q.q.q.q.q.q.q.q.q.q.q.q.q.q.q.q.q.q.q.q.q.q.q.q.& .                                   ",
"                                f 5 h e.e.e.e.e.e.e.e.e.e.e.e.e.e.e.e.e.e.e.e.e.e.e.e.e.e.e.f 6 h                                 ",
"                              3 q.q.q.u.u.u.u.u.u.u.u.u.u.u.u.u.u.u.u.u.u.u.u.u.u.u.u.u.u.u.e.q.q.                                ",
"                              2 q.q.q.u.u.u.u.u.u.u.u.u.u.u.u.u.u.u.u.u.u.u.u.u.u.u.u.u.u.u.q.q.q.2                               ",
"                          2 & 5 q.e.e.u.u.u.r.r.r.r.e.r.r.r.r.r.r.r.e.r.r.r.r.r.r.r.r.u.u.u.e.q.q.5 &                             ",
"                        2 q.q.q.u.u.u.u.u.e.h h h h h h h h h h h h h h h h h h h h h e.u.u.u.u.u.e.q.q.                          ",
"                      . & q.q.q.u.u.u.u.u.e.h h h h h h h h h h h h h h h h h h h h h e.u.u.u.u.u.e.q.q.2                         ",
"                    2 & 5 q.e.e.u.u.u.r.r.0.f f f f f f f f f f f f f f f f f f f f f 0.e.e.u.u.u.e.q.q.5 & 3                     ",
"                    q.q.q.u.u.y.u.u.e.h h f . . . . . . . . . . . . . . . . . . . . . f h h r.u.u.u.u.u.e.q.q.                    ",
"                  3 q.q.q.u.y.y.y.u.e.h h f . . . . . . . . . . . . . . . . . . . . . f h h e.u.y.y.u.y.q.q.q.                    ",
"                  2 q.q.q.u.u.u.e.r.0.f f s . . . . . . . . . . . . . . . . . . . . . s f f 0.r.e.u.u.y.q.q.q.3                   ",
"                  & q.q.q.u.u.r.h h f . . . . . . . . . . . . . . . . . . . . . . . . . . . f h h r.u.u.e.q.q.2                   ",
"                . & q.q.q.u.u.e.h h f . . . . . . . . . . . . . . . . . . . . . . . . . . . f h h r.u.u.q.q.q.& .                 ",
"                & 5 e.q.e.r.e.0.f f s . . . . . . . . . . . . . . . . . . X X . X X X + + + s g g 0.r.r.e.e.e.5 &                 ",
"              q.q.q.u.y.e.h h f . . . . . . . . . . . . . . . . . . . . . ; ; ; t t t A J J < ; ; g h h r.u.u.e.q.q.              ",
"              q.q.q.y.u.e.h h f . . . . . . . . . . . . . . . . . . . . . ; ; ; t t t A J J 1 ; ; g h h r.u.u.q.q.q.k             ",
"              q.q.e.u.y.e.h h f . . . . . . . . . . . . . . . . . . . . . ; ; ; t t t A J J 1 ; ; g h h r.u.u.e.q.q.h             ",
"              u.u.r.h h f . . . . . . . . . . . . . . . . . . . . . . . . t t t E E E ..$.$.i t t X . . f h h r.u.u.l             ",
"              u.u.r.h h f . . . . . . . . . . . . . . . . . . . . . . . . t t t E E E $.$.$.i t t X . . f h h r.u.u.l             ",
"              u.u.r.h h f . . . . . . . . . . . . . . . . . . . . . . . . t t t E E E $.$.$.i t t X . . f h h r.u.u.l             ",
"              u.u.r.h h f . . . . . . . . . . . . . . . . . . . . . . . . t t t E E E Y L L y t t X . . f h h r.u.u.l             ",
"              u.u.r.h h f . . . . . . . . . . . . . . . . . . . . . . . . t t t E E E Y L L y t t X . . f h h r.u.u.l             ",
"              u.u.r.h h f . . . . . . . . . . . . . . . . . . . . . . . . t t t E E E Y L Y y t t X . . f h h r.u.u.l             ",
"              u.u.r.h h f . . . . . . . . . . . . . . . . . . . . . . . . @ @ @ t t e t t t 1 < < X . . f h h r.u.u.l             ",
"              u.u.r.h h f . . . . . . . . . . . . . . . . . . . . . . . . @ @ @ t t t t t t < < < . . . f h h r.u.u.l             ",
"              u.u.r.h h f . . . . . . . . . . . . . . . . . . . . . . . . @ @ @ t t t t t t < < < X . . f h h r.u.u.l             ",
"              u.u.r.h h f . . X q q 1 . . . . . . . . . . . . . . . . . . X . . X X X X X X X X X . . . f h h r.u.u.l             ",
"              u.u.r.h h f . . X t t q . . . . . . . . . . . . . . . . . . . . . . . . . . . . . . . . . f h h r.u.u.l             ",
"              u.u.r.h h f . . X t t q . . . . . . . . . . . . . . . . . . . . . . . . . . . . . . . . . f h h r.u.u.l             ",
"              u.u.r.h h f + O = R R K 1 1 < . . . . . . . . . . . . . . . . . . . . . . . . . . . . . . f h h r.u.u.l             ",
"              u.u.r.h h f @ @ = E E L q t 1 . . . . . . . . . . . . . . . . . . . . . . . . . . . . . . f h h r.u.u.l             ",
"              u.u.r.h h g @ @ = E E T q e 1 . . . . . . . . . . . . . . . . . . . . . . . . . . . . . . f h h r.u.u.l             ",
"              u.u.r.h h h > < 1 K K S t t q . . . . . . . . . . . . . . . . . . . . . . . . . . . . . . f h h r.u.u.l             ",
"              u.u.r.h h f < < q J J A t t q . . . . . . . . . . . . . . . . . . . . . . . . . . . . . . f h h r.u.u.l             ",
"              u.u.r.h h g < < q K J A t t q . . . . . . . . . . . . . . . . . . . . . . . . . . . . . . f h h r.u.u.l             ",
"              u.u.r.h h f X X X 1 1 t { { R 1 1 1 . . . . . . . . . . . . . . . . . . . . . . . . . . . f h h r.u.u.l             ",
"              u.u.e.h h f . . X ; ; 1 $.$.{ e q e . . . . . . . . . . . . . . . . . . . . . . . . . . . f h h r.u.u.l             ",
"              u.u.r.h h f . . . ; ; 1 $.$.{ e e e . . . . . . . . . . . . . . . . . . . . . . . . . . . f h h r.u.u.l             ",
"              e.e.q.0.0.5.6 s 6 o X # t t t T ] T * * * $ $ $ . . . . . . . . . . . . . . . . . . 5 s s >.0.0.r.e.e.k             ",
"              q.q.q.y.u.r.h h f . . . ; ; 1 $.$.$.; ; ; * - - . . . . . . . . . . . . . . . . . . f h h e.u.u.q.q.q.              ",
"              q.q.q.u.u.r.h h f . . . - - 1 $.$.$.; ; ; ; - - . . . . . . . . . . . . . . . . . . f h h r.u.u.q.q.q.              ",
"              5 5 d e.e.q.0.0.5.a s 6 X X # p p p C C C S S S $ $ $ . . . . . . . . . . . . 5 s 6 >.0.6.e.e.e.g 5 s               ",
"              . . & q.q.q.u.u.e.h h d . . X 1 1 1 Y Y Y E E E ; ; ; . . . . . . . . . . . . f h h r.u.u.e.q.q.& .                 ",
"              . . & q.q.q.u.u.r.h h f . . X 1 1 1 T Y Y E ..E - ; ; . . . . . . . . . . . . f h h e.u.u.q.q.q.2                   ",
"                . o 5 5 f e.e.0.0.0.5.s s 6 O X X e t e t t t X X X . . . . . . o o o 5 s s >.0.0.e.e.e.h 5 5                     ",
"                . . . . & q.q.q.u.u.r.h h f . . . ; ; ; ; ; ; . . . . . . . . . # o % f h h e.u.u.q.q.q.& . .                     ",
"                . . . . & q.q.q.u.u.e.h h f . . . ; ; ; ; ; ; . . . . . . . . . % o # f h j r.u.y.e.q.q.& . .                     ",
"                . . . . o 5 5 d e.e.q.0.0.5.6 s s d d d d d d 6 6 s s s s 6 s s s d s >.0.0.r.e.e.g 5 5 . . .                     ",
"                . . . . . . . & q.q.q.u.u.r.h h h h h h h h h h h h h h h h h h h h h e.u.u.q.q.q.& . . . . . .                   ",
"              . . . . . . . . & q.q.q.u.u.r.h h h h h h h h h h h h h h h h h h h h h e.u.y.q.q.q.& . . . . . . .                 ",
"              v c c r r u &.&.&.&.&.*.r.e.q.;.;.;.;.;.;.;.;.;.;.;.;.;.;.;.;.;.;.;.;.;.q.r.e.*.&.&.&.&.&.u r r c v B               ",
"            0 ^ ^ Q n n Z q.q.6.h h k q.q.q.q.q.q.q.0.q.q.q.q.q.q.0.q.q.q.q.q.q.q.q.q.q.q.q.k h h 6.q.q.Z N n Q ! ! 7             ",
"          . , ^ ! Q n n Z q.q.6.h h k q.q.q.0.q.q.q.q.0.q.q.q.q.q.q.q.q.q.0.q.q.q.q.q.q.q.q.l h h 6.q.q.Z n n Q ^ ^ > .           ",
"        V v N _ _ ( G G I o. .X.>.>.>.&.&.&.&.&.&.&.&.&.&.&.&.&.&.&.&.&.&.&.&.&.%.&.&.&.&.&.>.>.5.X. . .I G H ( _ ` V v V         ",
"      8 ^ ^ / ' ' ` ^ ^ Q n n U u.u.r.h h h h h h h h h h h h h h h h h h h h h h h h h h h r.u.u.U n n ! ! ! ` ' ' ( ! ^ 8       ",
"    . : ^ ^ / ' ' ` ^ ^ Q n n U u.u.r.h h h h h h h h h h h h h h h h h h h h h h h h h h h r.u.u.U n n ~ ^ ! ` ' ' ( ^ ^ : .     ",
"  N v N _ _ ( ( ( ( _ ( / n n U u.u.y.>.>.5.5.5.5.:.:.:.h h h h h h h h h :.:.:.5.5.5.>.5.5.y.u.u.U n n / _ _ _ ( ( _ _ _ V v B   ",
"  ^ ^ / ' ' ` ^ ^ / ' ' ( n n U u.u.u.u.u.u.u.u.u.r.y.r.h h h h h h h h h y.r.r.u.u.u.u.u.u.u.u.u.U n n ( ' ` ^ ! ^ ` ` ` ( ! !   ",
"r ^ ^ / ' ' _ ^ ^ ^ ' ' ! m n U u.u.u.u.u.u.u.u.u.r.r.y.h h h h h h h h h r.r.y.u.u.u.u.u.u.u.u.u.U n n _ ' ' ^ ^ ^ _ ' ' / ^ ^   ",
"8 F F W ' ' _ ^ ^ ^ H W ~ ,.,.3.u.u.u.u.u.u.u.u.u.u.y.y.;.;.;.;.;.;.;.;.;.u.y.y.u.u.u.u.u.u.u.u.u.3.,.,.~ H W Q ^ ^ ` ' ' W F F 9 ",
": n n D ' ' ` ^ ^ ! n n U u.u.u.u.u.u.u.u.u.u.u.u.u.u.u.u.u.u.u.u.u.u.u.u.u.u.u.u.u.u.u.u.u.u.u.u.u.u.u.U n n Q ^ ^ _ ' ' D n n 8 ",
"> n n D ' ' ` ^ ^ ~ n n U u.u.u.u.u.u.u.u.u.u.u.u.u.u.u.u.u.u.u.u.u.u.u.u.u.u.u.u.u.u.u.u.u.u.u.u.u.u.u.U n n Q ^ ^ _ ' ' D n n , ",
"4 @.#.O.H H G F F P ,.,.3.u.u.u.u.u.u.u.u.u.u.u.u.u.u.u.u.u.u.u.u.u.u.u.u.u.u.u.u.u.u.u.u.u.u.u.u.u.u.u.3.,.,.P F F G H H O.@.@.a ",
"s q.q.4.n n n n n U u.u.u.u.u.u.u.u.u.u.u.u.u.u.u.u.u.u.u.u.u.u.u.u.u.u.u.u.u.u.u.u.u.u.u.u.u.u.u.u.u.u.u.u.u.U n n n n N 2.q.q.h ",
"s q.q.4.n n n n n U u.u.u.u.u.u.u.u.u.u.u.u.u.u.u.u.u.u.u.u.u.u.u.u.u.u.u.u.u.u.u.u.u.u.u.u.u.u.u.u.u.u.u.u.u.U n n N N n 2.q.q.j ",
"s q.q.8.,.,.,.,.,.3.u.u.u.r.r.y.u.u.u.u.u.u.u.u.u.u.u.u.u.u.u.u.u.u.u.u.u.u.u.u.u.u.u.u.u.u.u.u.u.r.r.r.u.u.u.1.,.,.,.,.,.8.q.q.h ",
"f q.q.e.u.u.u.u.u.u.u.u.u.q.q.q.u.u.u.u.u.u.u.u.u.u.u.u.u.u.u.u.u.u.u.u.u.u.u.u.u.u.u.u.u.u.u.u.u.q.q.q.u.u.u.u.u.u.u.u.u.e.q.q.j ",
"h q.q.e.u.u.u.u.u.u.u.u.u.q.q.q.u.u.u.u.u.u.u.u.u.u.u.u.u.u.u.u.u.u.u.u.u.u.u.u.u.u.u.u.u.u.u.u.u.e.q.q.u.u.u.u.u.u.u.u.u.e.q.q.j ",
"  #.#.1.u.u.u.u.u.u.r.r.q.l l x r.r.r.u.u.y.;.;.;.;.;.;.u.u.u.;.;.;.;.;.;.;.;.;.;.;.;.y.u.u.r.r.y.x l l q.r.r.u.u.u.u.u.u.1.#.#.a ",
"  n n } u.u.u.u.u.u.q.q.5.. . & q.q.e.u.u.r.h h h h h h u.u.u.h h h h h h h h h h h h r.u.u.e.q.q.& . . >.q.q.u.u.u.u.u.u.[ n n , ",
"  n n } u.u.u.u.u.u.q.q.>.. . & q.q.q.u.u.r.h h h h h h u.u.u.h h h h h h h h h h h h r.u.u.e.q.q.& . . 2.q.q.y.u.u.u.u.u.[ n n , ",
"  n n } u.u.u.u.u.y.q.q.5.. . % <.<.2.u.u.r.h h h h h h u.u.u.h h h *.&.&.&.&.*.h h h r.u.u.4.<.<.# . . 5.q.q.u.u.u.u.u.u.[ n n , ",
"  n n } u.u.u.u.u.u.q.q.>.. . O n n U u.u.r.h h h h h h u.u.u.h h h r.r.r.r.r.r.h h h r.u.u.U n n O . . >.q.q.y.u.u.u.u.u.[ n n 8 ",
"  n n } u.u.u.u.u.u.q.q.5.. . O n n U u.u.r.h h h h h h u.u.u.h h h r.r.r.r.r.r.h h h r.u.u.U n n + . . 5.q.q.u.u.u.u.u.u.[ n n , ",
"  n n } u.u.u.u.u.u.q.q.5.. . O n n U u.u.r.h h h h h h u.u.u.h h h r.r.r.r.r.r.h h h r.u.u.U n N O . . >.q.q.y.u.u.u.u.u.[ n n , ",
"  n n } u.u.u.u.u.y.q.0.>.. . O n n U u.u.r.h h h h h h u.u.u.h h h r.r.r.r.r.r.h h h r.u.u.U n n O . . 5.q.q.u.u.u.u.u.u.[ n n , ",
"  n n } u.u.u.u.u.u.q.q.5.. . O n n U u.u.r.h h h h h h u.u.u.h h h r.r.r.r.r.r.h h h r.u.u.U n n O . . 5.q.q.u.u.u.u.u.u.[ n n , ",
"  n n } u.u.u.u.u.u.q.q.5.. . O n n U u.u.y.*.*.*.*.*.*.u.u.u.h h h r.r.r.r.r.r.h h h r.u.u.U n n O . . >.q.q.y.u.u.u.u.u.[ n n , ",
"  n n } u.u.u.u.u.u.q.q.>.. . O n n U u.u.u.u.u.u.u.u.u.u.u.u.h h h r.r.r.r.r.r.h h h r.u.u.U n n O . . >.q.q.u.u.u.u.u.u.[ n n , ",
"  n n } u.u.u.u.u.u.q.q.5.. . O n n U u.u.u.u.u.u.u.u.u.u.u.u.h h h r.r.r.r.r.r.h h h r.u.u.U n n O . . 5.q.0.u.u.u.u.u.u.[ n n , ",
"  ] ] +.u.u.u.y.y.r.q.q.5.. . O n n U u.u.u.0.0.0.0.0.0.u.u.u.h h h 5.6.6.5.5.5.h h h r.u.u.U n n O . . >.q.q.y.y.y.u.u.u.+.] ] w ",
"  q.q.e.u.u.y.q.q.q.q.q.>.. . O n n U u.u.r.h h h h h h u.u.u.h h h h h h h h h h h h r.u.u.U n n O . . 5.q.q.q.q.q.y.u.u.e.q.q.j ",
"k q.q.e.u.u.y.q.q.q.q.q.5.. . O n n U u.u.r.h h h h h h u.u.u.h h h h h h h h h h h h r.u.u.U n n O . . >.q.q.q.q.q.y.u.u.e.q.q.h ",
"j 0.q.q.0.0.0.:.:.:.-.;.&.. . O n n U u.u.r.%.%.%.%.%.%.u.u.u.%.%.%.%.%.%.%.%.%.%.%.%.y.u.u.U n n O . . =.-.-.:.:.:.6.q.0.q.q.q.j ",
"  q.q.:.h h h h h f . . . . . O n n U u.u.u.u.u.u.u.u.u.u.u.u.u.u.u.u.u.u.u.u.u.u.u.u.u.u.u.U n n O . . . . . f h h h h h >.q.q.j ",
"  q.q.>.h h h h h f . . . . . O n n U u.u.u.u.u.u.u.u.u.u.u.u.u.u.u.u.u.u.u.u.u.u.u.u.u.u.u.U n N O . . . . . f h h h h h :.q.q.j ",
"  ;.;.*.h h k %.%.z 5 5 5 . . O n n U u.u.u.0.0.0.0.0.0.u.u.u.0.0.0.u.u.u.0.0.0.0.0.0.y.u.u.U n n O . . 3 5 5 x %.%.k h h *.;.;.  ",
"  . . % h h x u.u.u.q.q.>.. . O n n U u.u.r.h h h h h h u.u.u.h h h u.u.u.h h h h h h r.u.u.U n n O . . 2.q.q.u.u.u.x h h % . .   ",
"    . % h h %.u.u.y.q.q.5.. . O n n U u.u.r.h h h h h h u.u.u.h h h u.u.u.h h h h h h r.u.u.U n n O . . 5.q.q.y.u.u.%.h h % .     ",
"    . & z z =.u.u.u.q.q.5.. . O ] ] o.u.u.r.%.%.%.%.%.%.u.u.u.%.%.%.u.u.u.%.%.%.%.%.%.y.u.u.| ] ] # . . 5.q.q.y.u.u.=.z z & .     ",
"      6 q.q.e.u.u.u.q.q.5.. . & q.q.q.u.u.u.u.u.u.u.u.u.u.u.u.u.u.u.u.u.u.u.u.u.u.u.u.u.u.u.e.q.q.& . . >.q.0.u.u.u.e.q.q.5       ",
"      f q.q.e.u.u.u.q.q.>.. . & q.q.q.u.u.u.u.u.u.u.u.u.u.u.u.u.u.u.u.u.u.u.u.u.u.u.u.u.u.u.q.q.q.& . . 5.q.q.u.u.u.e.q.q.f       ",
"      d 5.>.0.u.y.y.q.q.5.. . & q.q.q.u.u.u.u.u.u.u.u.u.u.u.u.r.r.r.u.u.u.u.u.u.u.u.u.u.u.u.e.q.q.& . . >.q.q.y.u.u.6.5.5.        ",
"        . . 5 q.q.q.q.q.>.. . & q.q.e.u.u.u.u.u.u.u.u.u.u.u.u.h h h u.u.u.u.u.u.u.u.u.u.u.u.q.q.q.& . . >.q.q.q.0.q.5 . .         ",
"          . 5 q.q.q.q.q.5.. . & q.q.q.u.u.u.u.u.u.u.u.u.u.u.u.h h h u.u.u.u.u.u.u.u.u.u.u.u.e.q.q.& . . >.q.q.q.q.q.6 .           ",
"            5 6.6.6.5.5.:.. . & 6.6.6.u.u.u.u.u.u.u.u.u.u.u.u.l l l u.u.u.u.u.u.u.u.u.u.u.u.6.6.6.& . . ;.6.5.6.6.0.h             ",
"                    . .       o h h l u.u.u.u.u.u.u.u.u.u.u.u.u.u.u.u.u.u.u.u.u.u.u.u.u.u.u.l h h o .     . .                     ",
"                              % h h l u.u.u.u.u.u.u.u.u.u.u.u.u.u.u.u.u.u.u.u.u.u.u.u.u.u.u.l h h o                               ",
"                              % k k z r.r.r.r.r.r.r.r.e.r.r.r.r.e.r.r.r.r.r.r.r.r.r.r.e.r.r.x k k o                               ",
"                              5 q.q.6.h h h h h h h h h h h h h h h h h h h h h h h h h h h 6.q.q.5                               ",
"                                q.q.6.h h h h h h h h h h h h h h h h h h h h h h h h h h h 6.q.q.3                               ",
"                                q.q.6.l l l l l l l l l l l l l l l l l l l l l l l l l l l 6.q.q.5                               ",
"                                q.q.q.u.u.u.u.u.u.u.u.u.u.u.u.u.u.u.u.u.u.u.u.u.u.u.u.u.u.u.q.q.q.                                ",
"                                q.q.e.u.u.u.u.u.u.u.u.u.u.u.u.u.u.u.u.u.u.u.u.u.u.u.u.u.u.u.e.q.q.                                ",
"                                q.q.e.u.u.u.u.u.u.u.u.u.u.u.u.u.u.u.u.u.u.u.u.u.u.u.u.u.u.u.e.q.q.                                ",
"                                n b U u.u.u.u.u.u.u.u.u.u.u.u.q.q.q.u.u.u.u.u.u.u.u.u.u.u.u.U n n                                 ",
"                                n n U u.u.u.u.u.u.u.u.u.u.u.u.q.q.q.u.u.u.u.u.u.u.u.u.u.u.u.U n n                                 ",
"                                n m U u.u.u.u.u.u.u.u.u.u.u.u.q.q.q.u.u.u.u.u.u.u.u.u.u.u.u.U n n                                 ",
"                                n n M ! ! ) u.u.u.u.u.u.q.q.q.. . . q.q.q.u.u.u.u.u.u.) ^ ^ B n n                                 ",
"                                n n V ! / ) u.u.u.u.u.u.q.q.q.. . . q.q.q.u.u.u.u.u.u.) ^ ! B n n                                 ",
"                                n n m ! ! ) u.u.u.u.u.u.q.q.q.. . . q.q.q.u.u.u.u.u.u.) ^ ^ M n N                                 ",
"                                q.q.9.! ^ ^ / ^ ^ u.u.u.q.q.q.. . . q.q.q.u.u.u.^ ^ ^ ^ ^ ^ 9.q.q.                                ",
"                                q.q.9.! ^ ^ ^ ^ ^ u.u.u.q.q.q.. . . q.q.q.u.u.u.^ ^ ^ ^ ^ ^ 9.q.q.                                ",
"                                q.q.9.! ^ ^ ^ ^ ^ u.u.u.q.q.q.. . . q.q.q.u.u.u.^ ^ ^ ^ ^ ^ 9.q.q.                                ",
"                                q.q.e.t.t.w.^ ^ ^ ) ) ) q.q.q.. . . q.q.q.) ) ) ^ ^ ^ w.t.t.q.q.q.                                ",
"                                q.q.q.u.u.t.^ ^ ^ ^ ^ ^ q.q.q.. . . q.q.q.^ ^ ^ ^ ^ ^ t.u.u.e.q.q.                                ",
"                                q.q.q.u.u.t.! ! ^ ^ ^ ^ q.q.q.. . . q.q.q.^ ^ ^ ^ ^ ^ t.u.u.e.q.q.                                ",
"                                q.q.e.u.u.u.t.t.t.^ ^ ^ Z Z Z . . . Z Z Z ^ ^ ^ t.t.t.u.u.u.q.q.q.                                ",
"                                q.q.q.u.u.u.u.u.u.^ ^ ^ n n n . . . n n n ^ ^ ^ u.u.u.u.u.u.q.q.q.                                ",
"                                q.q.e.u.u.u.u.u.u.^ ^ ^ n n n . . . n n n ^ ^ ^ u.u.u.u.u.u.e.q.q.                                ",
"                                q.q.e.u.u.u.u.u.u.t.t.t.7.7.7.. . . 7.7.7.t.t.t.u.u.u.u.u.u.e.q.q.                                ",
"                                q.q.q.u.u.u.u.u.u.u.u.u.q.q.q.. . . q.q.q.u.u.u.u.u.u.u.u.u.q.q.q.                                ",
"                                q.q.q.u.u.u.u.u.u.u.u.u.q.q.q.. . . q.q.q.u.u.u.u.u.u.u.u.u.e.q.q.                                ",
"                                q.q.6.l l l l l l l l l q.q.q.. . . q.q.q.l l l l l l l l l 6.q.q.                                ",
"                                q.q.6.h h h h h h h h h q.q.q.. . . q.q.q.h h h h h h h h h 6.q.q.                                ",
"                                q.q.6.h h h h h h h h h q.q.q.. . . q.q.q.h h h h h h h h h 6.q.q.                                ",
"                                z z z :.>.:.:.>.>.:.>.>.z z z . . . z z z :.>.:.:.:.>.>.:.>.&.z z                                 ",
"                                h h l q.q.q.q.q.q.q.q.q.h h h . . . h h h q.q.q.q.q.q.q.q.q.k h h                                 ",
"                                h h k q.q.q.q.q.q.q.q.q.h h h . . . h h h q.q.q.q.q.q.q.q.q.l h                                   ",
"                                  & 2 s s s s 6 6 s s d & & & . . . & & & s s s s s s s d s &                                     "
};
