/* XPM */
static char *p_left_11670187212[] = {
/* columns rows colors chars-per-pixel */
"50 128 127 2 ",
"   c None",
".  c #000000",
"X  c #0B0904",
"o  c #0B0B0B",
"O  c #100D03",
"+  c #141107",
"@  c #191302",
"#  c #14120B",
"$  c #141414",
"%  c #1C1C1C",
"&  c #241E0C",
"*  c #27210D",
"=  c #2B250E",
"-  c #282110",
";  c #2F2A14",
":  c #352D12",
">  c #393113",
",  c #212121",
"<  c #2B2B2B",
"1  c #353535",
"2  c #3E3B31",
"3  c #3B3B3B",
"4  c #413209",
"5  c #48360A",
"6  c #4B390A",
"7  c #533E0C",
"8  c #433A17",
"9  c #473D18",
"0  c #403D32",
"q  c #57420C",
"w  c #4C421A",
"e  c #554A1D",
"r  c #674D0F",
"t  c #69500F",
"y  c #5B4C2A",
"u  c #615424",
"i  c #7F6D2A",
"p  c gray27",
"a  c #4D4C4C",
"s  c #565656",
"d  c #5D5D5D",
"f  c #635F5F",
"g  c #656565",
"h  c #6B6B6B",
"j  c #747474",
"k  c #7A7A7A",
"l  c #846413",
"z  c #8F6D15",
"x  c #957115",
"c  c #8D7A2F",
"v  c #937F33",
"b  c #867344",
"n  c #AD8319",
"m  c #B0861A",
"M  c #B5891B",
"N  c #BC8E1C",
"B  c #BF911D",
"V  c #948137",
"C  c #988433",
"Z  c #968238",
"A  c #A18C35",
"S  c #B69138",
"D  c #B49B3C",
"F  c #C5941E",
"G  c #CA991F",
"H  c #D6A221",
"J  c #DEA722",
"K  c #DBAE3D",
"L  c #E0A923",
"P  c #EAB125",
"I  c #8C8050",
"U  c #9F8850",
"Y  c #A0894F",
"T  c #AF9843",
"R  c #AF954F",
"E  c #B29140",
"W  c #AF9550",
"Q  c #B79C55",
"!  c #A49062",
"~  c #A89876",
"^  c #BDA66D",
"/  c #B8A678",
"(  c #C2A94A",
")  c #C5A553",
"_  c #E0B958",
"`  c #C5AC6E",
"'  c #C8B27C",
"]  c #D8BE7E",
"[  c #818181",
"{  c #888787",
"}  c #8D8D8D",
"|  c #908E8E",
" . c gray58",
".. c #989898",
"X. c #AEA185",
"o. c #B1A280",
"O. c gray64",
"+. c #A8A5A5",
"@. c #ABABAB",
"#. c #B2AFAF",
"$. c #B3B0B0",
"%. c #BDBBBB",
"&. c #C1AF81",
"*. c #CAB88A",
"=. c #C1B391",
"-. c #EAD090",
";. c #D8CAA7",
":. c #DBD2BB",
">. c #C2C2C2",
",. c #CDCCCC",
"<. c #D2CEC2",
"1. c #D9D2C1",
"2. c #DCD7CB",
"3. c #D4D4D4",
"4. c #D9D7D7",
"5. c #DBDBDB",
"6. c #E5DBC5",
"7. c #E0D9C8",
"8. c #F5E8C7",
"9. c #E3E2E2",
"0. c #EBEBEB",
"q. c #F2EDE2",
"w. c #FAF3E3",
"e. c #F5F5F5",
"r. c #F8F6F1",
"t. c #FDF9F1",
"y. c #FFFFFF",
/* pixels */
"                      5.5.5.5.5.5.5.5.5.5.5.5.5.5.5.5.4.5.5.5.5.5.5.5.5.5.                          ",
"                    . 5.5.5.5.5.5.5.5.5.5.5.5.5.5.5.5.5.5.5.5.5.5.5.5.5.5.k                         ",
"              . . . . 5.5.5.5.5.5.5.5.5.5.5.5.5.5.5.5.5.5.5.5.5.5.5.5.5.5.j .                       ",
"          >.5.5.5.5.5.y.y.y.y.y.y.y.y.y.y.y.y.y.y.y.y.y.y.y.y.y.y.y.y.y.y.0.5.5.                    ",
"        . >.5.5.5.5.5.y.y.y.y.y.y.y.y.y.y.y.y.y.y.y.y.y.y.y.y.y.y.y.y.y.y.0.5.5.k                   ",
"      . . >.5.5.5.5.5.y.y.y.y.y.y.y.y.y.y.y.y.y.y.y.y.y.y.y.y.y.y.y.y.y.y.0.5.5.h .                 ",
"      s s s s s s s s y.y.y.y.y.y.y.y.y.y.y.y.y.y.y.y.y.y.y.y.y.y.y.y.y.y.y.y.y.0.5.5.              ",
"      s s s s s s s s y.y.y.y.y.y.y.y.y.y.y.y.y.y.y.y.y.y.y.y.y.y.y.y.y.y.y.y.y.e.5.5.h             ",
"    a s s s s s s s s y.y.y.y.y.y.y.y.y.y.y.y.y.y.y.y.y.y.y.y.y.y.y.y.y.y.y.y.y.0.5.5.s .           ",
"    % , , o o o o o o h h h y.y.y.y.y.y.y.y.y.y.y.y.y.y.y.y.y.y.y.y.y.y.y.y.y.y.y.e.y.4.>.,.        ",
"    % % % . . . . . . s s s y.y.y.y.y.y.y.y.y.y.y.y.y.y.y.y.y.y.y.y.y.y.y.y.y.y.y.y.y.0.5.5.        ",
"    $ % % X . . . . . s s s y.y.y.y.y.y.y.y.y.y.y.y.y.y.y.y.y.y.y.y.y.y.y.y.y.y.y.y.y.0.5.5.{       ",
"    % % % . . . . . . o o o h h [ y.y.y.y.y.y.y.y.y.y.y.y.y.y.y.y.y.y.y.y.y.y.y.y.y.y.0.5.5.h       ",
"  . $ % % o . . . . . . . . s s h y.y.y.y.y.y.y.y.y.y.y.y.y.y.y.y.y.y.y.y.y.y.y.y.y.y.0.5.5.d       ",
"  . $ % % . . . . . . . . . s s h y.y.y.y.y.y.y.y.y.y.y.y.y.y.y.y.y.y.y.y.y.y.y.y.y.y.0.5.5.s .     ",
"  % X . . . . . . . . . . . o o $ h h [ y.y.y.y.y.y.y.y.y.y.y.y.y.y.y.y.y.y.y.y.y.y.y.e.e.y.4.>.,.  ",
"  % o . . . . . . . . . . . . . o s s h y.y.y.y.y.y.y.y.y.y.y.y.y.y.y.y.y.y.y.y.y.y.y.y.y.y.0.4.5.  ",
"% % o . . . . . . . . . . . . . o s s h y.y.y.y.y.y.y.y.y.y.y.y.y.y.y.y.y.y.y.y.y.y.y.y.y.y.0.4.5.  ",
"% % . . . . . . . . . . . . . . . o o $ h h  .y.y.y.y.y.y.y.y.y.y.y.y.y.y.y.y.y.y.y.y.y.y.y.0.5.5.d ",
"% % X . . . . . . . . . . . . . . . . o s s [ y.y.y.y.y.y.y.y.y.y.y.y.y.y.y.y.y.y.y.y.y.y.y.0.5.5.d ",
"% % o . . . . . . . . . . . . . . . . o s s k y.y.y.y.y.y.y.y.y.y.y.y.y.y.y.y.y.y.y.y.y.y.y.0.4.5.d ",
"% % X . . . . . . . . . . . . . . . . o s s [ y.y.y.y.y.y.y.y.y.y.y.y.y.y.y.y.y.y.y.y.y.y.y.0.5.5.d ",
"% % o . . . . . . . . . . . . . . . . o s s [ y.y.y.y.y.y.y.y.y.y.y.y.y.y.y.y.y.y.y.y.y.y.y.0.5.4.d ",
"% % X . . . . . . . . . . . . . . . . o s s [ y.y.y.y.y.y.y.y.y.y.y.y.y.y.y.y.y.y.y.y.y.y.y.0.4.5.d ",
"% % o . . . . . . . . . . . . . . . . o s s [ y.y.y.y.y.y.y.y.y.y.y.y.y.y.y.y.y.y.y.y.y.y.y.0.5.5.d ",
"% % X . . . . . . . . . . . . . . . . o s s [ y.y.y.y.y.y.y.y.y.y.y.y.y.y.y.y.y.y.y.y.y.y.y.0.5.4.d ",
"% % o . . . . . . . . . . . . . . . . o s s [ y.y.y.y.y.y.y.y.y.y.y.y.y.y.y.y.y.y.y.y.y.y.y.0.4.5.d ",
"% % o . . . . . . . . . . . . . . . . o s s k y.y.y.y.y.y.y.y.y.y.y.y.y.y.y.y.y.y.y.y.y.y.y.0.5.5.d ",
"% % X . . . . . . . . . . . . . . . . o s s [ y.y.y.y.y.y.y.y.y.y.y.y.y.y.y.y.y.y.y.y.y.y.y.0.5.4.d ",
"% % o . . . . . . . . . . . . . . . . o s s [ y.y.y.y.y.y.y.y.y.y.y.y.y.y.y.y.y.y.y.y.y.y.y.0.4.5.d ",
"% % o . . : > > X . . . . . . . . . . o s s [ y.y.y.y.y.y.y.y.y.y.y.y.y.y.y.y.y.y.y.y.y.y.y.0.5.5.d ",
"% % X . . 8 w w X . . . . . . . . . . o s s [ y.y.y.y.y.y.y.y.y.y.y.y.y.y.y.y.y.y.y.y.y.y.y.0.5.4.d ",
"% % . . . 8 w w X . . . . . . . . . . o s s [ y.y.y.y.y.y.y.y.y.y.y.y.y.y.y.y.y.y.y.y.y.y.y.0.5.5.d ",
"% % + X X c c c > = = . . . . . . . . o s s [ y.y.y.y.y.y.y.y.y.y.y.y.y.y.y.y.y.y.y.y.y.y.y.0.5.5.d ",
"% % @ @ @ C D D e 9 9 . . . . . . . . o s s [ y.y.y.y.y.y.y.y.y.y.y.y.y.y.y.y.y.y.y.y.y.y.y.0.5.5.d ",
"% % @ @ @ A D D e 9 9 . . . . . . . . o s s [ y.y.y.y.y.y.y.y.y.y.y.y.y.y.y.y.y.y.y.y.y.y.y.0.5.5.d ",
"% % - - = v A A e w w . . . . . . . . o s s [ y.y.y.y.y.y.y.y.y.y.y.y.y.y.y.y.y.y.y.y.y.y.y.0.4.5.d ",
"% % : : : c C C e w w . . . . . . . . o s s [ y.y.y.y.y.y.y.y.y.y.y.y.y.y.y.y.y.y.y.y.y.y.y.0.5.5.d ",
"% % ; > : c C C e w w . . . . . . . . o s s k y.y.y.y.y.y.y.y.y.y.y.y.y.y.y.y.y.y.y.y.y.y.y.0.4.5.d ",
"% % # + + w e e v Z Z = = = . . X 1 1 p %.>.,.y.y.y.y.y.y.y.y.y.y.y.y.y.y.y.y.y.y.y.y.y.y.y.0.5.5.  ",
"% % o . . * = = T ( ( 9 9 9 . . o s s h y.y.y.y.y.y.y.y.y.y.y.y.y.y.y.y.y.y.y.y.y.y.y.y.y.y.0.5.5.  ",
"% % X . . * = - T ( ( 9 9 9 . . o s s h y.y.y.y.y.y.y.y.y.y.y.y.y.y.y.y.y.y.y.y.y.y.y.y.y.y.0.5.5.  ",
"o o o # $ X O + y u u V V V 1 1 p >.%.,.y.y.y.y.y.y.y.y.y.y.y.y.y.y.y.y.y.y.y.y.y.y.y.0.0.0.} d g   ",
". . $ % % . . . & * * ( ( ( s s h y.y.y.y.y.y.y.y.y.y.y.y.y.y.y.y.y.y.y.y.y.y.y.y.y.y.0.4.4.s .     ",
"  . $ $ % . . . & * - ( ( ( s s h y.y.y.y.y.y.y.y.y.y.y.y.y.y.y.y.y.y.y.y.y.y.y.y.y.y.0.4.5.h       ",
"  . $ % % . . . * * ; b I I @.@.$.y.y.y.y.y.y.y.y.y.y.y.y.y.y.y.y.y.y.y.y.y.y.y.e.0.0.@.}           ",
"  . $ % % X . . & * = s s s y.y.y.y.y.y.y.y.y.y.y.y.y.y.y.y.y.y.y.y.y.y.y.y.y.y.0.5.5.g             ",
"    % % , . X . * = = s s s y.y.y.y.y.y.y.y.y.y.y.y.y.y.y.y.y.y.y.y.y.y.y.y.y.y.0.5.                ",
"    1 1 3 < < < 2 0 0 @.@.@.y.y.y.y.y.y.y.y.y.y.y.y.y.y.y.y.y.y.y.y.y.y.y.e.0.e.$.{                 ",
"    a s s s s s s s s y.y.y.y.y.y.y.y.y.y.y.y.y.y.y.y.y.y.y.y.y.y.y.y.y.y.0.5.5.[                   ",
"    a s s s s s s s s y.y.y.y.y.y.y.y.y.y.y.y.y.y.y.y.y.y.y.y.y.y.y.y.y.y.0.5.4.                    ",
"      < < } ..........y.y.y.y.y.y.y.y.y.y.y.y.y.y.y.y.y.y.y.y.y.y.y.e.0.0.@.j k                     ",
"      . . >.5.5.5.5.5.y.y.y.y.y.y.y.y.y.y.y.y.y.y.y.y.y.y.y.y.y.y.y.0.5.5.j .                       ",
"        . >.5.5.5.5.5.y.y.y.y.y.y.y.y.y.y.y.y.y.y.y.y.y.y.y.y.y.y.y.0.5.5.j .                       ",
"        . j k [ [ k h e.0.0.0.0.0.0.0.0.0.e.0.0.0.0.0.e.0.0.0.7.*.*.' / / b 7                       ",
"                  . . 5.5.5.5.5.5.5.5.5.5.5.5.5.5.5.5.5.5.5.5.=.x x x x x x x x                     ",
"                      5.5.5.5.5.5.5.5.5.5.5.5.5.5.5.5.5.5.5.5.=.x x x x x x x x q                   ",
"                      j h h 5.5.9.0.0.0.0.0.e.0.0.0.e.0.1./ / Q M M N B B N M M l q r               ",
"                      . . . 5.5.5.y.y.y.y.y.y.y.y.y.y.y.;.x x n H H J P P L H H M x x               ",
"                      . . . 5.5.9.y.y.y.y.y.y.y.y.y.y.y.;.x x n H H L P P L H H M x x 4             ",
"                      , % , @.@.$.y.y.y.y.y.y.y.y.q.;.;.` n n B H H L P P L H H F n n t 4           ",
"                      s s s s s h y.y.y.y.y.y.y.y.6.x x n H H H H H L P P L H H H H H n x x         ",
"                      s s s s s h y.y.y.y.y.y.y.y.6.x x n H H H H H L P P L H H H H H n x x         ",
"                       .} } s s h y.y.y.y.y.y.y.y.6.x x n J J J J J L L L L L J H L J m x x         ",
"                      0.0.0.s s h y.y.y.y.y.y.y.y.6.x x M P P P P P L H H L P P P P P M x x         ",
"                      0.0.0.s s h y.y.y.y.y.y.y.y.6.x x M P P P P P L H H L P P P P P M x x         ",
"                      0.0.0.s s h y.y.y.y.y.y.y.y.q.^ ^ ) G G H P P L H H L P P H G G z             ",
"                      0.0.0.s s h y.y.y.y.y.y.y.y.y.y.y.;.x x M P P J H H L P P F x x 5             ",
"                      0.0.0.s s h y.y.y.y.y.y.y.y.y.y.y.;.x x N P P L H H J P P B x x 6             ",
"                      0.0.0.s s h y.y.y.y.y.y.y.y.y.y.y.:.Y Y E G G F N F F G G S Y Y y             ",
"                    . 0.0.0.s s h y.y.y.y.y.y.y.y.y.y.y.9.$.$.~ x x x x x x x x ! $.$.g             ",
"                    . 0.0.0.s s h y.y.y.y.y.y.y.y.y.y.y.9.$.$.~ x x x x x x x x ! $.$.g             ",
"                  3 3 >.>.>.s s h y.y.y.y.y.y.y.y.y.y.y.9.#.$.o.W W R R R R R R o.$.$.g             ",
"                9.0.0.s s d s s h y.y.y.y.y.y.y.y.y.y.y.9.#.$.,.y.y.y.y.y.y.y.y.4.#.#.g             ",
"                5.0.0.s s s s s h y.y.y.y.y.y.y.y.y.y.y.9.#.#.,.y.y.y.y.y.y.y.y.4.#.#.g             ",
"                9.0.0.k [ [ [ [  .y.y.y.y.y.y.y.y.y.y.y.9.#.#.,.y.y.y.y.y.y.y.y.4.#.#.f             ",
"                9.0.0.y.y.y.y.y.y.y.y.y.y.y.y.y.y.y.y.y.9.$.$.,.y.y.y.y.y.y.y.y.4.$.#.f             ",
"                5.0.0.y.y.y.y.y.y.y.y.y.y.y.y.y.y.y.y.y.9.$.$.,.y.y.y.y.y.y.y.y.4.$.$.g             ",
"                9.0.0.3.3.3.3.3.3.y.y.y.y.y.y.y.y.y.y.y.9.$.$.,.y.y.y.y.y.e.0.0.,.$.#.d             ",
"                9.0.0.s s s s s h y.y.y.y.y.y.y.y.y.y.y.9.$.$.,.y.y.y.y.y.4.$.$.$.#.#.s             ",
"                9.0.0.s s s s s h y.y.y.y.y.y.y.y.y.y.y.9.$.$.,.y.y.y.y.y.4.#.$.#.$.$.a             ",
"                9.0.0.k [ [ [ [  .y.y.y.y.y.y.y.y.y.y.y.9.$.$.,.y.y.y.y.y.4.$.$.%.>.>.g 0           ",
"                9.0.0.y.y.y.y.y.y.y.y.y.y.y.y.y.y.y.y.y.9.#.#.,.y.y.y.y.y.4.$.$.4.y.y.0.5.5.        ",
"                9.0.0.y.y.y.y.y.y.y.y.y.y.y.y.y.y.y.y.y.9.$.#.,.y.y.y.y.y.4.$.#.4.y.y.0.5.5.        ",
"                ,.4.3.0.0.0.y.y.y.y.y.y.y.y.y.y.y.y.y.y.0.%.%.,.e.e.e.y.y.5.$.$.3.y.y.0.5.5.        ",
"                s s s s s s y.y.y.y.y.y.y.y.y.y.y.y.y.y.y.y.y.9.$.$.4.y.y.4.#.#.4.y.y.0.5.5.        ",
"                s s s s s s y.y.y.y.y.y.y.y.y.y.y.y.y.y.y.y.y.9.$.$.4.y.y.4.#.#.4.y.y.0.5.5.        ",
"                g g g h h h 0.0.0.0.0.0.y.y.y.y.y.y.y.y.e.0.0.,.+.+.,.e.e.4.%.%.5.y.y.0.5.5.        ",
"                3.4.5.y.y.y.s s s s s h y.y.y.y.y.y.y.y.>.f d d d d { $.$.4.y.y.y.y.y.0.4.5.        ",
"                3.5.4.y.y.y.s s s s s h y.y.y.y.y.y.y.y.>.d f d d f { $.$.4.y.y.y.y.y.0.5.5.        ",
"                3.5.5.y.y.y.h h h h h k 0.0.e.y.y.e.e.e.>.j h h f d } %.%.5.y.y.y.y.y.0.5.5.        ",
"                3.4.5.y.y.y.y.y.y.y.y.0.s s k y.y.0.$.$.,.y.y.>.d f @.y.y.y.y.y.y.y.y.0.5.5.        ",
"                3.5.5.y.y.y.y.y.y.y.y.0.s s k y.y.0.$.$.,.y.y.>.d d @.y.y.y.y.y.y.y.y.0.5.5.        ",
"                  >.>.e.e.y.y.y.y.y.y.0.s d j 0.0.9.$.#.,.y.y.,.h h $.y.y.y.y.y.e.0.0.3.>.>.        ",
"                  . . 5.5.5.y.y.y.y.y.0.s s s s d h $.$.,.y.y.9.$.$.4.y.y.y.y.y.+.s s % . .         ",
"                    . 5.5.5.y.y.y.y.y.0.s s s s s h #.$.,.y.y.9.$.$.4.y.y.y.y.y.@.s s , .           ",
"                    . 5.5.5.y.y.y.y.y.0.s s s s s h $.$.,.y.y.9.$.$.4.y.y.y.y.y.@.s s ,             ",
"                    . 5.5.5.H H H H H K y.y.4.s s s s s k #.#.| s s s s s s s s ..5.5.g             ",
"                      5.5.5.H H H H H K y.y.3.s s s s s k $.$.| s s s s s s s s ..5.5.h             ",
"                      5.5.5.H H H H H K y.y.3.s s s s s k $.#.| s s s s s s s s ..5.5.h             ",
"                      x x x y.y.y.y.y.w.H H _ y.y.e.5.5.0.y.y.y.y.y.y.y.y.y.y.y.0.5.5.k             ",
"                      x x x y.y.y.y.y.w.H H _ y.y.e.5.5.0.e.y.y.y.y.y.y.y.y.y.y.e.5.5.              ",
"                      x x x y.y.y.y.y.w.H H _ y.y.e.5.5.0.y.y.y.y.y.y.y.y.y.y.y.0.5.5.              ",
"                      x x x y.y.y.y.y.y.y.y.8.H H F x x n H H H H H H H H ] 5.5.h .                 ",
"                      x x x y.y.y.y.y.y.y.y.8.H H F x x m H H H H H H H H ] 5.5.j .                 ",
"                      x x x y.y.y.y.y.y.y.y.8.H H F x x n H H H H H H H H ] 5.5.h .                 ",
"                      5.5.5.y.y.y.y.y.y.y.y.6.x x x x x ^ y.y.y.y.y.-.H H M x x 5 .                 ",
"                    . 5.5.5.y.y.y.y.y.y.y.y.6.x x x x x ^ y.y.y.y.y.-.H H M x x 6 .                 ",
"                    . 5.5.5.y.y.y.y.y.y.y.y.6.x x x x x ^ y.y.y.y.y.-.H H N x x 6 .                 ",
"                  s a g g h h h h h h [ y.y.6.x x W q.q.r.y.y.y.y.y.t.w.w.&.x x 6 .                 ",
"                a s s s s s s s s s s h y.y.6.x x W y.y.y.y.y.y.y.y.y.y.y.*.x x 6 . .               ",
"            . . a s s s s s s s s s s h y.y.6.x x W y.y.y.y.y.y.y.y.y.y.y.*.x x 5 . .               ",
"          %.>.>.9.0.0.0.0.0.0.0.0.0.0.3.h h { <.<.2.y.y.y.y.y.y.y.y.y.y.y.r.q.q.3.:.%.h             ",
"        . >.5.5.e.y.y.y.y.y.y.y.y.y.y.0.s s k 4.5.9.y.y.y.y.y.y.y.y.y.y.y.y.y.y.0.5.5.k             ",
"        . >.5.5.y.y.y.y.y.y.y.y.y.y.y.0.s s j 5.5.9.y.y.y.y.y.y.y.y.y.y.y.y.y.y.0.5.5.k             ",
"        . %.5.5.e.y.y.y.y.y.y.y.y.y.y.e.,.,.@.g h g h h h h h h h h $.y.y.y.y.y.0.5.5.j             ",
"        . >.5.5.y.y.y.y.y.y.y.y.y.y.y.y.5.5.%.s s s s s s s s s s s +.y.y.y.y.y.0.5.5.j             ",
"          >.5.5.y.y.y.y.y.y.y.y.y.y.y.e.5.5.%.s s s s s s s s s s s @.y.y.y.y.y.0.5.5.k             ",
"          < % % >.9.5.9.9.9.9.9.9.5.9.9.e.e.y.0.0.0.0.0.0.0.0.$.s s g h h h h h O.5.5.[             ",
"            . . >.5.5.5.5.5.5.5.5.5.5.9.y.y.y.y.y.y.y.y.y.y.y.>.s s s s s s s s ..5.5.[             ",
"              . >.5.5.5.5.5.5.5.5.5.5.5.y.y.y.y.y.y.y.y.y.y.y.%.s s s s s s s s ..5.5.              ",
"                          , , % 1 5.5.9.y.y.y.y.y.y.y.y.y.y.y.e.0.0.5.,.,.h o o $ % ,               ",
"                                , 5.5.5.y.y.y.y.y.y.y.y.y.y.y.y.y.y.0.5.4.k .                       ",
"                                  5.5.9.y.y.y.y.y.y.y.y.y.y.y.y.y.y.0.5.5.[                         ",
"                                    p a 0.9.9.9.9.9.0.9.9.9.9.9.9.0.} 1 p                           ",
"                                      , 5.5.5.5.5.5.5.5.5.5.5.5.5.5.h .                             ",
"                                        5.5.5.5.5.5.5.5.5.4.5.5.5.5.k                               ",
"                                                        h g s a a d                                 "
};
