/* XPM */
static char *p_left_31670187212[] = {
/* columns rows colors chars-per-pixel */
"51 128 143 2 ",
"   c None",
".  c #000000",
"X  c #090704",
"o  c #0E0C06",
"O  c #0A0A0A",
"+  c #110E04",
"@  c #131006",
"#  c #191302",
"$  c #1E190A",
"%  c #14120B",
"&  c #141414",
"*  c #1C1C1C",
"=  c #261C05",
"-  c #201C0B",
";  c #2C2106",
":  c #27210D",
">  c #2B250E",
",  c #322707",
"<  c #3C2E07",
"1  c #282110",
"2  c #2F2A14",
"3  c #362E12",
"4  c #3A3213",
"5  c #222222",
"6  c #2C2C2C",
"7  c #302F2F",
"8  c #353535",
"9  c #3B3831",
"0  c #3B3A3A",
"q  c #43320A",
"w  c #433A16",
"e  c #43371A",
"r  c #473D18",
"t  c #493F1B",
"y  c #403D32",
"u  c #5A450C",
"i  c #4D421A",
"p  c #54491C",
"a  c #674E0E",
"s  c #69500F",
"d  c #4C4837",
"f  c #615421",
"g  c #665825",
"h  c #6A5828",
"j  c #706024",
"k  c #73693F",
"l  c #414141",
"z  c #494646",
"x  c #4B4944",
"c  c #4B4B4B",
"v  c #565656",
"b  c #5D5D5D",
"n  c #716B53",
"m  c #656565",
"M  c #6B6B6B",
"N  c #747474",
"B  c #7B7B7B",
"V  c #816112",
"C  c #8A6713",
"Z  c #896912",
"A  c #916D14",
"S  c #957115",
"D  c #A57D17",
"F  c #A57D18",
"G  c #806F2B",
"H  c #8D7A2E",
"J  c #83712B",
"K  c #8E7C35",
"L  c #AC8219",
"P  c #B5891B",
"I  c #BB8E1C",
"U  c #BF911D",
"Y  c #948137",
"T  c #988433",
"R  c #968238",
"E  c #9C843C",
"W  c #9C883B",
"Q  c #BC9126",
"!  c #A28D36",
"~  c #B69132",
"^  c #B49B3C",
"/  c #C5961E",
"(  c #CA991F",
")  c #CF9D20",
"_  c #C1952A",
"`  c #D6A221",
"'  c #DDA722",
"]  c #E4AC24",
"[  c #EAB125",
"{  c #9F894F",
"}  c #8C8050",
"|  c #A78B46",
" . c #AD8F42",
".. c #A0894F",
"X. c #AF944F",
"o. c #BD9A44",
"O. c #B09B67",
"+. c #BDA76D",
"@. c #B8A678",
"#. c #BCAB7C",
"$. c #C2A94A",
"%. c #D7B04F",
"&. c #E1B958",
"*. c #818181",
"=. c #8E8E8E",
"-. c #908F8C",
";. c #929292",
":. c #9B9999",
">. c #ABA089",
",. c #B9A880",
"<. c #A3A094",
"1. c #B1A998",
"2. c #A5A5A5",
"3. c #A8A5A5",
"4. c #AAAAAA",
"5. c #B2AFAF",
"6. c #B3B0B0",
"7. c #BCBBBB",
"8. c #CAB88A",
"9. c #C5B895",
"0. c #C1BEBC",
"q. c #D1C198",
"w. c #D8C9A7",
"e. c #DACDAC",
"r. c #D3C5A3",
"t. c #DED3B6",
"y. c #C5C4C4",
"u. c #CBCBCB",
"i. c #D2CEC2",
"p. c #D0CDCB",
"a. c #D5D5D5",
"s. c #DBDBDB",
"d. c #E4DBC5",
"f. c #F5E8C7",
"g. c #E3E3E3",
"h. c #EBEBEB",
"j. c #F2EDE2",
"k. c #F2EFE9",
"l. c #FAF4E3",
"z. c #F5F5F5",
"x. c #F8F6F1",
"c. c #FFFFFF",
"v. c #FDF9F1",
/* pixels */
"                        s.s.s.s.s.s.s.s.s.s.s.s.s.s.s.s.s.a.s.s.s.s.s.s.s.s.                          ",
"                    . 4.s.s.s.s.s.s.s.s.s.s.s.s.s.s.s.s.s.s.s.s.s.s.s.s.s.s.l                         ",
"              . . . . 2.s.s.s.s.s.s.s.s.s.s.s.s.s.s.s.s.s.s.s.s.s.s.s.s.s.s.0 .                       ",
"          6.s.s.s.s.s.z.c.c.c.c.c.c.c.c.c.c.c.c.c.c.c.c.c.c.c.c.c.c.c.c.c.c.g.s.s.                    ",
"        . 4.s.s.s.s.s.z.c.c.c.c.c.c.c.c.c.c.c.c.c.c.c.c.c.c.c.c.c.c.c.c.c.c.g.s.s.l                   ",
"        . 2.s.s.s.s.s.z.c.c.c.c.c.c.c.c.c.c.c.c.c.c.c.c.c.c.c.c.c.c.c.c.c.c.g.s.s.0 .                 ",
"      v v v v v v v v a.c.c.c.c.c.c.c.c.c.c.c.c.c.c.c.c.c.c.c.c.c.c.c.c.c.c.c.c.c.g.s.s.              ",
"      v v v v v v v v a.c.c.c.c.c.c.c.c.c.c.c.c.c.c.c.c.c.c.c.c.c.c.c.c.c.c.c.c.c.g.s.s.z             ",
"    c v v v v v v v v a.c.c.c.c.c.c.c.c.c.c.c.c.c.c.c.c.c.c.c.c.c.c.c.c.c.c.c.c.c.g.s.s.0 .           ",
"    * 5 5 O O O O O O v M M g.c.c.c.c.c.c.c.c.c.c.c.c.c.c.c.c.c.c.c.c.c.c.c.c.c.c.c.c.z.a.y.u.        ",
"    * * * O . . . . . l v v a.c.c.c.c.c.c.c.c.c.c.c.c.c.c.c.c.c.c.c.c.c.c.c.c.c.c.c.c.c.g.s.s.        ",
"    & * * O . . . . . l v v a.c.c.c.c.c.c.c.c.c.c.c.c.c.c.c.c.c.c.c.c.c.c.c.c.c.c.c.c.c.g.s.s.        ",
"    & * * O . . . . . X O O c M M s.c.c.c.c.c.c.c.c.c.c.c.c.c.c.c.c.c.c.c.c.c.c.c.c.c.c.g.s.s.c       ",
"  . & * * O . . . . . . . . l v v a.c.c.c.c.c.c.c.c.c.c.c.c.c.c.c.c.c.c.c.c.c.c.c.c.c.c.g.s.s.l       ",
"  . & * * X . . . . . . . . l v v a.c.c.c.c.c.c.c.c.c.c.c.c.c.c.c.c.c.c.c.c.c.c.c.c.c.c.g.s.s.0 .     ",
"  * X X . . . . . . . . . . X X X v M M g.c.c.c.c.c.c.c.c.c.c.c.c.c.c.c.c.c.c.c.c.c.c.c.c.c.z.a.y.u.  ",
"  * O . . . . . . . . . . . . . . 0 v v a.c.c.c.c.c.c.c.c.c.c.c.c.c.c.c.c.c.c.c.c.c.c.c.c.c.c.g.s.s.  ",
"* * X . . . . . . . . . . . . . . l v v a.c.c.c.c.c.c.c.c.c.c.c.c.c.c.c.c.c.c.c.c.c.c.c.c.c.c.g.s.s.  ",
"* * X . . . . . . . . . . . . . . X O O v M M g.c.c.c.c.c.c.c.c.c.c.c.c.c.c.c.c.c.c.c.c.c.c.c.g.s.s.b ",
"* * X . . . . . . . . . . . . . . . . . l v v a.c.c.c.c.c.c.c.c.c.c.c.c.c.c.c.c.c.c.c.c.c.c.c.g.s.s.b ",
"* * X . . . . . . . . . . . . . . . . . l v v a.c.c.c.c.c.c.c.c.c.c.c.c.c.c.c.c.c.c.c.c.c.c.c.g.s.s.v ",
"* * X . . . . . . . . . . . . . . . . . 0 v v a.c.c.c.c.c.c.c.c.c.c.c.c.c.c.c.c.c.c.c.c.c.c.c.g.s.s.b ",
"* * O . . . . . . . . . . . . . . . . . l v v a.c.c.c.c.c.c.c.c.c.c.c.c.c.c.c.c.c.c.c.c.c.c.c.g.s.s.b ",
"* * O . . . . . . . . . . . . . . . . . l v v a.c.c.c.c.c.c.c.c.c.c.c.c.c.c.c.c.c.c.c.c.c.c.c.g.s.s.b ",
"* * X . . . . . . . . . . . . . . . . . l v v a.c.c.c.c.c.c.c.c.c.c.c.c.c.c.c.c.c.c.c.c.c.c.c.g.s.s.b ",
"* * O . . . . . . . . . . . . . . . . . l v v a.c.c.c.c.c.c.c.c.c.c.c.c.c.c.c.c.c.c.c.c.c.c.c.g.s.s.b ",
"* * O . . . . . . . . . . . . . . . . . l v v a.c.c.c.c.c.c.c.c.c.c.c.c.c.c.c.c.c.c.c.c.c.c.c.g.s.s.b ",
"* * O . . . . . . . . . . . . . . . . . l v v a.c.c.c.c.c.c.c.c.c.c.c.c.c.c.c.c.c.c.c.c.c.c.c.g.s.s.b ",
"* * X . . . . . . . . . . . . . . . . . l v v a.c.c.c.c.c.c.c.c.c.c.c.c.c.c.c.c.c.c.c.c.c.c.c.g.s.s.b ",
"* * O . . . . . . . . . . . . . . . . . l v v a.c.c.c.c.c.c.c.c.c.c.c.c.c.c.c.c.c.c.c.c.c.c.c.g.s.s.b ",
"* * O . . > 4 4 o . . . . . . . . . . . 0 v v a.c.c.c.c.c.c.c.c.c.c.c.c.c.c.c.c.c.c.c.c.c.c.c.g.s.s.v ",
"* * X . . 4 i i @ . . . . . . . . . . . l v v a.c.c.c.c.c.c.c.c.c.c.c.c.c.c.c.c.c.c.c.c.c.c.c.g.s.s.b ",
"* * X . . 4 i i @ . . . . . . . . . . . l v v a.c.c.c.c.c.c.c.c.c.c.c.c.c.c.c.c.c.c.c.c.c.c.c.g.s.s.b ",
"* * + o + j H H w > > X . . . . . . . . 0 v v a.c.c.c.c.c.c.c.c.c.c.c.c.c.c.c.c.c.c.c.c.c.c.c.g.s.s.b ",
"* * # # # H ^ ^ f r r + . . . . . . . . l v v a.c.c.c.c.c.c.c.c.c.c.c.c.c.c.c.c.c.c.c.c.c.c.c.g.s.s.b ",
"* * # # # H ^ ^ f r r @ . . . . . . . . l v v a.c.c.c.c.c.c.c.c.c.c.c.c.c.c.c.c.c.c.c.c.c.c.c.g.s.s.b ",
"* * 1 : > J ! ! f i i @ . . . . . . . . l v v a.c.c.c.c.c.c.c.c.c.c.c.c.c.c.c.c.c.c.c.c.c.c.c.g.s.s.v ",
"* * 2 3 3 G T T f i i @ . . . . . . . . l v v a.c.c.c.c.c.c.c.c.c.c.c.c.c.c.c.c.c.c.c.c.c.c.c.g.s.s.b ",
"* * 3 3 3 G T T f i i @ . . . . . . . . l v v a.c.c.c.c.c.c.c.c.c.c.c.c.c.c.c.c.c.c.c.c.c.c.c.g.s.s.m ",
"* * % % @ w p p K Y R r > > X . . 6 8 8 2.0.0.h.c.c.c.c.c.c.c.c.c.c.c.c.c.c.c.c.c.c.c.c.c.c.c.g.s.s.  ",
"* * X . . - > > E $.$.g r r % . . 0 v v a.c.c.c.c.c.c.c.c.c.c.c.c.c.c.c.c.c.c.c.c.c.c.c.c.c.c.g.s.s.  ",
"* * O . . - > > W $.$.g r r + . . l v v a.c.c.c.c.c.c.c.c.c.c.c.c.c.c.c.c.c.c.c.c.c.c.c.c.c.c.g.s.s.  ",
"O O O & & o + o r f f K Y R d 8 8 2.0.0.h.c.c.c.c.c.c.c.c.c.c.c.c.c.c.c.c.c.c.c.c.c.c.c.h.g.h.N v m   ",
". . & * & X . . $ : : W $.$.n v v a.c.c.c.c.c.c.c.c.c.c.c.c.c.c.c.c.c.c.c.c.c.c.c.c.c.c.g.s.s.0 .     ",
"  . & & * . . . $ : ; T $.$.n v v a.c.c.c.c.c.c.c.c.c.c.c.c.c.c.c.c.c.c.c.c.c.c.c.c.c.c.g.s.s.        ",
"  . & * * X . . $ : : n } } <.4.4.h.c.c.c.c.c.c.c.c.c.c.c.c.c.c.c.c.c.c.c.c.c.c.c.z.h.h.:.;.          ",
"  . & * * O . . - > > x v v a.c.c.c.c.c.c.c.c.c.c.c.c.c.c.c.c.c.c.c.c.c.c.c.c.c.c.g.s.s.z             ",
"    * * 5 o . . - > > x v v a.c.c.c.c.c.c.c.c.c.c.c.c.c.c.c.c.c.c.c.c.c.c.c.c.c.c.g.s.                ",
"    8 0 0 6 6 6 9 9 9 -.4.4.h.c.c.c.c.c.c.c.c.c.c.c.c.c.c.c.c.c.c.c.c.c.c.c.h.h.h.;.                  ",
"    c v v v v v v v v a.c.c.c.c.c.c.c.c.c.c.c.c.c.c.c.c.c.c.c.c.c.c.c.c.c.c.g.s.s.z                   ",
"    c v v v v v v v v a.c.c.c.c.c.c.c.c.c.c.c.c.c.c.c.c.c.c.c.c.c.c.c.c.c.c.g.s.s.                    ",
"      6 6 B :.:.:.:.:.h.c.c.c.c.c.c.c.c.c.c.c.c.c.c.c.c.c.c.c.c.c.c.c.z.h.h.=.B                       ",
"      . . 2.s.s.s.s.s.z.c.c.c.c.c.c.c.c.c.c.c.c.c.c.c.c.c.c.c.c.c.c.c.g.s.s.0 .                       ",
"        . 2.s.s.s.s.s.z.c.c.c.c.c.c.c.c.c.c.c.c.c.c.c.c.c.c.c.c.c.c.c.g.s.s.0 .                       ",
"          M B *.*.B N u.h.h.h.h.h.h.h.h.z.h.h.h.z.h.h.h.h.h.h.z.r.8.8.#.@.@.h u                       ",
"            .       . 4.s.s.s.s.s.s.s.s.s.s.s.s.s.s.s.s.s.s.s.s.| S S S S S S A S                     ",
"                      6.s.s.s.s.s.s.s.s.s.s.s.s.s.s.s.s.s.s.s.s.| S S S S S A S S ;                   ",
"                      M M M y.s.s.h.h.h.h.h.h.z.h.h.k.h.h.9.@.@.~ P P I U / I P P s u a               ",
"                      . . . 2.s.s.z.c.c.c.c.c.c.c.c.c.c.c.X.S S ( ` ` ] [ [ ` ` ` F S S               ",
"                        . . 2.s.s.z.c.c.c.c.c.c.c.c.c.c.c.X.S S / ` ` ] [ [ ' ` ` F S S ;             ",
"                        5 5 B 4.4.h.c.c.c.c.c.c.c.c.t.w.w.o.L L ( ` ` ] [ [ ' ` ` I L L u q           ",
"                        v v v v v a.c.c.c.c.c.c.c.c.X.S S / ` ` ` ` ` ] [ [ ' ` ` ` ` ` D S S         ",
"                        v v v v v a.c.c.c.c.c.c.c.c.X.S S / ` ` ` ` ` ] [ [ ` ` ` ` ` ` D A S         ",
"                      ;.=.=.b v v a.c.c.c.c.c.c.c.c.X.S S ) ' ' ' ' ] ' ] ] ] ' ' ' ' ' L S S         ",
"                      g.h.g.B v v a.c.c.c.c.c.c.c.c.X.S S ` [ [ [ [ ] ' ` ` ] [ [ [ [ [ L S S         ",
"                      s.h.h.B v v a.c.c.c.c.c.c.c.c.X.S S ` [ [ [ [ [ ' ` ` ] [ [ [ [ [ L A S         ",
"                      a.h.h.B v v a.c.c.c.c.c.c.c.c.q.+.+._ ( ( ] [ [ ' ` ` ] [ [ ) ( ( V             ",
"                      y.h.h.B v v a.c.c.c.c.c.c.c.c.c.c.c.X.S S ` [ [ ' ` ` ] [ [ L S S ,             ",
"                      y.h.h.B v v a.c.c.c.c.c.c.c.c.c.c.c.X.S S ` ] [ ' ` ` ] ] [ L S A <             ",
"                      y.h.h.B v v a.c.c.c.c.c.c.c.c.c.c.c.,.....Q ) ) / U I ) ) (  .....e             ",
"                      7.g.h.B v v a.c.c.c.c.c.c.c.c.c.c.c.y.6.6.E S A A S S S S S >.6.6.c             ",
"                    . 6.h.h.B v v a.c.c.c.c.c.c.c.c.c.c.c.y.6.6.{ S S S S S S S S >.6.6.c             ",
"                  l 0 2.y.y.N v v a.c.c.c.c.c.c.c.c.c.c.c.y.6.5.O.X.X.X.X.X.X.X.X.1.6.6.c             ",
"                a.h.h.B v v v v v a.c.c.c.c.c.c.c.c.c.c.c.y.6.6.h.v.c.c.c.c.c.c.c.y.6.5.c             ",
"                a.g.h.B v v v v v a.c.c.c.c.c.c.c.c.c.c.c.y.6.6.h.c.c.c.c.c.c.c.c.y.6.5.z             ",
"                a.h.h.:.*.*.*.*.*.g.c.c.c.c.c.c.c.c.c.c.c.y.6.6.h.c.c.c.c.c.c.c.c.y.6.5.z             ",
"                u.h.h.c.c.c.c.c.c.c.c.c.c.c.c.c.c.c.c.c.c.y.5.6.h.c.c.c.c.c.c.c.c.y.5.6.z             ",
"                a.h.h.z.c.c.c.c.c.c.c.c.c.c.c.c.c.c.c.c.c.y.6.6.h.c.c.c.c.c.c.c.c.y.6.6.c             ",
"                a.h.h.a.a.a.a.a.a.z.c.c.c.c.c.c.c.c.c.c.c.y.5.6.h.c.c.c.c.c.z.h.h.y.6.6.l             ",
"                a.h.h.B v v v v v a.c.c.c.c.c.c.c.c.c.c.c.y.6.6.h.c.c.c.c.c.y.5.6.6.6.6.0             ",
"                s.h.h.B v v v v v a.c.c.c.c.c.c.c.c.c.c.c.y.6.6.h.c.c.c.c.c.y.6.6.6.6.5.8             ",
"                a.h.h.:.*.*.*.*.B g.c.c.c.c.c.c.c.c.c.c.c.y.6.6.h.c.c.c.c.c.y.6.6.0.y.y.b 0           ",
"                s.h.h.z.c.c.c.c.c.c.c.c.c.c.c.c.c.c.c.c.c.y.6.5.h.c.c.c.c.c.y.6.6.h.c.c.g.s.s.        ",
"                a.h.h.c.c.c.c.c.c.c.c.c.c.c.c.c.c.c.c.c.c.y.6.5.h.c.c.c.c.c.y.5.5.h.c.c.g.s.s.        ",
"                y.s.a.g.h.g.c.c.c.c.c.c.c.c.c.c.c.c.c.c.c.p.7.7.g.z.x.c.c.c.y.5.6.h.c.c.g.s.s.        ",
"                c v v v v v a.c.c.c.c.c.c.c.c.c.c.c.c.c.c.c.c.c.y.5.5.h.c.c.y.5.6.h.c.c.g.s.s.        ",
"                v v v v v v a.c.c.c.c.c.c.c.c.c.c.c.c.c.c.c.c.c.y.5.5.h.c.c.y.5.6.h.c.c.g.s.s.        ",
"                m m m M M M 7.h.h.g.h.h.c.c.c.c.c.c.c.c.c.h.h.h.7.3.3.g.z.z.p.7.7.h.c.c.g.s.s.        ",
"                u.s.s.z.c.c.*.v v v v v a.c.c.c.c.c.c.c.c.=.b b m b m :.6.6.h.c.c.c.c.c.g.s.s.        ",
"                u.s.s.z.c.c.*.v v v v v a.c.c.c.c.c.c.c.c.*.b b b b b :.5.6.h.c.c.c.c.c.g.s.s.        ",
"                y.s.s.z.c.c.:.M M M M M 7.h.h.c.c.c.z.z.z.:.N N b b b 3.7.7.h.c.c.c.c.c.g.s.s.        ",
"                u.s.s.z.c.c.c.c.c.c.c.c.*.v v a.c.c.y.6.5.h.c.c.=.b b a.c.c.c.c.c.c.c.c.g.s.s.        ",
"                y.s.s.z.c.c.c.c.c.c.c.c.*.v v a.c.c.y.5.6.h.c.c.*.b b a.c.c.c.c.c.c.c.c.g.s.s.        ",
"                  y.7.z.z.c.c.c.c.c.c.c.B v v y.h.h.y.5.6.h.c.c.;.M M a.c.c.c.c.c.h.g.h.u.y.y.        ",
"                    . 2.s.s.z.c.c.c.c.c.*.v v v v v :.6.6.h.c.c.y.5.5.k.c.c.c.c.c.*.v v & . .         ",
"                    . 2.s.s.z.c.c.c.c.c.*.v v v v v :.5.6.h.c.c.y.5.5.h.c.c.c.c.c.*.v v * .           ",
"                    . 4.s.s.z.c.c.c.c.c.B v v v v v :.6.6.k.c.c.y.5.6.h.c.c.c.c.c.*.v v *             ",
"                      4.s.s.%.` ` ` ` ` f.c.c.*.v v v v v :.6.5.N v v v v v v v v 7.s.s.z             ",
"                      6.s.s.%.` ` ` ` ` f.c.c.*.v v v v v :.6.6.M v v v v v v v v 7.s.s.z             ",
"                      0.s.s.%.` ` ` ` ` f.c.c.*.v v v v v :.5.6.M v v v v v v v v 7.s.s.v             ",
"                      Z S S d.c.c.c.c.c.&.` ` f.c.c.g.s.s.z.c.c.c.c.c.c.c.c.c.c.c.g.s.s.              ",
"                      A S S d.c.c.c.c.c.&.` ` f.c.c.g.s.s.z.c.c.c.c.c.c.c.c.c.c.c.g.s.s.              ",
"                      A S S d.c.c.c.c.c.&.` ` f.c.c.g.s.s.z.c.c.c.c.c.c.c.c.c.c.c.g.s.s.              ",
"                      A S S d.c.c.c.c.c.c.c.c.&.` ` F S S / ` ` ` ` ` ` ` ` e.s.s.8 .                 ",
"                      A S S d.c.c.c.c.c.c.c.c.&.` ` F S S / ` ` ` ` ` ` ` ` e.s.s.0 .                 ",
"                      C S S d.c.c.c.c.c.c.c.c.&.` ` F S S / ` ` ` ` ` ` ` ` e.s.s.8 .                 ",
"                      7.s.s.z.c.c.c.c.c.c.c.c.X.S S S S S d.c.c.c.c.c.&.` ` F S S = .                 ",
"                      4.s.s.z.c.c.c.c.c.c.c.c.X.S S S S S d.c.c.c.c.c.&.` ` F S A = .                 ",
"                    . 4.s.s.z.c.c.c.c.c.c.c.c.X.S S S S S d.c.c.c.c.c.&.` ` F S S = .                 ",
"                    c v M m M M M M M M g.c.c.X.S S t.j.j.x.c.c.c.c.c.v.l.l. .S S = .                 ",
"                z v v v v v v v v v v v a.c.c.X.S S d.c.c.c.c.c.c.c.c.c.c.c.X.S S = . .               ",
"            . . l v v v v v v v v v v v a.c.c.X.S S d.c.c.c.c.c.c.c.c.c.c.c.X.S S = . .               ",
"          6.y.0.s.h.g.h.h.h.h.h.h.h.h.h.B M M 0.i.i.k.c.c.c.c.c.c.c.c.c.c.c.x.j.j.p.0.y.              ",
"          5.s.s.z.c.c.c.c.c.c.c.c.c.c.c.*.v v 7.s.s.z.c.c.c.c.c.c.c.c.c.c.c.c.c.c.g.s.s.b             ",
"        . 3.s.s.z.c.c.c.c.c.c.c.c.c.c.c.*.v v 7.s.s.z.c.c.c.c.c.c.c.c.c.c.c.c.c.c.g.s.s.v             ",
"          3.s.s.z.c.c.c.c.c.c.c.c.c.c.c.s.u.u.B m M M M M M M M M M M g.c.c.c.c.c.g.s.s.v             ",
"          4.s.s.z.c.c.c.c.c.c.c.c.c.c.c.g.s.s.N v v v v v v v v v v v a.c.c.c.c.c.g.s.s.v             ",
"          6.s.s.z.c.c.c.c.c.c.c.c.c.c.c.g.s.s.N v v v v v v v v v v v a.c.c.c.c.c.g.s.s.v             ",
"          * * * 6.g.g.s.s.g.g.g.s.g.s.g.z.c.z.z.h.h.h.h.h.h.h.h.N v v m M M M M M y.s.s.              ",
"            . . 2.s.s.s.s.s.s.s.s.s.s.s.z.c.c.c.c.c.c.c.c.c.c.c.B v v v v v v v v 7.s.s.              ",
"              . 2.s.s.s.s.s.s.s.s.s.s.s.z.c.c.c.c.c.c.c.c.c.c.c.B v v v v v v v v 7.s.s.              ",
"                          6 5 * * 6.s.s.z.c.c.c.c.c.c.c.c.c.c.c.z.h.h.a.u.u.8 O O & 5 5               ",
"                                . 4.s.s.z.c.c.c.c.c.c.c.c.c.c.c.c.c.c.g.s.s.0 .                       ",
"                                  6.s.s.z.c.c.c.c.c.c.c.c.c.c.c.c.c.c.g.s.s.c                         ",
"                                    z 0 7.g.g.g.g.g.h.g.g.g.g.g.g.g.g.m 0 l                           ",
"                                      . 4.s.s.s.s.s.s.s.s.s.s.s.s.s.s.0 .                             ",
"                                        7.s.s.s.s.s.s.s.s.s.s.s.s.s.s.l                               ",
"                                                          M v c c v b                                 "
};
