/* XPM */
static char *p_right_31670187213[] = {
/* columns rows colors chars-per-pixel */
"50 130 117 2 ",
"   c None",
".  c #000000",
"X  c #0A0803",
"o  c #0A0A0A",
"O  c #191200",
"+  c #161616",
"@  c gray11",
"#  c #27210D",
"$  c #2A240E",
"%  c #382B08",
"&  c #3D3009",
"*  c #362E12",
"=  c #3C3415",
"-  c #232323",
";  c #2A2A2A",
":  c #363636",
">  c #3A3A3A",
",  c #473D18",
"<  c #5F470D",
"1  c #4D421A",
"2  c #684E0E",
"3  c #71550F",
"4  c #7A5C0F",
"5  c #705510",
"6  c #7A5D11",
"7  c #414141",
"8  c #4C4C4C",
"9  c #514F4D",
"0  c #565656",
"q  c #5E5E5E",
"w  c #7C6D49",
"e  c #646155",
"r  c #646464",
"t  c #6B6B6B",
"y  c #79766A",
"u  c #757575",
"i  c #7B7B7B",
"p  c #816111",
"a  c #956F14",
"s  c #957115",
"d  c #9D7716",
"f  c #9F7917",
"g  c #A37B19",
"h  c #987E39",
"j  c #B18619",
"k  c #B5891B",
"l  c #B98C1C",
"z  c #BE901D",
"x  c #988433",
"c  c #9C813C",
"v  c #B8912E",
"b  c #A28332",
"n  c #B49B3C",
"m  c #C6961E",
"M  c #C9971F",
"N  c #CE9C1F",
"B  c #CF9D20",
"V  c #D19E20",
"C  c #D6A221",
"Z  c #DAA522",
"A  c #DEA822",
"S  c #DBAD3D",
"D  c #E3AB24",
"F  c #E8AF24",
"G  c #EAB125",
"H  c #A78B46",
"J  c #A59145",
"K  c #AF9148",
"L  c #B29B43",
"P  c #B59E4C",
"I  c #AF9450",
"U  c #A8905A",
"Y  c #BAA05F",
"T  c #A49062",
"R  c #BDA66D",
"E  c #C2A94A",
"W  c #D7B04F",
"Q  c #E1B958",
"!  c #838383",
"~  c #898686",
"^  c #8B8A8A",
"/  c #918E8E",
"(  c #949494",
")  c #9D9B9B",
"_  c #AFA89C",
"`  c #A5A4A4",
"'  c #A8A5A5",
"]  c #AAAAAA",
"[  c #B1AEAE",
"{  c #B6B1AB",
"}  c #B3B1B1",
"|  c #BDBCBC",
" . c #CAB88A",
".. c #C4B693",
"X. c #D6C59A",
"o. c #D7C9A7",
"O. c #D1C7AB",
"+. c #C5C4C4",
"@. c #CBCBCB",
"#. c #D2CEC3",
"$. c #D7D2C7",
"%. c #DAD4C4",
"&. c #DBD7CB",
"*. c #D5D5D5",
"=. c #DBDBDB",
"-. c #E4DBC5",
";. c #E5DFCD",
":. c #E8E4D9",
">. c #F5EFDF",
",. c #E2E2E2",
"<. c #EBEBEB",
"1. c #F2EDE2",
"2. c #FAF4E3",
"3. c #F4F2EC",
"4. c #F6F6F6",
"5. c #F8F6F0",
"6. c #FFFFFF",
/* pixels */
"                                                                                                    ",
"                            ^ ^ ^                           ^ ^ ^ ~ ~ ~ ^                           ",
"                      | =.=.=.=.=.=.=.=.=.=.=.=.=.=.=.=.=.=.=.=.=.=.=.=.=.=..                       ",
"                    . ] =.=.=.=.=.=.=.=.=.=.=.=.=.=.=.=.=.=.=.=.=.=.=.=.=.=.. .                     ",
"                  i t *.<.<.<.<.<.3.<.<.3.<.<.<.<.<.<.<.3.<.<.3.<.<.3.<.<.<.t u i ! ^               ",
"              . } =.=.4.6.6.6.6.6.6.6.6.6.6.6.6.6.6.6.6.6.6.6.6.6.6.6.6.6.6.=.=.=.=.=.*..           ",
"            . . ` =.=.4.6.6.6.6.6.6.6.6.6.6.6.6.6.6.6.6.6.6.6.6.6.6.6.6.6.6.=.=.=.=.=.=.. .         ",
"          t 0 0 | <.<.4.6.6.6.6.6.6.6.6.6.6.6.6.6.6.6.6.6.6.6.6.6.6.6.6.6.6.' ] ] ` ' ] - - ;       ",
"        . ] =.=.4.6.6.6.6.6.6.6.6.6.6.6.6.6.6.6.6.6.6.6.6.6.6.6.6.6.6.6.6.6.0 0 0 0 0 0 0 0 0       ",
"        . ` =.=.4.6.6.6.6.6.6.6.6.6.6.6.6.6.6.6.6.6.6.6.6.6.6.6.6.6.6.6.6.6.0 0 0 0 0 0 0 0 0       ",
"      r 0 | <.<.4.6.6.6.6.6.6.6.6.6.6.6.6.6.6.6.6.6.6.6.6.6.6.6.6.6.6.@.| +.: : : : : > 7 7 7       ",
"    +.=.=.4.6.6.6.6.6.6.6.6.6.6.6.6.6.6.6.6.6.6.6.6.6.6.6.6.6.6.6.6.6.t 0 0 . . . . . . + @ @ .     ",
"    | =.=.4.6.6.6.6.6.6.6.6.6.6.6.6.6.6.6.6.6.6.6.6.6.6.6.6.6.6.6.6.6.t 0 0 . . . . . . @ @ @ .     ",
"  . } =.=.4.6.6.6.6.6.6.6.6.6.6.6.6.6.6.6.6.6.6.6.6.6.6.6.6.6.6.@.+.| 7 : : . . . . . . @ @ @ .     ",
"  . ] =.=.4.6.6.6.6.6.6.6.6.6.6.6.6.6.6.6.6.6.6.6.6.6.6.6.6.6.6.t 0 0 o . . . . . . . . @ @ @ .     ",
"  . ` =.=.4.6.6.6.6.6.6.6.6.6.6.6.6.6.6.6.6.6.6.6.6.6.6.6.6.6.6.t 0 0 o . . . . . . . . @ @ @ .     ",
"> : | ,.<.4.6.6.6.6.6.6.6.6.6.6.6.6.6.6.6.6.6.6.6.6.6.6.6.=.*.*.9 7 7 X . . . . . . . . + + + o     ",
"=.=.4.6.6.6.6.6.6.6.6.6.6.6.6.6.6.6.6.6.6.6.6.6.6.6.6.6.6.t 0 0 o . . . . . . . . . . . . . . @     ",
"=.=.4.6.6.6.6.6.6.6.6.6.6.6.6.6.6.6.6.6.6.6.6.6.6.6.6.6.6.t 0 0 o . . . . . . . . . . . . . . @ @   ",
"=.=.4.6.6.6.6.6.6.6.6.6.6.6.6.6.6.6.6.6.6.6.6.6.6.6.=.*.*.0 7 7 X . . . . . . . . . . . . . . @ @   ",
"=.=.4.6.6.6.6.6.6.6.6.6.6.6.6.6.6.6.6.6.6.6.6.6.6.6.t 0 0 o . . . . . . . . . . . . . . . . . @ @   ",
"=.=.4.6.6.6.6.6.6.6.6.6.6.6.6.6.6.6.6.6.6.6.6.6.6.6.t 0 0 o . . . . . . . . . . . . . . . . . @ @   ",
"=.=.4.6.6.6.6.6.6.6.6.6.6.6.6.6.6.6.6.6.6.6.6.6.6.6.t 0 0 o . . . . . . . . . . . . . . . . . @ @   ",
"=.=.4.6.6.6.6.6.6.6.6.6.6.6.6.6.6.6.6.6.6.6.6.6.6.6.t 0 0 o . . . . . . . . . . . . . . . . . + @   ",
"=.=.4.6.6.6.6.6.6.6.6.6.6.6.6.6.6.6.6.6.6.6.6.6.6.6.t 0 0 o . . . . . . . . . . . . . . . . . @ @   ",
"=.=.4.6.6.6.6.6.6.6.6.6.6.6.6.6.6.6.6.6.6.6.6.6.6.6.t 0 0 o . . . . . . . . . . . . . . . . . @ @ @ ",
"=.=.4.6.6.6.6.6.6.6.6.6.6.6.6.6.6.6.6.6.6.6.6.6.6.6.t 0 0 o . . . . . . . . . . . . . . . . . @ @ @ ",
"=.=.4.6.6.6.6.6.6.6.6.6.6.6.6.6.6.6.6.6.6.6.6.6.6.6.t 0 0 o . . . . . . . . . . . . . . . . . @ @ @ ",
"=.=.4.6.6.6.6.6.6.6.6.6.6.6.6.6.6.6.6.6.6.6.6.6.6.6.t 0 0 o . . . . . . . . . . . . . . . . . @ @ @ ",
"=.=.4.6.6.6.6.6.6.6.6.6.6.6.6.6.6.6.6.6.6.6.6.6.6.6.t 0 0 o . . . . . . . . . . . . . . . . . @ @ @ ",
"=.=.4.6.6.6.6.6.6.6.6.6.6.6.6.6.6.6.6.6.6.6.6.6.6.6.t 0 0 o . . . . . . . . . . . . . . . . . @ @ @ ",
"=.=.4.6.6.6.6.6.6.6.6.6.6.6.6.6.6.6.6.6.6.6.6.6.6.6.t 0 0 o . . . . . . . . . . . X X X . . . @ @ @ ",
"=.=.4.6.6.6.6.6.6.6.6.6.6.6.6.6.6.6.6.6.6.6.6.6.6.6.t 0 0 o . . . . . . . . . . . 1 1 1 . . . @ @ @ ",
"=.=.4.6.6.6.6.6.6.6.6.6.6.6.6.6.6.6.6.6.6.6.6.6.6.6.t 0 0 o . . . . . . . . . . . 1 1 1 . . . @ @ @ ",
"=.=.4.6.6.6.6.6.6.6.6.6.6.6.6.6.6.6.6.6.6.6.6.6.6.6.t 0 0 o . . . . . . . . . . . 1 1 1 . . . @ @ @ ",
"=.=.4.6.6.6.6.6.6.6.6.6.6.6.6.6.6.6.6.6.6.6.6.6.6.6.t 0 0 o . . . . . . . . , , , n n n O O O @ @ @ ",
"=.=.4.6.6.6.6.6.6.6.6.6.6.6.6.6.6.6.6.6.6.6.6.6.6.6.t 0 0 o . . . . . . . . , , , n n n O O O @ @ @ ",
"=.=.4.6.6.6.6.6.6.6.6.6.6.6.6.6.6.6.6.6.6.6.6.6.6.6.t 0 0 o . . . . . . . . , , , n n n O O O @ @ @ ",
"=.=.4.6.6.6.6.6.6.6.6.6.6.6.6.6.6.6.6.6.6.6.6.6.6.6.t 0 0 o . . . . . . . . 1 1 1 x x x * * * @ @ @ ",
"=.=.4.6.6.6.6.6.6.6.6.6.6.6.6.6.6.6.6.6.6.6.6.6.6.6.t 0 0 o . . . . . . . . 1 1 1 x x x * * * @ @ @ ",
"=.=.4.6.6.6.6.6.6.6.6.6.6.6.6.6.6.6.6.6.6.6.6.6.6.6.t 0 0 o . . . . . . . . 1 1 1 x x x = * * @ @ @ ",
"=.=.4.6.6.6.6.6.6.6.6.6.6.6.6.6.6.6.6.6.6.6.6.6.6.6.6.6.6.t 0 0 o . . , , , E E E $ $ $ . . . @ @   ",
"=.=.4.6.6.6.6.6.6.6.6.6.6.6.6.6.6.6.6.6.6.6.6.6.6.6.6.6.6.t 0 0 o . . = , , E E E $ $ $ . . . @ @   ",
"=.=.4.6.6.6.6.6.6.6.6.6.6.6.6.6.6.6.6.6.6.6.6.6.6.6.6.6.6.t 0 0 o . . = , , E E E $ $ $ . . . @ @   ",
"@ @ | =.,.4.6.6.6.6.6.6.6.6.6.6.6.6.6.6.6.6.6.6.6.6.6.6.6.<.<.<.r 8 8 H L L = * = X . X + + + o X   ",
". . ` =.=.4.6.6.6.6.6.6.6.6.6.6.6.6.6.6.6.6.6.6.6.6.6.6.6.6.6.6.t 0 0 P E E # # # . . . + + + . .   ",
"  . ] =.=.4.6.6.6.6.6.6.6.6.6.6.6.6.6.6.6.6.6.6.6.6.6.6.6.6.6.6.t 0 0 P E E # # # . . . + + @ . .   ",
"    + - @ } ,.,.4.6.6.6.6.6.6.6.6.6.6.6.6.6.6.6.6.6.6.6.6.6.6.6.<.<.<.y e e $ $ $ . . . - @ @ .     ",
"        . ` =.=.4.6.6.6.6.6.6.6.6.6.6.6.6.6.6.6.6.6.6.6.6.6.6.6.6.6.6.t 0 0 # $ $ . . . @ @ @ .     ",
"        . ] =.=.4.6.6.6.6.6.6.6.6.6.6.6.6.6.6.6.6.6.6.6.6.6.6.6.6.6.6.t 0 0 $ # $ . X . - @ @ .     ",
"            ; @ } ,.,.4.6.6.6.6.6.6.6.6.6.6.6.6.6.6.6.6.6.6.6.6.6.6.6.<.<.<.9 9 8 8 8 8 8 8 8 .     ",
"              . } =.=.4.6.6.6.6.6.6.6.6.6.6.6.6.6.6.6.6.6.6.6.6.6.6.6.6.6.6.0 0 0 0 0 0 0 0 0       ",
"                +.*.=.4.6.6.6.6.6.6.6.6.6.6.6.6.6.6.6.6.6.6.6.6.6.6.6.6.6.6.0 0 0 0 0 9 0 0 0       ",
"                  > : | ,.<.4.6.6.6.6.6.6.6.6.6.6.6.6.6.6.6.6.6.6.6.6.6.6.6.| | | | | | + +         ",
"                  . . ` =.=.4.6.6.6.6.6.6.6.6.6.6.6.6.6.6.6.6.6.6.6.6.6.6.6.*.=.=.=.=.=..           ",
"                  . . ` =.=.6.6.6.6.6.6.6.6.6.6.6.6.6.6.6.6.6.6.6.6.6.6.6.6.=.=.=.=.=.=.            ",
"                  3 3 h H H I I I &.<.,.<.,.,.,.<.<.,.,.<.,.,.,.,.<.,.,.,.<.: 7 8 8 8 8             ",
"                6 s s s s s s s s #.=.=.=.=.=.=.*.=.=.=.=.=.=.=.=.=.=.=.=.=..                       ",
"              . 5 s s s s s a a s O.=.=.=.=.=.=.=.=.=.=.=.=.=.=.=.=.=.=.=.=.                        ",
"            6 3 j m m V V B B B B K H H :.4.4.4.4.4.4.4.4.4.4.4.=.=.=.0 > >                         ",
"          4 s s M C C F F G C C V d s s 1.6.6.6.6.6.6.6.6.6.6.6.,.=.=.@ . .                         ",
"      . . 3 s s m C C D G G Z C C d s s 1.6.6.6.6.6.6.6.6.6.6.6.=.=.=.@ . .                         ",
"      2 2 f z z N C C F G G C C C v z z Y R R 5.6.6.6.6.6.6.6.6.( ^ ^ 7 : :                         ",
"    p s a m C C C C C F G G C C C C C C d s s 1.6.6.6.6.6.6.6.6.t 0 0 0 0 0                         ",
"    p s a B C C C C C F G G Z C C C C C d s s 1.6.6.6.6.6.6.6.6.t 0 0 0 0 0                         ",
"    p s a B D D D D D A A A D D D D D D f s s 1.6.6.6.6.6.6.6.6.t 0 0 ] ] |                         ",
"    6 s s C G G G G G Z C C F G G G G G f s s 1.6.6.6.6.6.6.6.6.t 0 0 *.<.<.                        ",
"    p s s V G G G G G Z C C F G G G G G f s s 1.6.6.6.6.6.6.6.6.t 0 0 *.<.<.                        ",
"      & % s k k A G G Z C C F G G l k k X.o.o.5.6.6.6.6.6.6.6.6.t 0 0 =.<.<.                        ",
"      . . 5 s s C G G Z C C F G G f s s 1.6.6.6.6.6.6.6.6.6.6.6.t 0 0 *.<.<.                        ",
"        . 5 s s C F G Z C C F G G f s s 1.6.6.6.6.6.6.6.6.6.6.6.t 0 0 =.<.<.                        ",
"        . w T T v m z l k k z z z U T T 3.6.6.6.6.6.6.6.6.6.6.6.t 0 0 *.<.<.                        ",
"        . ~ } } c s s s s s s s s _ } [ 4.6.6.6.6.6.6.6.6.6.6.6.t 0 0 *.<.<..                       ",
"        . ^ } } c a s s s s s s s _ } } 4.6.6.6.6.6.6.6.6.6.6.6.t 0 0 *.<.<..                       ",
"        . ~ [ } .. . . . . . . . .{ } } 4.6.6.6.6.6.6.6.6.6.6.6.t 0 0 ) ` ) i ^                     ",
"          ~ } } <.6.6.6.6.6.6.6.6.| } [ 4.6.6.6.6.6.6.6.6.6.6.6.t 0 0 0 0 0 <.<.<.                  ",
"          ^ } } <.6.6.6.6.6.6.6.6.| [ } 4.6.6.6.6.6.6.6.6.6.6.6.t 0 0 0 0 0 <.<.<.                  ",
"          / } } <.6.6.6.6.6.6.6.6.| } } 4.6.6.6.6.6.6.6.6.6.6.6.} ] ] ' ' ] <.<.<.                  ",
"          ( } } <.6.6.6.6.6.6.6.6.| } } 4.6.6.6.6.6.6.6.6.6.6.6.6.6.6.6.6.6.<.<.<.                  ",
"          / } } <.6.6.6.6.6.6.6.6.| [ [ 4.6.6.6.6.6.6.6.6.6.6.6.6.6.6.6.6.6.<.<.<.                  ",
"          / [ } *.,.,.6.6.6.6.6.6.| [ } 4.6.6.6.6.6.6.6.6.6.6.6.@.| | | +.| <.<.<.                  ",
"        . ~ [ } [ [ { <.6.6.6.6.6.| [ [ 4.6.6.6.6.6.6.6.6.6.6.6.t 0 0 q 0 0 <.<.<.                  ",
"        . ~ } } } [ [ <.6.6.6.6.6.| } [ 4.6.6.6.6.6.6.6.6.6.6.6.t 0 0 0 0 0 <.<.<.                  ",
"      r 0 ] @.@.| [ } <.6.6.6.6.6.| } } 4.6.6.6.6.6.6.6.6.6.6.6.` ( ( ( ( ( <.<.<.                  ",
"    +.=.=.4.6.6.+.[ } <.6.6.6.6.6.| [ } 4.6.6.6.6.6.6.6.6.6.6.6.6.6.6.6.6.6.<.<.<.                  ",
"    +.=.=.4.6.6.+.} } <.6.6.6.6.6.| } } 4.6.6.6.6.6.6.6.6.6.6.6.6.6.6.6.6.6.<.<.<.                  ",
"    +.=.=.4.6.6.+.} } <.6.6.,.,.,.@.@.@.4.6.6.6.6.6.6.6.6.6.6.6.6.6.6.@.| | } } }                   ",
"    +.=.=.4.6.6.+.} } <.6.6.| } } 4.6.6.6.6.6.6.6.6.6.6.6.6.6.6.6.6.6.t 0 0 0 0 0                   ",
"    +.=.=.4.6.6.+.} [ <.6.6.| [ [ 4.6.6.6.6.6.6.6.6.6.6.6.6.6.6.6.6.6.t 0 0 0 0 0                   ",
"    @.=.=.4.6.6.*.+.+.,.<.<.' ) ) *.*.*.4.6.6.6.6.6.6.6.6.=.*.*.*.*.*.! i ! i u i                   ",
"    @.=.=.4.6.6.6.6.6.+.[ [ t q q q q q <.6.6.6.6.6.6.6.6.t 0 0 0 0 0 <.6.6.=.=.=.                  ",
"    @.=.=.4.6.6.6.6.6.+.} [ t q q q q q <.6.6.6.6.6.6.6.6.t 0 0 0 0 0 <.6.6.=.=.=.                  ",
"    @.=.=.4.6.6.6.6.6.*.+.+.t q q i ^ ~ <.<.<.4.6.6.=.*.*.i ! ! i ! i 4.6.6.=.=.=.                  ",
"    +.=.=.4.6.6.6.6.6.6.6.6.u q q <.6.6.| } } 4.6.6.t 0 0 <.6.6.6.6.6.6.6.6.=.=.=.                  ",
"    @.=.=.4.6.6.6.6.6.6.6.6.u q q <.6.6.| [ [ 4.6.6.t 0 0 <.6.6.6.6.6.6.6.6.=.=.=.                  ",
"    ` ` ` +.*.*.4.6.6.6.6.6.i u u <.6.6.| [ } *.*.*.r 0 0 <.6.6.6.6.6.4.4.4.` ] }                   ",
"      . . > 0 0 *.6.6.6.6.6.| [ } 4.6.6.| [ } r 0 0 0 0 0 <.6.6.6.6.6.,.=.=.. .                     ",
"      . . 7 0 0 *.6.6.6.6.6.| } } 4.6.6.| [ [ r 0 0 0 0 0 <.6.6.6.6.6.=.=.=..                       ",
"        . 0 t t | <.<.<.<.<.] ' ' <.4.4.[ ` ' q 0 0 t t t ;.2.2.2.2.2.,.=.=..                       ",
"        . ` =.=.u 0 0 0 0 0 0 0 0 ` } [ r 0 0 0 0 0 <.6.6.S C C C C C %.=.=.                        ",
"        . ` =.=.i 0 0 0 0 0 0 0 0 ' [ } r 0 0 0 0 0 <.6.6.S C C C C C %.=.=.                        ",
"        . ` =.=.^ t t t t t t t t [ | | u r t t t t ;.2.2.Q S S S S S O.#.#.                        ",
"        . ` =.=.4.6.6.6.6.6.6.6.6.6.6.6.,.=.=.4.6.6.S C C 2.6.6.6.6.6.b s a                         ",
"        . ] =.=.4.6.6.6.6.6.6.6.6.6.6.6.=.=.=.6.6.6.S C C 2.6.6.6.6.6.b s s                         ",
"          ( | | 4.4.6.2.2.2.2.2.2.2.2.2.$.#.#.>.2.2.Q S S 2.6.6.6.6.6.b s s                         ",
"          . . . ` =.=.W C C C C C C C C d s s N C C 2.6.6.6.6.6.6.6.6.b s s                         ",
"          . . . ` =.=.W C C C C C C C C d s s N C C 2.6.6.6.6.6.6.6.6.b s s                         ",
"          . . . ` =.=.W C C C C C C C C d s s B C C 2.6.6.6.6.6.6.6.6.b s s                         ",
"          . . . 5 s s m C C 2.6.6.6.6.6.b s s s s s 1.6.6.6.6.6.6.6.6.=.=.=.                        ",
"          . . . 5 s s m C C 2.6.6.6.6.6.b s s s s s 1.6.6.6.6.6.6.6.6.,.=.=..                       ",
"          . . . 5 s s m C C 2.6.6.6.6.6.b s s s s s 1.6.6.6.6.6.6.6.6.,.=.=..                       ",
"          . . . 5 s s -.6.6.6.6.6.6.6.6.6.6.6.b s s 1.6.6.t 0 0 0 0 0 0 0 0 0 0                     ",
"          . . . 5 s s -.6.6.6.6.6.6.6.6.6.6.6.b s s 1.6.6.t 0 0 0 0 0 0 0 0 0 0 0                   ",
"          . . . 5 s s -.6.6.6.6.6.6.6.6.6.6.6.b s s 1.6.6.t 0 0 0 0 0 0 0 0 0 0 0 .                 ",
"          | =.=.4.6.6.6.6.6.6.6.6.6.6.6.6.6.6.,.=.=.r 0 0 <.6.6.6.6.6.6.6.6.6.6.6.=.=.=.            ",
"          [ =.=.4.6.6.6.6.6.6.6.6.6.6.6.6.6.6.=.=.=.t 0 0 <.6.6.6.6.6.6.6.6.6.6.6.=.=.=.            ",
"          ] =.=.4.6.6.6.6.6.6.6.6.6.6.6.6.6.6.,.=.=.t 0 0 <.6.6.6.6.6.6.6.6.6.6.6.=.=.=.            ",
"          ] =.=.4.6.6.6.6.6.! t t t t t t t t t r r | @.@.4.6.6.6.6.6.6.6.6.6.6.6.=.=.=.            ",
"          } =.=.4.6.6.6.6.6.t 0 0 0 0 0 0 0 0 0 0 0 @.=.=.6.6.6.6.6.6.6.6.6.6.6.6.=.=.=.            ",
"          } =.=.4.6.6.6.6.6.t 0 0 0 0 0 0 0 0 0 0 0 @.=.=.4.6.6.6.6.6.6.6.6.6.6.6.=.=.=.            ",
"          | *.=.! t t t t t 0 0 0 *.<.<.<.<.<.<.<.<.4.6.6.<.=.,.,.=.,.,.=.,.=.,.,.@ -               ",
"          | =.=.i 0 0 0 0 0 0 0 0 <.4.6.6.6.6.6.6.6.6.6.6.=.=.=.=.=.=.=.=.=.=.=.=..                 ",
"          +.=.=.i 0 0 0 0 0 0 0 0 <.6.6.6.6.6.6.6.6.6.6.6.=.=.=.=.=.=.=.=.=.=.=.=.                  ",
"            ; - + o o ` @.@.,.<.<.6.6.6.6.6.6.6.6.6.6.6.6.,.=.=.> @ - @ @ - ; ;                     ",
"                  . . ' =.=.4.6.6.6.6.6.6.6.6.6.6.6.6.6.6.=.=.=.- .                                 ",
"                    . ] =.=.4.6.6.6.6.6.6.6.6.6.6.6.6.6.6.,.=.=.                                    ",
"                      : > : @.<.,.,.<.,.,.<.<.,.,.,.,.<.,.0 7                                       ",
"                        . . | =.=.=.=.=.=.=.*.=.=.=.=.=.=.-                                         ",
"                          . +.=.=.=.=.=.=.=.=.=.=.=.=.=.=.                                          ",
"                            0 0 9 9 0 9 0 8 0 8 8 0 8 8                                             "
};
