/* XPM */
static char *tile1670187213[] = {
/* columns rows colors chars-per-pixel */
"134 134 70 1 ",
"  c #151212",
". c #1A1616",
"X c #1C1817",
"o c #1E1919",
"O c #221D1D",
"+ c #25201F",
"@ c #1D1F20",
"# c #1D2021",
"$ c #262121",
"% c #2A2525",
"& c #2E2827",
"* c #272728",
"= c #282628",
"- c #2F2929",
"; c #332C2C",
": c #382F2E",
"> c #37302F",
", c #38302F",
"< c #2D2F31",
"1 c #2F3132",
"2 c #363030",
"3 c #3B3333",
"4 c #3C3939",
"5 c #403635",
"6 c #413837",
"7 c #453C3A",
"8 c #493E3D",
"9 c #4B413F",
"0 c #493F40",
"q c #454141",
"w c #4E4341",
"e c #4E4848",
"r c #514644",
"t c #544847",
"y c #564948",
"u c #5A4D4C",
"i c #5D504F",
"p c #575352",
"a c #5E5050",
"s c #5E5A5A",
"d c #625454",
"f c #665857",
"g c #665758",
"h c #665858",
"j c #6C5D5D",
"k c #6F605F",
"l c #6F5F60",
"z c #6E6161",
"x c #6E6968",
"c c #746465",
"v c #766768",
"b c #756A6A",
"n c #7B6B6C",
"m c #767171",
"M c #7D7373",
"N c #797778",
"B c #7E7979",
"V c #827272",
"C c #837B7B",
"Z c #887C7C",
"A c #847F80",
"S c #887E80",
"D c #868383",
"F c #898484",
"G c #8E8D8D",
"H c #938F8F",
"J c #938F90",
"K c #939192",
"L c #999696",
"P c #9B9899",
/* pixels */
"   .oooooo%;;2&oooooo.          acMVd$%--55BDDDmaddhhhuyy998755::::3579ryyaakvkk8$%--222222;;&$$oo$$$$7gzVv--.     O5,$$OO.OOOO%$$$&-3",
"    oooooo%&;2&oooooo.          acnVd$$--55BDDFmaahhhhyy99987555::>357rryyaacckj8+$;-22:222;&&$$oo$$$$7gcVn&;      $55$$O.O.OO%O$$$;&3",
"o.    oo&&OOoo$2;oo$$oo.        acdy6$%22VVVVvjjljghhhghuyuiaaa9wwwtyyyt9ycvDFhr4;3auyydaaaaaauu&&OoooO$;78tto     $5,$$.O.O7llccVVhft",
"o.    oo&&OOoo$2;oo$$oo.        acdt7$%22VVVVcjjljgfhdhhiyuiaaa8ww9ryyyy9yvcZFh93-3aayyuaaauaudu&&ooooO$;77tyo     O53$$O.O.7jccnVVhgy",
"$OoO%-wwrr&OOoO$%;;oO.          raaa0&-22vccljgjjjjjhhddy9udaaayyiuddddfshGGmb7&>69hhddjjjjjhjgdrr75%$$$$=&33.     %87Oooo:3dAMlzcjnnr",
"$OoO;;yyyy;OOoO$%22oo           0aaaw&;22ccllggjkkjkhhduu9yiaaayyiddfhgfglGGnc6$:8whhhhjjjljjjgftt88&$$$$$%2;.     %w8oooo:4hFMjjljVVr",
"$OO-57yyyy5,&%%+$;;OO.    o.o. .6ttu7;-;;rrlchggjjjjhguyr9yyyyuuuaadhhfhgjGGlj4$,9unnnnnnccccljhua87;%%$$$=22.   .O,utoooo;2hDNhhhjllw",
"$$$;78yyyy83:-&$$-&$$.   .oooooo6wty7&--=08lclgjjkkjhdutr9ryyyyaiiadhhhhgzGGlg5$,ruVVVVVVnccccjjaa872&%$$$$22.   o$,atoooo-2sDMhggghhw",
"&&;37899uu8556:$$$%$$o..  ooooO$7r887:;-;55gjjhjjjkjghuyttrrrrraaaadggffahGDmne;23qvnJJHJFFCVvggaarr2-%$$$%,2. .oO$3hdOOoo$%uCbhhddad8",
";;238777ia8578,$$$$$$Oo  .oooo$$78873:;&&55ddjjjkjjkhduttyr99r9aaaadfggdafDDVVt2228vnPPPPJJSVVfgaauy2-%$$$%22. ooO$4kd$+ooO$tVnhduudu7",
"66467799dd97895+$$$%&Ooo.oO$$%35rur8733;-33yujccklcllcddauy9999uuuadhdddaazzVVzhe23taGHLPJGVljggrwtt2-%$$$$%=.  .$;7jh::ooO$6iuyuuuuu6",
"r97788r9ff97995%$$$&&OoooO$%&&wwuatr853&&:2rtjccjlvccvghddy9r9ryyaddhdaaaaaanVVVa2258DDLPJGVffgd78tt,-%$$$$$$    $2wkh55oo$$>79wwytyy5",
"w989rwrrddr8rr8,2$$&&Oooo$-245uaggay053;;22rtdlljlclclhhfhdtrwwyyaaadduaiiyyhhcngye:4zcDFCMbglljaaaa4;&$$%%oo    O&7hh88oooO&3378rr66:",
"wwwrytyyudr9ryy98$%&&Oooo$23r0jkcvgat532222rtdghkjjkkjhdkvjauwwyyaaaaaaadiwwwwdjccd&:yynVvjlllcccchg62&$%-%      .$3hdwwoooo$-:56ww---",
"7wtuaaddddyrryyyr=&%%Oooo$3377ddhjatw632;;;wrdjjjlccccccnMcddyyyyiaaduduuuiiiadhcch33q8jljjhggjjaatw2%%$%%%      .o2iuww=$OO$%-::66---",
":qadjkcckkuuyyifd22$$Oooo&76::9ruar7786&;&;qwgvldlVVVVVVZDnjhuayyiaauduuyucvcckhjvlyr329wdgdaaau22$$OoO$$$O        %wwww2>%$$$$$$-;---",
"&500yyaafdutyuuga33$$Oo..$5670rtadtw733&%%%56ydayajlnnMVmbkaayyr0ytttyyaddnvggutuau66;-356887775=%+OooOOOoo        O3,3364;&%$$O$-----",
"$&:&&;55yu00000du33$$oo. O24aaaadguy7;=$$$$&&,555678dhnVfyq777777887799uvvVV083:22;$$$$o.OOoooooOooooooo.             %$wr75;$OOo-----",
"$%O%%&::88888800w2,%$Oo. O&20r0trtr83&&$O$O%%;:;3335yyjlu98777777777789tgjll75:;;;-$$$$oO..OooooO.ooooo..             OO563,;%$OO%%-;&",
"$OO.OO.OOO&:;;--&oo&-Oo    .$$$$OoO$$$OooooooooO$$$$$$&&-;:555578787775606--%O$$$$$$$oo$OOO.oooo.Ooooo.                 ooO$&,%.ooo-&$",
"$O..O.O..OO;%%-;&OO--Oo.    $$++OXOOO$OOOoOooooOO$$$O$&&&&;333365767655555&%+++O$$$$OooOOO.OO.O.o.O....                 .oOO%;%Oooo-&%",
"OO.O.O.OO.OOoo$:222&-.          Xo  .oO----oooooooooooooooO$$$%$+$+$+++O++OoOoooO$OoooooO.O..O.O                      oo    .oooooooo-",
"O.O.OOOOOO.OOo$:222&-.          Xo.  oO---;oooooooooooooooO$$$$$$$O++O++++ooooooO$$ooooo.O.OO.O.                      oo    .oooooooo-",
".O.OOOOOOO%%--$oo                          oooooooooooooO$OoooooXOXOOXOOooooooooooooooooO   O.  .O           oo             .oooooooo ",
"O.OO+$$$$$%---$OO                          Xoooooooooooo$$OoooooXXOX.O.O.O.Xooooooooooooo. .O.  O.           oo              oooooooo ",
"&&-&++$$$$Oooooo..O..O.ooooooooo       oooooooooooooooooooooooooOXOXO.O.O..OoooooooooooooooO$$$$$+$$$$$$$$+ooooooO$Oooooooooooooo  oo+",
"&&&%$$$$$$OOooooO.O.O.oooooooooo       ooooooooooooooooooooooooo.O.OO.O.ooXOoooooooooooooooO$$$$$$$$$+$$$$+OoooooO$Oooooooooooooo  oo$",
"uyuy006533$++$Oo.O.O.OoooO++++++ooooooO&&88wwww953;;oooooooo.      ..O.OoXXXoO$&$ooooooooO++$$$$$$$$$$$$+++$++$+O$$$$O$$++Ooooooooo-%=",
"aaauuy8755%$$$OO.O.OOOoOOO$$$$$$ooooooO;&wwtttte7622ooooooooX       OOO.ooOooo$&$oooooooo+$$$$$$$$$$$$$$$$$$$$$$$$$$$$$$$$@ooOooooo---",
"t00065:5:3--&%%%%%%%%$OOO$$$$$=%33>-;&;3388899979774yy%$ooooo.XX...OO. Ooo++&&&$OooooooOOOoOOO$$$$$$%%-%&&&$$$$$$$$$$$$$$$$Oo .oo;-%$=",
"007522::3:-&----&&&&&$$$++$$$$--6732::,5378779797777gg-$OoooooooOO... OOo.O+:5&%OOooooo$$OoooO+$$$$$%---&&&$$$$$$$$$$$$$$$*O.  oo2>+$$",
"86432:-;--3::5:;:;;53455533,33:3686466788rrtttttwykjbbxzsa7%%O+oO  OOOOO5556808533;OOoo$$OO%&300$$%%6755:5,3,0rr006700yusaslsssgstt;;=",
"55:,2;----33553222277wr0r888885578778t989utaaaauydVVVVGHZVi,;++oo  .oO$&70yyuiuyrr6$OOOO%OO&58fa$$&;0u8555587dfffayuidVVVVVZZFFFAfh22-",
"0873;;%=$%:332:;;22346788898997788998yyuuddffffffhVVVVVZVVchdyt$$OoOO&33336666ydggdrryyrr76788rr:5::8rtiuyaaayyttwrwwrtyauaVkkkkhuyyy3",
"trr6--$$$$;222;-&222236688r9998899998yyaaffjkjkkjcVVVVVVVVVVnjj;-$$$$:662222;-yjcccllcvfdt9rr877875580ilVddVVww889w988wwwwtyttttywwhg7",
"rrtr76:>;;;;22;;22222,3678rrrt88y9tytuaddjfkjjkjkkvvVVVvcjjhjck54$O+$%;;---;33dnlggddhhdduyyytr00088r8tuuuyyw9w98wtrwwrrttyuuuuuuauia2",
"7ruaau7755;-;22222222,,357yyyy99yyyyuadfgjjljjkjjjlkVVvcdyr9uvc99+OO$OoO$$$$8wkVhyyyyaaaaaaaaayy99y9r9888ww86wwwwwyyyyyyaaiiiaaaajjyr;",
"0ruuddia55;-;22222222,,558uuuyyruuuiaddfgjljkjkjljjjnvccauy9rdduuO.OOOOoO$%%79zCcuuyuddffdddaauyyy998r888ww8wwwwwtyyyyiudadafkkklccwr;",
"yrrtfhVV55;-;2222222235559aaaaaaiadfffffgkkjjjjkjkjljjhhdayr987kjO .oO$$oo--77xFcaaaalkccklfaaaayyyyt9r9wwwwwwwwwttyyyVdhhffvVCFDcv77&",
"ttruccVV33;-23222222255659aaaaaaidffffffgjjjkkjjjkjjjkhgday9987fdo .oO$Ooo--8qbFbaadfccvvccjggaayuya9r9trwwwwwwrwtyyyuudkhkknVCFDcc77&",
"wetkDDVV322235322222,4567waaaaaaffgggdfkkkljjljjjkjjkjjjhhuww77w9o .oO$O .22uamDbadvnVVVVVVVVnjjaaaayyyyyyt8wwwryuaaaallcvVVCFDDAcc77-",
"tiazDDnV32223333222225587raaaaaafgfgjfjjkjjjkjjljkljljljhfuwwwrrro .XO$O .22aamSvddvnVCZZZZVVnljaaaauuyyyyyyttrtyuaaaaklvcVVVAACCjl66&",
"fcVCDZkj353222333,2225567raaaadufffgfkkkjjklkjjkjjkjjjklhhuwydfaao   o$OoO&&glnVchkVVGHLPFSZVVccaaaaaauyyyyaayyyyuaaadccccMVVVMccty22%",
"jcMVDChj65222235522223568raaaaiudfgfgjjkjjjjjjljkjjjljjjjhuwyhfddo   o$+oO&&dgvVcdjMVGGLLGFZVnccaaaaaauyyyyaayyytuaaadccccnnnVnkjyy22%",
"Vvkzvcaa552222333,22:55rtuuadiiddggggfggfddjjjkjkjkkkjjjdiy9uccfho .oO$$oO$$rycVcadcnJJGHHHZVVVjaaaaaaaauyyaaaayyuiaadffhhffffdyyyy22O",
"Vvjkccai53322>355222:558tuaaiiiiggffgfgggjgkljjljkjjjjkkddyruccfho XoO$Ooo$OrykVkadcnGGGHSHZVVgVaaaaaaaauyyaaaaytuaaaafffhffffayyyy:2O",
"kdadjh77222235355,22:568yyyyyyaaaadadfjggaafggddhghgghffday9yjjVV%oO$$$O  oo;;8udvldajzzVgVlaaaaaaaaaayyyyyyyyyyyuaaaaaaaaaaaau9w77aa:",
"jfafkh8722233555322,,368yyyyyyaaaaaaaffgfaafggdjhhfhhffddau9ujzVV%oO$$$O  oO;,8yfclusjzvgVllfdaaaaaaaauyyyyyyyyyyuaaaaaaaaaaaau9w77aa;",
"dddhhd7855,577755:22222qytwwwrrwttyyadaaaaaaaaadfdaaadaauyr8tccVV$O$-%$O orw9975tdfjfaadaadaaaaaaaaauytr9r9r0rrr8tyyyyyyyuiiaay80uudg;",
"adhghd77555577653:22222wytwwww99ttyuyaaaaaaaaaadggaaaaaauy97rccVV&o$-%$O oyyrw758adjjaaaaaaaaaaaaaaayyr0r9r8rr000yyyyyyyyyiaaat78udgd;",
"dddu9997777777755::22227ww78997988t9t8tyuyuyuuaaaaaaaauyrwujcDC46. oo$-$ .569987778ytutuyyuyuyyyyyrryyyay9rytytr9r9rrr9r9y989yyiajj77&",
"hduy7977878877755:;22227ww7777778t8t8t8tttttyuaaaaaaaayyrwalvDD22. .o$;$ .559w8765688utyyyyyyyyyyyr8ryuayr9yyytrr9r99r9999889yyadjj55&",
"y98777998r88877553322357887878w099ryyyt8rrwrrtuuyuyuuyrrwwgnvjj%%OOooO$%&;77yr98;OOO&rr88888r8888865:,,::&&:-2278yau9r8888ydfdfjg772,%",
"975679wwr8r987755552:357777777wwt9ryuyttwrww0rttyyyyyyr8wwhVnaa$$$$OoO$&>,78yy97&OOOOr078888r87787::&&%$O%$O$--68ygir87888ajhhfkg2222%",
"355667wwttrr876553322578r73332,35666656556788tay9ytryyddayr073,$$%%O.$::33779999;O. O&&%&&&&5&&&&%$$OOOOOOOOOO$&;58ryy77ry80r89rw2200;",
"&:6636wwyy0088753222267ry02;;&&&:::::::5,5578yau9999yyhjda6$$$$$$--o %3556788999;O.  OO.OXXX.XXoOooOO.OX.OXOoooOO;:7ai78aa855556522yy,",
"$&;:3366876664333226576663;-%%%%&;%$%&&&&;;,2800y9y9878875;OOOOO$$$o O&-,,ww7777;OOoOOOOO..OOOOOOOOOOOOOOOOOO$$%%-;3005488:;560iuyyas2",
"oOO&2222222222:2222ww75:&;;=$$$$O$OOO$$$$$$&-2:6yyuu::%O%$OO.OOO$oo  .oO&>yy6555;$$$$O$.OO.O$$$O$O$$O$$$$$$$$%------2222&&%O:6uccvvlj,",
"XOO$$%&&&--&&--22;;33:;%$$$$$$OOOOOOO$OOOO+%%%%25555&&%+OOO.O%OOO..  .oO$%66rt7,;$OOOOOO.OOOOOOOOOOOOOO$$$$$$&---;,36522%%O%%&5rtet70%",
"oooooO$$$$$$$$%2;;-;;$OOoooo$$ooXOOO$$OOooo$$$$$OO%O%+OOOO.O$::Oo    .oooO&-ah8,&$OOO..OO..O.OXOooooOOO$$$$$$&---,56r02:O%%OOO+&---$$O",
"ooooooOO+O%%%%-2;%=&%$OOooooOOOOOOO$$$OOOOOO+OOOOOOOOOOOO.OOOO$..    ..ooo$%7w63;%%.O.OOOOOOOOOOOOOOOOO$$%$%%&---,3687;:$%%%$O+%%;;$=o",
"oooooooXoo%-222--$$$$OoooooooO$$$O$O$$$O$+$oooooOOXOOOXO.OOOO           oooooo:35,&O.O.OOOOO$OO$$$O$OO$$=--------;,253&---&-%$$$%2>$$o",
"ooooooOOOO%--;-%%O$OOOooOOXoooOOOOOO$OOO+O+oooooOO . .OOOOOOO           o.....&:::;&O%%%%$$OOOOOOOOOOOO$$%%%%%%%%&;;;;%%%%$%$+++$--$$o",
"oooooo$$----%$$$$ooooooO$OooooooOXOOOXOOooooooooX.    OOO.           .oo      .oO&:8887;&%OO        .OXOooooooooooo.  oooOooooooooo$$O",
"..O..OOO%%%%+OOOO.oooooO+OoooooooooooooooooooXoXo.    OOoo... .   .  .o.      .oO%;7755&&$Oo    .. .OOO$OOOOOOOO..O   .ooo.o.ooXoooO$o",
"      . .   .               oo  oo       oo               O&&;-oooooo.               O.OO       &&-&580yyty65O.OO                     ",
".        ....   .          .@...oOoX   X ooX ooX.XoXOoOOOO;3,23$%%%$Oo    .          .O.O    . .;&;:68ruuuu87&%%OO               o.   ",
"OOO.  .OOOOOOO.Ooooooooooooo$$::2>33>$$$$$+:>47636wwljVVVVVVncvccccgd6$$oooo         O.O.oOO$%&;55ryyyalcccVVVVvc7O.          .oo22ooo",
"OOO.  OO$$$$OO.OooooOooooooO$$::2233>$$$$$$;267766wwjjVVVVVVVccccccga6$OoOoo         oooO.OO$$&;55ryyyalccvVVVVnv8o.           oO:2ooo",
"r85&.OOO658rtytyucv00%o.  oO$$--rauydch7722227wdVVVVljhhjjjjjjjllhdur722:3VVuy;o.        O$30uVn,:rydfhljjjhhjjBDuooo.    Xo;7uVVjjwwr",
"875;OXOO5589ryyyucc00%o.  oo$$--rauyacj77222279dVVVVjjggjjjljljzjhhu86,324VVuu;X         O$,0iVn,,rydghcjkjhgjlCDuoooo    oo;7aVnlj9ww",
"7&OOXOOO;&57888yuccVnga;oooooO--dcdazDCnnuu3267wyujjhgcccccccccccljhdt33:3wrcngt;        %;7uiccuu86gckljjjjjhhnVtooooooOOquzDDDZVVnnc",
"5& O.O.O--35688uucVVVlg5oooooo--gcgazDDMVia32679wtffffcccvcccvcccllhgr53:297nVji3        -:7yaccaa65hvcljjljjhhnVroooooo$$ramGFDSVVVVv",
"OOOOO.OO--3580ydgccdu08% .oooo--azllcbcjzdd773>3tyuufhjczlcjccvccnnvcjjjzz77dhr6$        %-8uadgvntruagcllljlhhlc7oooooo$$uhnZCCCSSMVv",
"OO OOOO+--3580ugjcvyy88+ .oooo--alcvcjhhffhq72-3yuyyhdjjjjlllvcvvVVncccvMn78ua72+        $&8aaadVVuyyygvcjjllggjj7oooooo$$uzvVVVVFSVVv",
"OOOOOO&&2:00yuuuuyyyy:+o .oooo%$tdcnVDDDABCbcfue,3yyddddghcnnZCCCSFVnjuuhdddt9;$o        O$,ryggvvll04uccjjddllat;. . oo$$337rrtujjggd",
"OO$OO+&;220tuauyy800yOO   oooo$$rucVZGGJHDDMMcgt-2ttuaaaggcVCFDDDDDCVhwradjj97&o.        oo;0yhgvccc82ycllhaaccur&.  .oo$$&&,5578uaad0",
"O$$%%&::225078555:555O.   .  ...&:7eeupshhhau073%&,2662:,2377qq0qqq7732267773>$o.        oo%3,8700tt2%300tyuurw,&O    ooOOOO$%%&&55565",
"O$$%&&::::::::;&&OO%$.          Xo$--->770r632&%$$$$&&Oooooo.ooooooooO$%&-----Oo         oo+;&&&&&35%$%&,78yy3:Oo.    ooooooooOXOOO&;%",
"OO$$%%%%%%$%%%%%OOOOO. .........oo$&$$=-;;:%$$OOooooOO..ooooooooooooooOO$$$$$$Oo          OO$$$O%$&&$+OO%;;::&%o ... ..........oOOO%OO",
"OOO$OOOOO.O.O.ooooooooooooooooooooO$OOooooo             .ooooooooooooooooooooooo.        .OO.O.Ooooooo.  ooOooO  .ooO.        .OO.OO.O",
".OOOOO.....o.Ooooooooooooooo....oO$%$OOoooX....         .............oo  ooooo..         XXXO.O........ .......  .....          .. .. ",
"    .o    oOOOooooooooooo.o.    O$%-;&%XoOoX.OX.                          oo             XOX..O.          .                           ",
" . .OO.O..OOOOOO$$$$O$O$OOOO..  OO$$$&&&%OOOO.O.                 OOO@oooooO$o#Ooooo.o.X..oOOOOOOoOOO+O+++++%%OOOoo ...       . ..   . ",
"OOOOOO$$$$&-&;&&;22------%$+.o@oooooO$;77&&O..O       .o       oo;222;------;2;-%$$$$$$$$$$$$$$$&&::55558800865;&$OoooO..O  ..O.O.OO.O",
"O..O$$$$$$&-&&&&-22-;----&$+OoOooOooOO$35;;OOOO.      ...    ..oo;;;;-=-&-&%;;-%=$$$$$$$$$$$$$$$%&;;&55556785:5&%%$$.O.O... .O.O....O.",
"..OO$$$$$$&---&;-222:----&$$$$$$$$OoooooO55%OO..            .$$$$$$$$$$$$$$$$$$$+$$$$$$$$$$$$$$$$$+$OXooOXOOooOO$,r3OO.O    ..O.O  ..O",
"O..OO$$$$+%&&--&;22::;---%$+$+++$$ooooooO::&&OO.            .%%$$$$$$%$$$$$$$$$$$$$$$$$$$$$$$$$$$$$$OXOXX.O.oooO$,05OOO.    ..O..  O..",
"oooo.O$$$$$$%--;&::::---;+XXX.O.X..OO..O.OO58;OO          .o$53$$$$=-%$$--$$$$$$%---&$$$$$$$$$$$$$$$$$OO.oooooooO&58au.O             .",
"ooooOO$$$$$$%---%5:::--=&+O.OO.OOOXO.O..O.O505OO          .O$66$$$$&-%$=--$$$$$$%--;&$$$$$$$$$$$$$$$$$O.OOooooooo&58a0oO             .",
"oooOO$$$$$$$OoO++%++$OooO.           O.O.O.OO585        .o$-&&&$$$$$$%---;>2;&----------&&---&$$+$$$$$+$%OOooooooooO&5yyO.         .OO",
"oooO$$$$$$$$OoO++%++$Oooo.           .O.O.O.O58:        .o$---&$$$$$$%----22-&;------&;;&;---&$$$$$$$$$$O%OOooooooOO&;u0.O.        OO.",
"oOO;86$$$$58770dayy55+O.oooo..O.XoooO..OO%OO.O.+0,        +2;$$oo$$$$%-3uu5555555555587uadgjjjhhgg65;&%$O%O$OooooooooO5:ty+O       .oo",
"oO$&86$$$$58870aayy55+.OooooOO.OXXoo.OO.OOOOO.O&72        O2;$$oo+$+$%-3au5555555555677uddghkhhhgg85;&%$%O$$%oooooooXO;:yy%..      OoO",
";586;&O.$$0dglcclljcVVcccjaaaagdu05:&OO.OOO%OOOO-;%%      o%%$$oo36:&%$;auw97799rrtuuuudauuttr8980yyudglgd0%OOooooooooOOO+:5O        .",
":806&%.O$$0alccvcccVVVVVVVgdggkla05:OO.OOOOOOOOO---&      o$$$$oo673-%$;aaww979wryuuiaduaytrww77880ydglccgd+OOoooooo.O.ooO55+        .",
"63-%OO&-iighlkjddgdffgjddu9uauaayyrw083ooOO+$OoO;&$$      .$$$$oO3646;$%24vvjjhgdudhhklhhhhhddaaaaiiaaaaadujjuy2%$oooooooo$$+Oo       ",
"7:$OOO::jjjjjlfaaaaaaaayu888tyttyyyyyy7oooo+$OoO-%$$      o$$$$oo35772$%&3VVvcljgudjkvvkkjkjkjgfffaiiauuuadVVjh3-$ooooooooooO$o       ",
"%%-350uukccVVvkfggggfddaut88yydalzbmmMh=$OO$$$OO%%$$      o$$$$oo;2wu6$$%-wwddlnMMMBMvvccccljlkkcllljjggdddjjjjhdr3;oooooo. o$+.     &",
"O%:7aallccVVVVVfkjlljjfdau8tytffnVCFFJN=-$$$$$$$$$$$      o$$$$oO;2yd0$$$%&&rtlVDGGFSccccccljccccccccvljjhhaujjnVh93oooooo  o$Ooo    ,",
"70rtuuuuadkvvncjkjlgjdduyy99yyjjnVFFGLA07$$$$$$$$$%&    ..O$$$$ooO$tcw--&---2,70yshbcVnvvckvnnnVnnnVVVclkhjhfjhhjzbkq7ooooo.ooOoo  .o;",
"aaaayt00yyflcccjjjjgfday88ttyyjjnVFHJPDyy%$$$$$$$$--    .oO$$$$oooOtcy2222--$$$$;57ghVVvclkvVVVVVVVVVVVcckjjjhfdabDMgaooooooooooo  oo&",
"ay0088r0uufhjkklklcljayt9t8tttfjnVAGGGSad$$$$$$$$%--    .oO$$$$oooo0cy5422,:&&%%&;3qrddccklccjfhcvvnCZVSCMMjkjhfdzMMNx;;oooooXXoo  oo%",
"a053,30raagfjlllkccccy80t9t888ffnVSDDDClj$$$$$$$$$-&    .oO$$$$oooOrju76225522;&%$$;&55hhcvguurrggccCSHPKHGjjjkhhzvMGD77oooo   oo  oo%",
"ar75::88aaddhckcVffVVtwr8tr888aalVcVnMnhj$$$$$$$O$;;   ..oO$$OOoo+Oylu77:355,3:;-&%;;33yiiddfduuaaggcbmCCFDnnzchjjznDDhs+Ooo.  o.  OO$",
"au07::77aaaalcccdVfirrw8t9tr88r9uaagdaagg$$$$$$$OO22  ooooO$$oooo%=uvp775555553:2::22222,34uccfdyyrrr9ryfVVDDbbkjhgzVCGG--Oo.      $$$",
"iyr85588uaffkkkkddfitrrr8tyr789ruudgdggjj$$$$$$OoO:;  oooOOOO..&%00lbg007755553:22232323,55thfdaaatrr9rtacvBBnnbbchcnVGG-%Ooo.     $$$",
"ttu85578yyvVjay8w9wttttuuyyt78r9tyy0gVVcv-;$$$$OoO--  XoO$Oo.  aaFGGDbaayt555555322536377555579tccday987979hfADGGMjccbDD$$ooooooo  $$$",
"0yy86688uucvfuyrtttuuuuuiuyt88r9yuuygVcdd%%+$+Oo.O&=  XoO$OoX  ljGKFDbgayr7765563,3566677767679rgguutr87747uubmDGBbbcnDZO$ooooooo  %%$",
"588857yyffaay9taaffffaufVfau999ru0gVjd0;-oo++Ooo .$$  ooO$OooooDDLLGDBcltt99658r85556777799977772,0wtt85>&--=77vVZGZcvVVoo   oooo  ;,%",
"578856yyffauyryaadffffiddduy999r0agjg00--oo$$Oo.  $O  ooOOOoOooZCLPHDBbcuurr779r8666688999997777,2880r7:>&&%&45hbCGCbnMMoo. .oooo  22%",
"O;5556aaaarryaaaaduVfVVVkir98877ag05-OoooooO+oo.      ooOoooXoouaKLGDDDSVVkkffduuyrr978q9987788755&;$$OOooooooo+$tVCDZjjooooooooo  --&",
"$;5555agaa00yauyaddVgVVVga888887ag0:%oooooo$$Ooo      .ooooooooaaJLGDDDDVMzjhddauyt00070r877787755;&%$OO.OoooooO$tVCDDjjoooooooo.  &&&",
"$%::5500aadadgjVVVVVVu88555555yy%oooooo$$$$$$ooo      ooooO$+++--gjnVg94::--;-;--2:5587787877653-&&;$$O$$$Ooooooo$&3w8$$oooo.      XO:",
"$-:::500aaaadglcVVVdVyy8555555yy%oooooO$$$$$OOo.      ooooO$%++&-gjnVd76:2--&&--;2:5508877777753--&&$$OO$$$oooooo$&3w8$$oooo.      Oo:",
"$%;&$O%%&&57777555555757575555++OoOO%%%$$$$Ooooo      ooooO$++%&-3433679yuhdlljjllllh2,2232:;;$%$$$$%$OOoOooOO$$$Ooo.oOooooo.        6",
"$%;%$$$%+$55555555555556855555ooooO$$;%$$$$ooooo      ooooO+++%&-:2;-37waajjcccvvccvl:3:222;&=$$$$$$$$OOooooo$$O$Oo.  oooooo.        6",
"ooOooooooo+$%;;;&+&++o%&%+OO..ooO$%;-;%$$ooooooo..      ooooO++Oo$$:332;$$$$$%%%$%%-;::--;;--&$$$$OO.OO.oooooooOoooooooooooo.        $",
"oooooooooo++%;&;&+++++++++o.  ooO$%;;%-$$oooooooo.      ooooo++oo$$2532;O.ooooooooO$$2:----&-%$$$OOooooooooooooooooooooooooo         $",
"0055--++++++%$$OOoOOo++++++OOO++$$OOOOOOoooooO$$%O    .ooooooOOooOoO$O$O.Oooooooooo$$;;&--;%%$$$OOoooooooooooooooooooooooo.          .",
"0008:;+%$$$$$$OooooooO++++++++++$$oooooooooooO$%-%    .ooooooooo.O.O.O..O..O.OO.OoO$$;&&&&&%O%OOoooooooooooooooooooooooooo            ",
";5;555:3%&OOOOOOOOOooO+oo++oOOOOoooooooooooooO$Ooo    ooooooooooO.O.O.OO.OO.. ..OOOOO%%%%%%%$OOOoooooooooooooooooooo. . ..            ",
"oO+;7007&&OoooO$%++ooo.ooooooooooooooooooooooO+o      oooooooooo.OO..OO.OO.O  .OOOOO$$$$$$%O$O.ooooooooooooXooooooo.                  ",
"..oO&%%%OO... .oooo.............oooooooooooooOoo.......oooooooo...O.     .... ..OOOOOOOOOOOOOOO.ooooooooooo..Xooooo.                  ",
"                                .oooooooooooooooooooooooooooooo  oO         OO  .ooOooooO.O.O.OO.OOOoO.Oooo  Xooooo.                  ",
" .O                             .... ...o....oooooooooooooooooo. XX.    .    .  .o...oooO.O... ..  . .. . .  .. ....                  ",
"OO$O                                     .  ..ooooooooooooooooooooX.    O.       o.  o.ooO...                                         ",
"OO%$+Oo..                  .. .       .oo;;$$%$$$$++O+OO++++%++O++OOOO..OO.O....OOO..OOOO$$$O$%%$$.                   OO,,2:$..... .. ",
".$&;55$$Oo       X@       oooooo.     .-&gg883222:&&&-----;2222-&-;&&%$$$$$$$$$$$$$$$$$$$;2337ur77Oo                 .22cccl0$$$$ooooO",
"oO%-3,%%++. .  ..oo   .  ..oX.XX . .X%-07ad753,333-&&%%%%%&;;;;%&==&=%$$%$$%$%%$$$$$$$$$$-;2338788;;%$o              .77llgd8=%$$OO$$O",
"ooOO--5555$OO.OOooX  oooo.      .ooo2jcMVr02&,57r7--$$OoooO$$$$$$$$$$$$$-&&;---&=$$$$$$$$$$$$$$%9rlvda2              @llaa0732-$$2254;",
"ooOO--2233$OOOO.ooo  .ooo.      ooO%7llnv002:400r022&%OOOOO$$O$$$$$$$$$$&&&&&=&&%$$$$$$O$O$O$$$%88gjga4o. .          Oghyu7532-$$;:33-",
"oooooo@.$+:3;:=OXXoXo.O       .oO=ucnMl22--0ymANjjsgii072-O.o.o$$$$ooooo$$$$$$$$O.o.oooo.oo.o.oo$$$$ulllt$@        X&<ww$$OoO$$oO$%$$$",
"=$$=$=$=<<4054<=$======@@@@@@@==<<plcnx44<1ppmANzllsspeq42<*===<*<<**#=*=<<*<-<*****$=***=***=*$--<<pzzxe**oo@@@@@@=24ee<**$*******<<-"
};
