/* XPM */
static char *result[] = {
/* columns rows colors chars-per-pixel */
"64 64 232 2 ",
"   c #1E1D0F",
".  c #1E1D13",
"X  c #1F171B",
"o  c #201E0F",
"O  c #211D13",
"+  c #21151D",
"@  c #211B19",
"#  c #242215",
"$  c #24231B",
"%  c #2A251B",
"&  c #1C0E25",
"*  c #1A1729",
"=  c #171C32",
"-  c #1B1C33",
";  c #210D26",
":  c #220D29",
">  c #211124",
",  c #24122B",
"<  c #26192C",
"1  c #2A192E",
"2  c #271B35",
"3  c #1E2229",
"4  c #1B2235",
"5  c #1C243C",
"6  c #1F283D",
"7  c #2A2825",
"8  c #322E24",
"9  c #373429",
"0  c #24243C",
"q  c #332335",
"w  c #362738",
"e  c #3B2C3D",
"r  c #3E3737",
"t  c #423C35",
"y  c #454238",
"u  c #1E2842",
"i  c #212A45",
"p  c #272846",
"a  c #232E4B",
"s  c #25304E",
"d  c #2A314E",
"f  c #263252",
"g  c #293556",
"h  c #253259",
"j  c #2A375A",
"k  c #2C395D",
"l  c #343553",
"z  c #273567",
"x  c #2E3C63",
"c  c #2D3C6C",
"v  c #313E64",
"b  c #313F6A",
"n  c #2A3A79",
"m  c #303F79",
"M  c #433443",
"N  c #493B47",
"B  c #3F4152",
"V  c #334266",
"C  c #33436B",
"Z  c #2E427B",
"A  c #344573",
"S  c #374977",
"D  c #394B75",
"F  c #34457C",
"G  c #3B4D7B",
"H  c #3D507C",
"J  c #564D50",
"K  c #594C55",
"L  c #65585C",
"P  c #51536B",
"I  c #43557D",
"U  c #685C65",
"Y  c #786D6D",
"T  c #857B78",
"R  c #1F398E",
"E  c #193593",
"W  c #183798",
"Q  c #1A3C9B",
"!  c #243D8F",
"~  c #1F429E",
"^  c #334785",
"/  c #3A4D84",
"(  c #3E5283",
")  c #3E538B",
"_  c #2C4896",
"`  c #3C5393",
"'  c #39549A",
"]  c #1C44A2",
"[  c #1E4AA8",
"{  c #1E51AD",
"}  c #1F59B2",
"|  c #224BA6",
" . c #2755AD",
".. c #3459A9",
"X. c #245CB3",
"o. c #2767BA",
"O. c #326DBA",
"+. c #415584",
"@. c #445989",
"#. c #445A8C",
"$. c #425892",
"%. c #445B94",
"&. c #445D9B",
"*. c #4B6394",
"=. c #4C659B",
"-. c #4C669B",
";. c #516995",
":. c #526B9C",
">. c #55709F",
",. c #4965A5",
"<. c #4D6BAC",
"1. c #536EA3",
"2. c #516FAC",
"3. c #4F71AD",
"4. c #5775AA",
"5. c #4A6CB1",
"6. c #4A76BB",
"7. c #5374B3",
"8. c #5B7CB4",
"9. c #577AB9",
"0. c #547BBA",
"q. c #617FB0",
"w. c #266EC0",
"e. c #2C75C3",
"r. c #357CC4",
"t. c #4D7DC1",
"y. c #817984",
"u. c #5D81BB",
"i. c #6C8BB7",
"p. c #6587BA",
"a. c #3684C8",
"s. c #3D8CCB",
"d. c #438DCC",
"f. c #4B8AC9",
"g. c #5B84C2",
"h. c #5D89C5",
"j. c #568BC8",
"k. c #4493CE",
"l. c #4B94CF",
"z. c #5294CE",
"x. c #5C93CD",
"c. c #4B96D0",
"v. c #4D9AD1",
"b. c #5796D0",
"n. c #539CD2",
"m. c #5B9DD3",
"M. c #648BC3",
"N. c #678CC3",
"B. c #6493CC",
"V. c #6996C9",
"C. c #6C95CA",
"Z. c #6C9BCD",
"A. c #7198C7",
"S. c #739CCC",
"D. c #6497D1",
"F. c #649CD2",
"G. c #6A9DD2",
"H. c #729FD1",
"J. c #54A2D5",
"K. c #5BA4D6",
"L. c #57AAD9",
"P. c #59A9D8",
"I. c #5CABD9",
"U. c #79A2CD",
"Y. c #63A3D5",
"T. c #6CA4D5",
"R. c #68A8D7",
"E. c #64A7D8",
"W. c #64ACDA",
"Q. c #6BABD9",
"!. c #73A4D4",
"~. c #7AA6D2",
"^. c #72AAD7",
"/. c #7CABD5",
"(. c #73ACD9",
"). c #7AADD8",
"_. c #64B3DD",
"`. c #6CB4DD",
"'. c #67B9DF",
"]. c #6CB9DF",
"[. c #73B4DC",
"{. c #7BB4DB",
"}. c #74BADF",
"|. c #7CBBDE",
" X c #66B9E1",
".X c #6CBBE1",
"XX c #74B6E0",
"oX c #73BCE1",
"OX c #7CBEE1",
"+X c #75C2E3",
"@X c #7BC4E3",
"#X c #76C8E5",
"$X c #7CCAE5",
"%X c #958A88",
"&X c #A59B96",
"*X c #ACA19B",
"=X c #85A9CF",
"-X c #85AED4",
";X c #82B4DA",
":X c #88B4D8",
">X c #84BBDD",
",X c #8CBBDD",
"<X c #91BADB",
"1X c #82BEE0",
"2X c #8ABFE0",
"3X c #8CC0DF",
"4X c #96C2DF",
"5X c #A3C5DE",
"6X c #85C3E2",
"7X c #8BC4E1",
"8X c #83CBE5",
"9X c #8BCCE5",
"0X c #99C6E0",
"qX c #94CBE4",
"wX c #9BCCE3",
"eX c #84D2E7",
"rX c #8CD2E7",
"tX c #89D6E8",
"yX c #93D2E6",
"uX c #9CD4E6",
"iX c #95D8E8",
"pX c #9BDBE8",
"aX c #A6CCE1",
"sX c #A3D4E6",
"dX c #A5D9E7",
"fX c #ABD9E6",
"gX c #AADAE7",
"hX c #A3DBE8",
"jX c #B5DDE7",
"kX c #BAE0E8",
"lX c #C0DEE7",
"zX c #C5E1E7",
/* pixels */
"; : : : : : ; : : : : : ; : : ; ; : : : : ; : : : * 2 & * 0 u = - i * & * * * & ; ; : ; ; : : : ; : : : ; : , q M N e : : : : : ",
": ; : : : : : : : ; : : : : : : : : ; : : ; : * = 5 a u V G j D g g s u 5 u - & * & > + + + + & : ; + + + + 1 t K L N , : : : : ",
"; : : : : , : : : : : : ; : : + > & & * p & - i x D 1./ D C V p.>.A g d a f u u 4 a f 4 * # X > : : + @ o . . % N K N , : : : : ",
": : : : : : : ; : : : : > > + O X * = * = i c v H @.@.@.@.;.D k g D g V ( j j j f a c g = 0 0 @ + + > ; + O . o   8 t : : : : : ",
"; , 1 1 1 ; : ; + X O O O o o $ * a 5 j G #.( 4.p.i.+.G +.D ) ) 1.+.+.#.%.x j x s g D A z s i = . O # . X + @ X @ o O > : : : : ",
"1 w N N M 1 ; + O # # % 8 8 X 5 u 6 ) ' ' F / #.1.*.*.) +.:.p.2.g.!.4.G G V j ^ z s V %.&.F j 5 = 7 $ o o . O X + O o @ : : : : ",
"q N K K K t : O # 9 t y y 0 s a f A ) ' #.#.@.-.I S @.@.8.N.V.N.0.~.-X4.:.*.+.F F A b $.` m b b x a a r 9 % o o O + + + : : : ; ",
"w N K K K N : @ % t y y i u g 6 d S %.=.8.p.4.$.*.1.8.%.%.p.g.A.N.T./.A.i.p.=X#.( <.4.b ^ c / S ) F F d 7 9 8   O @ > ; : : : ; ",
"w N K K K M > O # 8 8 0 d C i d j +.C +.4.@.1.=X<XS.u.A.p.V.N.~.5XfX4X{.<XH.,X:XA.N.8.G b c ! G @.<.C a u $ # o o o O ; : : : ; ",
"1 w M J N q > + O O p a V D i A C I :.i.q.i.p.N.A.!.N.yX6X^.[.~.S.-X{.OXR.B.B.0X=Xp.:.:.1.G ^ ^ :.3.G V j V $ . O O o < e q 1 ; ",
": 1 q q 1 , : ; > i D C s g j A #.I i.4.:X4XN.!.S.N.S.;X(.(.`.8X4X6XS.Z.M.g.g.(.A.=X-X:XN.1.,.^ Z *.V C S k 0 $ O o   % N N e , ",
": : : : : : : , f C +.G V C H 4.q.i.S.S.fX4Xi.-X-X-XwX/.:X!.|.$XtX@XF.u.u.T.B.B.4XaX<X4XC.p.A.5.' ' V H A A D p % O O @ t N M , ",
": : : : : ; > 4 C H C k g C ( 4.=X:X:XS.aXaXV.S.A.S.6XeX(.U.{.6X!.^.V.T.|.@X6Xh.eX9X0XuX-X!.N.0.3._ A c A G V s B J q q M M w : ",
": : : : ; ; < a k j c +.#.G i.h.:XA.N.:XU.Z.~.|.[.T.[.{.qXhXwX:X<XaX<X4XiX[.>X(.>X}.T.$X7XuX<XB.M.&.) m +.A j C j J w 1 q q 1 : ",
": ; : , ; , s j A H G ) ` %.~.>X>X{.S.{.,XaX(.>X9X[.8X7XgXhXyX9XgXsX4X4X4XsX7X`.T.T.j.g.T.1X1XG.^.8.:.^ A c C v x x 2 : : : : & ",
"& ; : : < 0 c j V :.=.` &.4.Z.^.B.B.<X4X;X9X^.:XhXiXpXpXkXgXyXuXjXdX6X<XfXzXjXyX6XF._.u.h.u.G.{.3X;X8.` C F %.-.*.A p : : : : : ",
": : , q t a x m m +.,.,.0.M./.1Xh.(.1XsX2X7XgXgXuXhXgXhXuXjXfXyXjXwX1XwXzXlXdXuXrXoXXX.Xx.G.B.R.7X6X;X2.$.2.<.,.=.G d 1 ; : : ; ",
": : 1 p p p d k m $.&.=X;X/.wX!.t.F.1XsXjX2XqXdXuX6X9X`.`.|.Q.^.{.,XXXOXaX,X0XuXpX$XrXrX[.b.E.XXOX9XOXH.7.M.g.7.8.4.C v < ; : ; ",
": ; , 7 i s b F / ,.M.0XsXuX1X2XH.D.wXdXuXaXwXOX[.n.[.].|.R.n.f.f.m.R.(.R.(.(.aX7X$XrXiX9Xm.W..X6X[.fX{.g.N.$.! &.S G G q : : ; ",
": ; + 7 g z ^ &.7.C.1X1XwX-Xt.D.F.0X9X8XdX9XjX7X[.[.Y.`.6X}.`.I.J.I.K.Q.R.(.)./.,XaXhXjXjX|.W.R.F.].@X6X~.=X:.S / +.I i * ; ; ; ",
": ; > #.S ^ <.q.~./.;X1X6Xh.G.(.8XiXrXiX8XeXyXuX}.R.,XE.I. XJ.W.K.P.].].oX_.m.O.h.>XfXuXzXhX$X8X6X[. XXXsXV.8.1.C D g a i > : ; ",
": : w *.x %.@.9.D.G.(.OX1XF.XX+X$XiXhXhXuXpXoX1X>XQ.|.Q.E. XXXW.E.b.z.d.K.|.[.z.j.t.{.qXgXgXuX9X6XOX X@XyX6Xh.<.#.:.+.H b , : ; ",
": ; l :.j A 4.5.B.{.6XdXiXXXoX#X$X9XqXwXuXqX.XXXW.J.E.(.R.E.XX{.;XF.k.m.!.F.W..XI.t.F.7X9XjXfXpXpXQ.$X$XfXgX{.C.1.S H D k 0 ; ; ",
": ; x #.b +.7.5.M.(.7XrXgX$X$XtXyXgXyX6XXX2XW.E.n.n.Y.^.Y.K.D.b.j.^.z.z.m.m.R.Q.oXn.T.`.qXjXjXpXrXoX.X#X9XuX(./.%.#.G *.k 0 + ; ",
": : D 1.*.G %.7.M.2X7XyX9XrXeXpXhXiX7XQ.K.m.`.R.K.Y.m.x.d.a.r.d.r.f.B.j.d.n.m.m.[.W.I.v.OXjXjXiX#X$X_..X8X7X1X;X4./ *.-.j i > ; ",
": , I *.A.%.,.S.A.-X8X2XR..XeXgXjXqX,XK.).I.W.!.W.F.v.d.a.o.e.r.o.o.e.t.a.s.v.m.m.I.@X}.Q.jXjX6X#X+XR.E._.1X1XC.!.4.D #.D C ; ; ",
": , j :.-.1.<.t.;X1XOX!.OXyXpXjXfX7X,XE.K._..XW.Y.d.d.w.o.X.O.X.X.X.o.O.o.a.d.s.v.v.J.8X].wXqX,X8X8X$X X`.G./.-X!.p.$.1.x *.2 : ",
": 0 g C *.,.M.~.B.C.t.x.8XpXgXkX9X4X{.J.oX+XW.f.l.r.e.e.o. . .| [ [ ..{ [ o.v.c.s.v.m.oX|.:X7X0XuXOXeXtXrX(.G.D.5XC.=.) D x 2 & ",
": p k v k =.-XH.B.B.XXOX$X7XhXgX8X>X[.[.6XW.k.s.r.r.o.{ ] W E W Q ] ~ W | O.r.v.z.m.I..X8XXX0X0X0XoXtX$X.XY.(.H.N.M.@.c G f p : ",
": p v b b +.<XT.M.h.XX8X9X8XhXpXwX1XI..X[.v.f.s.a.w.{ W E W ] [ | Q W R _ ..w.v.c.Q.W.+X.X.X).,XqX8XtX+X X{.{.B.9.4.S / G x 0 : ",
": 0 D b +.4.A.!.h.h.D.6XOXrXeXpX6X_._.+XE.d.c.k.a.o.W W Q | ..O.X.X.| R R  .O.`.n.).n._.I.OX^.-XrXiXiXtX`.@XwX-XN.4.:.=.#.x b , ",
": d @.I %.i.8.!.Q.XXD.`.+X8XeXpX9XW.I..XJ.k.J.k.w.~ E W [ X.t.k.d.e...! E [ e.W.I.E.v._..X6XR.,XyXtXiX$X X7X6X,XS.S.8.9.%.A P e ",
"; d +.D ( 8.M.T.Q.@XQ.g.$XhXiXpXuXW.I._.J.s.L.s.X.Q E | ..6.z.@X7Xa.o.] Q [ w.K.P.L.P. X_.oX[.1XsXrX9X+X+X8X9XT.B.S.9.A.S s l N ",
": p *.i.=.C.7.^.^.yX}.F.8XpXpXrX6XOXK.I.c.s.I.s...Q W ]  .o.r.v.n.a.o.] ] [ r.E.n. XW.XX+XQ.).:XqX9XtXtX9XhXpX6XN.i.&.<.1.x D e ",
": 0 +.C *.0.p.u.T.}.[.W.uXkXhXrX@X|._._.s.s.L.r...[ Q Q ]  .w.w.r.w.{ Q ]  .r.d.J. XE.{..XT.).{.0XdXiXtX9X6X7X-XS.<.5.A C +.p : ",
"& < D b C <.7.u.u.j.x.}.yXgXgX8X_.P.L._.J.s.c.s.o.{ Q W W Q [ [ [ | Q ] ] X.r.z.J.W.n.K._.(.).E.OXhXiXiXuXaXV.C.<XH.0.) v C 2 : ",
": p m j A u.2.u.g.Y.oXK.OXgXiX$X@X[.m.`.K.d.s.v.e.{ Q W E W W W W Q ~ { { } O.k.v.I.m.W.I.v.v.m.2XdX8X$X6XqX(.G.S.9.^ ^ V j 2 & ",
": 2 g v q.=.<.H.[.}.[.W.+XpXdXpXuXQ.x.[.[.l.s.c.d.o.] W E E W W ] { { ] | X.r.j.K.Y.F.L._.m.F.>XwX7X.Xx.Q.[.6X:X<X&.' m g a 2 & ",
": : g I *.8.,./.7X{.qX+X.X.XuXtX1X^.7X`.OXK.d.a.J.s.o.] E E W W ~ Q ~ E _ 5.j.m.W.m.v.K.K.(.).0X>XsXrX>XQ.`.R.aXaX2.' z b a & : ",
": ; g +.%.%.4.A.OX9X,X[.F.].$X$X6X7XwX>X[..Xz.s.k.L.k.O.] E E W Q ~ ] o.f.m.v.I.J.c.P..XY.R.).,X{.qXXX}.`.`.Z.G.N.<.n n A a & : ",
": ; i v v $.7.7./.7X@Xm.j.K._.+XiXqX6X>X|._.`.v.s.c.v.k.e. .] Q  .s.n.J.K.I.'.J.K.K._.[.K.K.;XaXT.R.XXOXXX/.Z.Z...,.! x b d > ; ",
": ; - u j C +.N.D.Z.yXm.W. X X_.|.7XqX>X^.I.`.}.v.s.s.s.a.a.o.o.o.O.s.J.P._.L.k.n.v.+X+XoXOX>X>X(.Y.(.(.2X).R.g.5.7.c g +.p > ; ",
": ; , a +.G F S.0XV.G.`.6X X_.I.[.sX7XQ.R.}.W.OXW.J.s.s.s.s.a.a.s.s.s.k.k.K.E.J.d. X X$X8XOX:X[.E.9X[.(.XX6XF.7...m F #.x , ; ; ",
": ; : p v #.C =.7.g.G.[.6XoXI.v.|.wX(.OX0X1X+X@XI. XL. XJ.s.s.J.J.v.k.v.k.f.K.v.I._.8XiXyX[.^.^.6.1XR.[.1XjX,Xg.' ! / / V > ; ; ",
"& : & 2 A @.+./ ` 9.T.B.XX@Xm.f.W.XX1X9X9X6X`.$X+X Xn.n.L.n.d.c.v.k.J.n.k.f.z.E.W.oXwX0XOXR.n.F.5.t.D.Y.1X<XZ.0.$.z x i U 1 > ; ",
": : : : C A G ) S $.5.9.6XT.0.`..X+X7X0XsX6XE.`.Q.E.R.z.d..XI.J.@X@XI.v.J.J.J._.6XqXwXqXXXXX{.E.B.0.D.).wX7.0.u.$.x j 2 >.q ; ; ",
": : : : l g v D k C 1.<.U.B.g.].8X+X8X0XyXqX.XOX2XXXOXF.x.F.,XF.Y.W.6X}.<X:X|.>X2XwXaX7XoX}.9XW.F.B.t.B./.,.^ F n z p P U 1 ; ; ",
": : : : 2 / S S V ` +.2.N.M.|.}.F..X+XOX9X9XoXOX6XW.).F.XX;XfX7X|.6X4X|.4XwXuXdXyXuXyX$XOXW.K.}.R.0.G.S.5.<.' ^ g c 2 U w ; : ; ",
"& : : : : g b D @.S F D 4.~.^.h.x.n.J.W.$X@X'.yX9XyXqXqX;XqXhX9XwXuXjXiXuXiXfXzXjXkXyX_.K.m.t.B.G.p.4.p.,.<.8.A a a - , : : : : ",
": : : : , 1 v k ;.2.` C ;.p.M.G.`.$X_._._.+XI.tXtX9XyXsXjXhX8XeX8X8XdXsX9X9XwXsX9XeX#X.X+X`.(.7.7.7.=.F S H V f i i : : : : : ; ",
": ; : : ; > J D v -.F G 1.p.~.A.|.oXm.Y.]._.J.`..X.X'.'.$XrXpXrXhXtX+X+X$X$XyX8X+X+X$X$XtXeX8XT.0...^ c j j k a i 2 : : : : : ; ",
": ; , : ; X * B S v z &.D %.1./.i.Z.T.Y.x.x.I.I.k.J.'.'. XoX@X.X9X#XeX$X9X8X.XK.oXyX6X@XrX|.F.z.6.' m j j j F j i : : : : : : & ",
": : : ; + @ o # 4 4 h c k x #.-.8.p.z.{.}.|.Y.F.P._._.eXoXQ._._.tX@XeX.X_.[.[.oXtX+XQ.[.(.T.g.,.<.A c V x j +.g , : : : : : : ; ",
": ; + @ # % 9 9 $ 5 5 C ( H V C *.1.B.f.u.K.[.;X|.9XfXrXQ.x.T.^.XXOXT.n.T.D.j.j.^.wX;X/./.0X<.' <.S V ) V j a , : : : : : : : ; ",
": & @ O % 9 y J r 7 u u k C A x C H :.6.p.u.m.T.T.|.}.9X6XG.h.Q.`.oX{.Q.G.F.~.S.t.!.:XN.N.2.,.7.F ^ &.A f 6 * ; : , : : : : : ; ",
"; + O # r y J y t 9 $ d k x f A C j j A 1.%.u.B.B.7X6X/.[.(.!.M.H.6X~.g.9.M.,XN.9./.S.1.&.&.,.&.%.F g f s $ O ; : , 1 1 1 : & : ",
"> o o 8 9 9 y t 8 t 8 $ u s a a z f z j b @.8.Z.j.G.4X<X,X!.g.9.A.p.8.C.~.,.,.<.<.=X<._ c ! &.$.G / d 4 @ O O + 1 M J L K t ; ; ",
"& o o 9 9 8 y y 9 9 9 o 7 s a x x g h z v #.@.8.5.` 0.4.p.U.B.<.1.%.q.=X2..._ $.F ` _ n m b =.-.a u 7 + + + O @ e L Y T T L t ; ",
"> . o # 9 9 9 9 8 9 9 o @ , * u x z n ) G j G C ( / ( ) #.-.-.) F A %.*.S ` ^ &.^ n n ( b s j g 5 X O O @ @ + + M U %X*X&XY N : ",
"> X o o 8 8 8 8 8 9 8   + : : , g j s a v v ;.v A C D +.*.u.u.;.D x C C k +.g v D f V s i u i 5 @ . o O o O + : N U %X*X&XT N : ",
"; + O   $ # % 8 9 9 O O + : : : : q i = 5 f f C H #.C V S G 4.;.H G x g j b d s g g x d = $ .   . . O O + ; : : e L T y.T U M : ",
": ; @ o O O o # % # O + : : , : : : : & 3 0 4 4 u V x C G C k V V @.G j x v g j 4 = 6 4 . X X + X * > > : : ; : : t L U K M , ; ",
"; : > O o       #   O > : : : : : : > , M l 2 = a f s V x D V h k s z D j x b b * + + ; & X ; ; : : : : : : : : : : 1 q 1 : : : ",
"; ; ; ; X X . @ X + & ; : : & : ; ; : > q w 1 ; & < 5 4 5 4 5 = = * = s * 2 < : ; ; ; & & & : ; : ; ; ; ; : : : : : : : : : : ; "
};
