/* XPM */
static char *result[] = {
/* columns rows colors chars-per-pixel */
"64 64 197 2 ",
"   c #000000",
".  c #090705",
"X  c #0B0A05",
"o  c #0B040C",
"O  c #0C0C0A",
"+  c #110E08",
"@  c #141107",
"#  c #14120C",
"$  c #1B150F",
"%  c #1C1B0D",
"&  c #150A16",
"*  c #1A0B1D",
"=  c #141313",
"-  c #1B1415",
";  c #1E1C12",
":  c #1E141B",
">  c #1D1C1C",
",  c #201904",
"<  c #211E0E",
"1  c #211D13",
"2  c #21151D",
"3  c #28161F",
"4  c #221A1A",
"5  c #1F2011",
"6  c #28220D",
"7  c #232115",
"8  c #2D2715",
"9  c #25231A",
"0  c #29251B",
"q  c #2C291D",
"w  c #352E12",
"e  c #393013",
"r  c #1D0C23",
"t  c #1F1122",
"y  c #210D26",
"u  c #220D29",
"i  c #221223",
"p  c #251B23",
"a  c #281F25",
"s  c #25122A",
"d  c #29162E",
"f  c #271A2A",
"g  c #2A192D",
"h  c #2B1730",
"j  c #2D1B31",
"k  c #252323",
"l  c #2B2522",
"z  c #2E2B21",
"x  c #2C212D",
"c  c #2C2B2B",
"v  c #312E23",
"b  c #32282A",
"n  c #353226",
"m  c #383327",
"M  c #363429",
"N  c #3A352C",
"B  c #3C3A2E",
"V  c #332335",
"C  c #352B33",
"Z  c #362539",
"A  c #382839",
"S  c #3B2C3D",
"D  c #363635",
"F  c #3B3732",
"G  c #3D3A33",
"H  c #3D333B",
"J  c #473B16",
"K  c #423C33",
"L  c #43373E",
"P  c #443D3B",
"I  c #5D460D",
"U  c #4D421A",
"Y  c #584B1D",
"T  c #654C13",
"R  c #434135",
"E  c #454239",
"W  c #4A463C",
"Q  c #4C493E",
"!  c #665824",
"~  c #6F613E",
"^  c #3E2F41",
"/  c #3E3242",
"(  c #423443",
")  c #463A44",
"_  c #493B46",
"`  c #463C49",
"'  c #4B3D4A",
"]  c #454342",
"[  c #4C4443",
"{  c #4D4A42",
"}  c #4C4A4D",
"|  c #524E44",
" . c #52474E",
".. c #56524A",
"X. c #554A53",
"o. c #554955",
"O. c #5A4D55",
"+. c #565656",
"@. c #5C5853",
"#. c #5D525B",
"$. c #5E5E5E",
"%. c #645A5B",
"&. c #665A5C",
"*. c #756949",
"=. c #7F7652",
"-. c #5E5562",
";. c #645B62",
":. c #685B65",
">. c #656565",
",. c #6E6565",
"<. c #6B6B6B",
"1. c #73696A",
"2. c #726E6C",
"3. c #75716E",
"4. c #746C73",
"5. c #777776",
"6. c #7B7678",
"7. c #826215",
"8. c #916E15",
"9. c #957115",
"0. c #9D7716",
"q. c #9F7917",
"w. c #A37C18",
"e. c #8F7C30",
"r. c #847C7A",
"t. c #AA8119",
"y. c #B5891B",
"u. c #998534",
"i. c #A58A38",
"p. c #AD9539",
"a. c #CB9A1F",
"s. c #D29F20",
"d. c #D6A221",
"f. c #DDA622",
"g. c #D7A938",
"h. c #E4AC24",
"j. c #EAB125",
"k. c #9A8551",
"l. c #A0894F",
"z. c #AF9842",
"x. c #AF934D",
"c. c #AA9359",
"v. c #B0995F",
"b. c #BBA25F",
"n. c #83827F",
"m. c #BCA66D",
"M. c #B2A173",
"N. c #B8A678",
"B. c #C3AF7C",
"V. c #C9B277",
"C. c #E6C574",
"Z. c #837F80",
"A. c #828181",
"S. c #8A8987",
"D. c #8A8A89",
"F. c #938A8A",
"G. c #928690",
"H. c #928C93",
"J. c #998F93",
"K. c #959494",
"L. c #999696",
"P. c #9A9999",
"I. c #A79C80",
"U. c #A59A95",
"Y. c #A49E9B",
"T. c #A8A198",
"R. c #A4A4A4",
"E. c #ABA8A8",
"W. c #B5ADA8",
"Q. c #B1AEAE",
"!. c #B6B2AC",
"~. c #AFAFB0",
"^. c #B3B0B0",
"/. c #BEBDBD",
"(. c #C6B589",
"). c #CAB88A",
"_. c #C1BCB8",
"`. c #D8C493",
"'. c #E0C481",
"]. c #EAD090",
"[. c #D8CBA8",
"{. c #C1C1BF",
"}. c #EFDCAC",
"|. c #C3C2C2",
" X c #CDCCCC",
".X c #D1CEC8",
"XX c #D8D3C6",
"oX c #D5D5D5",
"OX c #DBDBDB",
"+X c #E2D9C2",
"@X c #F6EACC",
"#X c #E2E2E2",
"$X c #EBEAEA",
"%X c #F2EDE2",
"&X c #F7F3E8",
"*X c #F3F3F3",
"=X c #FFFFFF",
/* pixels */
"y u u u u u u u u u u y u u y u u u u r r * 5.H.G.H.H.H.H.H.H.H.H.H.H.H.H.H.H.H.H.H.o.r u u u u u y u u y u u V L _ A y u u u u ",
"u u u y u u u u u u u u u u u u u s j x p > |.#X#X#X#XOXOX#X#X#X#X#XOX#X#X#X#X#XOX#X^.k a t : i u y 2 2 2 2 g L o.%.' s u u u u ",
"u u u u u s y y u u u u y y u r * }  XoXOXOX=X=X=X=X=X=X=X=X=X=X=X=X=X=X=X=X=X=X=X=X*XoXR.= 2 i u y 2 4 < 1 > 0 _ O.X.s u u u y ",
"u u u u s u u y u u u y y 3 1 3 c +.P.P.P.P.$X=X=X=X=X=X=X=X=X=X=X=X=X=X=X=X=X=X=X=X=X$X$X<.O.p 2 2 y y 2 1 % < < b A y u u u y ",
"u s g j d u u y 2 4 1 1 1 1 % F +.+.+.+.+.+.$X=X=X=X=X=X=X=X=X=X=X=X=X=X=X=X=X=X=X=X=X=X=XOXoXD # 1 ; ; 2 2 4 > 1 < 1 * u u u y ",
"g Z ( _ L g y 2 1 1 1 0 q z ; > k =         } +./.=X=X=X=X=X=X=X=X=X=X=X=X=X=X=X=X=X=X=X=X=X=X#X.X2.9 1 % 1 1 4 2 1 < 4 u u y y ",
"V _ O.O.X.L y 1 7 m G E Q E l k k =         k c 5.E.|.=X=X=X=X=X=X=X=X=X=X=X=X=X=X=X=X=X=X=X=X#XOXD.z B N q 7 1 2 2 2 3 y u u y ",
"V ' O.O.O._ y 1 8 P P W Q F > 5 l =             D +.A.=X=X=X=X=X=X=X=X=X=X=X=X=X=X=X=X=X=X=X=X#XOXD.O 7 q m q % 1 1 3 u u u u y ",
"Z _ O.O.O.( p 1 7 z n B R M k = O                   = +.+.=X=X=X=X=X=X=X=X=X=X=X=X=X=X=X=X=X=X=X=X*XoXT.; < 1 1 1 < 4 y u y u y ",
"j A _ ' _ V y 4 1 1 5 q n k 5 O .                   O D D /.|.*X=X=X=X=X=X=X=X=X=X=X=X=X=X=X=X=X=X*XOX{.; % 7 % ; 1 1 p A Z d y ",
"y g V Z h u u y y 3 2 2 > 5 t O                           +.+.oX=X=X=X=X=X=X=X=X=X=X=X=X=X=X=X=X=X*XOX|.3 z 1 1 1 ; % 0 _ _ S s ",
"u y u u u u u y i y y u t t > O                           +.+.oX=X=X=X=X=X=X=X=X=X=X=X=X=X=X=X=X=X$XOX|.4 [ 3.@.q 1 7 7 L ' ^ s ",
"u y u u u r u > 5 5 > > t t 5 O                           +.+.oX=X=X=X=X=X=X=X=X=X=X=X=X=X=X=X=X=X*XoX|.> < 7 { ,.X.b V ( ) Z s ",
"u u u u s y i 1 5 0 B M > > > o                           +.+.oX=X=X=X=X=X=X=X=X=X=X=X=X=X=X=X=X=X*XOX|.% 1 < 1 #.:.S d V V h r ",
"u y u u r s 2 ; n E Q Q E > > .                           +.+.oX=X=X=X=X=X=X=X=X=X=X=X=X=X=X=X=X=X*XOX|.; ; 5 l &.%.j u u u r u ",
"u y u u g s 1 7 N G Q | ] > > .     @ @                   +.+.oX=X=X=X=X=X=X=X=X=X=X=X=X=X=X=X=X=X*XOX|.7 7 4 P o.^ u u s u u r ",
"u u u V ( L % 0 E Q | | E 5 5 o   % U J                   +.+.oX=X=X=X=X=X=X=X=X=X=X=X=X=X=X=X=X=X*XoX|.1 1 a l k V V f y u y y ",
"u y g A &. .7 N { Q | | E k > @ X J u.e.w w .             +.+.oX=X=X=X=X=X=X=X=X=X=X=X=X=X=X=X=X=X*XOX|.- 4 1 ; < 0 H Z s u u y ",
"u y s k P { 8 K { Q Q ..{ > > % , Y p.i.J U .             +.+.oX=X=X=X=X=X=X=X=X=X=X=X=X=X=X=X=X=X*XOX|.4 > 7 ; 1 1 l H g u u y ",
"r u 2 7 7 P 0 B { | | | { k > 8 w Y u.e.U U .             +.+.oX=X=X=X=X=X=X=X=X=X=X=X=X=X=X=X=X=X*XOX|.; % ; 7 9 4 1 0 d u u y ",
"u y i > 4 k 3 q B R E E B > > O . 6 U U i.z.e e @   # ] ] oXoX*X=X=X=X=X=X=X=X=X=X=X=X=X=X=X=X=X=X*XOX{.5 5 % 7 N N 7 1 2 i u y ",
"u y y s i 2 u 2 : 9 0 0 0 > > .   X 6 w z.z.! Y 7 O k <.<.=X=X=X=X=X=X=X=X=X=X=X=X=X=X=X=X=X=X*X=XOX{.D.% 1 7 7 K K m 7 1 2 u y ",
"u y u u u u u u r s s g i t o = > O   . 6 6 z.b.=.+.6.=X=X=X=X=X=X=X=X=X=X=X=X=X=X=X=X=X=X=X=X#X X<.# % 7 7 ; 7 K K m v 1 1 y y ",
"y y s u u u u i i x  .1.;.V & = > #   X 6 6 *.=.T.|. X=X=X=X=X=X=X=X=X=X=X=X=X=X=X=X=X=X=X$X$X2.G 9 5 0 n 7 % 0 N v m v 9 1 2 y ",
"u y u u u y i 1 1 0 P U.J.1.s > k 5 O = 8 q >.<. X=X=X=X=X=X=X=X=X=X=X=X=X=X=X=X=X=X=X=X*X/.L.N 1 1 7 q q 7 1 0 v v q 0 7 1 y y ",
"u r u u i 2 1 1 7 v 2.XXW.F.L H +.+.+.+.+.+.$X=X=X=X=X=X=X=X=X=X=X=X=X=X=X=X=X=X=X=X*XOXoXX - - 4 1 1 % 7 1 % 1 1 1 1 ; 1 2 y y ",
"u y u y 2 1 7 q 9 7 !.[.@.K b k c +.K.P.P.P.*X=X=X=X=X=X=X=X=X=X=X=X=X=X=X=X`.(.).).(.m.M.X % : 2 4 2 4 4 4 > 1 4 1 2 2 y u y y ",
"u y u y 4 1 v q 5 Q Q...9 7 p > = +.OXOXOXoX=X=X=X=X=X=X=X=X=X=X=X=X=X=X=X=Xi.9.9.9.9.9.9.. # % < 2 2 i s 3 i t i y y u u u y r ",
"u r u y 2 1 9 7 9 3.@.q B q : : 5 ] Q./.=X=X#XOXOXOXOXOXOXOXOXOXOXOXOX.X8.8.s.d.h.j.h.d.f.9.9.6 ; 2 4 1 1 1 1 ; 1 1 1 2 i u u y ",
"u y u u 2 ; 5 1 2 C 0 m R 8 t t = ] Q./.=X=XOXOX#X$X$X$X$X*X$X$X$XXXM.m.y.y.s.d.h.j.h.d.d.y.y.T J < 1 < 1 9 0 0 7 7 1 ; 1 i y y ",
"u y u u 2 1 ; t i 9 n R N 7 r r o ] ^./.=X=X#XOX*X=X=X=X=X=X=X=X=X[.9.0.d.d.d.d.h.j.h.d.d.d.d.w.8.J ; 1 q m N v m v v 0 < 2 f s ",
"u y u u s 2 2 i 4 v B R q : & 4.~. X=X=X=X=X<.+.+.+.A.=X=X=X=X=X=X[.9.q.j.j.j.j.f.d.f.j.j.j.j.t.9.I $ 1 v m G B N m m m 1 4 L Z ",
"u i u y i 2 1 4 q n N l 2 ] ] E. XOX=X=X=X=XK.D.>.+.A.=X=X=X=X=X=X+Xm.b.a.a.h.j.f.d.f.j.j.a.a.z.l.*.{ N ; 1 0 q z v v v 7 7 ) _ ",
"u y u u 2 1 ; 1 7 4 2 : & Q.^.$X=X=X=X=X=X=X#XOXA.+.A.=X=X=X=X=X=X=X=X%X9.9.h.j.f.d.f.j.j.8.9.U.Q.^.^.K.O ; 1 1 1 1 1 1 1 1 ( A ",
"u y u u i i 2 2 2 i r * o Q.^.$X=X=X=X=X#XOXOXOXD.+.6.=X=X=X=X=X=X=X=X=X%X%Xi.w.0.0.0.w.w.%X%X&X*X*X*X$XL.6.i 2 2 2 2 2 2 i g u ",
"u y u u u i y 2 b K W ] ] K.K.#X=X=X=X=XOXOXOXOXD.+.A.=X=X=X=X=X=X=X=X=X=X=XB.m.c.l.c.m.m.=X=X=X=X=X=X=X X XO.( f u y y s u u u ",
"u u y u u y - + 2.~.~.^.^.$.$.OX=X=X=X=XOXOXOXOXS.+.A.=X=X=X=X=X=X=X=X=X=X=X=X=X XQ.|.=X=X=X=X=X=X=X=X=X=X=X/.E. .2 i y u s u u ",
"r u u u u y 4.P.oX*X*X*X*X$.$.oX=X#X/._.OXOX5.>.$.+.A.=X=X=X=X=X=X=X=X=X=X=X=X=X=X*X#X_./././.*X=X=X=X=X=X=X/.^...< 1 2 y y u y ",
"u y u u y r 4.A.|.$X$XoXoX$.>.|.$X XA.D.OXOXA.A.6.A.P.=X=X=X=X=X=X=X=X=X=X=X=X=X=X=X*X|._.|.|.#X$X*X=X=X=X=X/.Q.@.0 < 1 1 2 u y ",
"u y u u y y & . 5.^.P.&.$.$.$.P.Q.4.  > OXOX=X=X=X=X=X=X=X=X=X=X=X=X=X=X=X=X=X=X=X=X=X=X=X=X=X|.^. X=X=X=X=X/.Q.@.M n 4 1 2 y y ",
"u y u u s u i - N [ Q D G K B F F -   > oXOXH.A.A.A.R.=X=X=X=X=X=X=X=X=X=X=X=X=X=X=X=X=X=X=X=X|.^. X=X=X=X=X/.Q.@.v m n 7 4 i r ",
"u y u u u u y > < 1 7 0 q q 0 ; $ : D +.#X$XS.A.A.6.P.=X=X=X=X=X=X=X=X=X=X=X=X=X=X=X=X=X=X=X=XoX|.oXoXoXoXOXD.n.K v n n 1 1 r u ",
"u u u u s u y y : > < 1 ; 1 ; 1 > -.#X#X=X=X=X=X=X=X=X=X=X=X=X=X=X=X=X=X=X=X=X=X=X=X=X=X=X=X=X=X=X|.$.$.$.$.O O 1 q z 7 1 2 y y ",
"u r u u u u u u s y i y i 2 y y r ( 5.5.A.A.6.A. X=X=X=X=X=X=X=X=X=X=X=X=X=X=X=X=X=X=X=X=X=X=XoX|.|.oX X$.$.= % ; < ; 7 v y u y ",
"u i u u u i 1 4 4 4 2 2 t i i u r ^ >.>.>.<.+.+.^.$X*X=X=X=X=X=X=X=X=X=X=X=X=X=X=X=X=X=X=X=X=X|.^. X=X$X<.&.D ,.%.%.%.r.G.j u y ",
"u y u u u i 4 ; 1 1 q n q 1 > 2 u -.oX#X=X=X<.+.+.+.A.=X=X=X=X=X=X=X=X=X=X=X=X=X=X=X=X=X=X=X=X|.^.oX=X*XQ.n./ J.W._._.Q.G.g u y ",
"u u s u u u 2 ; q K E R R q ; ; 4 x } >.$X$X X/.A.+.$.K.K.K.L.$X=X=X=X=X=X=X=X=X=X=XOXL.K.K.K.A.6.P. X/.P c 6 7 Q Y.W.Y.:.u u y ",
"u r u y u u L 7 1 B Q Q Q R N 9 1 > r k OXOX*X=XR.<.<.<.<.+.+./.$X$X$X#X$X$X$X#X$X$X X+.+.<.<.>.>.5.L.2.9 q 7 1 1 P J.4.Z u y y ",
"u y u u u j ' &.q 0 m P E K K N 7 1 i x OXOX=X=X=X=X=X=X=X+.+.+.+.+.+.+.+.+.+.+.+.+.+.+.+.=X=X$XOXD.0 m N K z ; 1 2 A h u u u r ",
"u u u u u g ' :.2.v 1 7 q K K P v 1 2 x .XOX'.C.C.C.C.C.C.{.{.{.|./.|.|.|.|././.{.{.|.{.|.=X=X#XOXD.v N K K 0 ; 1 i u s u u u u ",
"u y u u y s ( _  .' z < 1 1 m K K z 1 x |.#Xg.d.d.s.d.d.d.=X=X=X=X=X=X=X=X=X=X=X=X=X=X=X=X=X=X#XOXD.v K K v 7 > i u u u u u u r ",
"u y u u s y f H _ _ A i 4 1 7 m K B 9 3 7.9.a.d.}.=X@Xd.d.d.d.@X=X*XOXOXOXoX=X=XC.d.d.d.d.d.d.[.OXA.q v q 1 1 : u s u u u u u u ",
"u y u i 2 4 5 7 p p s u i 4 1 1 v z 9 3 7.9.'.].@X=X&X].].d.d.V.(.I.<.<.<.<.(.).`.].].].].].].B.N.*.% 7 ; 1 i u u u u u u u u r ",
"u y y 1 7 0 n n 7 ; 2 f j g p 1 5 4 ; $ 8.9.%X=X=X=X=X=X=Xd.d.w.9.I         7.9.[.=X=X=X=X=X=Xx.9.I O - : i t i u u y u u u u y ",
"u r 1 ; v N | | G 7 ; 4 S ( A p 2 E /.OX=X=X=X=X=X=X=X=X=X=X=Xx.9.I         |.OX*X=X=X=X=X=X=X=X=X[.8.T > 1 i u u s u u u u u y ",
"y 2 1 9 N R | W K N 7 4 H ' ' j t #.oXOX=X=X=X=X=X=X=X=X=X=X=X(.v.~         P.E.^./././.{.{.{.*X=X+Xv.k.% ; 1 y u s h j d u r u ",
"i 1 5 n B n R K m B v 1 v ' _ j r -.oX#X=X=X=X=X=X=X=X=X=X=X=X#XOXD.        } +.+.+.+.+.+.+.+.oX=X*XOX|.$ ; < 2 g ( O.%.O.L y y ",
"y % 1 n B n R R M M N 7 l ( A u r c >.>.<.<.<.<.<.<.L.=X=X=X=X#XOXD.  > /.|.#X$X$X$X$X$X$X+.+.$.<.<.>.&.* 2 1 2 S #.1.r.r.%.L y ",
"y ; 5 7 v n B N v m N 1 2 d u ( X.<.K.L.K.L.K.K.<.+.<././.|.|.K.D.+.  > OXOX=X=X=X=X=X=X=XK.K.K.K.H.S.5.; 1 3 3 _ &.F.U.U.1._ y ",
"y > 5 6 q n v v n M v ; 2 u r P.OX$X=X=X=X=X=X=XK.+.+.+.+.+.{ > ; ; - f |.oX=X=X=X=X=X=X=X=X=X=X=X*XoX/.; 1 3 y _ ,.J.T.U.r._ y ",
"y 4 < 1 7 0 0 v B B 4 1 2 u r R.OX#X=X=X=X=X=X=X*X$X#X X XO ; ; 1 1 y y x 4 |.#X#X#X#X#X#X#XOX#XOXP.t c 3 y y u L &.r.Z.r.&.L u ",
"u y 4 < 1 1 % 1 0 7 1 2 u u r 4.R./.*X*X*X*X*X*X*X*X*XOXOX# ; ; 4 y y u r = A.R.E.R.R.R.R.R.E.R.R.>.& t u u y u u L O.&.O._ s y ",
"y u r 1 < % 1 % % % 4 : u r u r o +.OXOXOXOXOXOXOXOXOXOXoX& : i i y u y u u : : : : : t : r r r r r r u u u u u u u h V h u u u ",
"y y y y 4 > 1 > 2 2 r u u u u r r V ` ' o.#.o.` ] ` ` ` / u r u u r u y y u u r r y y r u r u u u u r u y y u u u u u u u u u y "
};
