/* XPM */
static char *result[] = {
/* columns rows colors chars-per-pixel */
"64 64 205 2 ",
"   c #000000",
".  c #0B0A06",
"X  c #08040A",
"o  c #0C0C0A",
"O  c #110C06",
"+  c #141107",
"@  c #1B1606",
"#  c #15130D",
"$  c #1C1B0F",
"%  c #0E0510",
"&  c #120716",
"*  c #1A0C1C",
"=  c #151514",
"-  c #181412",
";  c #1E1C13",
":  c #1E141C",
">  c #1D1B1B",
",  c #221E0E",
"<  c #201717",
"1  c #211D14",
"2  c #21151D",
"3  c #221A1A",
"4  c #1F2010",
"5  c #26210D",
"6  c #2B250E",
"7  c #232215",
"8  c #252319",
"9  c #29251B",
"0  c #2C291D",
"q  c #362B14",
"w  c #3B3314",
"e  c #1E0D23",
"r  c #1F1122",
"t  c #210D26",
"y  c #220D29",
"u  c #221223",
"i  c #241B23",
"p  c #281E23",
"a  c #25122A",
"s  c #29172E",
"d  c #261929",
"f  c #2A1A2E",
"g  c #2B1730",
"h  c #2C1B31",
"j  c #262221",
"k  c #2B2422",
"l  c #2E2B22",
"z  c #2B242A",
"x  c #2D2B2C",
"c  c #322D23",
"v  c #312E29",
"b  c #353226",
"n  c #383327",
"m  c #363329",
"M  c #3A362C",
"N  c #3C3A2D",
"B  c #2F2131",
"V  c #332335",
"C  c #342A32",
"Z  c #362539",
"A  c #382839",
"S  c #3B2C3C",
"D  c #353433",
"F  c #3D3A32",
"G  c #3D313B",
"H  c #3B3A38",
"J  c #4C3A0D",
"K  c #473C18",
"L  c #463825",
"P  c #423C33",
"I  c #43373E",
"U  c #433D3B",
"Y  c #4D421A",
"T  c #5B4918",
"R  c #6C4E18",
"E  c #755812",
"W  c #434134",
"Q  c #46423C",
"!  c #4A463B",
"~  c #4C493F",
"^  c #79692A",
"/  c #3E2F41",
"(  c #402F43",
")  c #423342",
"_  c #463944",
"`  c #493B46",
"'  c #453748",
"]  c #4C3E4A",
"[  c #4C4543",
"{  c #4D4A42",
"}  c #4C4C4C",
"|  c #524E44",
" . c #53474E",
".. c #5D584F",
"X. c #574A53",
"o. c #5A4D55",
"O. c #584B58",
"+. c #565656",
"@. c #5B5456",
"#. c #5E515B",
"$. c #5E5E5D",
"%. c #645A5A",
"&. c #645B5D",
"*. c #646059",
"=. c #5D5261",
"-. c #665B63",
";. c #656464",
":. c #6C6566",
">. c #6C6C6C",
",. c #746B6B",
"<. c #71706E",
"1. c #79726D",
"2. c #6F6C71",
"3. c #736A75",
"4. c #766B79",
"5. c #767575",
"6. c #7D7577",
"7. c #7D7D7D",
"8. c #856512",
"9. c #916E15",
"0. c #957115",
"q. c #9D7716",
"w. c #A37C18",
"e. c #8D7A2F",
"r. c #9C7C2C",
"t. c #93793A",
"y. c #837C7B",
"u. c #AC8219",
"i. c #B4891B",
"p. c #9A8336",
"a. c #B8902C",
"s. c #A28332",
"d. c #A38E3D",
"f. c #B1953C",
"g. c #CC9B1F",
"h. c #D29F20",
"j. c #D6A221",
"k. c #DCA724",
"l. c #DBAD3D",
"z. c #E3AC24",
"x. c #EAB125",
"c. c #8C8050",
"v. c #AE9149",
"b. c #AF954F",
"n. c #A49062",
"m. c #B8A26D",
"M. c #C2A94A",
"N. c #E0B958",
"B. c #E5C574",
"V. c #807A82",
"C. c #818181",
"Z. c #88848B",
"A. c #8B8A8B",
"S. c #948989",
"D. c #978C93",
"F. c #959495",
"G. c #9A9595",
"H. c #9B9A9A",
"J. c #A99E82",
"K. c #A59A95",
"L. c #A49D9B",
"P. c #A9A39D",
"I. c #B8AE95",
"U. c #A4A3A3",
"Y. c #A8A5A6",
"T. c #AAAAAA",
"R. c #ADA8A9",
"E. c #B5ADA7",
"W. c #B2AEAE",
"Q. c #B6B2AB",
"!. c #B3B1B1",
"~. c #B9B6B7",
"^. c #BEBDBD",
"/. c #CAB88A",
"(. c #D7BD80",
"). c #C2B593",
"_. c #C1BAB4",
"`. c #D9C79A",
"'. c #EAD296",
"]. c #D7C9A7",
"[. c #CFC9BB",
"{. c #D4CDB9",
"}. c #EFDCAC",
"|. c #F2E2BA",
" X c #C0BFC0",
".X c #C4C2C3",
"XX c #C9C7C9",
"oX c #CDCCCC",
"OX c #D2CEC2",
"+X c #D9D4C7",
"@X c #D5D5D5",
"#X c #D9D7D7",
"$X c #DBDBDB",
"%X c #E3DBC6",
"&X c #E2DED7",
"*X c #EDE1C6",
"=X c #F5E8C7",
"-X c #EDE6D8",
";X c #E1E1E1",
":X c #EBEBEB",
">X c #F2EDE2",
",X c #FAF3E3",
"<X c #F4F4F4",
"1X c #FCF9F1",
"2X c #FFFFFF",
/* pixels */
"t y y y y y y y y y y y y y y t y y y t e O.4.V.4.4.4.4.3.4.3.3.3.3.4.4.4.4.4.4.4.3.h e e y e y y y y y y y a V ( ` Z t y y y y ",
"y t y y y y y y y y y t y y y y y y e f i Y.$X;X;X;X;X;X;X;X;X;X;X$X$X;X$X;X;X;X;X$X+.i z z z e e a : 2 2 2 d I O.&.] a t y y y ",
"y t y y y a t y y y y y y t y u u e d XX$X<X2X2X2X2X2X2X2X2X2X2X2X2X2X2X2X2X2X2X2X2X;X$X@X@X~.% e t r < , ; < 9 I #. .s y y y t ",
"y y y y y y y y y y y t t u 2 , D :.C.:X:X2X2X2X2X2X2X2X2X2X2X2X2X2X2X2X2X2X2X2X2X2X!.H.F.H.A.x z i t i 3 1 ; , , v A y y y y t ",
"y a g g s t y u 2 > 1 ; , 1 $ O 5.$X$X2X2X2X2X2X2X2X2X2X2X2X2X2X2X2X2X2X2X2X2X2X2X2XC.+.+.+.+.+.} 3 ; ; : i 3 > 3 , , u y y y t ",
"s A _ ` ) s t 3 1 1 7 9 0 8 P.#X:X2X2X2X2X2X2X2X2X2X2X2X2X2X2X2X2X2X2X2X2X2X2X:X+.+.=         > > - 7 ; , ; 1 < 3 < , < y y t t ",
"V I o.o.X.I t 3 8 n F ! Q 8 ^.$X:X2X2X2X2X2X2X2X2X2X2X2X2X2X2X2X2X2X2X2X2X@XT.H.x x X       X j > = c N n 0 4 1 < 3 3 u t y y t ",
"Z ] o.o.o._ u 1 9 P P Q b X  X$X:X2X2X2X2X2X2X2X2X2X2X2X2X2X2X2X2X2X2X2X2XT.+.}               > > o # 9 l b l $ 1 2 2 y y y y t ",
"Z _ o.o.o.) i 3 7 l c U ~. X<X2X2X2X2X2X2X2X2X2X2X2X2X2X2X2X2X2X2X2X2XA.>.H o o                 X = > ; 1 , 1 7 , , 3 t t t y t ",
"h S _ ] _ V t 3 1 1 1 m #X$X1X2X2X2X2X2X2X2X2X2X2X2X2X2X2X2X2X2X<X^.^.$.D >                       = > ; ; ; $ $ 1 1 1 p A Z f t ",
"y g Z V h y y t t 2 2 v $X$X2X2X2X2X2X2X2X2X2X2X2X2X2X2X2X2X2X2X:X+.+.=                           = 3 > 3 l 1 1 1 1 $ 9 ] ` S a ",
"y t y y y y y t u t t V $X$X<X2X2X2X2X2X2X2X2X2X2X2X2X2X2X2X2X2X:X+.+.=                           = > > 3 [ 1...0 1 ; 7 I ` / a ",
"y t y y y y u > ; ; ; x $X$X2X2X2X2X2X2X2X2X2X2X2X2X2X2X2X2X2X2X:X+.+.=                           = > > ; ; 7 { :.X.C V ) ' A a ",
"y t t y t t u ; ; 0 M H $X$X<X2X2X2X2X2X2X2X2X2X2X2X2X2X2X2X2X2X:X+.+.=                           = > > , 1 1 1 @.-.A g V B h e ",
"y t y y y a 2 ; b W ! [ $X$X2X2X2X2X2X2X2X2X2X2X2X2X2X2X2X2X2X2X:X+.+.=                           = > > 1 1 1 k -.%.h y y y e y ",
"y t y y f u ; 7 F P ! } $X$X1X2X2X2X2X2X2X2X2X2X2X2X2X2X2X2X2X2X:X+.+.=                 . O +     = > 8 7 ; 8 U X.( y y y y y e ",
"y y y V ) I 1 9 U ~ ~ ~ $X$X2X2X2X2X2X2X2X2X2X2X2X2X2X2X2X2X2X2X:X+.+.=                 , Y K     = > > ; < k l p V V s t y y t ",
"y t g S &.[ 7 M { ~ { [ $X$X<X2X2X2X2X2X2X2X2X2X2X2X2X2X2X2X2X2X:X+.+.=             5 6 T p.^ O . ; > > 3 : ; ; ; 8 G A s e y t ",
"y t u 9 U { 9 P { { ! Q $X$X1X2X2X2X2X2X2X2X2X2X2X2X2X2X2X2X2X2X:X+.+.=             6 Y ^ f.p.@ @ ; > > ; 3 4 1 1 ; k G f y t t ",
"y t u 7 8 U 9 N { | { H $X$X2X2X2X2X2X2X2X2X2X2X2X2X2X2X2X2X2X2X:X+.+.=             w Y ^ p.e.w q > > > 3 4 ; 1 9 8 1 8 s y y t ",
"t t u 3 1 p i 9 N W W m $X$X2X2X2X2X2X2X2X2X2X2X2X2X2X2X2X2X2X2X<X X X+.D >     6 5 ^ p.^ Y Y + + ; > > ; 4 4 7 N M 7 ; 2 u y t ",
"y t t a 2 2 t u 3 3 9 v #X$X<X2X2X2X2X2X2X2X2X2X2X2X2X2X2X2X2X2X2X2X2XC.+.x   . Y Y d.M.^ 6 5     = > ; 4 ; ; 7 P P b 7 1 2 y t ",
"y t y y y a y a y y u u & X ^.#X:X2X2X2X2X2X2X2X2X2X2X2X2X2X2X2X2X2X2X2X2XT.+.*.M.M.Y 7 +   X = = X o ; 7 ; 4 8 P L n c 7 < t e ",
"y t y y y y t t u z  .3.-.B -.,.T.:X:X2X2X2X2X2X2X2X2X2X2X2X2X2X2X2X2X2X2X@XT.U.c.c.K 6 +     > > # $ 7 c 7 4 9 M m n b 7 1 u t ",
"y t t y y t u 3 1 9 W L.D.,.V * | W.$X2X2X2X2X2X2X2X2X2X2X2X2X2X2X2X2X2X2X2X2X:X+.+.b 5 +   X > > ; 1 0 l 7 1 9 c c 0 9 7 ; u t ",
"y t y y u 2 1 1 6 l ,.+XE.S.' u 7 > j $X$X<X2X2X2X2X2X2X2X2X2X2X2X2X2X2X2X2X2X2X2X2XC.+.+.+.+.} U 3 1 1 7 1 ; 1 1 ; 1 ; 1 2 t t ",
"y t y t 2 1 7 9 8 7 Q.{...P C < l M l ).).`.].].].{.2X2X2X2X2X2X2X2X2X2X2X2X2X2X2X2XY.Z.A.A.5.D k > 3 < < < 3 ; 3 3 : : u y y e ",
"y t y t 3 1 c c 7 ! Q.| 8 8 3 3 c 0 @ 0.0.0.0.0.q.p.2X2X2X2X2X2X2X2X2X2X2X2X2X2X2X2X;X$X$X$X[.. $ 2 u u d 2 : u u t t y y y t t ",
"y e y t 3 1 7 1 8 ,...0 N 0 t : w E 8.h.h.k.z.j.g.g.s.s.{.-X$X;X;X;X;X$X;X;X;X;X;X;X<X2X@X~.U.= ; 2 1 1 1 1 ; 1 1 1 < 2 t t y t ",
"y t y t 2 ; ; ; 2 D 9 M W 8 3 J E u.i.j.j.z.x.k.h.h.u.u.m.I.{.:X:X;X:X:X:X;X:X;X$X$X<X2X@XW.H.= 2 < 1 1 7 8 8 8 7 7 5 ; < i t t ",
"y t y y i ; < r u 8 n W M ; R 9.i.j.j.j.j.z.x.z.j.j.j.k.w.0./.2X2X2X2X2X2X2X2X2X$X$X<X2X@X!.H.% = 5 ; 1 l n M b m b c 9 1 3 s y ",
"y t y y u 2 2 i 3 0 N W 0 # E 0.i.x.z.z.z.k.k.z.z.z.z.z.u.0./.2X2X2X2X2X2X X7.7.7.5.$X2X<X:X@Xn.-.9 $ 8 c n N M m n n n 8 1 G Z ",
"t t a y u < 1 < 0 b b k m x t.t.a.h.h.x.z.k.h.z.x.x.h.h.v.b.].2X2X2X2X2X2XT.+.+.5.5.$X2X2X2X<X.X_.+.m 9 ; 3 9 0 0 b c c 7 1 _ ' ",
"y t y y 3 1 1 1 7 3 - 3 Y.!.Q.!.n.0.w.x.x.k.j.k.x.k.q.0.%X2X2X2X2X2X2X2X2XT.+.;.$X$X<X2X2X2X2X2X2X.XT.&.; ; 1 1 1 ; 1 1 1 7 I S ",
"y t y y u u 2 u 2 S 2.y.;X;X;X;X%X].`.u.i.i.u.i.i.a.].].,X2X2X2X2X2X2X2X2XT.+.>.$X$X;X:X<X2X2X2X2X.X!.3.* t u r 3 2 3 2 3 u s y ",
"y t y y y t u p j :.^..X2X2X2X2X2X2X>Xs.s.r.r.r.s.b.2X2X2X2X2X2X2X2X2X2X2XT.+.;.$X$X$X$X:X2X2X2X2X~.Y.5.> d f h e y y t y y y y ",
"y t t y y y i <.T.#X2X2X2X2X2X2X2X2X2X2X2X.X!.@X2X2X2X2X2X2X2X2X2X2X2X2X2XT.+.;.$X#X$X$X:X2X2X2X2XZ.$.C.W.W.T.L.x * u t y a y y ",
"e y y y y y * H.!.#X2X2X2X2X2X2X;XoXoXoXoX-X;X<X2X2X2X2X2X2X2X2X2X2X2X2X2XT.+.$.A.A.oX$X@XoX@X2X2XZ.$.A.;X-X;X;XS.*.1 3 t y y t ",
"y u y y y y : H.!.#X2X2X2X2X2X2X#X!.!.!.W.:X2X2X2X2X2X2X2X2X2X2X2X2X2X2X2XT.+.+.+.+.^.$X.X!.^.2X2XA.$.H.2X2X2X2X.XY.1 1 < 2 t t ",
"y t y y y y : L.!.#X2X2X2X2X^.W.#X2X2X2X2X2X2X2X2X2X2X2X2X2X2X2X2X2X2X2X2X2X2X2X2X2X;X$X>.  = !.W.<.$.$.$.>.T.W.m - c 9 1 2 t t ",
"y y y y y y u H.W.@X2X2X2X2X^.!.#X2X2X2X2X2X2X2X2X2X2X2X2X2X2X2X2X2X2X2X2X@XT.T.T.T.oX$X>.  o $.$.Q D D H H *.*.m l n b 7 3 u e ",
"y t y y y y t G.W.$X2X2X2X2X~.!.#X2X2X2X2X2X2X2X2X2X2X2X2X2X2X2X2X2X2X2X2XT.+.+.+.+.^.$X>.    o $ $ $ ; ; 1 1 8 l l b c 7 ; e y ",
"y y y y y y t & X x $.$.$.$.:X2X2X2X2X2X2X2X2X2X2X2X2X2X2X2X2X2X2X2X2X2X2X2X2X2X2X2X2X2X:X$X X* e s z 3 1 4 4 4 8 0 l 7 1 2 t t ",
"e y y y y y y t % D $.>.H.H.$X;X<X2X2X2X2X2X2X2X2X2X2X2X2X2X2X2X2X2X2X2X2X2X2X<X^. X X^.!.T.H.= 2 u y y e 3 < 1 $ , ; 7 c t y t ",
"y t a y a t < ; - m =.<.2X2X^.!.#X2X2X2X2X2X2X2X2X2X2X2X2X2X2X2X2X2X2X2X2X2X2X:X+.+.+.+.+.+.} ; ; 1 3 r y t ] 6.%.%.%.y.S.g y e ",
"y t y y y u 3 ; # +.T.W.2X2X~.!.#X2X2X2X2X2X2X2X2X2X2X2X2X2X2X2X2X2X2X2X2X~.>.>.+.+.XX:X$XoXT.9 8 ; 1 1 < 2 _ G.Q._._.E.D.s y y ",
"e y y y y a 3 ; 8 } 3.C.;X;XH.A.Y. X X X X<X2X2X2X2X2X2X2X2X2X2X<X^. X X^.A.+.$.F.F.@X<X^.A.<.0 c c 9 7 1 , 7 1 ~ K.R.Y.-.y y y ",
"y t y y t a G 8 7 b 9 8 R.W.;.+.+.+.+.+.+.@X2X2X2X2X2X2X2X2X2X2X:X+.+.+.+.+.+.>.2X2X;X$X>.# ; 0 m n b b c 0 8 1 5 U D.4.Z y y e ",
"y e y y y h ] *.l 9 l m U D U.~.XX@XoX+.+.5.7.C.C.C.7.C.C.C.7.C.5.+.+.~.@X@X@X;X2X2X;X$X-.; 7 0 c c b b M P l ; 1 3 A g y y y e ",
"y y y y y h ` -.,.c , 1 9 <  X$X:X2X:XC.C.C.C.C.C.C.C.C.C.C.C.C.C.C.C.{.=X=X=X=X=X=X&X$X=.; 5 8 c c n M P P k ; 1 u y a y y y y ",
"y y y y y a / ]  .] l 1 ; $ ^.$X:X2X2X2X2X2X2X2X2X2X2X2X2X2X2X2X2X2X2XN.j.j.j.j.j.j.].$XO.r < ; 7 c n P P c 4 : u y y y y y y e ",
"y u y y a r f G ` _ A a ; # ~.$X`.N.N.N.N.N.N.}.2X2X;X;X;X;X<X2X1XN.N.k.j.B.=X|.j.j.d.v.L r : 3 ; 7 l c 0 , 1 i y y y y y y y y ",
"y y y t 2 < 5 7 3 i a y e o E.OX(.l.l.l.l.l.l.'.>X-X X X X X+X>X*Xj.j.l.l.'.2X,Xl.l.w.0.J : y u < ; , 7 ; < r u y t y y y y y e ",
"y t i < 8 9 b b 8 1 3 u r X 8.0./.2X2X2X2X2X2X/.0.8.        J 0.q.j.j.=X2X2X2X2X2X2Xb.0.Y ; r t t 2 3 2 2 2 u t y y y y y y y y ",
"y e < $ 0 N | | P 8 1 3 T T ).].*X2X2X2X2X2X2X+XI.J.        J 0.r.}.}.,X2X2X2X2X2X2X%X].P.A.<.r y t u 3 ; 1 i y y a y y y y y e ",
"t 2 1 8 N W ~ ~ F M 5 , r.r.>X2X<X:X:X:X;X:X:X$XoXW.        K r.v.2X2X2X2X2X2X2X2X2X2X2X<X$X_.= 2 y 2 3 1 ; < e y a g f s y y y ",
"t ; ; b N b W P b F l l $X$X<X2XT.+.+.+.+.+.+.+.+.}         >.$X$X2X2X2X2X2X2X2X2X2X2X2X:X$X.X+ 1 < 2 3 < , , t f )  .%.o.I t t ",
"t ; 4 b N b W W b M m > H.H.T.T.C.+.;.T.T.T.T.T.T.U.>.>.>   >.$X$X2X2X2X2X@XT.T.T.T.T.T.U.H.C.. 1 3 < 3 2 2 < 6 S #.,.y.y.%.I t ",
"t ; 4 7 b b M M c b n - +.+.+.+.+.+.>.2X2X2X2X2X2X1X$X$XD   <.$X;X2X2X2X2XT.+.+.+.+.+.+.+.+.} X + ; 1 1 < 3 2 2 _ &.S.K.S.y.` t ",
"t ; 4 5 b 0 b c c M c k $X$X<X2X2X2X2X2X2X2X2X2X2X2X$X$XH o o . # } +.+.+.+.+.>.2X2X2X2X2X2X<X$X.XF , 1 , , 2 a ` :.G.P.J.y.] t ",
"y 2 1 , 7 8 8 c M M 8 8 <.>.;X:X:X:X:X:X:X:X:X:X:X$X2.2.l ; ; $ ; j x V.H.U.T.!.2X2X2X2X2X2X2X$XoXH 1 3 2 t t y ( %.y.y.y.%.( y ",
"y t 3 $ 1 1 , 1 8 7 ; : e % T.XXoXoXoXXXoXXX.X^.^.H.& : ; ; ; ; 3 e & U.$X:X2X2X2X2X2X2X2X2X<X$X~.G u u y y t y a I #.-.o.` g y ",
"t y 2 < 1 ; ; ; ; ; > u e e h h h B h B ' ` S h h g e e t t i u r y * U.$X;X;X;X;X$X;X;X;X$X Xi s a y y y y y t y y g V g y t t ",
"t y t t : ; 1 ; 3 2 e y a y e e y e y a Z A h e y y y y y y e e y e e =.Z.A.A.A.D.A.A.A.Z.V.-.* t t y y y t t t y y y y y y y t "
};
