/* XPM */
static char *result[] = {
/* columns rows colors chars-per-pixel */
"64 64 208 2 ",
"   c #000000",
".  c #0B0A03",
"X  c #090508",
"o  c #0B0B0A",
"O  c #100E05",
"+  c #141106",
"@  c #15120A",
"#  c #19160A",
"$  c #1D1A0C",
"%  c #190A1D",
"&  c #151515",
"*  c #1A1417",
"=  c #1E1C12",
"-  c #1E141B",
";  c #1E1B1A",
":  c #241C05",
">  c #221D0D",
",  c #211D13",
"<  c #21151D",
"1  c #221A1A",
"2  c #1F2010",
"3  c #26210C",
"4  c #2A240E",
"5  c #2E280F",
"6  c #3D310F",
"7  c #232215",
"8  c #2D2612",
"9  c #2F2A17",
"0  c #26231B",
"q  c #29251B",
"w  c #2C291D",
"e  c #322A12",
"r  c #3A2C19",
"t  c #3C3314",
"y  c #3D321D",
"u  c #1E0D24",
"i  c #1F1121",
"p  c #210D26",
"a  c #220D29",
"s  c #221224",
"d  c #261A25",
"f  c #25122A",
"g  c #29172E",
"h  c #2A192D",
"j  c #2B1730",
"k  c #2D1B31",
"l  c #252322",
"z  c #2A2423",
"x  c #2E2B22",
"c  c #2A232B",
"v  c #2C2B2B",
"b  c #322E24",
"n  c #322928",
"m  c #353226",
"M  c #3A3525",
"N  c #363329",
"B  c #3A352C",
"V  c #3C3A2D",
"C  c #2F2432",
"Z  c #332335",
"A  c #362937",
"S  c #362539",
"D  c #3B2C3D",
"F  c #363636",
"G  c #3A3436",
"H  c #3E3A31",
"J  c #3C333B",
"K  c #3C3B3A",
"L  c #4A3A0F",
"P  c #422D1B",
"I  c #473915",
"U  c #453A17",
"Y  c #473C27",
"T  c #423C33",
"R  c #43373E",
"E  c #433D3B",
"W  c #5E460D",
"Q  c #4D421A",
"!  c #564A1E",
"~  c #594D1F",
"^  c #5C501F",
"/  c #70550F",
"(  c #745813",
")  c #7E6015",
"_  c #554B28",
"`  c #434134",
"'  c #48443B",
"]  c #4C493E",
"[  c #76662B",
"{  c #3E2F41",
"}  c #433342",
"|  c #473A44",
" . c #493B46",
".. c #4C3D4B",
"X. c #4C3F50",
"o. c #414140",
"O. c #4C4544",
"+. c #4C4943",
"@. c #49414B",
"#. c #4B4A4B",
"$. c #514E44",
"%. c #53494D",
"&. c #57554E",
"*. c #574B55",
"=. c #5A4D55",
"-. c #565656",
";. c #5E5B53",
":. c #5D525A",
">. c #5C5958",
",. c #65595C",
"<. c #655A5D",
"1. c #626058",
"2. c #685C63",
"3. c #666566",
"4. c #6C6665",
"5. c #6B6B6B",
"6. c #756B6A",
"7. c #777368",
"8. c #756973",
"9. c #797573",
"0. c #7C7A75",
"q. c #7E7E7E",
"w. c #8A6816",
"e. c #936F15",
"r. c #957115",
"t. c #9D7716",
"y. c #A67E18",
"u. c #8A7329",
"i. c #847231",
"p. c #837C77",
"a. c #AB8119",
"s. c #968233",
"d. c #9D8834",
"f. c #AD892E",
"g. c #A48E37",
"h. c #A9923B",
"j. c #B69E3E",
"k. c #C9981F",
"l. c #CE9C21",
"z. c #D09E20",
"x. c #D6A221",
"c. c #DAA523",
"v. c #D7A938",
"b. c #E1AA24",
"n. c #E8AF24",
"m. c #EAB125",
"M. c #A28746",
"N. c #A78B46",
"B. c #AB9542",
"V. c #AF954F",
"C. c #B79B43",
"Z. c #AF9550",
"A. c #B69D5E",
"S. c #97907F",
"D. c #A69671",
"F. c #BDA76D",
"G. c #B8A678",
"H. c #C1A84B",
"J. c #E1B958",
"K. c #D5B76D",
"L. c #C3AF7C",
"P. c #E6C574",
"I. c #7F7C80",
"U. c #827A84",
"Y. c #818080",
"T. c #898784",
"R. c #8C8A84",
"E. c #89878A",
"W. c #8A898A",
"Q. c #938A88",
"!. c #979180",
"~. c #968B94",
"^. c #938C95",
"/. c #959595",
"(. c #989898",
"). c #A59C98",
"_. c #ACA19B",
"`. c #A09FA0",
"'. c #A4A4A4",
"]. c #AFA8A6",
"[. c #AAAAAA",
"{. c #B3ACA5",
"}. c #B5B5B4",
"|. c #BFB9B4",
" X c #BDBDBD",
".X c #C1B391",
"XX c #C9BD9D",
"oX c #C3BDB1",
"OX c #C9C0A9",
"+X c #D8CDB2",
"@X c #F0DCAB",
"#X c #F3E3BA",
"$X c #C1C1C1",
"%X c #CACACA",
"&X c #D2CEC2",
"*X c #D4D4D4",
"=X c #DBDBDB",
"-X c #E4DBC5",
";X c #F0E4C3",
":X c #F5E8C7",
">X c #F3E9D1",
",X c #E2E2E2",
"<X c #EAEAEA",
"1X c #F2EDE2",
"2X c #F6F4EE",
"3X c #F4F4F4",
"4X c #F8F6F1",
"5X c #FEFEFE",
/* pixels */
"p a a a a a a a a a p a a a p a a a a u u I./.^.^.^.^.^.^.^.^.^.^.^.^.^.^.^.^.^.^.^.U.% u a a a a a a a a a f Z }  .S p p a f a ",
"a p a a a a a a a a a a a a a a a u g k i $X=X=X,X,X,X,X,X=X,X=X,X,X=X,X,X,X,X=X,X=X$Xl c - - p a p < < < < h D =.,...f a p a a ",
"a a a a a a a a a a a p p p p s i % J *X=X5X5X5X5X5X5X5X5X5X5X5X5X5X5X5X5X5X5X5X5X5X5X=X*XK * p a a - 1 > = , 0 E ,.%.f a a a p ",
"a a a a a a a p a a a p s p < + 9.'.}.3X3X5X5X XY.Y.I.I.Y.Y.Y.Y.Y.Y.Y.Y.Y.Y.Y.Y. X5X3X3X3X X`.4.* < p p < , = , , n S a a a a p ",
"a f j j f a a p < 1 , , > $ E F }.,X<X5X5X=X*XW.o.o.o.o.K o.o.o.o.o.o.o.o.o.{ ' W.*X*X5X5X<X,X}.K E q = - < - ; , > , s a a a a ",
"h Z | ..R h p 1 , 7 , 0 w v =X=X3X3X5X5X5X5.-.c                                 v -.5.5X5X5X5X3X=X*XN 7 7 = , = < 1 > 1 a a p p ",
"Z R =.=.*.R p 1 7 N T ' N l =X=X3X5X=XY.q.l & o                                 o & l I.0.=X5X3X=X=Xv x m w $ 7 1 < < < p a a p ",
"S ..=.=.=. .s , q T T $.o.-.,X,X=X*X[.o.o.                              . . + @ # 3 9 +.+.}.*X=X<X,XO.K N m x , , 1 < a a a a p ",
"S | =.=.*.} d , 7 b m 1.=X,X5X3Xq.-.K                                 + 4 4 Q Q [ s.u.8 4 #.-.Y.5X5X,X*X3.= , , > > 1 p a a p p ",
"k D  ...| Z p 1 , > 2 6.3X<XY.q.F & &                                 + U U d.d.h.C.B.U U , & v Y.Y.,X3XS.$ 7 = = = , d D Z g p ",
"a h Z Z k a a a p s < 4.5X<X-.-.&                                     $ Q Q j.j.j.B.h.Q Q +   & -.-.<X5XY.l , 7 , = $ 0  . .D f ",
"a p a a a a a p s a a 8.5X<X-.-.&                                     $ Q Q j.j.h.d.s.Q Q +   & -.-.<X5XW.O.7.&.x , 2 0 R  .} f ",
"a a a a a p p ; , = , 5.5X<X-.-.&                                     O : # ~ ~ ~ ~ ! t 6 .   & -.-.<X5XT.= 7 +.4.%.C Z } | S f ",
"a a p a f p s , 7 w V 0.5X<X-.-.&   . # $                               O O 5 e 9 8 5 > $ .   & -.-.<X5XR., = , ,.2.D j Z C j u ",
"a p p a p a < = b ` ] R.5X<X-.-.&   + Q Q .                                                   & -.-.<X5XT.$ = z <.,.k a a a a u ",
"a p a a h s , 7 H T ] Q.5X<X-.-.4 + 6 g.h.Q t $                                               & -.-.<X5XT., 1 E *.{ a a a a a u ",
"a p a Z R R = w ' ] $.R.5X<X-.-.r 3 Q g.g.! Q 3                                               & -.-.<X5XT.; d x 1 A Z g p a p a ",
"a p g D ,.O., N +.] ] Q.5X<X-.-.M e Q s.s.! Q 3                                               & -.-.<X5XE.* , = = 0 J A g p p p ",
"a p s z E ] q T +.] ] R.5X<X-.-.&   . 5 5 B.H.[ U Q                                           & -.-.<X5XT.= , 2 , = z D h p a a ",
"a a < 7 7 E q T +.$.$.T.<X,X[.[.#.v z + + [ [ [ i.i.+ + + + .                             l v #.[.[.<X<X9.= = 2 q 0 , 0 g a a u ",
"a a s 1 , d 1 x V ` ' 9.=X=X3X5XY.-.o.    3 3 [ H.H.5 5 4 8 $                             o.-.q.5X5X=X=X-.2 $ 7 B M q , < s a a ",
"a p p s s < a s 1 , q =   ; =X=X3X5X*X-.-.o   $ t t d.g.j.j.u.4 4 .                 o -.-.*X5X3X=X=X; X $ , = 7 T T m , , < a p ",
"a p a a a a a a f f f f o o -.-.%X,X,X$X$Xo.F 0 + # ~ ~ ~ ^ Q O +           X o l F O. X X*X<X X#.-.= = 7 2 = q T M N b , , p p ",
"a p a f a a a s s c #.2.A o     E.$X*X3X3XY.5.K X o 9 9 9 9 7 o o o o o o o & & o.5.Y.3X3X%X X/.  . @ = m 7 = q B N M m 0 > i u ",
"a p a a a p s , , q T T.c X         F =X=X3X5X[.-.-.-.-.-.-.-.-.-.-.-.-.-.-.-.-.'.5X3X=X=XF         o 7 x 7 , q M b w w 7 , s u ",
"a a u a s < , , q w 1.D.w.w.W W 0.R.q.W.T.=X<X%X[.[.[.[.[.[.[.[.[.[.[.[.[.[.[.[.%X<X=XW.T./.R.7.W W w.) I $ = , , = , = = - p a ",
"a p p p < , , w , 8 _ u.x.z.t.t..X&X|.5.5. X%X%X%X%X%X%X%X%X%X%X%X%X%X%X%X%X%X%X%X%X X5.5.{.&XXXt.t.k.c.( : 8 - 1 1 < < p p p a ",
"a p a p < 7 b 0 . z.z.c.m.n.x.x.y.r.Z.5X5X5.-.-.-.-.-.-.-.-.-.-.-.-.-.-.-.-.-.-.-.-.5.5X5XZ.r.y.x.x.m.m.b.x.l.X % p p a a a a u ",
"a p a p < , y ) w.b.b.b.c.b.b.b.a.r.Z.5X5X%X$X$X X X}.}.0.-.-.-.-.-.-.0.}.}. X X$X$X%X5X5XV.r.a.b.b.c.c.c.b.b.w.( e , < s a a a ",
"a p a p 1 = L l.k.m.m.b.x.x.x.x.C.V.L.5X5X5X5X5X5X5X3X3X[.I.Y.Y.Y.Y.I.}.3X3X5X5X5X5X5X5X5XL.Z.C.x.x.x.c.b.m.m.k.k.L 7 , , s a a ",
"u a a p s , 6 e.e.m.m.b.x.l.r.r.-X5X5X5X5X5X5X5X5X5X5X5X5X5X5X5X5X5X5X5X5X5X5X5X5X5X5X5X5X5X5X-Xr.r.k.x.b.m.m.r.e.I b q , 1 d a ",
"a a a a s < ] XXoXa.a.y.y.a.-X-X4X5X5X5X5X5X5X5X5X5X5X5X5X5X5X5X5X5X5X5X5X5X5X5X5X5X5X5X5X5X5X4X-X-Xf.a.a.a.a.XXoX;.N M 7 , D S ",
"a p p p p 1 -.=X=XV.V.V.V.F.5X5X3X3X3X5X5X5X5X5X5X5X5X5X5X5X5X5X5X5X5X5X5X5X5X5X5X5X5X5X5X5X3X3X5X5XA.Z.Z.V.V.=X=X1.b b 7 7 | | ",
"a p a a < , -.=X=X5X5X5X5X5X5X5X,X=X<X5X5X5X5X5X5X5X5X5X5X5X5X5X5X5X5X5X5X5X5X5X5X5X5X5X5X,X=X,X5X5X5X5X5X5X5X=X=X>., , , 1 J D ",
"a p a a s < Y M.N.5X5X5X5X5X,X,X3.F <.,X<X5X5X$XY.Y.Y.q.%X5X,Xq.Y.I.Y.Y.Y.Y.Y.Y. X5X5X<X,X3.F 3.,X,X5X5X5X5X5XN.N.U < 1 1 s j a ",
"a p a a a a P w.r.5X5X5X5X5X=X=XF   q .X.X2X5X[.-.-.-.-.$X5X*X-.-.T.W.W.W.W.-.-.[.5X2X.X.XN   F =X=X5X5X5X5X5Xr.r.P f a f a a a ",
"a p p a a a P e.r.5X5X5X5X5X=X=XF   : r.r.1X5X[.-.-.-.-. X5X*X-.-.%X<X<X<X<X>.-.[.5X1Xr.r.:   F =X=X5X5X5X5X5Xr.e.P p p a a a a ",
"a a p a a a P w.r.5X5X5X5X3X=X=XF   : r.r.1X5X[.-.-.-.-.$X5X*X-.-.%X<X<X<X<X-.-.[.5X1Xr.r.3   F =X=X3X5X5X5X5Xr.r.L , 1 a a a p ",
"a p p a a a y w.r.5X5X5X5X5X=X=XK   > r.r.1X5X%X/./././.*X5X*X-.-.$X<X<X<X<X-.-.[.5X1Xr.r.:   F =X=X5X5X5X5X5Xr.r.L , , , < a p ",
"a p a a a a P e.r.5X5X5X5X5X=X=XF   : r.r.1X5X5X5X5X5X5X5X5X*X-.-.%X<X<X<X<X-.-.[.5X1Xr.r.:   F =X=X5X5X5X5X5Xr.e.L b 0 , < p p ",
"a p a a a a %.+X&X5X5X<X,X=X=X=XF   : r.r.1X5X}.5.5.5.5.%X5X*X-.-.>.5.5.5.5.-.-.[.5X1Xr.r.:   F =X=X,X=X3X5X5X&X+X>.m m q 1 s u ",
"a p a a a a *.*X=X$X$X}.[.'.W.W.v   : r.r.1X5X%X/./././.*X5X<X/././././././././.%X5X1Xr.r.:   ; W.W.'.'.}.$X X=X=X>.m m 2 , p u ",
"a u a a a a *.*X=X-.-.-.-.#.        : r.r.1X5X5X5X5X5X5X5X5X5X5X5X5X5X5X5X5X5X5X5X5X1Xr.r.:         #.-.-.-.-.=X*X-.x 7 , < p p ",
"a a a a a a u X   -.-.[.5X5X=X=XF   : r.r.1X5X[.-.-.-.-.$X5X*X-.-.*X5X X-.-.-.-.[.5X1Xr.r.>   F =X=X5X5X[.-.-.  . # = 2 n p a a ",
"a a a a a u ; & . /.(.%X5X3X=X=XF   w G.G.2X5X*X[.[.[.[.,X5X<X[.[.<X5X,X[.[.[.[.*X5X2XG.G.q   F =X=X5X5X%X(.(.& %.:.,.p.Q.j a u ",
"a u a a a u ; = + =X=X<X5X5X=X=XF   F =X=X5X5X5X5X5X5X5X5X5X5X5X5X5X5X5X5X5X5X5X5X5X5X=X=XF   F =X=X5X5X<X=X*X>.{.oXoX{.~.g a a ",
"u a a f a a d $ ; & . 5.=X=X=X=XF   F =X=X5X5X5X5X5X5X5X5X5X*X-.-.*X5X5X5X5X5X5X5X5X5X=X=XF   F =X=X=X=X5.. # = $.).].'.2.a a a ",
"a a a a u f J 0 1 N N &.q.q.0.0.l . v /./.3X5X5X5X5X5X5X5X5X<X[.[.<X5X5X5X5X5X5X5X5X3X/.(.l . z 9.9.0.0.+.0 7 = , ' ~.8.S a a u ",
"a a a a a k ..1.b 7 M T T T T N 7 $ c 3.3.*X<X<X<X<X<X<X<X<X<X<X<X<X<X<X<X<X<X<X<X<X*X3.3.; $ w x x m m B T x = = 1 D g a a a u ",
"u a a a a j  .2.6.n , , b N T E m = ' =X=X3.-.-.-.-.-.-.-.-.-.-.-.-.-.-.-.-.-.-.-.-.3.=X=X' = q x x b B T T w = , s a a a a a p ",
"a s a a p f }  .%...x , , , m T T w O.=X=X$X$X$X$X$X X X X$X X X X$X X X$X$X$XOX$X X$X=X=X| - $ 7 b m T T n 2 ; s a a a a a a u ",
"a p a a f u h J ..| S d 1 , , N ` m ' &X&X5X5X5X5X5X5X5X5X5X5X5X5X5X5X5X5X5X5X5X5X5X5X&X&X@.< , , 7 x b w , , - a a a f a a p p ",
"a a a p < , = 7 1 d f a f 1 , , x b t r.r.1X5X5X5X5X5X5X5X5X3X=X=X3X5X5X5X5X5X5X5X5X1Xr.e.r u s , = 7 > = , i f a a a a a a a u ",
"a u < - , w M m q = < f k h d , , , 6 e.r.J.P.#X5X5X5X5X3X<X X-.#.%X<X3X5X5X5X5X#XP.K.r.e.I s p p s < 1 - s i f a a a a a a a p ",
"a u , = b V $.$.H 7 = 0 D } D s 1 , y N.N.v.x.P.:X:X5X5X<X=X'.    '.=X<X5X5X:X:XP.x.k.N.N.Y , p a a s < = 1 s a a f a a a a a u ",
"a < , 0 V T $.' H N 7 , J  . .Z p i @.=X=Xv.x.x.x.x.5X5X<X=X'.    `.=X<X5X5Xx.x.x.c.v.=X=X#.< ; < s < , , = , i a f j j g a a a ",
"s = = m V M ` V N H b , n ....j f a X.=X=X;X:XP.c.x.J.J.+X=X'.    '.=X+XJ.J.x.x.P.;X>X=X=X+.$ 7 , < < 1 1 > > < g } =.,.=.R p p ",
"p $ = m V m ` ` m B B = w | S a a a X.=X=X5X5X@XJ.J.x.x.K.OX!.    !.OXK.c.x.J.J.@X5X5X=X=X#.7 = , , , 1 < < 1 1 D :.6.p.p.:.R p ",
"p = 2 q m m B B m m B 7 1 f a a a a X.=X=X3X5X5X5X5Xx.x.a.r./     / r.a.x.x.5X5X5X5X5X=X=X;.N q , , , , 1 1 < < | <.Q._.~.6. .a ",
"p ; 2 2 w m m b m N b = < f a a a u X.=X=X5X5X5X5X5X:X:X+XOX!.    S.oX+X:X:X5X5X5X5X5X=X=X;.w 7 , , , , > > < f  .4.Q._._.p...p ",
"p < > , 0 q q b V B 7 , < a a a a f ..=X=X=X*X*X*X*X*X*X*X=X'.    '.=X=X*X*X*X*X*X*X%X=X=X+.= $ , = , = s p p a D ,.p.Q.p.,.R a ",
"a p 1 > , , $ > q 7 = < a a a a a a X.=X=X3.-.-.-.-.-.-.[.=X'.    '.=X[.-.-.-.-.-.-.3.=X=XO.= 1 < < s p a a p p a R =.,.=. .j p ",
"a a s 1 , = = = $ = = p a a a a a a g 3.3. X%X*X%X%X%X%XE.3.#.    #.5.E.%X%X%X%X%X%X X3.<.C a p a a a a a a a p a a j Z j a p p ",
"p a p u - = = , < - i p a a p p a u u A K U.W.W.W.W.W.W.>.K v X X c G >.W.W.W.W.E.E.I.J Z u u a a a a a a p p a p a a a a a a p "
};
