/* XPM */
static char *result[] = {
/* columns rows colors chars-per-pixel */
"64 64 205 2 ",
"   c #000000",
".  c #080705",
"X  c #080508",
"o  c #0D0B0C",
"O  c #130F08",
"+  c #15140C",
"@  c #19170E",
"#  c #1C1A0E",
"$  c #0E0512",
"%  c #1A0C1E",
"&  c #151314",
"*  c #1A1413",
"=  c #1E1C12",
"-  c #1E141C",
";  c #1D1A1A",
":  c #201806",
">  c #201E0F",
",  c #211D13",
"<  c #21151D",
"1  c #221A1A",
"2  c #1F2010",
"3  c #2F250B",
"4  c #242215",
"5  c #26231A",
"6  c #29251B",
"7  c #2B291D",
"8  c #1E0D25",
"9  c #1F1122",
"0  c #210D26",
"q  c #220D29",
"w  c #221223",
"e  c #261A23",
"r  c #25122A",
"t  c #29172E",
"y  c #271A28",
"u  c #2A192D",
"i  c #2B1730",
"p  c #2D1B31",
"a  c #311F38",
"s  c #252121",
"d  c #2B2422",
"f  c #2E2B21",
"g  c #2D242C",
"h  c #322D24",
"j  c #312B2B",
"k  c #353226",
"l  c #383327",
"z  c #353229",
"x  c #3A352C",
"c  c #3C3A2D",
"v  c #332335",
"b  c #36253A",
"n  c #372838",
"m  c #3B2C3D",
"M  c #373637",
"N  c #3E3A33",
"B  c #373638",
"V  c #3B343A",
"C  c #3C3B39",
"Z  c #493616",
"A  c #423C33",
"S  c #43373E",
"D  c #443D3B",
"F  c #5E460D",
"G  c #5B4916",
"H  c #654D0F",
"J  c #70550F",
"K  c #6A5316",
"L  c #755A14",
"P  c #765916",
"I  c #7F6117",
"U  c #5D512E",
"Y  c #434035",
"T  c #44423A",
"R  c #49453B",
"E  c #4C493E",
"W  c #6F613E",
"Q  c #3E2F41",
"!  c #402F43",
"~  c #433342",
"^  c #473944",
"/  c #493B46",
"(  c #473A4A",
")  c #4C3D49",
"_  c #454445",
"`  c #4C4445",
"'  c #4E4A43",
"]  c #4C4B4A",
"[  c #524E44",
"{  c #53474E",
"}  c #57544A",
"|  c #574A53",
" . c #584A56",
".. c #5A4D55",
"X. c #565556",
"o. c #5E5A52",
"O. c #5E515A",
"+. c #5D585A",
"@. c #635B59",
"#. c #655A5C",
"$. c #6B654E",
"%. c #64635D",
"&. c #675C63",
"*. c #666463",
"=. c #6C6765",
"-. c #6B6B6B",
";. c #74686B",
":. c #716E6D",
">. c #74706F",
",. c #756C73",
"<. c #7C7573",
"1. c #7A7778",
"2. c #836413",
"3. c #8D6A15",
"4. c #957115",
"5. c #9D7716",
"6. c #A57D18",
"7. c #88713A",
"8. c #8A7C5A",
"9. c #847A79",
"0. c #AA8119",
"q. c #B78B1C",
"w. c #A5842F",
"e. c #A68633",
"r. c #B99438",
"t. c #C5951E",
"y. c #CC9B1F",
"u. c #C99926",
"i. c #D6A221",
"p. c #D9A422",
"a. c #DEA822",
"s. c #D8A72F",
"d. c #DCAE3D",
"f. c #E3AB24",
"g. c #EAB125",
"h. c #9B8145",
"j. c #A78B46",
"k. c #AA8D4A",
"l. c #AF954F",
"z. c #B89B4F",
"x. c #938A73",
"c. c #A09068",
"v. c #BCA66D",
"b. c #B9A779",
"n. c #D8AF48",
"m. c #E1B958",
"M. c #CFB576",
"N. c #DEC279",
"B. c #E6C574",
"V. c #848383",
"C. c #8A8A8A",
"Z. c #8C888A",
"A. c #948989",
"S. c #9A968A",
"D. c #958B93",
"F. c #928C93",
"G. c #949294",
"H. c #9B9A9A",
"J. c #A59C98",
"K. c #A8A29D",
"L. c #A5A4A4",
"P. c #A9A7A7",
"I. c #AAAAAA",
"U. c #B3ABA4",
"Y. c #B1AEAE",
"T. c #B7B3A9",
"R. c #B3B0B0",
"E. c #BCB8B4",
"W. c #BDBDBD",
"Q. c #CAB88A",
"!. c #C6B894",
"~. c #C1BCB6",
"^. c #D5C49A",
"/. c #EACC82",
"(. c #EAD090",
"). c #CFC3A7",
"_. c #C9C0A9",
"`. c #D7CAA7",
"'. c #DACDAC",
"]. c #DCD2B8",
"[. c #EFDCAC",
"{. c #F2E2BA",
"}. c #BFBCC0",
"|. c #C0BDC0",
" X c #C1C1C1",
".X c #CBCBCB",
"XX c #D2CEC2",
"oX c #D0CFCF",
"OX c #DCD7CB",
"+X c #D4D4D4",
"@X c #D9D7D7",
"#X c #DBDBDB",
"$X c #E4DBC5",
"%X c #E5DCC5",
"&X c #E2DED6",
"*X c #F5E8C7",
"=X c #E9E3D5",
"-X c #F8EDD5",
";X c #E2E2E2",
":X c #EAEAEA",
">X c #F2EDE2",
",X c #FAF4E3",
"<X c #F5F5F5",
"1X c #FAF8F1",
"2X c #FFFFFF",
/* pixels */
"0 q q q q q q q q q q 0 q q q 0 q q q q 0 b ,.Z.F.F.F.F.F.F.F.F.F.F.F.F.F.F.F.F.F.F.1.p 8 8 q q q q q q 0 q r a ! / b 0 0 q q q ",
"q 0 q q q q q q q q q 0 q q 0 0 q q 8 i p 1.@X#X#X;X#X;X#X;X;X;X#X;X#X;X;X;X#X;X;X#X@X| s w - 9 q 0 < < < < y S  .#.) r q q q q ",
"q q q q q q q q q q q q q q q 0 8 % $ L.+X:X2X2X2X2X2X2X2X2X2X2X2X2X2X2X2X2X2X2X2X2X2X#XoXC.& 9 q q % , > , , 6 D O.{ t q q q q ",
"q q q q q q q q q q q 0 w w < : C H.L.<X<X2X2X2X2X2X2X2X2X2X2X2X2X2X2X2X2X2X2X2X2X2X2X<X<X;XL.F.g < 0 w < , = = , h n q q q q 0 ",
"q r t i t 0 q w < 1 > , , = h C V.;X;X<X2X2X2X2X2X2X2X2X2X2X2X2X2X2X2X2X2X2X2X2X2X2X<X2X2X<X;X#X_ D 6 ; - < 1 ; , > , w q q q q ",
"t n ^ / S t 0 1 , , , 6 7 = H.#X;X<X2X2X2X2X2X2X2X2X2X2X2X2X2X2X2X2X2X2X2X2X2X2X2X2X2X2X2X2X2X2X#X+X%.= # 4 , 1 < , > < 0 q 0 q ",
"v ^ | O.| S 0 1 4 l A R Y o L.#X;X2X<X2X2X2X2X2X2X2X2X2X2X2X2X2X2X2X2X2X2X2X2X2X2X2X2X2X2X2X2X2X#X#X<.k k 7 > > < < < < 0 q q 0 ",
"v ) .... .^ w , 6 D D R ] C W.;X:X2X2X2X2X2X2X2X2X2X2X2X2X2X2X2X2X2X2X2X2X2X2X2X2X2X2X2X2X2X2X2X:X;XC.T T k h # , 1 < 0 q 0 q 0 ",
"b ^  .O...~ w , 4 f h R E.#X<X2X2X2X2X2X2X2X2X2X2X2X2X2X2X2X2X2X2X2X2X2X2X2X2X2X2X2X2X2X2X2X2X2X2X2X:X#X_.@ , 2 > > , 0 q q 0 0 ",
"p m ^ ` ( v w < , > , c  X#X<X2X2X2X2X2X2X2X2X2X2X2X2X2X2X2X2X2X2X2X2X2X2X2X2X2X2X2X2X2X2X2X2X2X2X2X<X#X+X@ > # , , , e m b t 0 ",
"q u v v p q q w 0 < < j ~.#X<X2X2X2X2X2X2X2X2X2X2X2X2X2X2X2X2X2X2X2X2X2X2X2X2X2X2X2X2X2X2X2X2X2X2X2X:X#X@X9 , 4 , , > 6 / / m r ",
"0 0 q q q q q 0 w 0 q v }.#X<X2X2X2X2X2X2X2X2X2X2X2X2X2X2X2X2X2X2X2X2X2X2X2X2X2X2X2X2X2X2X2X2X2X2X2X:X#X#XC <.} f > > 1 S / ! r ",
"q 0 q q q 0 0 1 , = 1 j }.#X<X2X2X2X2X2X2X2X2X2X2X2X2X2X2X2X2X2X2X2X2X2X2X2X2X2X2X2X2X2X2X2X2X2X2X2X:X#X#X@ 4 ' =.| v g S ^ b r ",
"q q q q r 0 w , 4 7 c Y  X#X<X2X2X2X2X2X2X2X2X2X2X2X2X2X2X2X2X2X2X2X2X2X2X2X2X2X2X2X2X2X2X2X2X2X2X2X:X#X#X@ = , O.&.m p v v t 8 ",
"q 0 q q q q 1 # h Y E }  X#X<X2X2X2X2X2X2X2X2X2X2X2X2X2X2X2X2X2X2X2X2X2X2X2X2X2X2X2X2X2X2X2X2X2X2X2X:X#X#X+ 2 d #.#.p q q q 8 q ",
"q 0 q q u w , 4 x D E o..X#X<X2X2X2X2X2X2X2X2X2X2X2X2X2X2X2X2X2X2X2X2X2X2X2X2X2X2X2X2X2X2X2X2X2X2X2X<X#X#X= 1 D | Q q q q q q 8 ",
"q q q v ~ S = 7 Y E [ o. X#X<X2X2X2X2X2X2X2X2X2X2X2X2X2X2X2X2X2X2X2X2X2X2X2X2X2X2X2X2X2X2X2X2X2X2X2X:X#X#X* 5 f e v v t q q q 0 ",
"q 0 t m #.` 4 x ' E [ o..X#X<X2X2X2X2X2X2X2X2X2X2X2X2X2X2X2X2X2X2X2X2X2X2X2X2X2X2X2X2X2X2X2X2X2X2X2X:X#X@X& , = , 5 V v t 0 q 0 ",
"8 0 r d D ' 5 A ' E ' o. X#X1X2X2X2X2X2X2X2X2X2X2X2X2X2X2X2X2X2X2X2X2X2X2X2X2X2X2X2X2X2X2X2X2X2X2X2X:X#XoX* = 4 , = d V u q q 0 ",
"q 0 < , 5 D 6 c [ [ [ o..X#X1X2X2X2X2X2X2X2X2X2X2X2X2X2X2X2X2X2X2X2X2X2X2X2X2X2X2X2X2X2X2X2X2X2X2X2X<X#X X@ = = 5 5 , 5 t q 0 0 ",
"q 0 w 1 , e 1 f c Y R [ W.#X<X2X2X2X2X2X2X2X2X2X2X2X2X2X2X2X2X2X2X2X2X2X2X2X2X2X2X2X2X2X2X2X2X2X2X2X:X#XL.= 2 4 x c 4 , < w q 0 ",
"q 0 0 r < < q w - 4 5 5 +   L.#X:X2X2X2X2X2X2X2X2X2X2X2X2X2X2X2X2X2X2X2X2X2X2X2X2X2X2X2X2X2X2X2X#X#X-.. + = 2 4 A A l 4 , < 0 0 ",
"q 0 q q q q 0 q q q r u % X B X.C.:X;X2X2X2X2X2X2X2X2X2X2X2X2X2X2X2X2X2X2X2X2X2X2X2X2X2X2X<X:X;X%.] z = 2 = = 5 A x l h , , 0 0 ",
"0 0 q r q q q w w g ] ;. .- X   _ W.W.<X2X2X2X2X2X2X2X2X2X2X2X2X2X2X2X2X2X2X2X2X2X2X2X2X<X:XW.H.5 = = = h 4 2 6 x l l h 5 , < 0 ",
"q 0 q q q 0 < 1 , 6 A J.9.g o          X#X:X2X2X2X2X2X2X2X2X2X2X2X2X2X2X2X2X2X2X2X2X2X;X#XL.  . + = , h f 4 > 6 h h 7 7 4 , w 8 ",
"8 0 q q w < 1 > 4 f $.U.k.3.H G W C.C.V.C.E.:X:X;X:X;X:X:X:X:X;X;X:X:X:X:X;X;X:X:X:X:XH.C.G.C.V.G F K P L # > , , , , = = < 0 0 ",
"q 0 q 0 < , 4 7 5 5 $.U i.p.0.5.l.XXXX1.-.H..X.X.X.X.X.X.X.X.X.X.X.X.X.X.X.X.X.X.X.X.XC.-.1.XXXXe.5.q.i.i.: > , , < < < 0 q 0 0 ",
"q 0 q 0 1 4 h 7 + I i.a.g.g.a.i.q.4.4.>X2XI.X.X.X.X.X.X.X.X.X.X.X.X.X.X.X.X.X.X.X.X.X.+X2X$X4.4.y.i.f.g.g.i.i.Z % 0 0 q q 0 0 0 ",
"8 q q 0 < 4 5 K 2.t.a.f.a.a.a.a.t.4.4.>X2X#X X|.|. X|.|.|. X|.|. X X|. X X X XW._. X}.:X2X%X4.3.p.f.a.a.a.f.f.6.P Z , < w q q 0 ",
"q 0 q q < = > q.t.p.g.g.i.i.i.i.u.l.l.1X2X2X2X2X2X2X2X2X2X2X2X2X2X2X2X2X2X2X2X2X2X2X2X2X2X=Xl.l.s.i.i.i.i.g.g.i.t.P = > , w 0 0 ",
"q 0 q q < , = 3.4.u.g.g.i.i.6.4.v.2X2X2X2X2X2X2X2X2X2X2X2X2X2X2X2X2X2X2X2X2X2X2X2X2X2X2X2X2X2X2Xw.3.q.i.i.g.g.q.4.L 6 6 , 1 t q ",
"8 q q q w < w T._.z.0.0.0.6.^.$X>X2X2X2X2X2X2X2X2X2X2X2X2X2X2X2X2X2X2X2X2X2X2X2X2X2X2X2X2X2X2X2X$X$XM.6.6.0.6.v._.S.f l 4 1 V b ",
"q 0 q 0 w ; , +X#Xb.l.l.l.l.=X2X2X<X<X2X2X2X2X2X2X2X2X2X2X2X2X2X2X2X2X2X2X2X2X2X2X2X2X2X2X2X<X<X2X2X`.l.l.l.l.).#XI.6 h , 4 ^ ~ ",
"q 0 q r < 4 = +X#X<X2X2X2X2X2X2X:X#X@X2X2X2X2X2X2X2X2X2X2X2X2X2X2X2X2X2X2X2X2X2X2X2X2X2X2X<X#X#X2X2X2X2X2X2X2X:X#XP.@ , , , S m ",
"q 0 q q w w w h.j.].2X2X2X2X:X;XI.M M .X;X<X2X2X2X2X2X2X2X2X2X2X2X2X2X2X2X2X2X2X2X2X2X:X;XW.M M .X;X:X2X2X2X2X!.j.W 1 1 < e i q ",
"0 0 q q 0 0 w 2.4.`.2X2X2X2X;X#XC.    b.U.$X2X2X2X2X2X2X2X2X2X2X2X2X2X2X2X2X2X2X2X2X2X).!.x.     X#X:X2X2X2X2Xv.4.L 0 0 q q q q ",
"q 0 0 q q q < 2.4.`.2X2X2X2X;X#XC.    2.4.Q.2X2X2X2X2X2X2X2X2X2X2X2X2X2X2X2X2X2X2X2X2Xl.4.J      X#X:X2X2X2X2Xv.4.L % 0 q q q q ",
"q 8 q q q q w 2.4.`.2X2X2X2X;X#XC.    2.4.Q.2X2X2X2X2X2X2X2X2X2X2X2X2X2X2X2X2X2X2X2X2Xl.4.J     W.#X:X2X2X2X2Xv.4.J @ < 0 q q 0 ",
"q q q q q q < 2.4.`.2X2X2X2X;X#XC.    2.4.Q.2X2X2X2X2X2X2X2X2X2X2X2X2X2X2X2X2X2X2X2X2Xl.4.J      X#X:X2X2X2X2Xv.4.L # , , < q 0 ",
"q w q q q q < 2.4.`.2X2X2X2X;X#XC.    2.4.Q.2X2X2X2X2X2X2X2X2X2X2X2X2X2X2X2X2X2X2X2X2Xl.4.J     W.#X<X2X2X2X2Xv.4.L 6 6 , < 0 0 ",
"q 0 q q q q w ~.XX:X2X2X#X=X#X#XC.    2.4.Q.2X2X2X2X2X2X2X2X2X2X2X2X2X2X2X2X2X2X2X2X2Xl.4.J      X#X#X;X#X2X2X=XXXS.7 k 5 , 0 0 ",
"q 0 q q q q w .X#X.XW.W.I.I.F.C.X.    2.4.Q.2X2X2X2X2X2X2X2X2X2X2X2X2X2X2X2X2X2X2X2X2Xl.4.J     1.V.H.I.I. X|.+X#XK.7 k 4 , 0 8 ",
"8 0 q q q q q |.#XV.X.X.X.X.&         2.4.Q.2X2X2X2X2X2X2X2X2X2X2X2X2X2X2X2X2X2X2X2X2Xl.4.J         g X.X.X.X.I.#XZ.7 4 , < 0 0 ",
"q q q q q q q 8 X M X.-.2X2X XR.-.    2.4.Q.2X2X2X2X2X2X2X2X2X2X2X2X2X2X2X2X2X2X2X2X2Xl.4.J     H.R.#X2X2XX.X.1 . @ # 4 j w 0 8 ",
"q 0 q q q w ; = + X.V.G.2X2X XR.:.    c.b.].2X2X2X2X2X2X2X2X2X2X2X2X2X2X2X2X2X2X2X2X2X!.b.8.    H.R.@X2X2XV.V._ [ ..#.9.A.i q 0 ",
"q 0 r q q w , , @ =.I.W.2X2X XR.-.    |.#X:X2X2X2X2X2X2X2X2X2X2X2X2X2X2X2X2X2X2X2X2X2X;X#XP.    H.R.@X2X2XR.L.<.J.E.~.U.D.t q 0 ",
"8 0 q q q q w # 5 z ; ; Y.Y.R.R.>.     X#X:X2X2X2X2X2X2X2X2X2X2X2X2X2X2X2X2X2X2X2X2X2X;X#XL.    H.R.R.R.I.. + = [ J.U.L.&.q q 0 ",
"q 0 q q q w S 5 4 c T A -.=.=.%.C X   V.H..X2X2X2X2X2X2X2X2X2X2X2X2X2X2X2X2X2X2X2X2X2XR.H.>.. o o.*.*.%.@.5 , , , D D.,.b q 0 0 ",
"q 0 q q q p ) %.f 6 l D D A A l 4 > o +.-.P.:X:X:X:X:X;X:X:X:X:X:X:X:X:X:X:X:X:X;X:X:XG.*.] @ 6 7 h h k x A 7 = 4 < m t q q q 8 ",
"q 0 q q r u ( &.;.h > 4 f x A D h > * |.#XH.X.X.X.X.X.X.X.X.X.X.X.X.X.X.X.X.X.X.X.X.X.W.#XP.@ 4 h h h c A D 6 , , w q q q q q 0 ",
"q 0 q q q r ~ ( { ) h , , , l A A f ,  X#X.X X X|. X X X|.|.|.|.W. X|.|.W. X|.|. X_.|.oX#XI.= = 4 h l A A h 4 ; w w q q q q q 8 ",
"q 0 q q q 0 y V / ^ n w 1 , 4 l D x , T.XX;X2X2X2X2X2X2X2X2X2X2X<X2X2X2X2X2X2X2X2X2X2XOXXXL.- 1 , , h h 7 > = w q q q q q q q 0 ",
"q 0 q w < 1 2 4 e e r q w 1 , , h h 4 2.5.Q.2X2X2X2X2X2X2X2X2X#X#X:X2X2X2X2X2X2X2X2X2Xl.4.P q w 1 # > > , , 9 w q q q q q q q 8 ",
"q q w , 4 6 l k 5 , < y p u e , , , = 2.4.z.B./.2X2X2X2X<X:X:X*.X.C.:X:X2X2X2X2X1XB.B.e.4.L w q q < < 1 < w 9 r q q q q q q q q ",
"q % 1 = f c [ [ N 4 # 1 m ~ m e 1 , , 7.e.u.i.d.*X*X,X2X<X#X#X;   X.#X#X2X2X,X*X[.i.i.r.j.7., 0 q q < < , , w 8 q r q q q q q 8 ",
"0 < , 5 c A [ R Y z 5 , V ) ( p 0 w % .X#XQ.i.i.i.i.[.2X<X#X#X;   ] #X#X2X2X(.i.i.i.i.'.#XI.- , < q < 1 , = , 0 0 r u i t q 8 q ",
"w , > k c l Y Y k c h , j ) ) p q q q  X#X=X*X{.p.p.n.m.N.#X#X;   X.#X#Xm.m.d.i.s.*X*X&X#XI.# = , < < 1 , , > < p ~ | O...S 0 0 ",
"0 = > l c k Y Y z z x 4 6 ~ m q r q 8  X;X:X2X,Xm.m.d.p.n._._.+   ' _._.i.i.d.m.B.2X2X;X#XI.4 = , , , < w < , 1 m O.;.9.9.@.S 0 ",
"0 = 2 4 h k x x k k x , 1 r q q q q 8  X#X:X2X2X2X2XB.p.q.4.4.O   3 4.4.i.i.(.2X2X2X2X;X#XT.z 7 , , , , , 1 < < S #.A.J.S.;.) 0 ",
"0 ; > 2 7 k h k h x h > 1 q q q q q 8  X#X:X2X2X2X2X-X*X%X_._.&   R )._.*X*X,X2X2X2X2X;X#XR.7 , , > > , > > w r ) =.S.K.J.9.) 0 ",
"q 1 > > 4 6 6 f c x , , w q q q q q 8 I.E.#X2X2X2X2X2X2X:XW.W.&   ] E.W.2X2X2X2X2X2X2X.XE.G.= # , , , 1 w 0 0 0 S O.9.A.9.#.S q ",
"q 0 < > , , # , 6 4 , < q 0 q q q q 8 | X.I.2X2X2X2X2X2X+XX.X.X   9 X.X.2X2X2X2X2X2X2XV.X._ 1 < < < < 0 q q 0 q q S ..#.O./ r q ",
"0 q 9 , > # = = # > ; - q q q q 8 q 8 C.L.C.-.-.-.-.-.-.V.L.L.;   ] .X.X-.-.-.-.-.-.-.W..XH.0 0 q q q q q q q q q q i v i q q q ",
"0 q 0 0 < ; = , < < w 0 q q 0 0 8 8 8 &.-.X.B M B B M B _ :.:.o   M C.C.M M M M B B B :.Z.,.0 0 q 0 0 0 0 0 0 0 0 q q q q q q 0 "
};
