/* XPM */
static char *result[] = {
/* columns rows colors chars-per-pixel */
"64 64 124 2 ",
"   c #1E1E0F",
".  c #1F1D12",
"X  c #1F151C",
"o  c #1F1919",
"O  c #201E0E",
"+  c #211717",
"@  c #211D13",
"#  c #21151D",
"$  c #221A1A",
"%  c #1F200F",
"&  c #1F2013",
"*  c #20200F",
"=  c #232115",
"-  c #282417",
";  c #262319",
":  c #29261B",
">  c #272819",
",  c #2C2A1D",
"<  c #302D1F",
"1  c #33321F",
"2  c #1F0E25",
"3  c #1E0E28",
"4  c #1F1223",
"5  c #210E26",
"6  c #220D29",
"7  c #211223",
"8  c #261A23",
"9  c #291E23",
"0  c #24122A",
"q  c #29172E",
"w  c #261829",
"e  c #2A1A2C",
"r  c #2B1730",
"t  c #2D1B31",
"y  c #311E34",
"u  c #272020",
"i  c #2B2422",
"p  c #2E2B21",
"a  c #2D222A",
"s  c #312D23",
"d  c #332C29",
"f  c #382E2E",
"g  c #353226",
"h  c #383427",
"j  c #373328",
"k  c #39352B",
"l  c #3C3A2E",
"z  c #332335",
"x  c #352933",
"c  c #392C35",
"v  c #362539",
"b  c #39273B",
"n  c #36283A",
"m  c #3B2C3C",
"M  c #3E3B31",
"N  c #3D323B",
"B  c #423C34",
"V  c #41343D",
"C  c #443C3B",
"Z  c #483F3F",
"A  c #444135",
"S  c #494637",
"D  c #464339",
"F  c #4A463C",
"G  c #4C493E",
"H  c #3E2F41",
"J  c #402F43",
"K  c #433442",
"L  c #463944",
"P  c #493B46",
"I  c #453748",
"U  c #473A4A",
"Y  c #4C3D49",
"T  c #4D4444",
"R  c #4E4A41",
"E  c #4F4548",
"W  c #524E43",
"Q  c #52464E",
"!  c #54494C",
"~  c #545045",
"^  c #565248",
"/  c #544551",
"(  c #574A53",
")  c #5A4D55",
"_  c #5C4F58",
"`  c #5C5254",
"'  c #5F5A51",
"]  c #5E515A",
"[  c #615D56",
"{  c #62555A",
"}  c #66595D",
"|  c #685F5E",
" . c #67615C",
".. c #665766",
"X. c #695C62",
"o. c #6B5D6B",
"O. c #6E6464",
"+. c #716666",
"@. c #73676C",
"#. c #766E6B",
"$. c #7A6E6F",
"%. c #79736D",
"&. c #756973",
"*. c #7E7778",
"=. c #837976",
"-. c #877C79",
";. c #8D8184",
":. c #918683",
">. c #92878C",
",. c #958A89",
"<. c #998F8B",
"1. c #928690",
"2. c #998F97",
"3. c #9B9193",
"4. c #A19792",
"5. c #A89D97",
"6. c #A69E9B",
"7. c #ACA19B",
"8. c #B3ACA7",
"9. c #B7B5A9",
"0. c #BBB2AE",
"q. c #C1BBB5",
"w. c #D3D0C4",
"e. c #DED8CF",
/* pixels */
"5 6 6 6 6 6 6 6 6 6 6 6 6 6 6 6 6 6 6 6 6 5 6 5 6 6 6 6 6 6 6 6 6 6 6 6 6 6 6 6 5 6 6 6 6 6 6 6 6 5 6 6 6 6 0 z K P b 6 6 6 6 6 ",
"6 5 6 6 6 6 6 6 6 6 6 5 6 6 6 6 6 6 6 6 6 5 6 6 6 6 5 6 6 6 6 6 6 6 6 6 6 6 6 6 5 4 # X X # X 7 6 5 # # 7 # w V ( } T 0 6 6 6 6 ",
"6 6 6 6 6 6 6 6 6 6 6 5 5 6 6 7 7 6 6 6 6 6 6 7 # # # # # # 7 5 6 6 6 q 7 5 7 5 o $ @   @ + # 7 5 5 5 @ O . $ : L { / 0 6 6 6 6 ",
"6 5 6 6 6 6 6 6 6 6 5 5 5 7 # O @ # 7 6 5 # $ o .   @ @ @ . 7 5 6 6 z i @ @ @ @ X $ . = + X # # + # 5 5 + . . . O d v 5 6 6 5 5 ",
"5 0 r t q 6 6 7 # $ @ @ O @ @ O o . . X + $ % . ; p s s s @ @ 7 6 5 : @ - : - @ @ # # $ 7 @ = @ @ @ @ $ + # + o $ O @ 5 6 6 6 5 ",
"q v K P V q 5 # @ @ @ - < s s k M p = . $ # o @ , j j g k : @ 7 6 + O @ k B B j @ @ o # o = , g d s = = % @ @ o + @ O + 6 6 5 5 ",
"z L ( ) ( V 5 @ - j B Z R G G F R D B , @ $ o $ , k h k B h = 7 7 ; @ B B B B B h , o 4 7 < B G F B M l h ,   @ $ o # # 5 6 6 5 ",
"v Y ` _ ) P 7 @ : B C F F F R R R R R A , . o @ j S W W G A @ 7 + g B B B B B B A l > w 7 > k B l k , : p g p O @ + # 6 6 6 6 5 ",
"v L ( ] ( K w @ = < s B S F F G G F A l h = + $ j D W G R M o 6 $ k B B B B B C G B , + 5 $ 1 , , < = @ .   @ . @ . $ 2 5 5 6 5 ",
"t m L Y P z 5 + $ O * , g j p = $ = - - ; o o p S A A D D j # 6 = l F G F F D F G A p + 6 # = : = = O @ . . =   . @ @ 8 b v q 5 ",
"5 e z v t 6 6 6 5 # # # + o @ @ . @ X o o o ; k W W D j A g # 6 @ j G G F G G W A g , + 0 o X X 7 # 7 4 8 , @ @ @ .   : P P m 0 ",
"6 5 6 6 6 6 6 7 7 5 5 6 6 6 2 # X 7 $ o @ p k F ~ R F l p - # 6 $ : B G R G R G l s ; o + $ . . =   * * $ T %.' , @ . ; V P H 0 ",
"6 5 6 6 6 5 5 o = & o o 7 0 5 : < > % . > M G W ~ R R S B > X 6 # @ : B F F F A s h $ o = = - > - > @ . @ . = G O.( d z K L n 0 ",
"6 6 6 6 6 5 7 @ . > l g $ $ # $ p D D D A S R ~ ~ ~ R F B > + 6 2 $   g M A g > j , o $ = p g s s p , = @ @ @ @ ] ..H q v z q 2 ",
"6 5 6 6 2 6 + . s D G G D h $ # o g M R D R G ~ ~ ~ R G l , . 5 6 7 $ O > p $ = : $ + p g , s s s < s : & @ . p } ] t 6 6 6 3 5 ",
"3 5 6 6 q w o = l B G ~ G B k : 4 o p A R R F W W ~ ~ D l , $ 5 6 6 o $ $ . * @ + 4 $ j k g , p s s s , = & $ C ( K 6 5 6 6 6 2 ",
"6 6 6 z K V O > C G R W G A M g @ 7 : l G F G F G W W S l : + q z q 6 5 X $ o X # @ . s s < < s s s s - @ $ u p ; z z q 5 6 6 5 ",
"6 5 q m } E = k R G W ~ G G G M > $ @ h S B A A l k s > @ @ a Q ` E z 6 6 # o @ @ . : h h < s < s s = @ $ o $ . o ; N n w 5 6 5 ",
"6 5 w 9 C R > B R R G ~ ^ ^ ~ A @ $ $ : g $ $ ; $ ; . . $ 7 x = ; = u 7 6 $ . @ @ - g h h j g s s = @ o + o = . @ . u m q 6 6 5 ",
"3 5 # . = C - B R ~ ~ ^ ^ ~ G h . o . . # # 5 7 7 7 # # X 6 # = = =   $ 7 # @ O @ : g j j d s ; $ @ i $ @   . . > ; @ : q 5 6 5 ",
"6 5 7 # $ u $ i l A D A A B k : $ X X 4 0 6 7 6 6 6 6 0 5 7 o . = : o % $ 4 o @ @ @ : > = = @ $ s F d = . @   = l k = @ + 7 6 5 ",
"6 5 7 0 # 7 7 7 $ $ > : > : = $ $ 7 = > ; = $ # 6 6 7 6 6 5 @ @ $ @ @   @ @ o @ . . @ @ @ @ : h B , % . O . & = B B g = @ 7 6 5 ",
"6 5 6 6 6 6 6 6 6 0 8 e 7 7 5 5 7 > g l M k ; 7 3 6 # 7 6 6 X @ & @ @ = O @ . = . * . . @ $ $ : @ @ @ . = . . - B k j < @ + 5 2 ",
"6 5 6 0 6 6 6 7 7 a Q @...b 6 6 $ , h h A l : # 0 # & @ # 6 0 # & @ @ = @ o o . . @ . @ $ + $       @ - s - . - B g j j ; @ # 2 ",
"6 5 6 6 5 5 7 @ $ : B 7.2.@.z # ; p > = g g , $ # : : = . 4 6 o . = @ = @ @ o @ & . . @ o $ $ @ @ . = p p = @ : s < , : = $ 7 2 ",
"6 2 5 6 7 # @ @ - ,  .e.0.>.I # = , < : h k > u $ s B B p & 7 4   d , $ . @ + . . . .   . o o o $ @ @ @ = O . @ @ O . . @ o 5 2 ",
"6 5 6 5 # @ = > - - 9.w.' l x $ p M M s j h : a $ , l F M g o # . s B h : . X @ @ = @ @ = . O $ + + + + $ @ + o + + + 7 5 6 5 5 ",
"6 2 6 5 $ @ d s & F 9.^ - = 8 $ g h = @ > , i e @ = , l A k @ + = p B B d @ + . = , = . = , = * @ # 7 7 0 # X 4 5 5 6 6 6 5 5 5 ",
"3 5 6 5 # @ = @ ; #.' , l , X # > . @ # x c z 5 $ @ . : A k @ 4 . , B B h @ o o @ l s = . > :   @ + $ @ @ @ @ $ @ @ $ + 5 5 6 5 ",
"6 5 6 5 # @ @ . # x , k A - 4 4 o # 4 0 0 0 0 6 # $ . = A h . 4 @ i M j , = $ $ @ g k : @ @ . @ # $ @ . @ ; > ; = = = @ $ # 6 5 ",
"6 5 5 6 # $ $ 7 7 ; g A h $ 7 6 6 6 6 7 7 # # # 7 5 @ @ p > . 7 . ; > @ . . $ p @ = = @ @ .   . + . . = < h k d g s s > O $ q 6 ",
"6 3 6 6 7 # X # $ p M M p o 7 7 6 7 $ $ : , , $ + 7 # $ = & $ X @ @   $ # f N N $ . @ . . o @ $ # @   ; s j l l h h h g - $ m v ",
"6 5 6 6 7 o $ $ , g j , # # @ . o o   - k l k = @ $ 5 7 @ @ # 5 # + # 4 0 K P K $ # + # # # X X X @ . @ @ $ - , s , g s = = C I ",
"6 7 6 6 # @ . @ = $ $ 7 5 # @ o 7 @ = g k l B g = @ # 5 # 7 5 6 6 6 6 6 6 r v e $ @ @ @ @ $ $   # + 4 X $ @ @ O . = @ $ @ $ K b ",
"6 5 6 6 7 # # 4 7 7 5 7 7 7 . . # $ = g h k A l , @ @ 5 6 6 6 6 6 7 4 + + o 4 o @ @ = O = : ; = . $ 7 6 6 5 7 # + # $ + $ 7 q 0 ",
"6 5 6 6 6 5 7 $ @ $ = : $ + o $ 7 . . g h k k B < @ @ 6 6 6 4 # $ @ & .     X @ > g h s g l B k = . $ # 7 5 5 6 6 6 6 6 6 5 6 6 ",
"3 5 5 6 6 6 # @ s k M k h , $ o # # @ , h g , k j @ O 7 5 # $ @ @ ; , f = @ 7 7 , l A l k k l B d = . .   @ . o + # 7 5 6 6 6 6 ",
"6 5 6 6 6 6 7   h G G F S l , $ 6 7 @ @ d s < , - @ @ 5 7 . @ : h B B B : @ 7 4 : k A l g s p s s p : - - - = & . @ @ $ 7 6 6 5 ",
"6 5 6 6 6 6 # O d Z G G G F h $ 7 5 $ O : s , , . @ $ 7 $ . p B B B B B s . $ 5 $ h l , @ @ @   @ * @ = , g g g p : $ O @ 7 6 5 ",
"6 5 6 6 6 6 # @ p B S G G F l @ 7 5 X $ = , : = @ . a # $ > j B B B B B l @ @ # $ = = .   O @ O . @ . = . > g g j h s ; @ # 5 5 ",
"6 2 6 6 6 6 7 $ = k B A S S k = $ 7 7 X @ . . @ F B x @ @ g M B B C B B B : @ 7 8 9 @ $ $   O . = @ . . @ @ ; , s d j g = $ 7 5 ",
"6 5 6 6 6 6 5 + = @ = - : , : O $ 5 0 4 . ; a W ;.P z $ @ B B B B B B B s @ ; V ) ( K w # + o o .   = = O = @ = , < g g = $ 4 5 ",
"6 5 6 6 0 6 5 5 # $ . @ @ $ . O + 5 6 6 6 y z x b v q $ @ s : : - - - @ O @ c ] @.O.! V @ $ + 7 5 w a $ @ . . & = , p @ O # 5 5 ",
"6 2 6 6 6 6 6 6 6 6 7 7 5 # 5 5 6 6 7 7 $ $ $ @ ; $ 2 $ O . = . @ $ O $ $ # V { %.+.! a @ @ @ $ # 7 6 6 4 $ o @ @ O   @ i 5 5 2 ",
"6 7 6 6 6 7 o $ o $ X # 4 0 7 6 6 5 5 $ @ .   > h > o # $ o 7 7 7 7 X 7 5 6 V : h ! C @ = : = @ @ $ $ 4 6 5 T *. .[ } =.>.t 6 6 ",
"6 5 6 6 6 7 $   . = s p , @ . # 7 6 5 o = > @ s l h @ 3 6 6 6 4 # @ . $ 0 6 $   @ d N @ = < s , = . @ @ $ # L 3.0.q.q.8.1.t 6 5 ",
"3 6 6 0 6 6 #   ; B D A A , @ . # 7 6 # & = = > j p ; 5 6 5 7 o @ = .   # # @ $ @ @ f $ @ - , p s s : = . . = @ W 6.8.6.o.6 6 5 ",
"6 5 6 5 6 0 N ; = l G R G B h ; @ $ 5 # . @ @ = p j - 7 6 6 o . @ @ =   # $ @ O $ + 4 X O @ ; , g h g g p , = . @ C 2.&.y 6 6 5 ",
"6 5 6 6 6 t Y  .p = g A D B B l = = 4 # . @ @   , j > 2 5 + = . > g > & $ o + o o $ @ 4 # @ @ , s s h j k B p . @ # b q 6 6 5 2 ",
"3 5 6 6 6 r Y X.$.s @ = p k B C d @ + 7 @ @   = , , . 4 7 > g g d h d % + 5 o @ @ @ . $ 6 $ @ = < s s l B B : . @ 7 6 0 6 6 6 5 ",
"6 5 6 6 5 0 K Y Q Y i @ @ = h B B s @ 7 @ . @ @ = & + 4 = h S B k h d & + 7 @ = : g p - 7 7 $ . ; s g B B d & o 7 6 6 6 6 6 6 2 ",
"6 5 5 6 0 2 w N P P m 7 $ @ $ h B k ; 7 $ @   @ O @ 4 $ @ k B M j g , . # #   , B A M g $ 7 # @ @ @ s s , O $ # 0 6 6 6 6 6 5 3 ",
"6 5 6 5 # + . . 8 8 6 6 7 $ @ @ , s - 7 # @ @   = + 4 O ; k j j j d , @ # o : A F D A M , 8 3 5 + . @ =   $ X 6 6 6 6 6 6 6 6 5 ",
"6 6 # $ = : g g = o o w t e 8 @ = @ @ 4 5 @   . $ 7 o . < h j j g h =   X $ g D F B S A j > 7 5 5 # $ # # # 7 7 6 6 5 6 6 6 6 2 ",
"6 4 o O s l ~ ~ M = . ; m K m 7 + $ $ 6 5 +   O # 7 @ = s h d k g g @   5 $ g D F k : , g : $ # 6 5 7 # o @ 7 5 6 6 6 6 5 6 6 5 ",
"5 # @ $ l M ~ S M k = @ N Y U y 2 7 7 6 6 7 $ $ 7 $ . , h h h h j g . o 0 # p M j = @ @ ; + # o # 6 # @ . . $ 2 6 0 q t q 6 3 5 ",
"7 o   g l h A B j M p @ d Y P t 6 6 6 6 0 6 7 7 + @ @ s s s s g k < % # 7 + ; > = . u u ; o O @ . # X o @ @ @ # q K ) { _ V 0 6 ",
"5   . g l g A A j j k = i I b 0 6 6 6 6 6 6 6 6 + @ . > , s s s j : & 7 $ o X X X $ @ @ @ ; = O @ @ @ + # # @ $ V ] +.=.=.{ V 5 ",
"5 . & - p g k k s j k & $ w 6 6 0 6 6 6 6 6 6 6 7 @ O   @ : , s < = @ 4 @ @ . o @ . @ : j k j , @ @ . @ @ $ # 7 K | ,.5.4.$.Y 6 ",
"5 . % & < g s s g j s . + 6 6 6 6 6 6 6 0 6 6 6 5 # @ @ @ @ = @ @ . + 2 $ @ = = , g B D D M , $ @ . O @ O $ 7 7 P +.<.5.5.$.Y 6 ",
"5 # @   ; = : s k k $ $ 7 6 6 6 6 6 6 5 w t w 6 5 7 @ $ . O .   @ @ 5 6 7 @ ; > s s j g , @ . . & . . $ # 5 5 6 V { =.:.-.} V 6 ",
"5 5 + O @ @ O @ : = O # 6 6 6 6 5 6 6 0 b m y 6 7 5 7 7 $ @ @ @ $ 5 5 6 7 + @ . . @ . . @ $ o + # 7 7 7 6 6 5 5 0 J _ } _ P 0 5 ",
"6 5 5 +     . .     . # 3 6 6 6 6 6 6 7 K K z 6 5 5 6 5 5 5 # # 5 5 6 5 6 5 4 X X # X # # 7 2 6 6 6 6 6 6 6 6 5 6 6 q z t 5 6 6 ",
"5 5 5 5 X o . $ o # 2 5 6 6 5 5 6 6 6 0 z m e 5 6 5 6 5 2 6 6 5 3 6 6 5 5 5 5 3 5 5 5 6 2 6 5 6 2 6 5 5 5 5 6 6 6 6 6 6 6 6 6 6 "
};
