/* XPM */
static char *result[] = {
/* columns rows colors chars-per-pixel */
"64 64 93 2 ",
"   c #53575E",
".  c #54585E",
"X  c #575B62",
"o  c #5B5D65",
"O  c #5C5F68",
"+  c #5D6067",
"@  c #5E6269",
"#  c #62656D",
"$  c #63686E",
"%  c #636770",
"&  c #666A72",
"*  c #6A6D76",
"=  c #6B6F78",
"-  c #697077",
";  c #6E727B",
":  c #71757D",
">  c #73787F",
",  c #727781",
"<  c #757A83",
"1  c #797E86",
"2  c #797F89",
"3  c #7C8187",
"4  c #778089",
"5  c #7D838B",
"6  c #7E8690",
"7  c #81868E",
"8  c #81888F",
"9  c #818791",
"0  c #858C94",
"q  c #898E97",
"w  c #878E98",
"e  c #898F98",
"r  c #879099",
"t  c #8D959E",
"y  c #8F989F",
"u  c #91969E",
"i  c #8E97A0",
"p  c #8F98A1",
"a  c #9197A1",
"s  c #919AA3",
"d  c #989EA6",
"f  c #969EA8",
"g  c #9A9FA8",
"h  c #97A0AA",
"j  c #9AA2AC",
"k  c #9EA6B1",
"l  c #9FA8B2",
"z  c #A1A6AD",
"x  c #A1A8AF",
"c  c #A3ACB5",
"v  c #A5AEB8",
"b  c #AAB1B7",
"n  c #A7B1BA",
"m  c #AAB3BD",
"M  c #B1B7BF",
"N  c #B2B9BF",
"B  c #ADB6C1",
"V  c #AFB9C3",
"C  c #B2B7C0",
"Z  c #B1BBC5",
"A  c #B8BEC6",
"S  c #B5BEC8",
"D  c #BBBFC8",
"F  c #BAC0C7",
"G  c #B6C1CB",
"H  c #BAC3CD",
"J  c #BDC6D1",
"K  c #BFC8D2",
"L  c #C0C7CF",
"P  c #C4CBD4",
"I  c #C8CED6",
"U  c #C6CFD8",
"Y  c #CACFD9",
"T  c #C7D0D9",
"R  c #CCD4DC",
"E  c #D0D4DD",
"W  c #CED7E0",
"Q  c #CED8E0",
"!  c #D3DBE4",
"~  c #D9DEE5",
"^  c #D9DFE9",
"/  c #DBE0E7",
"(  c #D7E0E9",
")  c #DDE4ED",
"_  c #DFE8EF",
"`  c #DFE6F1",
"'  c #DFE8F1",
"]  c #E0E7EF",
"[  c #E2E9EF",
"{  c #E1E7F0",
"}  c #E3EAF2",
"|  c #E8EEF6",
" . c #ECF3F7",
/* pixels */
"Z Z Z V Z Z Z s O O o + o + . 7 ~ ) ] ) ] ] ) _ ) _ _ _ ` ` ` ) J V S B , o + + e s s p p i a s , o O O z } ` ) { ` ` ` W S Z J ",
"B m B B B B Z i O o o o o o . 7 E ) / ) ) ) ) ) ) ) ) ) ) ) ) ( G V B v ; X o O 0 t i t i i t a = X O O z ) ) ) / ) ) ) T Z B G ",
"B V B V V V Z s O o o + o + . 7 / ) ` ' ) ) _ ) ] _ ) ) ' ) ` ) J V Z B , o o @ r s p p i a t s : X O @ c ) _ ] ) ` ) ` W S V G ",
"v m n v m n m e O O o & 3 3 3 u R ! ! Q E ( ! ! ! ! ! ! ! ! ! Q V n m v < & & = 5 6 0 6 9 9 0 9 1 1 1 2 M ! ! ! ! ! ! ! P Z V J ",
"i p p s s s s 5 @ o o 0 E / ~ E S S S S S G Z G S S G S S S G V h s p p i i t r & @ @ + + + + o b ] ! ~ I Z G S Z S S S S Z V G ",
"i i i i i i s 2 + o o q [ [ } ! S Z B Z B V Z V Z Z V V V V V B h p i i i p p i % o + o o O O X N | ) ] I Z Z Z Z Z V V V V V H ",
"i i i p p p p 5 + o o 0 ) ) ] ! Z Z V Z Z V Z Z S S S S S S S B h p p p p p p i % o o X o o o . N  .[ } T B Z Z Z S Z Z Z Z V J ",
"i i p i w w w < + + o q ) ] ] ! G Z Z Z Z Z Z V n n n n n n n v h i p p p p i i ; - - - % + $ + z D A A Z Z Z Z m n n n m n v V ",
"i p s 9 : = : & + + o q / ] ] ! S V Z Z Z V V B s p p s p s s s t i p p p p t s t i y t 2 ; = : * + + # r Z Z Z l p p s p p p h ",
"i p s 0 = : : & + o o q ) ) ) ! G V V Z S V V m h s s s s p s t t p p i p t p p s p t t 2 ; ; : # . + # r S B Z l t p p s s i f ",
"i i s 9 ; ; : & o o o q ) { ] ! S V Z V Z V S m s p p p p p p y p p i p p p s s i p p t 2 ; ; = # + X + r A Z Z l t p p i p p f ",
"w e t 5 * * = % + # + q ~ ~ / Y V m B B B m m n s p p p p p p p p i i p p y y t r 0 r 0 < ; ; ; # O # # 0 c c c h y s p p p p s ",
", , , = O O O # = = = w D S S B h s s s s s s s p p p p p y p p p p p p p p s t - @ $ $ & ; ; , ; * * ; * & & # 3 s s y p p p f ",
"= ; , & o o o # = , = w C Z Z v p y p i p p y y p p p p p y p p i i p y p p t t % o o O & ; ; ; : ; : ; # X o X 1 s t y p p t f ",
"= ; ; & O o o # = : = e S S S B d p p p p p p p p p p p y s y s p p p p p s s u % + O + * , = ; ; ; : * % O + o 1 d y s y y p h ",
"= = = & @ O # & = : = 9 c v n j w w w r p p p p p p p p q w 0 0 w q 0 q 0 0 q 0 & @ + @ * = ; ; : ; : ; & @ + + , w 0 w w w 0 t ",
"# O O % = = = = = = : , 3 2 2 , & % # , e s i i p p p w - @ $ # $ $ $ $ $ $ # # * * = = ; ; ; ; ; ; ; : = * ; * * $ # # # # # & ",
"o o o # : : = : : : ; = ; ; = * o o o & i a i i p t s w $ X o O . # . o o o o O = : ; ; ; ; ; ; : = : = : ; ; : $ o @ o o o o + ",
"O O o # : = : : ; : : ; ; = : * # o O & r i s i s t a q $ o o O # . . o o o O o * = : ; ; ; ; ; : = = : ; ; ; : % X + o + . o # ",
"O O O = 2 7 7 2 3 7 3 3 2 2 2 : @ @ @ & q e w w r q r 9 % + + + + # # + + # O # 1 5 5 5 5 8 5 5 2 1 1 < , = * ; # O @ @ # O o # ",
"* ; & u E E E Y R R E H m v n f : * * & $ # $ $ # & $ & * * * * * * * * * * * : D R Y E R R R R S v n c 7 O O O % = * * & & = : ",
"; : * d | { { { { { } ! S Z S k > : ; * O o o o o X o O * : ; : ; : ; > ; : : , Y } ] ] } ' ] } P Z Z Z 9 X o o & : : = : : : > ",
"= ; & s { ) ] ] ) ) ` W Z Z S x : ; ; * + o o o o O O O ; : ; ; : : * ; ; = = , Y ) ) ] ) ) ) ' L B V Z 9 X o o % : ; : ; ; = : ",
"< 1 : j ` ) / ) ) ^ ` T B V Z z 1 : < : + o + O O + + # * * - ; > > 3 > 2 < < 3 P ) ) ^ ) ( ) ) P Z Z V q # # # & = ; = : < < 7 ",
"P I I I H J H H H J J V f f f f c c c d : * * * * * * * # # + & M I P P P P I I P J J H G J H J S V Z S v k j c 3 O # # 8 L P E ",
"^ { { W V Z Z Z V Z Z l a i a j B Z Z c , : ; ; ; ; ; * + + . * P ] ] ] ] ] ] ] G V V S Z Z S V Z Z V V V V Z A 0 X o X u ] ] | ",
"] ^ } W Z Z V Z V V Z B s p s h Z Z B c < = ; : : * ; * + o O & I ] ] ] ) ) ) / H Z Z Z Z V Z Z V Z Z Z Z V Z A 9 X O O u ] ] | ",
"^ ^ { Y V Z Z V V B V l p p i j b m m j , ; ; ; - : ; - * & $ : L ~ ~ ) / ) ) ! G Z Z Z V V B B V B B V V n m m 8 % * & d ~ ^ } ",
"H L J D Z V Z B h k j f i i p e < < > > ; ; ; * # $ # * b A Z F J K K K P K K K S V Z Z l j j j k h h h w > < : d F A G F L H T ",
"V Z B Z Z V Z c i i i i i i s 6 + X X o ; ; ; * O o o = E | | ' J V V V B V B V Z Z Z V h t t t i t i i > . X   k  .} } E Z B H ",
"Z Z Z Z V V S v p p i i s i p 9 + o O # * : ; * O + o : Y [ ] / G S V V S S Z Z S Z Z V l p p i a s i i : o + o k [ ( _ R S Z H ",
"B Z B Z Z Z Z c i p p i i i p 6 $ + o # ; ; ; * # + + : Y [ ] ) G V S V V V V V V V V B j t p s t a t t > O + . j | ) ) R Z B G ",
"h j h j h j j f p p p 0 = = * * & & * & # # # : m A A G K K K K S Z Z B l h j j h j j h f i p s < - & - * * & % r M b v c h j c ",
"p p p p p i p s p p p 5 O o X # ; : : * o # . > E ) ) ( G V S V S V Z B j p p p i p i i i p s t ; o o + % ; ; ; 9 s i a t s i s ",
"i p p t p p t t i p a 3 o O o # * : : & + O X > E _ ) ( G V S V S V S B h i p p p s i p i t t s ; o + + % , ; = 5 a i t y t i f ",
"i p p p y p y y i p s 3 O o X # : * : * O o X > R _ ` ( H V V V V V S B h i p p p p t p p a p s ; X O + & ; ; ; 9 s s s y p i f ",
"i p p 0 : : > > ; ; ; ; % & & & : : = ; * & $ 1 F P U K v j l j k j l l s p i i i p i p 5 ; ; : & & & & = ; = = ; , , ; 5 y t f ",
"i i p 5 . o X X o o o % ; ; : : * ; - : ; : ; 1 m B Z m s t p p p p t p i p p p i i p t ; X o o & , ; ; ; ; , ; $ X X o ; t p f ",
"i p s 5 . + O O O o o @ ; ; ; ; = : : = ; ; ; 4 n V Z m s p p y p p p p p p p p p i a t ; o O o & ; = , ; = ; ; % + + o ; t i f ",
"i p f 3 o o o + o o o % = ; = ; ; : * : ; ; - 5 m G V M d t p y p p p t p p p t a s p r ; o o o & , ; ; , = ; , $ X + o , p i f ",
"; ; ; - & & & & & * $ 5 Z M C m d s d t , ; ; ; 7 2 7 8 r s i s p p p p p p p t 1 ; : : = & & & = ; , = ; ; ; ; & & & & ; ; ; < ",
"o o X $ ; ; : : : ; = d ) ] } Q G S Z v , ; ; - O X o # e s t s p p p p p s s t & X o O & = ; ; ; = ; ; ; ; : ; ; ; - ; & + o + ",
"o o X % ; ; ; ; ; : ; d ~ ) ] ! A V V c , ; ; - O O O # q s u y p p p p t y t t # o O o * : : = ; , , ; : ; ; ; ; ; ; , & X + + ",
"o o o @ ; ; ; ; * ; * s ] ] } ! S Z Z v , ; ; = O o o # e s s y p p p p s s s u & o o O & : = : ; = - - ; ; ; ; ; ; ; ; @ + + + ",
"o o o $ ; ; ; 8 c c c N T U W K Z Z V B s i i q * % % * > < > < < < < < < < < < & # % % = : = = a v x c j t t t i t t t r < , 4 ",
"o o o @ ; ; = d ) ` } E Z V V Z Z V Z Z Z S S c 1 ; : = + o o o o + o o o O X o = : : : ; : : * D | ] } T Z S S Z A S S n p y h ",
"o o o $ ; : - j ^ ` ` W Z Z Z Z Z Z Z Z Z Z Z c < ; - - @ + O o o o o o o o o O = : : = ; ; : = A { ] ) U V V V V Z Z V c y y h ",
"o o o @ * = * s ) ' { W Z Z Z Z Z Z Z Z S Z S v < ; : * o o o + o o o o o O O O * * * * * = = * A | ) ] T V Z S V S Z Z n s s s ",
"X + X ; j g g M Y T E U Z Z S V l n v l n v v k 6 4 5 4 , ; > ; & % # # # % # & u d j j g d g g D W R W J V Z Z B l v v f 6 6 w ",
"o o . w ] / ) E S S Z Z B Z S v f p p p p p p p i i i i y t y r < - * ; = = : > I ) ) / ) ) ) ) P Z Z Z Z Z Z Z l p s s 6 , , < ",
"o + . r } ] } R S Z Z Z Z V Z v f p i p p p p p p p i i p p y t > : : ; : : ; > I ] ) ) ) ] ) ` P V Z V Z V Z S l i i i 6 = , , ",
"o o   r } ) ) W Z S Z Z Z Z Z B p p p p p p p p i i p i t p p t < : : ; ; * ; : Y ] ) { { ] ` ` P Z Z Z Z Z Z Z l i s i 6 , = , ",
"$ # o u } ) } E Z Z Z V v c v k p p p p p s p p p i i i s i s t : & & * r j d j I E R R W W W W Z c v v l v v v s 9 0 9 2 % & = ",
"; : * d { ) ] W Z V Z v p p i p p p p p p p s p p p p p p p p t $ o + % F | ) ) H Z Z Z Z Z V V h i i p p p i s 2 = ; ; & O o @ ",
"; : & s } ] ] E Z Z Z v i p i i p p p p p p p p i p p i i i p r & o + $ F } ) _ H B V G Z Z Z Z k t i i p p i s 9 = ; ; & O o O ",
"* : * s } } } W S S Z v p p p i p p p p p p p p i p p s s s s t & o + $ F } _ _ H Z V Z S Z Z Z k i i i p s s s 9 = ; ; & o o O ",
"= ; * q A C A N v v v k p p p i p p p p p p p p p a i a w w q 8 & o o % N ! W E G Z Z Z B v v v f i i a e 0 0 q < % * & & # # % ",
"; : : - $ $ @ , p f s p p p p i p p p s s p s p p s a t , ; : ; # o o # z A Z S Z Z Z Z k p f s i i s i 7 , ; , % o o @ % ; * : ",
"= : : * O + o ; e p p i i i i p p p p p p p p p i p i r > - = ; + o + # j S Z Z Z Z V Z j i p p s s t i 2 , : ; % @ o o # ; ; < ",
"= = ; & + o X : i p s s s s p p p s p p p s p s p p s r < ; : ; # o + # j Z Z S V Z Z Z k i p i i s a a 7 ; = : % X o o # ; = : ",
"2 2 2 , + @ + : e r w r w w 0 w 6 r r 6 r 0 w 0 w 0 w 6 : * = * # + # $ t v c c m B v v j p p s e w e e 3 * = * : > > : 1 7 7 q ",
"C B S f - ; ; ; ; ; : * + + + + @ @ @ @ @ @ + + @ + @ @ O o O + : * : * % + O $ w p f p i p p p 2 , , , & + O X z ] / / / / / } ",
"V B S d - ; ; ; ; : ; & o o o o o o o o X o o o o o + o o o o O & : * = # X X O 0 p i i i i i i < = = , % o o . z | ] ] ] ] ]  .",
"S S H j ; : : : : : , & o + + + + + + + + + + + + + + + + + o # * : : ; $ O o $ w p i f s s s f 2 , = , & + @ o z  .} } } } [  ."
};
